<svg width="198" height="40" viewBox="0 0 198 40" fill="none" xmlns="http://www.w3.org/2000/svg">
<g clip-path="url(#clip0_203_4)">
<path fill-rule="evenodd" clip-rule="evenodd" d="M16.2893 13.0579C16.2966 11.9395 16.0054 10.8394 15.4455 9.87081C14.8857 8.90224 14.0775 8.10023 13.1042 7.54736L0 0V4.62368L11.1019 11.0237C11.4588 11.2326 11.7547 11.5311 11.9604 11.8895C12.166 12.248 12.2742 12.6539 12.2742 13.0671C12.2742 13.4803 12.166 13.8862 11.9604 14.2447C11.7547 14.6031 11.4588 14.9016 11.1019 15.1105L0 21.5132V26.1368L13.1042 18.5789C14.0791 18.0252 14.8882 17.2215 15.4482 16.2509C16.0081 15.2804 16.2985 14.1781 16.2893 13.0579ZM9.76867 26.9424C9.76193 28.0607 10.0534 29.1606 10.6132 30.1291C11.173 31.0976 11.9809 31.8997 12.9538 32.453L26.058 40.0003V35.3872L14.9587 28.9845C14.6025 28.7755 14.3071 28.4771 14.1018 28.1189C13.8966 27.7607 13.7886 27.3552 13.7886 26.9424C13.7886 26.5297 13.8966 26.1242 14.1018 25.766C14.3071 25.4078 14.6025 25.1094 14.9587 24.9003L26.058 18.4977V13.874L12.9538 21.4319C11.9809 21.9852 11.173 22.7873 10.6132 23.7558C10.0534 24.7243 9.76193 25.8242 9.76867 26.9424ZM41.3516 10.2637H47.5822C52.9066 10.2637 57.4328 13.4452 57.4328 19.8584C57.4328 26.2716 52.9066 29.4505 47.5822 29.4505H41.3516V10.2637ZM44.974 26.2979H47.2793V26.2874C50.6014 26.2874 53.7576 24.5926 53.7576 19.8479C53.7576 15.1031 50.6014 13.3768 47.2793 13.3768H44.974V26.2979ZM66.1189 15.4053C61.9037 15.4053 58.874 18.4211 58.874 22.5316C58.874 26.6421 61.8931 29.6605 66.1189 29.6605C70.3447 29.6605 73.3376 26.6447 73.3376 22.5316C73.3376 18.4184 70.3184 15.4053 66.1189 15.4053ZM66.1189 26.7526C63.8137 26.7526 62.2778 25.0263 62.2778 22.5421C62.2778 20.0579 63.8137 18.3316 66.1189 18.3316C68.4242 18.3316 69.9338 20.0579 69.9338 22.5421C69.9338 25.0263 68.3978 26.7526 66.1189 26.7526ZM81.3647 26.6659C83.259 26.6659 84.5762 25.187 84.5762 23.158V15.6133H87.9511V29.4291H84.5762V27.2922C83.8096 28.8106 82.2447 29.6606 80.2688 29.6606C77.1389 29.6606 75.1104 27.4106 75.1104 24.1764V15.6238H78.4852V23.458C78.4852 25.3501 79.6365 26.6659 81.3647 26.6659ZM98.0993 15.4048C96.2894 15.4048 94.8352 16.1732 94.0395 17.2969V9.70215H90.6963V29.439H94.0448V27.7127C94.8352 28.9179 96.3764 29.66 98.0519 29.66C102.193 29.66 104.638 26.7653 104.638 22.5311C104.638 18.2969 102.188 15.4048 98.0993 15.4048ZM97.5461 26.7521C95.2962 26.7521 93.813 25.0811 93.813 22.5416C93.813 20.0021 95.2962 18.3311 97.5461 18.3311C99.796 18.3311 101.279 20.0048 101.279 22.5416C101.279 25.0785 99.8013 26.7521 97.5461 26.7521ZM106.696 9.70215H110.045V29.439H106.696V9.70215ZM119.067 26.8632C116.928 26.8632 115.5 25.4368 115.255 23.2184H125.472C125.51 22.8354 125.528 22.4507 125.527 22.0658C125.527 18.7763 123.443 15.4053 118.804 15.4053C114.278 15.4053 112.025 18.8263 112.025 22.4763C112.025 26.1263 114.552 29.6605 119.078 29.6605C122.482 29.6605 125.061 27.7684 125.583 24.8342H122.29C121.923 26.15 120.798 26.8632 119.067 26.8632ZM118.804 17.9158C120.809 17.9158 122.016 19.2316 122.153 20.9868H115.337C115.693 18.9132 116.903 17.9158 118.795 17.9158H118.804ZM141.477 16.7207C141.203 14.6102 139.172 13.1576 136.592 13.1576C133.244 13.1576 130.71 15.4891 130.71 19.847C130.71 24.2049 133.233 26.5076 136.582 26.5076C139.216 26.5076 141.258 25.0549 141.588 22.9707H145.21C144.825 26.9444 141.314 29.6602 136.592 29.6602C131.489 29.6602 127.071 26.3734 127.071 19.847C127.071 13.3207 131.571 10.0312 136.592 10.0312C141.232 10.0312 144.738 12.747 145.265 16.7207H141.477ZM150.756 9.70215H147.407V29.439H150.756V9.70215ZM152.74 22.5316C152.74 18.4211 155.77 15.4053 159.985 15.4053C164.174 15.4053 167.201 18.4184 167.201 22.5316C167.201 26.6447 164.211 29.6605 159.985 29.6605C155.759 29.6605 152.74 26.6421 152.74 22.5316ZM156.144 22.5421C156.144 25.0263 157.68 26.7526 159.985 26.7526C162.251 26.7526 163.8 25.0263 163.8 22.5421C163.8 20.0579 162.29 18.3316 159.985 18.3316C157.68 18.3316 156.144 20.0579 156.144 22.5421ZM178.426 23.158C178.426 25.187 177.109 26.6659 175.215 26.6659C173.486 26.6659 172.335 25.3501 172.335 23.458V15.6238H168.963V24.1764C168.963 27.4106 170.994 29.6606 174.124 29.6606C176.1 29.6606 177.662 28.8106 178.431 27.2922V29.4291H181.806V15.6133H178.426V23.158ZM194.379 17.2969V9.70215H197.727V29.439H194.379V27.7127C193.583 28.9179 192.047 29.66 190.372 29.66C186.227 29.66 183.785 26.7627 183.785 22.5311C183.785 18.2995 186.227 15.4048 190.316 15.4048C192.129 15.4048 193.588 16.1732 194.379 17.2969ZM187.134 22.5416C187.134 25.0811 188.614 26.7521 190.867 26.7521C193.117 26.7521 194.597 25.0785 194.597 22.5416C194.597 20.0048 193.119 18.3311 190.867 18.3311C188.614 18.3311 187.134 20.0021 187.134 22.5416Z" fill="white"/>
</g>
<defs>
<clipPath id="clip0_203_4">
<rect width="198" height="40" fill="white"/>
</clipPath>
</defs>
</svg>
