<svg width="32" height="32" viewBox="0 0 32 32" fill="none" xmlns="http://www.w3.org/2000/svg">
<path fill-rule="evenodd" clip-rule="evenodd" d="M18.4 6.4H13.85C13.7119 6.4 13.6 6.51193 13.6 6.65V23.2V25.35C13.6 25.4881 13.7119 25.6 13.85 25.6H18.4V6.4ZM13.6 4C12.2745 4 11.2 5.07452 11.2 6.4V23.2V25.6C11.2 26.9255 12.2745 28 13.6 28H20.8V4H13.6ZM9.99995 20.8V23.2L7.59995 23.2C6.27447 23.2 5.19995 22.1255 5.19995 20.8V11.2C5.19995 9.87452 6.27447 8.8 7.59995 8.8L9.99995 8.8V11.2H7.84995C7.71188 11.2 7.59995 11.3119 7.59995 11.45V20.55C7.59995 20.6881 7.71188 20.8 7.84995 20.8H9.99995ZM24.4 20.8H22V23.2L26.8 23.2V8.8H22V11.2H24.4V20.8Z" fill="#03CEA4"/>
</svg>
