<svg width="180" height="48" viewBox="0 0 180 48" fill="none" xmlns="http://www.w3.org/2000/svg">
<mask id="mask0_1035_11668" style="mask-type:luminance" maskUnits="userSpaceOnUse" x="0" y="11" width="149" height="27">
<path d="M149 11L0 11L-2.45539e-07 37.6489L149 37.6489L149 11Z" fill="white"/>
</mask>
<g mask="url(#mask0_1035_11668)">
<path d="M8.75101 11.506L3.10901 11.506L3.03601 28.03L-2.36529e-07 37.177L5.71201 37.177L8.604 28.463L19.669 11.506L13.269 11.506L9.617 18.232C8.93 19.46 8.38601 20.583 8.20801 21.016C8.28101 20.546 8.38899 19.1 8.45999 17.906L8.74899 11.506L8.75101 11.506Z" fill="white"/>
<path d="M7.99499 37.177L13.817 37.177L15.987 32.548L20.579 32.548L19.784 37.177L25.279 37.177L29.002 11.506L21.301 11.506L7.99499 37.177ZM21.445 27.704L18.299 27.704L22.167 19.46C22.781 18.195 23.251 17.038 23.432 16.602C23.358 17.072 23.07 18.484 22.852 19.675L21.443 27.702L21.445 27.704Z" fill="white"/>
<path d="M40.5645 11.506L34.3455 11.506L25.8125 37.177L31.0545 37.177L35.4655 23.763C35.9355 22.425 36.2605 21.231 36.4055 20.798C36.3685 21.268 36.2245 22.714 36.1535 23.907L35.3585 37.177L41.4325 37.177L49.9635 11.506L44.7205 11.506L40.5275 24.269C40.0575 25.608 39.7325 26.801 39.5875 27.234C39.6245 26.765 39.7325 25.319 39.8055 24.125L40.5645 11.506Z" fill="white"/>
<path d="M56.2814 27.489L56.1734 27.814C55.3784 30.236 54.0774 32.949 52.4844 32.949C50.6764 32.949 51.3644 28.646 52.8834 24.017C55.0164 17.51 56.3184 15.665 57.8004 15.665C58.6324 15.665 59.1754 16.497 59.3564 19.425L64.4544 17.725C64.2374 14.002 62.4664 11 58.3434 11C53.6074 11 49.8474 15.014 47.2074 23.076C44.7854 30.488 45.0034 37.358 50.0994 37.358C51.8704 37.358 53.1014 36.67 54.3654 35.117L54.0034 37.177L58.0894 37.177L62.9334 22.643L55.1244 22.643L53.5344 27.487L56.2814 27.487L56.2814 27.489Z" fill="white"/>
<path d="M68.4283 37.649C72.8753 37.649 76.7803 33.671 79.3833 25.608C81.8073 18.195 81.7713 11.037 74.7913 11.037C70.3433 11.037 66.4393 15.014 63.8363 23.078C61.4143 30.491 61.4513 37.649 68.4283 37.649ZM69.0053 33.057C66.8353 33.057 68.1003 28.284 69.5123 24.017C71.6453 17.4 72.9833 15.629 74.2113 15.629C76.3453 15.629 75.1163 20.328 73.7053 24.668C71.5723 31.286 70.2333 33.057 69.0053 33.057Z" fill="white"/>
<path d="M88.642 11.506L87.052 16.35L91.571 16.35L84.628 37.177L90.34 37.177L97.283 16.35L101.875 16.35L103.465 11.506L88.64 11.506L88.642 11.506Z" fill="white"/>
<path d="M104.54 11.506L96.007 37.177L108.481 37.177L110.072 32.333L103.31 32.333L105.335 26.295L111.41 26.295L113.037 21.451L106.962 21.451L108.662 16.353L115.28 16.353L116.87 11.509L104.54 11.509L104.54 11.506Z" fill="white"/>
<path d="M118.249 37.612C122.335 37.612 125.011 34.3581 126.565 31.3201L122.298 29.2941C120.708 32.0781 119.876 32.91 118.864 32.91C116.911 32.91 117.814 28.644 119.37 24.015C121.43 17.867 122.697 15.6631 124.216 15.6631C125.266 15.6631 125.625 17.1091 125.806 19.2791L130.724 17.507C130.616 13.639 128.879 11.0341 124.794 11.0341C120.128 11.0341 116.334 15.012 113.694 23.075C111.272 30.488 111.343 37.61 118.249 37.61L118.249 37.612Z" fill="white"/>
<path d="M143.287 11.506L140.105 21.123L136.271 21.123L139.454 11.506L133.742 11.506L125.208 37.177L130.921 37.177L134.61 26.112L138.443 26.112L134.754 37.177L140.467 37.177L149 11.506L143.287 11.506Z" fill="white"/>
</g>
</svg>
