<svg width="166" height="38" viewBox="0 0 166 38" fill="none" xmlns="http://www.w3.org/2000/svg">
<path d="M3.60599 12.5935V26.8192H0.506181V13.9141C0.506181 13.4305 0.452367 13.2046 0 13.2046V10.5352H1.53878C2.99055 10.5352 3.60558 11.1459 3.60558 12.5935H3.60599ZM0.506181 7.18827H3.60558V4.09863H0.506181V7.18827ZM16.5879 10.1492C13.0381 10.1492 11.1008 12.4673 10.4562 13.8822H10.3915C10.3915 13.8822 10.4562 13.4615 10.4562 12.9493V12.3362C10.4562 11.1459 9.77485 10.5352 8.39105 10.5352H6.91296V13.205C7.36533 13.205 7.4248 13.4305 7.4248 13.9141V26.8187H10.5525V19.1902C10.5525 18.3864 10.6157 17.6475 10.8418 17.0029C11.4872 14.653 13.4881 13.0114 16.0064 13.0114C17.3882 13.0114 18.1638 13.5132 18.5887 14.3231C18.9722 15.0467 19.0751 16.0191 19.0751 17.1001V26.8184H22.2056V16.391C22.2056 12.2406 20.4633 10.1488 16.5874 10.1488L16.5879 10.1492Z" fill="white"/>
<path d="M85.153 12.5935V26.8192H82.0536V13.9141C82.0536 13.4305 81.9998 13.2046 81.5475 13.2046V10.5352H83.0863C84.5375 10.5352 85.153 11.1459 85.153 12.5935ZM82.0536 7.18867H85.153V4.09863H82.0536V7.18827V7.18867ZM55.0609 18.6223V19.5395H42.9834C42.9834 22.7288 44.9681 24.4249 47.7716 24.4249C49.8364 24.4249 51.2777 23.8275 52.5186 22.1532L52.5487 22.115L54.5361 23.7614L54.5017 23.8093C52.8128 26.129 50.7266 27.162 47.7441 27.162C43.2071 27.162 39.8269 23.6645 39.8269 18.6574C39.8269 13.6503 43.3204 10.1492 47.8397 10.1492C52.3589 10.1492 55.0605 13.3954 55.0605 18.6219L55.0609 18.6223ZM51.9672 16.8266L51.9615 16.729C51.8042 14.0673 49.7992 12.7423 47.7441 12.7423C45.6891 12.7423 43.5224 14.0645 43.138 16.723L43.1258 16.8266H51.9672ZM93.173 20.5116V13.0461H96.8595V10.5352H93.173V6.15852H90.1085V10.5352H87.4634V13.0461H90.043V20.8637C90.043 26.3017 94.2044 26.9467 96.27 26.9467C96.9505 26.9467 97.3661 26.8825 97.3661 26.8825V24.1135C97.3661 24.1135 97.0773 24.1789 96.6277 24.1789C95.4312 24.1789 93.1735 23.7606 93.1735 20.5111L93.173 20.5116ZM113.422 10.5356C112.097 10.5356 111.516 10.8886 111.033 12.1769L107.093 23.31H107.031L102.736 12.1769C102.222 10.8886 101.738 10.5356 100.415 10.5356H99.1699V13.205C99.687 13.205 99.768 13.3353 99.9954 13.8503L105.571 26.7409L105.561 26.7667L105.551 26.7723C105.535 26.8146 105.52 26.8542 105.505 26.8945L104.994 28.0534C104.017 30.2674 103.374 31.2867 101.187 31.3C100.731 31.3027 99.1704 31.3 99.1704 31.3V34H102.01C103.74 34 105.791 33.2892 107.21 30.0741C107.486 29.4538 107.991 28.272 108.53 26.9792C109.207 25.3594 109.938 23.5653 110.345 22.4868L110.325 22.5046L113.842 13.8499C114.067 13.3349 114.181 13.2046 114.697 13.2046V10.5352H113.423L113.422 10.5356ZM34.2375 16.4071C36.0825 15.3181 37.2268 13.1989 37.2268 10.7607C37.2268 7.76787 35.7095 5.48292 33.385 4.61411C32.5138 4.29224 31.5123 4.09904 29.1235 4.09904H26.1855V6.8668H29.0267C30.8027 6.8668 31.5452 7.05961 32.1586 7.38147C33.321 8.0248 33.9664 9.2159 33.9664 10.8894C33.9664 13.4317 32.4167 15.0087 29.9311 15.0087H26.1855V17.7761H29.1976C30.006 17.7761 30.5102 18.3186 30.6797 18.6368L34.583 25.9757C34.7335 26.2589 35.2369 26.8192 36.0551 26.8192H38.6474L33.805 18.0016C33.557 17.5724 33.5804 16.8182 34.2378 16.4071H34.2375ZM70.6717 16.5217V26.8192H67.7353V25.2776C67.7353 25.0993 67.7377 24.9291 67.7429 24.7661C67.7483 24.6036 67.7559 24.4644 67.7668 24.3495C67.777 24.2128 67.7879 24.0926 67.7985 23.9872H67.7341C67.7341 23.9872 66.4405 27.2048 62.5343 27.2048C59.7279 27.2048 56.9845 25.4977 56.9845 22.2493C56.9845 17.0037 64.0868 16.6806 66.8318 16.6806H67.5402V16.5217C67.5402 13.6575 66.4721 12.6266 63.921 12.6266C63.1509 12.6266 61.2459 12.6968 61.2459 13.7592H58.3085V13.2058C58.3085 10.5364 62.3756 10.1504 63.9553 10.1504C69.2497 10.1504 70.6717 12.9162 70.6717 16.5225V16.5217ZM67.5714 18.966H66.7641C64.4076 18.966 60.1478 19.0955 60.1478 22.0898C60.1478 23.4096 61.1485 24.6919 63.2137 24.6919C65.8647 24.6919 67.5714 21.9286 67.5714 19.5137V18.966ZM75.6071 4.09863H74.0381V6.77121C74.4897 6.77121 74.543 6.99465 74.543 7.47868V26.8192H77.676V6.16014C77.676 4.71172 77.061 4.09863 75.6071 4.09863Z" fill="white"/>
<path d="M117.214 6.16016C116.395 6.16016 115.707 6.80148 115.707 7.64204C115.707 8.48261 116.395 9.13966 117.214 9.13966C118.034 9.13966 118.712 8.49835 118.712 7.64204C118.712 6.78574 118.029 6.16016 117.214 6.16016ZM117.214 8.92026C116.514 8.92026 115.979 8.3705 115.979 7.64204C115.979 6.91361 116.514 6.37958 117.214 6.37958C117.914 6.37958 118.441 6.92894 118.441 7.64204C118.441 8.35517 117.905 8.92026 117.214 8.92026ZM117.917 7.27501C117.917 6.94023 117.721 6.77767 117.306 6.77767H116.631V8.51811H116.902V7.7695H117.19L117.665 8.51811H117.957L117.457 7.74933C117.716 7.7215 117.917 7.59043 117.917 7.27501H117.917ZM117.186 7.55008H116.902V6.99629H117.262C117.445 6.99629 117.646 7.03219 117.646 7.26331C117.646 7.53838 117.426 7.55008 117.186 7.55008H117.186Z" fill="white"/>
<path d="M140.258 28.9105V22.7187H141.144V23.1605C141.23 23.1018 141.307 23.0386 141.388 22.9891C141.781 22.7412 142.211 22.6556 142.672 22.6961C143.097 22.7321 143.49 22.863 143.829 23.1244C144.259 23.4533 144.508 23.8951 144.602 24.4223C144.688 24.8954 144.652 25.3594 144.462 25.8058C144.155 26.5086 143.612 26.9187 142.857 27.045C142.414 27.117 141.985 27.0765 141.582 26.8738C141.46 26.8106 141.347 26.7296 141.23 26.653C141.212 26.6439 141.198 26.6304 141.176 26.6123C141.176 26.6304 141.171 26.6439 141.171 26.653V28.8702C141.171 28.8836 141.171 28.8971 141.176 28.9105H140.258ZM142.432 23.5299C142.405 23.5299 142.36 23.5299 142.319 23.5344C141.985 23.5659 141.686 23.6875 141.478 23.9579C141.099 24.4448 141.063 24.9855 141.311 25.5352C141.533 26.0221 141.958 26.2384 142.487 26.2249C143.015 26.2113 143.395 25.9589 143.612 25.4812C143.748 25.1838 143.761 24.8683 143.698 24.5529C143.572 23.94 143.07 23.5254 142.432 23.5299Z" fill="white"/>
<path d="M136.056 26.4283C136.115 26.3292 136.178 26.23 136.237 26.1265C136.318 25.9868 136.395 25.847 136.481 25.7028C136.517 25.7299 136.553 25.7524 136.585 25.7795C137.019 26.1085 137.508 26.2571 138.05 26.2391C138.235 26.23 138.42 26.2166 138.592 26.1354C138.728 26.0722 138.814 25.9731 138.823 25.8154C138.832 25.6759 138.769 25.5811 138.651 25.5181C138.488 25.4279 138.308 25.3964 138.131 25.3605C137.842 25.3017 137.548 25.243 137.259 25.1801C137.082 25.1396 136.915 25.0674 136.757 24.9682C136.463 24.7835 136.3 24.5222 136.264 24.1795C136.223 23.7829 136.323 23.4315 136.621 23.1478C136.825 22.9584 137.064 22.8412 137.331 22.7781C138.095 22.6023 138.823 22.7014 139.501 23.0935C139.551 23.1251 139.6 23.1612 139.65 23.1927C139.51 23.4495 139.374 23.6975 139.239 23.9452C139.098 23.8641 138.967 23.774 138.823 23.7064C138.407 23.5081 137.973 23.4721 137.53 23.5846C137.448 23.6073 137.367 23.6523 137.295 23.702C137.127 23.8192 137.073 24.1301 137.331 24.2743C137.484 24.3598 137.652 24.4003 137.819 24.4365C138.108 24.4995 138.402 24.5492 138.691 24.6166C138.918 24.6708 139.13 24.7565 139.315 24.8961C139.578 25.0899 139.704 25.3605 139.718 25.6803C139.745 26.2525 139.46 26.6762 138.909 26.9014C138.565 27.0413 138.203 27.0863 137.837 27.0774C137.408 27.0683 136.992 26.9826 136.594 26.8113C136.418 26.7303 136.25 26.6357 136.11 26.5006C136.092 26.4825 136.069 26.4688 136.047 26.4554C136.056 26.4419 136.056 26.4329 136.056 26.4283Z" fill="white"/>
<path d="M148.923 26.2479C148.792 26.4235 148.638 26.5679 148.462 26.6896C148.019 26.996 147.526 27.0996 146.997 27.0637C146.599 27.0365 146.224 26.9373 145.885 26.721C145.356 26.3876 145.039 25.9099 144.931 25.297C144.836 24.7833 144.89 24.2831 145.13 23.8146C145.455 23.1746 145.984 22.8094 146.699 22.7102C147.169 22.6427 147.621 22.7059 148.041 22.9311C148.593 23.224 148.909 23.6929 149.054 24.292C149.126 24.6031 149.122 24.914 149.117 25.2384H145.84C145.862 25.3646 145.903 25.4772 145.962 25.5856C146.165 25.9504 146.486 26.1488 146.893 26.2118C147.169 26.257 147.444 26.2479 147.711 26.1488C147.955 26.0541 148.154 25.9056 148.317 25.7027C148.34 25.6755 148.362 25.653 148.389 25.6216C148.561 25.8288 148.742 26.0362 148.923 26.2479ZM145.822 24.4544H148.186C148.172 24.2651 148.01 23.9766 147.833 23.8235C147.467 23.5035 147.038 23.4403 146.59 23.5845C146.174 23.7198 145.926 24.0263 145.822 24.4544Z" fill="white"/>
<path d="M163.588 22.6826C164.456 22.7097 165.094 23.0613 165.514 23.7779C165.718 24.1247 165.789 24.5079 165.781 24.9091C165.758 25.986 164.977 26.8828 163.905 27.0495C162.748 27.2298 161.635 26.4502 161.414 25.3055C161.183 24.1068 161.952 22.9666 163.163 22.7278C163.312 22.7006 163.467 22.6962 163.588 22.6826ZM164.863 24.8773C164.855 24.7736 164.85 24.6701 164.827 24.5709C164.754 24.1878 164.565 23.8816 164.221 23.6876C163.949 23.5344 163.652 23.4984 163.348 23.5434C162.959 23.6066 162.662 23.8049 162.467 24.1518C162.286 24.4852 162.255 24.8414 162.327 25.2108C162.386 25.5173 162.53 25.7743 162.784 25.968C163.015 26.1437 163.281 26.2203 163.566 26.2248C163.982 26.2248 164.325 26.0806 164.583 25.747C164.781 25.4948 164.855 25.1973 164.863 24.8773Z" fill="white"/>
<path d="M152.682 24.1891C152.654 24.1486 152.632 24.1172 152.609 24.0809C152.361 23.7026 152.003 23.5222 151.551 23.5312C151.217 23.5402 150.914 23.6394 150.67 23.8691C150.457 24.072 150.34 24.3197 150.295 24.6083C150.245 24.9326 150.277 25.2526 150.43 25.5501C150.625 25.9242 150.941 26.1359 151.353 26.2037C151.633 26.2487 151.904 26.2307 152.162 26.0953C152.333 26.0053 152.478 25.879 152.587 25.7213C152.618 25.6764 152.65 25.6267 152.686 25.5773C152.921 25.7349 153.156 25.8927 153.387 26.0504C153.116 26.5596 152.709 26.884 152.148 27.0102C151.524 27.15 150.927 27.0823 150.376 26.7488C149.811 26.4065 149.49 25.8969 149.386 25.2526C149.3 24.7118 149.382 24.198 149.666 23.7249C149.992 23.1843 150.48 22.8688 151.095 22.747C151.529 22.6614 151.963 22.684 152.383 22.8327C152.768 22.9725 153.07 23.2112 153.287 23.5582C153.319 23.6123 153.351 23.6619 153.387 23.7206C153.152 23.8691 152.917 24.0269 152.682 24.1891Z" fill="white"/>
<path d="M153.348 22.7205H154.048V21.8643H154.961V22.7205H156.164V23.5452H154.966V25.7129C154.966 25.7851 154.975 25.857 154.989 25.9291C155.034 26.1095 155.16 26.2132 155.341 26.2357C155.581 26.2671 155.798 26.2132 155.974 26.0419C156.015 26.0056 156.056 25.9697 156.101 25.9337C156.223 26.177 156.345 26.416 156.462 26.6548C156.286 26.8261 156.083 26.9521 155.848 27.0152C155.463 27.1234 155.084 27.1009 154.717 26.9385C154.351 26.772 154.152 26.47 154.08 26.0868C154.057 25.9696 154.048 25.848 154.048 25.7308C154.044 25.0278 154.048 24.3205 154.048 23.6173C154.048 23.5677 154.035 23.5318 154.003 23.4912C153.795 23.2523 153.587 23.0089 153.379 22.7657C153.37 22.752 153.366 22.7385 153.348 22.7205Z" fill="white"/>
<path d="M157.858 27.0317H156.949V22.719H157.835V23.1111C158.274 22.7597 158.766 22.6471 159.309 22.692V23.5662H159.056C158.834 23.5617 158.617 23.5889 158.418 23.6926C158.116 23.8503 157.962 24.1161 157.899 24.4407C157.871 24.5803 157.862 24.7289 157.862 24.8687C157.858 25.5626 157.862 26.2613 157.862 26.9552C157.858 26.9868 157.858 27.0093 157.858 27.0317Z" fill="white"/>
<path d="M160.732 27.0374H159.828V22.7246H160.732V27.0374Z" fill="white"/>
<path d="M160.29 21.1061C160.621 21.0881 160.883 21.3496 160.887 21.6651C160.892 21.976 160.643 22.2282 160.336 22.2373C160.11 22.2462 159.915 22.1788 159.784 21.9849C159.662 21.8002 159.649 21.6019 159.757 21.4036C159.861 21.21 160.028 21.1108 160.25 21.1016C160.263 21.1061 160.277 21.1061 160.29 21.1061Z" fill="white"/>
<path d="M119.37 26.1488H118.819V26.0094H119.37C119.486 26.0094 119.579 25.991 119.651 25.9539C119.724 25.9161 119.776 25.8648 119.809 25.8004C119.842 25.736 119.859 25.6637 119.859 25.5832C119.859 25.5028 119.842 25.4322 119.809 25.3661C119.776 25.2998 119.724 25.247 119.651 25.2071C119.579 25.1665 119.486 25.1462 119.37 25.1462H118.876V26.9339H118.713V25.0059H119.37C119.512 25.0059 119.631 25.0302 119.728 25.0786C119.825 25.1273 119.899 25.1948 119.948 25.2813C119.998 25.3679 120.023 25.4677 120.023 25.5806C120.023 25.6935 119.998 25.8008 119.948 25.8865C119.899 25.9712 119.826 26.0362 119.729 26.0811C119.633 26.1261 119.513 26.1488 119.371 26.1488H119.37ZM121.817 25.8665V26.0731C121.817 26.2081 121.799 26.3306 121.764 26.4401C121.73 26.5485 121.679 26.6418 121.613 26.7193C121.547 26.797 121.468 26.8566 121.376 26.898C121.284 26.9396 121.18 26.9603 121.065 26.9603C120.95 26.9603 120.85 26.9396 120.757 26.898C120.665 26.8566 120.586 26.797 120.519 26.7193C120.453 26.6418 120.402 26.5485 120.365 26.4401C120.329 26.3306 120.311 26.2081 120.311 26.0731V25.8665C120.311 25.7314 120.328 25.6097 120.364 25.5012C120.4 25.3917 120.451 25.298 120.518 25.2204C120.584 25.1426 120.663 25.083 120.756 25.0415C120.848 25.0001 120.95 24.9795 121.062 24.9795C121.175 24.9795 121.281 25.0001 121.373 25.0415C121.465 25.083 121.544 25.1426 121.611 25.2204C121.677 25.298 121.728 25.3917 121.764 25.5012C121.799 25.6097 121.817 25.7314 121.817 25.8665H121.817ZM121.655 26.0731V25.864C121.655 25.7502 121.642 25.6475 121.615 25.5568C121.59 25.4657 121.551 25.3879 121.5 25.3236C121.449 25.2591 121.387 25.2097 121.314 25.1754C121.24 25.1409 121.156 25.1239 121.063 25.1239C120.969 25.1239 120.89 25.1409 120.817 25.1754C120.744 25.2097 120.682 25.2591 120.631 25.3236C120.581 25.3879 120.542 25.4657 120.514 25.5568C120.487 25.6475 120.474 25.7502 120.474 25.864V26.0731C120.474 26.188 120.487 26.2912 120.514 26.3831C120.542 26.474 120.581 26.552 120.632 26.6173C120.683 26.6818 120.745 26.7312 120.818 26.7658C120.892 26.8001 120.974 26.8174 121.065 26.8174C121.157 26.8174 121.244 26.8001 121.316 26.7658C121.389 26.7312 121.45 26.6818 121.501 26.6173C121.551 26.552 121.59 26.474 121.615 26.3831C121.642 26.2912 121.655 26.188 121.655 26.0731H121.655ZM122.72 26.4242L123.14 25.0059H123.272L123.166 25.4268L122.718 26.9339H122.592L122.72 26.4242ZM122.233 25.0059L122.586 26.4109L122.693 26.9339H122.561L122.065 25.0059H122.233ZM123.837 26.4109L124.186 25.0059H124.353L123.859 26.9339H123.727L123.837 26.4109ZM123.286 25.0059L123.701 26.4242L123.828 26.9339H123.702L123.264 25.4268L123.156 25.0059H123.286ZM125.871 26.7948V26.9339H124.783V26.7948H125.871ZM124.832 25.0059V26.9339H124.669V25.0059H124.832ZM125.736 25.8704V26.0094H124.783V25.8704H125.736ZM125.865 25.0059V25.1462H124.783V25.0059H125.865ZM126.214 25.0059H126.842C126.976 25.0059 127.092 25.0275 127.19 25.0707C127.289 25.114 127.364 25.178 127.417 25.2629C127.472 25.3466 127.498 25.4498 127.498 25.5726C127.498 25.6637 127.479 25.746 127.44 25.8202C127.402 25.8944 127.349 25.9566 127.282 26.0069C127.215 26.0563 127.137 26.0903 127.048 26.1088L126.991 26.13H126.32L126.318 25.991H126.88C126.981 25.991 127.065 25.9717 127.132 25.9328C127.199 25.8939 127.25 25.8427 127.283 25.7792C127.318 25.7147 127.335 25.6459 127.335 25.5726C127.335 25.4853 127.316 25.4098 127.278 25.3461C127.241 25.2818 127.185 25.2322 127.112 25.1979C127.039 25.1635 126.949 25.1462 126.842 25.1462H126.378V26.9339H126.214V25.0059ZM127.408 26.9339L126.907 26.0718L127.083 26.0705L127.582 26.9166V26.9339H127.408ZM129.15 26.7948V26.9339H128.062V26.7948H129.15ZM128.111 25.0059V26.9339H127.948V25.0059H128.111ZM129.014 25.8704V26.0094H128.062V25.8704H129.014ZM129.143 25.0059V25.1462H128.062V25.0059H129.143ZM130.025 26.9339H129.587L129.589 26.7948H130.025C130.164 26.7948 130.284 26.7638 130.384 26.7022C130.485 26.6395 130.563 26.553 130.617 26.4427C130.672 26.3323 130.7 26.2044 130.7 26.0585V25.8784C130.7 25.7672 130.684 25.6666 130.652 25.5765C130.621 25.4866 130.576 25.4098 130.518 25.3461C130.459 25.2818 130.389 25.2322 130.308 25.1979C130.228 25.1635 130.137 25.1462 130.037 25.1462H129.579V25.0059H130.037C130.157 25.0059 130.268 25.0266 130.368 25.068C130.469 25.1088 130.556 25.1678 130.629 25.2455C130.704 25.3223 130.761 25.4147 130.801 25.5224C130.842 25.63 130.862 25.7502 130.862 25.8824V26.0585C130.862 26.1911 130.842 26.311 130.801 26.4189C130.761 26.5264 130.704 26.6188 130.629 26.6954C130.555 26.7722 130.467 26.8315 130.365 26.873C130.263 26.9135 130.15 26.9339 130.025 26.9339ZM129.66 25.0059V26.9339H129.496V25.0059H129.66ZM132.609 26.0069H132.064L132.062 25.8693H132.53C132.626 25.8693 132.707 25.8555 132.775 25.8281C132.842 25.8008 132.893 25.7601 132.928 25.7063C132.963 25.6515 132.981 25.5845 132.981 25.5051C132.981 25.4257 132.963 25.3568 132.929 25.3037C132.894 25.2501 132.843 25.2104 132.773 25.1846C132.704 25.159 132.618 25.1462 132.513 25.1462H132.107V26.9339H131.943V25.0059H132.513C132.611 25.0059 132.699 25.0155 132.777 25.0351C132.855 25.0543 132.922 25.085 132.977 25.1264C133.032 25.1678 133.073 25.2204 133.101 25.2839C133.131 25.3466 133.145 25.4216 133.145 25.5091C133.145 25.5885 133.128 25.6605 133.092 25.7249C133.057 25.7885 133.007 25.8405 132.942 25.8813C132.878 25.921 132.802 25.9456 132.712 25.9553L132.609 26.0069ZM132.597 26.9339H132.012L132.096 26.7948H132.597C132.692 26.7948 132.774 26.7789 132.841 26.7471C132.909 26.7144 132.962 26.6682 132.998 26.6081C133.034 26.5482 133.052 26.4767 133.052 26.3936C133.052 26.3204 133.036 26.2546 133.005 26.1964C132.973 26.1379 132.924 26.0921 132.858 26.0585C132.793 26.0242 132.71 26.0069 132.609 26.0069H132.27L132.273 25.8693H132.752L132.782 25.9182C132.868 25.927 132.944 25.9539 133.009 25.9989C133.074 26.0431 133.125 26.0992 133.16 26.1673C133.196 26.2353 133.214 26.3097 133.214 26.391C133.214 26.5073 133.188 26.6063 133.136 26.6875C133.085 26.768 133.013 26.8293 132.92 26.8715C132.827 26.913 132.72 26.9339 132.597 26.9339ZM133.517 25.0059L134.103 26.0559L134.694 25.0059H134.883L134.185 26.2069V26.9339H134.022V26.2069L133.323 25.0059H133.517Z" fill="white"/>
</svg>
