<svg width="225" height="41" viewBox="0 0 225 41" fill="none" xmlns="http://www.w3.org/2000/svg">
<g clip-path="url(#clip0_920_3057)">
<path d="M13.2143 0.764648H4.69543L4.5847 25.7158L0 39.5288H8.62616L12.9929 26.3698L29.702 0.764648H20.0378L14.5223 10.9202C13.4842 12.7748 12.6642 14.4703 12.3943 15.1243C12.505 14.415 12.6676 12.2316 12.7749 10.4289L13.2109 0.764648H13.2143Z" fill="white"/>
<path d="M12.0723 39.5288H20.8645L24.1413 32.5392H31.0754L29.8748 39.5288H38.1722L43.795 0.764648H32.1654L12.0723 39.5288ZM32.3834 25.2245H27.6326L33.4733 12.7748C34.4006 10.8648 35.11 9.11746 35.3833 8.46003C35.2726 9.16936 34.8366 11.3008 34.5079 13.1001L32.3799 25.221L32.3834 25.2245Z" fill="white"/>
<path d="M61.255 0.764648H51.8641L38.9785 39.5288H46.8953L53.5561 19.273C54.2655 17.2523 54.7568 15.4495 54.9748 14.7956C54.9194 15.5049 54.7015 17.6883 54.5942 19.491L53.3935 39.5288H62.5664L75.4485 0.764648H67.5317L61.1996 20.0377C60.4903 22.0584 59.999 23.8612 59.781 24.5151C59.8363 23.8058 59.999 21.6225 60.1097 19.8197L61.255 0.764648Z" fill="white"/>
<path d="M84.988 24.8993L84.8254 25.3906C83.6247 29.048 81.6593 33.1448 79.2545 33.1448C76.5245 33.1448 77.5625 26.6466 79.8566 19.6571C83.078 9.8303 85.0434 7.04487 87.2821 7.04487C88.5381 7.04487 89.3582 8.30091 89.6315 12.723L97.3304 10.1556C97.0017 4.5328 94.327 0 88.1021 0C80.95 0 75.2719 6.06219 71.2858 18.235C67.6284 29.4286 67.9571 39.8022 75.6525 39.8022C78.3272 39.8022 80.1853 38.7641 82.0953 36.4181L81.5486 39.5288H87.7181L95.0328 17.581H83.2406L80.8393 24.8958H84.988V24.8993Z" fill="white"/>
<path d="M103.331 40.2419C110.047 40.2419 115.943 34.2351 119.874 22.0588C123.535 10.8652 123.479 0.0556641 112.94 0.0556641C106.224 0.0556641 100.327 6.06249 96.3967 18.2388C92.7393 29.4324 92.7947 40.2419 103.331 40.2419ZM104.203 33.3077C100.926 33.3077 102.836 26.1002 104.967 19.6574C108.189 9.66451 110.21 6.98981 112.064 6.98981C115.286 6.98981 113.431 14.0866 111.3 20.6401C108.078 30.633 106.057 33.3077 104.203 33.3077Z" fill="white"/>
<path d="M133.856 0.764648L131.455 8.07941H138.278L127.794 39.5288H136.42L146.904 8.07941H153.839L156.24 0.764648H133.853H133.856Z" fill="white"/>
<path d="M157.863 0.764648L144.977 39.5288H163.814L166.215 32.214H156.005L159.063 23.0965H168.236L170.693 15.7817H161.52L164.087 8.08288H174.08L176.482 0.768109H157.863V0.764648Z" fill="white"/>
<path d="M178.565 40.1861C184.734 40.1861 188.776 35.2727 191.122 30.6845L184.679 27.6257C182.277 31.8298 181.021 33.0859 179.492 33.0859C176.544 33.0859 177.907 26.643 180.257 19.6535C183.367 10.3699 185.281 7.04127 187.575 7.04127C189.16 7.04127 189.703 9.22463 189.976 12.5014L197.402 9.82669C197.239 3.98595 194.616 0.0517578 188.447 0.0517578C181.402 0.0517578 175.672 6.05859 171.686 18.2349C168.029 29.4285 168.136 40.1826 178.565 40.1826V40.1861Z" fill="white"/>
<path d="M216.374 0.764648L211.568 15.2869H205.779L210.585 0.764648H201.959L189.073 39.5288H197.699L203.27 22.8197H209.059L203.488 39.5288H212.114L225 0.764648H216.374Z" fill="white"/>
</g>
<defs>
<clipPath id="clip0_920_3057">
<rect width="225" height="40.2416" fill="white"/>
</clipPath>
</defs>
</svg>
