<svg width="161" height="38" viewBox="0 0 161 38" fill="none" xmlns="http://www.w3.org/2000/svg">
<path d="M20.7348 25.6348L20.0669 29.4659C19.9601 30.0936 19.4151 30.5535 18.7846 30.5535L13.522 30.5427V30.5535L8.7027 30.5427C7.89597 30.5427 7.28686 29.8068 7.42578 29.006L8.09367 25.0991C8.1791 24.5851 7.79444 24.1143 7.27618 24.1143L2.91107 24.1035C2.39816 24.1035 2.00813 23.6327 2.09362 23.1187L2.85765 18.6599C2.94313 18.1458 2.55845 17.6751 2.04019 17.6751L0.645708 17.6696C0.244994 17.6696 -0.0595478 17.3018 0.0099092 16.9013L0.335823 14.9912C0.389251 14.6773 0.661737 14.4446 0.976963 14.4446H3.12479C3.38125 14.4446 3.57893 14.6827 3.53619 14.9371L3.23699 16.6632C3.14616 17.1772 3.53619 17.648 4.05444 17.648H8.00816C8.92175 17.6372 9.47744 17.1611 9.64305 16.2519L10.5086 11.2142H10.4926L10.888 9.07141C11.0001 8.44912 11.5398 8 12.1649 8H15.8942C16.7009 8 17.3154 8.73591 17.1711 9.54217C17.0322 10.3376 16.888 11.1547 16.8773 11.2142L15.9423 16.5874C15.8354 17.2152 15.2905 17.6751 14.66 17.6751L10.7918 17.6643C9.87282 17.6588 9.31714 18.1729 9.15152 19.055L8.44626 23.097C8.35543 23.6111 8.7455 24.0818 9.26371 24.0818H19.4365C20.2646 24.0927 20.8791 24.8286 20.7348 25.6348Z" fill="white"/>
<path d="M34.8521 23.7797H29.2635V12.0105C29.2635 11.8157 29.1085 11.6533 28.9109 11.6533H27.2706C27.0783 11.6533 26.918 11.8102 26.918 12.0105V25.5221C26.918 25.7168 27.0729 25.8791 27.2706 25.8791H34.8468C35.0392 25.8791 35.1994 25.7222 35.1994 25.5221V24.1367C35.1994 23.9366 35.0445 23.7797 34.8521 23.7797Z" fill="white"/>
<path d="M58.0925 16.2906C57.0721 15.1921 55.7791 14.6348 54.2404 14.6348C53.0756 14.6348 51.1041 15.1867 50.3935 16.388V15.2408C50.3935 15.046 50.2385 14.8837 50.0409 14.8837H48.5128C48.3205 14.8837 48.1602 15.0406 48.1602 15.2408V28.9147C48.1602 29.1095 48.3151 29.2719 48.5128 29.2719H50.0409C50.2332 29.2719 50.3935 29.1149 50.3935 28.9147V24.3748C50.9812 25.4625 52.8245 26.128 54.2404 26.128C55.7684 26.128 57.0667 25.576 58.0925 24.4939C59.1504 23.3791 59.6687 22.0318 59.6687 20.3814C59.6687 18.731 59.1558 17.389 58.0925 16.2906ZM56.4309 23.0491C55.7524 23.7633 54.8922 24.1204 53.8824 24.1204C52.8725 24.1204 51.975 23.7633 51.2484 23.0491C50.5484 22.3402 50.1904 21.4419 50.1904 20.3814C50.1904 19.3208 50.5484 18.4226 51.2484 17.7083C51.9697 16.9994 52.8566 16.6423 53.8824 16.6423C54.9082 16.6423 55.7524 17.0049 56.4255 17.7137C57.1094 18.4063 57.4621 19.3046 57.4621 20.3814C57.4621 21.4582 57.1148 22.3564 56.4309 23.0491Z" fill="white"/>
<path d="M71.1997 16.2308C70.051 15.1106 68.6352 14.5479 66.9842 14.5479C65.3333 14.5479 63.9121 15.116 62.7687 16.2308C61.6253 17.3454 61.043 18.7414 61.043 20.3811C61.043 22.0206 61.6253 23.4167 62.7687 24.5314C63.9175 25.6515 65.3333 26.2143 66.9842 26.2143C68.6352 26.2143 70.0563 25.6461 71.1997 24.5314C72.3431 23.4167 72.9254 22.0206 72.9254 20.3811C72.9254 18.7414 72.3431 17.3454 71.1997 16.2308ZM69.6396 23.119C68.9237 23.8442 68.0314 24.2121 66.9842 24.2121C65.937 24.2121 65.018 23.8442 64.2967 23.1137C63.5915 22.3507 63.2442 21.4524 63.2442 20.3811C63.2442 19.3096 63.5969 18.4006 64.2967 17.6701C65.018 16.918 65.8943 16.55 66.9788 16.55C68.0634 16.55 68.929 16.9288 69.6343 17.6646C70.3502 18.3898 70.7135 19.3042 70.7135 20.3811C70.7189 21.4632 70.3662 22.3561 69.6396 23.119Z" fill="white"/>
<path d="M80.6291 14.6665C80.5493 14.6611 80.4687 14.6611 80.3834 14.6611C78.8876 14.6611 77.2898 15.3159 76.7822 16.4576V15.2401C76.7822 15.0453 76.6273 14.883 76.4296 14.883H74.9229C74.7306 14.883 74.5703 15.0399 74.5703 15.2401V25.5212C74.5703 25.7161 74.7252 25.8784 74.9229 25.8784H76.4296C76.622 25.8784 76.7822 25.7214 76.7822 25.5212V20.0885C76.7822 18.081 78.0752 16.7823 80.0682 16.7823C80.2387 16.7823 80.41 16.7877 80.5814 16.8039C80.784 16.8202 80.96 16.6579 80.96 16.4522V15.0237C80.96 14.8289 80.8161 14.672 80.6291 14.6665Z" fill="white"/>
<path d="M87.4894 14.8892H84.9249V12.0105C84.9249 11.8157 84.77 11.6533 84.5721 11.6533H83.0442C82.8518 11.6533 82.6914 11.8102 82.6914 12.0105V22.5459C82.6914 25.0026 83.8133 26.1984 86.1164 26.1984C86.4794 26.1984 86.9715 26.1768 87.383 26.1335C87.559 26.1172 87.6975 25.9603 87.6975 25.7818V24.5155C87.6975 24.3099 87.5269 24.1476 87.3235 24.1638C87.0403 24.1855 86.7524 24.1963 86.5702 24.1963C85.4327 24.1963 84.9195 23.5957 84.9195 22.2537V16.9021H87.4839C87.6764 16.9021 87.8367 16.7451 87.8367 16.545V15.2463C87.8422 15.0461 87.6818 14.8892 87.4894 14.8892Z" fill="white"/>
<path d="M97.9435 22.7729C97.9435 23.774 97.564 24.6182 96.8537 25.2134C96.0894 25.8465 94.9511 26.182 93.5625 26.182C91.6121 26.182 90.0577 25.4839 89.2988 24.2719C89.2292 24.1636 89.2503 24.0176 89.3465 23.9363L90.5059 22.9461C90.549 22.9083 90.6022 22.8866 90.6608 22.8866C90.7359 22.8866 90.8056 22.9191 90.8588 22.9786C91.4729 23.6874 92.4993 24.1095 93.6047 24.1095C95.4588 24.1095 95.6567 23.195 95.6567 22.8C95.6567 22.405 95.4111 22.0641 94.9785 21.8315C94.7273 21.6691 94.2728 21.5176 93.9419 21.404C93.8558 21.3769 93.744 21.3391 93.6211 21.3011C93.2847 21.1929 92.8732 21.0577 92.6002 20.944C90.768 20.2784 89.9826 19.3748 89.9826 17.9246C89.9826 16.9344 90.3299 16.1714 91.0457 15.5924C91.8046 15.0026 92.6808 14.7158 93.733 14.7158C95.1013 14.7158 96.1911 15.1649 96.982 16.0578C97.0673 16.1552 97.0618 16.3013 96.971 16.3987L95.9931 17.4484C95.9454 17.4972 95.8813 17.5296 95.8116 17.5296C95.7475 17.5296 95.6833 17.5025 95.6356 17.4592C95.1545 17.0047 94.4973 16.7775 93.6853 16.7775C92.8732 16.7775 92.2583 17.2158 92.2583 17.8705C92.2583 18.2871 92.4774 18.5144 92.8036 18.7255C93.2949 19.0447 93.8511 19.2124 94.3855 19.3694C94.6147 19.4397 94.8502 19.5101 95.0794 19.5912C97.0884 20.3001 97.9435 21.2525 97.9435 22.7729Z" fill="white"/>
<path d="M46.3596 21.9561C46.3596 24.5642 44.5483 26.1172 41.5136 26.1172C39.1147 26.1172 37.2661 25.0728 36.3097 23.1789C36.251 23.0654 36.2937 22.9192 36.4005 22.8489L37.7255 21.9994C37.7629 21.9723 37.8111 21.9615 37.8591 21.9615C37.9446 21.9615 38.0247 22.0047 38.0675 22.0805C38.8155 23.3629 39.9856 24.0068 41.535 24.0068C42.7425 24.0068 44.0301 23.482 44.0301 22.0156C44.0301 21.3283 43.7737 20.8576 43.1753 20.4572C42.5875 20.0459 42.1601 19.8512 41.0862 19.4507C39.868 18.9853 39.0987 18.6228 38.2545 17.9356C37.4744 17.2808 37.0951 16.3772 37.0951 15.1813C37.0951 14.0558 37.4958 13.163 38.3186 12.4433C39.1521 11.7345 40.1512 11.3936 41.3747 11.3936C43.1325 11.3936 44.5003 12.0645 45.4513 13.3903C45.4887 13.4444 45.5047 13.5093 45.4941 13.5796C45.4834 13.65 45.446 13.7095 45.3872 13.7474L44.153 14.6132C44.1102 14.6402 44.0622 14.6565 44.0088 14.6565C43.934 14.6565 43.8698 14.624 43.8217 14.5699C43.2554 13.8664 42.4433 13.5093 41.4121 13.5093C40.2367 13.5093 39.3818 14.1965 39.3818 15.1435C39.3818 15.5168 39.4673 15.8036 39.665 16.0796C39.9856 16.5341 40.4771 16.7506 40.9473 16.9616C40.99 16.9832 41.0381 16.9995 41.0808 17.0212C41.4388 17.1835 41.8022 17.3296 42.1547 17.4756C42.9081 17.7841 43.6882 18.1033 44.3934 18.5471C44.8689 18.8501 45.2162 19.1314 45.4941 19.4399C46.071 20.0676 46.3596 20.9117 46.3596 21.9561Z" fill="white"/>
</svg>
