<svg width="161" height="38" viewBox="0 0 161 38" fill="none" xmlns="http://www.w3.org/2000/svg">
<path d="M49.996 12.6562V20.346L42.4892 12.6562H38.582V25.2329H42.1455V16.9682L50.3216 25.2329H53.5596V12.6562H49.996Z" fill="white"/>
<path d="M60.1671 22.4301V20.2022H68.1443V17.5252H60.1671V15.459H69.8447V12.6562H56.5312V25.2329H70.0437V22.4301H60.1671Z" fill="white"/>
<path d="M79.5122 25.6463C84.5228 25.6463 87.7788 23.2029 87.7788 18.9448C87.7788 14.6867 84.5228 12.2432 79.5122 12.2432C74.5016 12.2432 71.2637 14.6867 71.2637 18.9448C71.2637 23.2029 74.5016 25.6463 79.5122 25.6463ZM79.5122 22.6639C76.7265 22.6639 75.0081 21.3164 75.0081 18.9448C75.0081 16.5732 76.7447 15.2257 79.5122 15.2257C82.2979 15.2257 84.0163 16.5732 84.0163 18.9448C84.0163 21.3164 82.2979 22.6639 79.5122 22.6639Z" fill="white"/>
<path d="M101.436 12.6562V20.346L93.9287 12.6562H90.0215V25.2329H93.5849V16.9682L101.761 25.2329H104.999V12.6562H101.436Z" fill="white"/>
<path fill-rule="evenodd" clip-rule="evenodd" d="M0 9.06896C0 6.26945 2.29392 4 5.12361 4H24.5934C27.423 4 29.717 6.26945 29.717 9.06896V25.4513C29.717 28.3476 26.0125 29.6046 24.2158 27.3179L18.5988 20.1694V28.8379C18.5988 31.3575 16.5342 33.4 13.9875 33.4H5.12361C2.29392 33.4 0 31.1305 0 28.331V9.06896ZM5.12361 8.05517C4.55767 8.05517 4.09889 8.50906 4.09889 9.06896V28.331C4.09889 28.8909 4.55767 29.3449 5.12361 29.3449H14.1412C14.4241 29.3449 14.4998 29.1179 14.4998 28.8379V17.2134C14.4998 14.3171 18.2043 13.0602 20.0011 15.3468L25.6181 22.4953V9.06896C25.6181 8.50906 25.6717 8.05517 25.1057 8.05517H5.12361Z" fill="white"/>
<path d="M24.5922 4C27.4219 4 29.7158 6.26945 29.7158 9.06896V25.4513C29.7158 28.3476 26.0113 29.6046 24.2146 27.3179L18.5976 20.1694V28.8379C18.5976 31.3575 16.5331 33.4 13.9863 33.4C14.2693 33.4 14.4986 33.173 14.4986 32.8931V17.2134C14.4986 14.3171 18.2033 13.0602 20 15.3468L25.617 22.4953V5.01379C25.617 4.45389 25.1581 4 24.5922 4Z" fill="white"/>
</svg>
