<svg width="106" height="28" viewBox="0 0 106 28" fill="none" xmlns="http://www.w3.org/2000/svg">
<g clip-path="url(#clip0_446_10496)">
<path d="M23.1282 5.64103C23.1668 5.64287 23.2053 5.6447 23.245 5.64659C24.8256 5.73421 26.4727 6.17826 27.6923 7.23078C27.7443 7.27289 27.7962 7.315 27.8498 7.35838C28.6492 8.0097 29.2338 8.76749 29.7116 9.67629C29.75 9.74935 29.75 9.74935 29.7893 9.82388C30.0755 10.3825 30.2424 10.9341 30.3686 11.5481C30.3819 11.6106 30.3952 11.6731 30.409 11.7375C30.5306 12.3167 30.5764 12.857 30.5769 13.4487C30.577 13.4852 30.577 13.5218 30.577 13.5594C30.5761 14.1624 30.5383 14.7429 30.4103 15.3333C30.4012 15.3761 30.3921 15.4189 30.3828 15.463C29.9986 17.2303 29.0154 18.866 27.5315 19.9307C27.469 19.976 27.4078 20.0233 27.3484 20.0725C27.0337 20.3289 26.6748 20.4986 26.309 20.6694C26.2166 20.7126 26.1249 20.7571 26.0333 20.8017C24.5678 21.4572 22.7378 21.5569 21.1795 21.2308C21.0964 21.2141 21.0964 21.2141 21.0116 21.1971C19.9596 20.9602 19.0613 20.437 18.2051 19.7949C18.2051 22.4687 18.2051 25.1426 18.2051 27.8974C17.1322 28.112 16.0172 27.9487 14.9231 27.9487C14.9231 20.638 14.9231 13.3272 14.9231 5.79488C15.9892 5.79488 17.0554 5.79488 18.1539 5.79488C18.1539 6.26873 18.1539 6.74257 18.1539 7.23078C18.1877 7.2477 18.2216 7.26462 18.2564 7.28206C18.2564 7.24821 18.2564 7.21437 18.2564 7.1795C19.5548 6.05277 21.4437 5.55952 23.1282 5.64103ZM19.641 9.84616C19.6241 9.89693 19.6072 9.9477 19.5898 10C19.5215 10.0345 19.4531 10.0686 19.3846 10.1026C18.4721 10.9662 18.2224 12.284 18.1442 13.4806C18.1146 14.5809 18.4728 15.7296 19.1282 16.6154C19.1621 16.6154 19.1959 16.6154 19.2308 16.6154C19.2441 16.6447 19.2574 16.674 19.2711 16.7041C19.5045 17.1402 19.8889 17.4024 20.3077 17.641C20.3924 17.6936 20.3924 17.6936 20.4788 17.7472C21.4933 18.3571 22.824 18.4112 23.962 18.1593C24.5212 17.9941 25.0313 17.7515 25.4872 17.3846C25.5222 17.3568 25.5571 17.329 25.5932 17.3003C26.5318 16.516 27.0949 15.3933 27.2206 14.1792C27.3285 12.8231 27.1078 11.4171 26.2194 10.3379C25.2916 9.26761 24.1624 8.82405 22.7692 8.71796C21.6659 8.67939 20.4391 9.06392 19.641 9.84616Z" fill="white"/>
<path d="M38.7539 5.63462C39.987 5.6071 41.3144 5.8324 42.4103 6.41026C42.4453 6.42846 42.4803 6.44666 42.5164 6.46542C42.9378 6.68684 43.328 6.92264 43.6924 7.23077C43.7413 7.26918 43.7902 7.30758 43.8406 7.34716C44.1994 7.63338 44.4934 7.93954 44.7693 8.30769C44.8231 8.37849 44.8231 8.37849 44.8781 8.45072C45.5389 9.33766 45.9342 10.2664 46.2052 11.3333C46.2215 11.3931 46.2378 11.4529 46.2547 11.5144C46.5202 12.5818 46.4776 13.7295 46.4616 14.8205C46.1824 14.8675 45.914 14.8789 45.6311 14.878C45.5616 14.878 45.5616 14.878 45.4906 14.8781C45.3358 14.8782 45.181 14.8779 45.0262 14.8776C44.915 14.8776 44.8038 14.8776 44.6926 14.8776C44.3911 14.8777 44.0896 14.8774 43.788 14.877C43.4728 14.8767 43.1576 14.8766 42.8423 14.8766C42.2455 14.8764 41.6487 14.876 41.0519 14.8755C40.3724 14.8749 39.6929 14.8746 39.0134 14.8744C37.6158 14.8738 36.2182 14.8729 34.8206 14.8718C34.853 14.9791 34.8857 15.0864 34.9183 15.1937C34.9365 15.2534 34.9547 15.3132 34.9734 15.3747C35.1322 15.8716 35.4104 16.3996 35.7885 16.766C35.8245 16.8009 35.8604 16.8358 35.8975 16.8718C35.8975 16.9056 35.8975 16.9395 35.8975 16.9744C35.9434 16.9955 35.9434 16.9955 35.9902 17.017C36.0978 17.0744 36.1711 17.1321 36.2597 17.2147C37.2946 18.1175 38.7192 18.3322 40.0513 18.2564C41.6542 18.0956 42.7141 17.2125 43.7949 16.1026C43.8288 16.1195 43.8626 16.1364 43.8975 16.1538C43.8975 16.1877 43.8975 16.2215 43.8975 16.2564C43.9313 16.2564 43.9652 16.2564 44.0001 16.2564C44.0704 16.335 44.1371 16.4169 44.202 16.5C44.4066 16.757 44.6216 16.9991 44.8485 17.2366C45.0257 17.4251 45.0257 17.4251 45.0257 17.5385C45.0595 17.5385 45.0934 17.5385 45.1283 17.5385C45.2132 17.6322 45.2132 17.6322 45.3077 17.7564C45.3389 17.7969 45.3702 17.8373 45.4023 17.879C45.4768 17.9852 45.5358 18.0875 45.5898 18.2051C45.6236 18.2051 45.6575 18.2051 45.6924 18.2051C45.7262 18.2897 45.7601 18.3744 45.7949 18.4615C45.7503 18.5053 45.7503 18.5053 45.7048 18.5499C45.4344 18.8162 45.4344 18.8162 45.186 19.1026C44.9766 19.3522 44.7171 19.5437 44.4616 19.7436C44.4157 19.7812 44.3698 19.8188 44.3226 19.8576C42.969 20.9325 41.2716 21.3445 39.5706 21.3462C39.5159 21.3462 39.5159 21.3462 39.4602 21.3463C38.8749 21.3458 38.3161 21.3052 37.7436 21.1795C37.6691 21.1644 37.5946 21.1494 37.5201 21.1344C36.2772 20.8734 35.1611 20.3063 34.183 19.4998C34.108 19.4402 34.0285 19.3865 33.9488 19.3333C33.9488 19.2995 33.9488 19.2656 33.9488 19.2308C33.9192 19.2178 33.8897 19.2049 33.8592 19.1915C33.2426 18.8538 32.7472 18.0334 32.4103 17.4359C32.358 17.3514 32.3057 17.267 32.2533 17.1827C31.9836 16.7301 31.8001 16.2602 31.6603 15.7532C31.645 15.6977 31.6297 15.6423 31.6139 15.5851C31.0551 13.4822 31.3132 11.1705 32.4049 9.27577C32.5046 9.1064 32.6068 8.93872 32.7116 8.77244C32.7311 8.74116 32.7507 8.70988 32.7709 8.67766C32.8187 8.60367 32.8706 8.53229 32.9231 8.46154C32.957 8.46154 32.9908 8.46154 33.0257 8.46154C33.037 8.43411 33.0483 8.40667 33.06 8.37841C33.5236 7.55037 34.4696 6.94543 35.2821 6.51282C35.3178 6.4937 35.3535 6.47458 35.3903 6.45488C36.4225 5.91196 37.5955 5.68826 38.7539 5.63462ZM37.5898 8.8718C37.4985 8.89887 37.4985 8.89887 37.4053 8.92648C37.0038 9.0566 36.691 9.22952 36.359 9.48718C36.2887 9.53548 36.2182 9.58358 36.1475 9.63141C36.0988 9.66843 36.0502 9.70545 36.0001 9.74359C36.0001 9.77744 36.0001 9.81128 36.0001 9.84615C35.8985 9.89692 35.8985 9.89692 35.7949 9.94872C35.7949 9.98256 35.7949 10.0164 35.7949 10.0513C35.7611 10.0513 35.7272 10.0513 35.6924 10.0513C35.2901 10.5036 34.7693 11.3781 34.7693 12C37.5277 12 40.2862 12 43.1283 12C42.8424 10.8565 42.2537 9.90677 41.2308 9.28205C40.1573 8.64494 38.7851 8.50021 37.5898 8.8718Z" fill="white"/>
<path d="M101.66 6.63783C101.702 6.66052 101.744 6.6832 101.788 6.70658C102.086 6.87292 102.35 7.06729 102.615 7.28206C102.66 7.31551 102.704 7.34896 102.749 7.38342C103.014 7.58761 103.256 7.80961 103.494 8.04488C103.538 8.08887 103.538 8.08887 103.584 8.13375C103.795 8.34633 103.795 8.34633 103.795 8.46155C103.829 8.46155 103.863 8.46155 103.897 8.46155C105.269 10.0275 105.798 12.17 105.692 14.2051C105.664 14.5344 105.607 14.8564 105.538 15.1795C105.526 15.2414 105.513 15.3034 105.501 15.3672C105.282 16.3043 104.866 17.2176 104.308 18C104.286 18.0305 104.264 18.0609 104.242 18.0923C103.984 18.4494 103.706 18.7746 103.385 19.0769C103.342 19.1203 103.3 19.1637 103.256 19.2083C103.118 19.343 102.977 19.4712 102.83 19.5966C102.758 19.6581 102.687 19.7208 102.617 19.7849C102.161 20.1823 101.611 20.4428 101.077 20.718C101.044 20.7353 101.012 20.7527 100.978 20.7705C99.5941 21.5037 97.7072 21.5395 96.2052 21.2308C96.1687 21.2239 96.1323 21.217 96.0948 21.21C94.9233 20.9883 93.8498 20.4331 92.9231 19.6923C92.8776 19.6578 92.832 19.6233 92.7851 19.5878C92.2133 19.1433 91.7047 18.608 91.3221 17.992C91.2337 17.8461 91.2337 17.8461 91.133 17.7164C90.5545 16.9358 90.2509 15.9161 90.0513 14.9744C90.0388 14.9186 90.0263 14.8628 90.0134 14.8053C89.6429 12.7786 90.2259 10.6532 91.3656 8.97359C91.6662 8.53861 91.6662 8.53861 91.7949 8.41027C91.8287 8.41027 91.8626 8.41027 91.8975 8.41027C91.9082 8.3829 91.919 8.35553 91.9301 8.32733C92.6057 7.14646 94.3429 6.31534 95.5898 5.94873C95.8108 5.89561 96.0329 5.85219 96.2564 5.81091C96.3121 5.80003 96.3678 5.78916 96.4251 5.77796C98.2322 5.43615 100.049 5.76772 101.66 6.63783ZM94.9231 9.69232C94.9231 9.72616 94.9231 9.76001 94.9231 9.79488C94.8385 9.82873 94.7539 9.86258 94.6667 9.89745C94.6667 9.93129 94.6667 9.96514 94.6667 10C94.6328 10 94.599 10 94.5641 10C93.5691 11.0968 93.2574 12.4253 93.3071 13.8838C93.3823 15.189 93.8395 16.3075 94.7911 17.2226C95.0553 17.4443 95.3432 17.6221 95.6411 17.7949C95.6857 17.8209 95.7304 17.8468 95.7765 17.8736C96.795 18.3973 98.1982 18.407 99.2821 18.1026C100.387 17.7325 101.312 16.9402 101.846 15.905C102.418 14.6744 102.515 13.1351 102.103 11.8462C102.092 11.8106 102.081 11.775 102.069 11.7384C101.912 11.242 101.697 10.8304 101.385 10.4103C101.355 10.3677 101.325 10.3251 101.294 10.2813C101.191 10.136 101.191 10.136 101.077 10C101.043 10 101.009 10 100.974 10C100.974 9.96616 100.974 9.93232 100.974 9.89745C100.941 9.89745 100.907 9.89745 100.872 9.89745C100.872 9.8636 100.872 9.82975 100.872 9.79488C100.687 9.64797 100.49 9.51938 100.293 9.39044C100.219 9.34231 100.146 9.29308 100.073 9.2436C98.596 8.33021 96.2193 8.57716 94.9231 9.69232Z" fill="white"/>
<path d="M6.40144 5.68191C6.44364 5.68155 6.48584 5.6812 6.52931 5.68083C6.66484 5.67994 6.80036 5.67961 6.9359 5.67951C6.98209 5.67946 7.02829 5.67941 7.07589 5.67935C7.69908 5.67982 8.30783 5.68995 8.91927 5.82316C9.0297 5.84705 9.14043 5.86749 9.2516 5.88764C10.5321 6.1317 11.7636 6.67918 12.8205 7.43592C12.7929 7.6942 12.6688 7.87713 12.5353 8.09297C12.3602 8.38252 12.1961 8.67331 12.0481 8.97759C11.8441 9.3967 11.6167 9.80107 11.3846 10.2051C11.1809 10.1762 11.0534 10.1161 10.8846 10C9.33111 8.98314 7.51298 8.48105 5.66094 8.85794C5.56859 8.87858 5.47658 8.90078 5.38462 8.9231C5.33556 8.93361 5.28651 8.94412 5.23598 8.95495C4.89665 9.039 4.62594 9.2121 4.35897 9.43592C4.34205 9.46976 4.32513 9.50361 4.30769 9.53848C4.27385 9.53848 4.24 9.53848 4.20513 9.53848C4.04789 9.96528 3.94262 10.333 4.10256 10.7693C4.32568 11.2155 4.77815 11.4133 5.22796 11.5753C5.94507 11.8089 6.67915 11.9568 7.42308 12.0737C8.69588 12.2749 10.1241 12.5287 11.2308 13.2308C11.287 13.266 11.3433 13.3013 11.4012 13.3376C11.7097 13.5353 11.7097 13.5353 11.8462 13.641C11.8462 13.6749 11.8462 13.7087 11.8462 13.7436C11.8742 13.7537 11.9023 13.7638 11.9313 13.7743C12.4769 14.1012 12.8024 14.8501 12.9621 15.434C13.2358 16.5369 13.1558 17.7523 12.6124 18.7582C12.459 19.0122 12.3 19.2648 12.1026 19.4872C12.0687 19.4872 12.0349 19.4872 12 19.4872C11.9831 19.538 11.9662 19.5887 11.9487 19.641C11.9149 19.641 11.881 19.641 11.8462 19.641C11.8462 19.6749 11.8462 19.7087 11.8462 19.7436C10.5043 21.0883 8.39278 21.3859 6.58333 21.4007C4.54659 21.3952 2.44646 20.9465 0.769231 19.7436C0.70872 19.7025 0.648084 19.6616 0.58734 19.6208C0.116244 19.3026 0.116244 19.3026 0 19.1282C0.0142043 18.8945 0.131112 18.7105 0.246795 18.5128C0.266916 18.4778 0.287037 18.4428 0.307767 18.4067C0.351974 18.3298 0.396318 18.253 0.44078 18.1762C0.517126 18.0438 0.592483 17.9109 0.667668 17.7779C0.929852 17.3146 1.19226 16.8537 1.48718 16.4103C1.73527 16.538 1.9682 16.6787 2.19638 16.8395C2.72852 17.2113 3.30381 17.4841 3.89744 17.7436C3.93617 17.7606 3.97491 17.7775 4.01482 17.795C5.45467 18.406 7.33638 18.4879 8.82692 18.0128C9.20853 17.8562 9.54709 17.6258 9.71014 17.2358C9.81012 16.9143 9.82587 16.6321 9.70192 16.3145C9.44901 15.8603 8.9322 15.6904 8.46313 15.5414C8.30404 15.4967 8.14449 15.4559 7.98397 15.4167C7.92353 15.4016 7.86309 15.3866 7.80082 15.3711C7.26105 15.2414 6.7168 15.1453 6.16987 15.0513C5.39653 14.9179 4.64449 14.7579 3.89744 14.5128C3.85005 14.4977 3.80267 14.4826 3.75386 14.4671C3.06664 14.244 2.51499 13.9339 1.94872 13.4872C1.90377 13.4543 1.85881 13.4214 1.8125 13.3874C1.6621 13.2556 1.54963 13.1054 1.4359 12.9423C1.41355 12.9106 1.39121 12.8789 1.36819 12.8462C1.11871 12.4854 0.920398 12.1226 0.820513 11.6923C0.811655 11.6587 0.802796 11.6252 0.79367 11.5906C0.539919 10.5241 0.618478 9.27216 1.16246 8.31032C1.24958 8.16935 1.34063 8.03302 1.4359 7.89746C1.47933 7.83499 1.47933 7.83499 1.52364 7.77126C1.67343 7.56301 1.67343 7.56301 1.74359 7.4872C1.77744 7.4872 1.81128 7.4872 1.84615 7.4872C1.88 7.41951 1.91385 7.35182 1.94872 7.28207C1.98256 7.28207 2.01641 7.28207 2.05128 7.28207C2.05128 7.24823 2.05128 7.21438 2.05128 7.17951C3.19256 6.13939 4.88817 5.69054 6.40144 5.68191Z" fill="white"/>
<path d="M59.8901 7.24028C59.9612 7.30517 60.0319 7.37052 60.1026 7.43588C60.1848 7.50549 60.267 7.57496 60.3494 7.64422C60.4466 7.72615 60.4466 7.72615 60.5129 7.79486C60.5129 7.8287 60.5129 7.86255 60.5129 7.89742C60.5468 7.89742 60.5806 7.89742 60.6155 7.89742C60.89 8.18739 61.1247 8.51995 61.3591 8.84294C61.3813 8.87322 61.4035 8.9035 61.4264 8.93471C61.5305 9.08054 61.6163 9.20464 61.6411 9.3846C61.523 9.46755 61.4047 9.55036 61.2863 9.633C61.1738 9.71174 61.0615 9.79081 60.9494 9.87018C60.8894 9.91239 60.8294 9.95459 60.7693 9.99678C60.7404 10.0174 60.7115 10.038 60.6817 10.0592C60.4732 10.2051 60.4732 10.2051 60.3591 10.2051C60.3591 10.239 60.3591 10.2728 60.3591 10.3077C60.2706 10.3648 60.1791 10.4174 60.0866 10.4679C59.7662 10.6489 59.4726 10.8548 59.1796 11.0769C58.9736 10.999 58.8891 10.8739 58.7661 10.6955C58.6319 10.4991 58.6319 10.4991 58.4746 10.3219C58.4103 10.2564 58.4103 10.2564 58.4103 10.1538C58.3765 10.1538 58.3426 10.1538 58.3078 10.1538C58.2467 10.0797 58.1858 10.0055 58.1257 9.93068C58.0054 9.79382 57.8639 9.69335 57.7148 9.58973C57.6832 9.56768 57.6516 9.54562 57.619 9.5229C56.58 8.812 55.3784 8.64595 54.1539 8.87178C54.1199 8.87792 54.0858 8.88406 54.0508 8.89039C53.3454 9.02426 52.7356 9.31355 52.1866 9.78204C52.1026 9.84614 52.1026 9.84614 52.0001 9.84614C51.9875 9.87556 51.9748 9.90497 51.9618 9.93528C51.8873 10.0698 51.7981 10.1575 51.6892 10.266C50.8407 11.1965 50.5841 12.4823 50.6061 13.7053C50.6619 14.845 51.0124 15.966 51.795 16.8205C51.8284 16.8592 51.8619 16.898 51.8963 16.9379C52.667 17.7779 53.8127 18.1353 54.9218 18.1985C54.973 18.2007 55.0242 18.2029 55.077 18.2051C55.1214 18.2078 55.1657 18.2105 55.2114 18.2133C56.2767 18.2506 57.2481 17.878 58.0315 17.1544C58.3615 16.8624 58.3615 16.8624 58.6155 16.5128C58.6493 16.5128 58.6832 16.5128 58.718 16.5128C58.7371 16.4731 58.7371 16.4731 58.7565 16.4327C58.8409 16.2681 58.9333 16.1089 59.0257 15.9487C59.2716 15.9736 59.4305 16.0923 59.6219 16.2372C59.686 16.2844 59.7501 16.3314 59.8144 16.3784C59.8617 16.413 59.8617 16.413 59.91 16.4483C60.0755 16.5667 60.2486 16.6726 60.4212 16.7802C60.586 16.8858 60.7467 16.9968 60.9071 17.109C61.1478 17.2769 61.3904 17.4373 61.6411 17.5897C61.6201 17.8616 61.4682 18.0321 61.3078 18.2404C61.2559 18.3089 61.2041 18.3775 61.1523 18.4461C61.1293 18.4762 61.1063 18.5062 61.0825 18.5372C61.0217 18.6164 61.0217 18.6164 60.9744 18.7179C60.9406 18.7179 60.9068 18.7179 60.8719 18.7179C60.8719 18.7518 60.8719 18.7856 60.8719 18.8205C60.838 18.8205 60.8042 18.8205 60.7693 18.8205C60.755 18.851 60.7406 18.8814 60.7258 18.9128C60.5176 19.3104 60.1416 19.576 59.795 19.8461C59.7443 19.8861 59.6937 19.9261 59.6415 19.9673C59.3145 20.22 58.9869 20.4345 58.6155 20.6154C58.5561 20.6449 58.4967 20.6745 58.4356 20.7049C57.4352 21.1835 56.3128 21.3538 55.2116 21.3526C55.1587 21.3526 55.1587 21.3526 55.1047 21.3526C54.431 21.3513 53.7872 21.2712 53.1283 21.1282C53.0366 21.1098 53.0366 21.1098 52.943 21.0911C51.8526 20.8499 50.7857 20.2676 49.9488 19.5384C49.9027 19.4994 49.8567 19.4604 49.8092 19.4203C49.4905 19.1434 49.1878 18.8422 48.9232 18.5128C48.9232 18.479 48.9232 18.4451 48.9232 18.4102C48.8893 18.4102 48.8555 18.4102 48.8206 18.4102C48.7431 18.3027 48.6722 18.1958 48.6026 18.0833C48.5819 18.0502 48.5612 18.0171 48.5399 17.983C48.4982 17.9163 48.4568 17.8496 48.4155 17.7828C48.3697 17.7094 48.3224 17.6369 48.2747 17.5647C47.1799 15.8666 47.0053 13.5782 47.4172 11.642C47.6943 10.4267 48.183 9.29247 49.0257 8.35896C49.0631 8.31553 49.1004 8.2721 49.1389 8.22735C50.5514 6.60712 52.5233 5.80999 54.6367 5.65523C56.4849 5.53828 58.4806 5.985 59.8901 7.24028Z" fill="white"/>
<path d="M63.9486 2.71796C65.0317 2.71796 66.1148 2.71796 67.2307 2.71796C67.2307 3.73334 67.2307 4.74873 67.2307 5.79488C68.6522 5.79488 70.0737 5.79488 71.5384 5.79488C71.5384 6.77642 71.5384 7.75796 71.5384 8.76924C70.1168 8.76924 68.6953 8.76924 67.2307 8.76924C67.2338 10.2022 67.2338 10.2022 67.2389 11.6351C67.2414 12.2198 67.2436 12.8044 67.2446 13.3891C67.2452 13.815 67.2466 14.2408 67.2488 14.6667C67.25 14.892 67.2508 15.1173 67.2508 15.3425C67.2507 15.5551 67.2517 15.7676 67.2533 15.9801C67.2537 16.0576 67.2538 16.1352 67.2535 16.2127C67.2516 16.8161 67.2976 17.3666 67.6922 17.8462C67.6922 17.88 67.6922 17.9139 67.6922 17.9487C68.3425 18.2869 69.1067 18.3957 69.8204 18.1763C70.3516 17.9647 70.7698 17.6225 71.1794 17.2308C71.3329 17.284 71.3814 17.3282 71.4672 17.4693C71.4936 17.5262 71.52 17.583 71.5472 17.6416C71.5617 17.6724 71.5763 17.7033 71.5913 17.735C71.6383 17.8348 71.6845 17.935 71.7307 18.0353C71.7944 18.1714 71.8586 18.3072 71.9228 18.4431C71.9384 18.4763 71.954 18.5094 71.97 18.5436C72.1153 18.8511 72.2749 19.1484 72.4432 19.4437C72.5184 19.6018 72.5582 19.7222 72.564 19.8974C72.039 20.7239 70.6365 21.1305 69.7435 21.3333C68.4882 21.5613 66.9393 21.3507 65.846 20.6667C64.7471 19.8625 64.193 18.8017 63.9729 17.4786C63.93 17.127 63.9443 16.7716 63.947 16.418C63.9475 16.3357 63.9479 16.2534 63.9482 16.171C63.9488 16.0397 63.9495 15.9084 63.9502 15.7771C63.952 15.4516 63.9528 15.1261 63.953 14.8006C63.9531 14.7532 63.9531 14.7058 63.9532 14.657C63.9533 14.4617 63.9534 14.2664 63.9535 14.0712C63.9538 13.5181 63.955 12.9652 63.959 12.4122C63.9621 11.972 63.9633 11.5319 63.9621 11.0917C63.9616 10.8592 63.962 10.6267 63.9649 10.3942C63.9676 10.1753 63.9676 9.95644 63.9657 9.73746C63.9654 9.6576 63.9661 9.57774 63.9679 9.4979C63.9773 9.04312 63.9178 8.73251 63.611 8.38945C63.5592 8.33545 63.5069 8.28183 63.4542 8.22868C63.3332 8.10257 63.3332 8.10257 63.3332 8.00001C63.2994 8.00001 63.2655 8.00001 63.2307 8.00001C63.0255 7.77075 63.0255 7.77075 63.0255 7.64103C62.9917 7.64103 62.9578 7.64103 62.923 7.64103C62.859 7.56889 62.7987 7.4934 62.7403 7.41667C62.5927 7.22714 62.4411 7.04566 62.2787 6.8686C62.0978 6.67049 61.9307 6.46626 61.7695 6.25181C61.6947 6.15249 61.6947 6.15249 61.6053 6.07032C61.5384 6.00001 61.5384 6.00001 61.5384 5.89744C61.5045 5.89744 61.4707 5.89744 61.4358 5.89744C61.4358 5.8636 61.4358 5.82975 61.4358 5.79488C62.265 5.79488 63.0943 5.79488 63.9486 5.79488C63.9486 4.7795 63.9486 3.76411 63.9486 2.71796Z" fill="white"/>
<path d="M82.6666 5.64104C82.7572 5.73166 82.7244 5.86171 82.7245 5.98449C82.7247 6.04695 82.7249 6.1094 82.725 6.17376C82.7249 6.24244 82.7248 6.31113 82.7247 6.37982C82.7247 6.44976 82.7248 6.5197 82.7249 6.58964C82.7249 6.73639 82.7248 6.88313 82.7246 7.02988C82.7243 7.21838 82.7245 7.40687 82.7248 7.59537C82.725 7.73984 82.7249 7.88431 82.7248 8.02878C82.7247 8.0983 82.7248 8.16782 82.7249 8.23734C82.725 8.33434 82.7248 8.43135 82.7245 8.52836C82.7245 8.58366 82.7245 8.63896 82.7244 8.69594C82.7179 8.82052 82.7179 8.82052 82.6666 8.87181C82.57 8.87871 82.4732 8.88225 82.3764 8.88443C82.3159 8.88603 82.2555 8.88764 82.1932 8.8893C82.1284 8.89093 82.0635 8.89256 81.9967 8.89424C80.777 8.93259 79.582 9.04195 78.6666 9.94873C77.7839 10.9907 77.5751 12.2033 77.5733 13.5343C77.5729 13.6188 77.5723 13.7033 77.5718 13.7878C77.5704 14.0148 77.5696 14.2418 77.5689 14.4688C77.5681 14.7069 77.5668 14.945 77.5654 15.1831C77.5631 15.633 77.5612 16.0828 77.5595 16.5327C77.5575 17.0453 77.555 17.5578 77.5524 18.0704C77.5471 19.1239 77.5426 20.1773 77.5384 21.2308C76.4384 21.2308 75.3384 21.2308 74.2051 21.2308C74.2051 16.1369 74.2051 11.0431 74.2051 5.79488C75.2712 5.79488 76.3374 5.79488 77.4358 5.79488C77.4612 6.4295 77.4612 6.4295 77.4871 7.07693C77.5643 7.01876 77.6416 6.96059 77.7211 6.90065C79.2043 5.82683 80.855 5.52693 82.6666 5.64104Z" fill="white"/>
<path d="M84.4614 5.79486C85.5445 5.79486 86.6276 5.79486 87.7435 5.79486C87.7435 10.8887 87.7435 15.9826 87.7435 21.2308C86.6604 21.2308 85.5773 21.2308 84.4614 21.2308C84.4614 16.1369 84.4614 11.0431 84.4614 5.79486Z" fill="white"/>
<path d="M87.4172 0.402637C87.4403 0.422072 87.4634 0.441507 87.4871 0.461531C87.4871 0.495377 87.4871 0.529223 87.4871 0.564095C87.5178 0.57725 87.5485 0.590405 87.5801 0.603959C87.9047 0.78539 88.0866 1.20014 88.2051 1.53845C88.3533 2.13725 88.2606 2.70942 87.9615 3.24038C87.6337 3.75074 87.1974 4.07134 86.6127 4.254C85.9347 4.39411 85.3433 4.20095 84.7692 3.84615C84.646 3.73837 84.646 3.73837 84.5641 3.64102C84.5641 3.60717 84.5641 3.57333 84.5641 3.53845C84.5302 3.53845 84.4964 3.53845 84.4615 3.53845C84.0741 3.01189 83.8855 2.44338 83.9693 1.78705C84.0734 1.3083 84.2922 0.886238 84.6666 0.564095C84.6986 0.535141 84.7306 0.506186 84.7636 0.476355C85.5602 -0.202812 86.5671 -0.132338 87.4172 0.402637Z" fill="white"/>
</g>
<defs>
<clipPath id="clip0_446_10496">
<rect width="105.692" height="28" fill="white"/>
</clipPath>
</defs>
</svg>
