<svg width="1632" height="580" viewBox="0 0 1632 580" fill="none" xmlns="http://www.w3.org/2000/svg">
<rect width="1632" height="580" fill="#35403E"/>
<path d="M179.058 412H177.581L181.854 400.364H183.308L187.581 412H186.104L182.626 402.205H182.536L179.058 412ZM179.604 407.455H185.558V408.705H179.604V407.455ZM195.254 403.273L192.027 412H190.663L187.436 403.273H188.891L191.3 410.227H191.391L193.8 403.273H195.254ZM200.371 412.182C199.53 412.182 198.804 411.996 198.195 411.625C197.589 411.25 197.121 410.727 196.791 410.057C196.465 409.383 196.303 408.598 196.303 407.705C196.303 406.811 196.465 406.023 196.791 405.341C197.121 404.655 197.579 404.121 198.166 403.739C198.757 403.352 199.446 403.159 200.234 403.159C200.689 403.159 201.138 403.235 201.581 403.386C202.024 403.538 202.428 403.784 202.791 404.125C203.155 404.462 203.445 404.909 203.661 405.466C203.876 406.023 203.984 406.708 203.984 407.523V408.091H197.257V406.932H202.621C202.621 406.439 202.522 406 202.325 405.614C202.132 405.227 201.856 404.922 201.496 404.699C201.14 404.475 200.719 404.364 200.234 404.364C199.7 404.364 199.238 404.496 198.848 404.761C198.462 405.023 198.164 405.364 197.956 405.784C197.748 406.205 197.643 406.655 197.643 407.136V407.909C197.643 408.568 197.757 409.127 197.984 409.585C198.215 410.04 198.536 410.386 198.945 410.625C199.354 410.86 199.829 410.977 200.371 410.977C200.723 410.977 201.041 410.928 201.325 410.83C201.613 410.727 201.861 410.576 202.07 410.375C202.278 410.17 202.439 409.917 202.553 409.614L203.848 409.977C203.712 410.417 203.482 410.803 203.161 411.136C202.839 411.466 202.441 411.723 201.967 411.909C201.494 412.091 200.962 412.182 200.371 412.182ZM206.024 412V403.273H207.32V404.591H207.411C207.57 404.159 207.857 403.809 208.274 403.54C208.691 403.271 209.161 403.136 209.683 403.136C209.782 403.136 209.905 403.138 210.053 403.142C210.2 403.146 210.312 403.152 210.388 403.159V404.523C210.342 404.511 210.238 404.494 210.075 404.472C209.916 404.445 209.748 404.432 209.57 404.432C209.145 404.432 208.767 404.521 208.433 404.699C208.104 404.873 207.842 405.116 207.649 405.426C207.46 405.733 207.365 406.083 207.365 406.477V412H206.024ZM214.545 412.205C213.992 412.205 213.491 412.1 213.04 411.892C212.589 411.68 212.231 411.375 211.966 410.977C211.701 410.576 211.568 410.091 211.568 409.523C211.568 409.023 211.667 408.617 211.864 408.307C212.061 407.992 212.324 407.746 212.653 407.568C212.983 407.39 213.347 407.258 213.744 407.17C214.146 407.08 214.549 407.008 214.955 406.955C215.485 406.886 215.915 406.835 216.244 406.801C216.578 406.763 216.82 406.701 216.972 406.614C217.127 406.527 217.205 406.375 217.205 406.159V406.114C217.205 405.553 217.051 405.117 216.744 404.807C216.441 404.496 215.981 404.341 215.364 404.341C214.723 404.341 214.222 404.481 213.858 404.761C213.494 405.042 213.239 405.341 213.091 405.659L211.818 405.205C212.045 404.674 212.348 404.261 212.727 403.966C213.11 403.667 213.527 403.458 213.977 403.341C214.432 403.22 214.879 403.159 215.318 403.159C215.598 403.159 215.92 403.193 216.284 403.261C216.652 403.326 217.006 403.46 217.347 403.665C217.691 403.869 217.977 404.178 218.205 404.591C218.432 405.004 218.545 405.557 218.545 406.25V412H217.205V410.818H217.136C217.045 411.008 216.894 411.21 216.682 411.426C216.47 411.642 216.188 411.826 215.835 411.977C215.483 412.129 215.053 412.205 214.545 412.205ZM214.75 411C215.28 411 215.727 410.896 216.091 410.688C216.458 410.479 216.735 410.21 216.92 409.881C217.11 409.551 217.205 409.205 217.205 408.841V407.614C217.148 407.682 217.023 407.744 216.83 407.801C216.64 407.854 216.42 407.902 216.17 407.943C215.924 407.981 215.684 408.015 215.449 408.045C215.218 408.072 215.03 408.095 214.886 408.114C214.538 408.159 214.212 408.233 213.909 408.335C213.61 408.434 213.367 408.583 213.182 408.784C213 408.981 212.909 409.25 212.909 409.591C212.909 410.057 213.081 410.409 213.426 410.648C213.775 410.883 214.216 411 214.75 411ZM224.516 415.455C223.868 415.455 223.311 415.371 222.845 415.205C222.379 415.042 221.991 414.826 221.68 414.557C221.374 414.292 221.129 414.008 220.947 413.705L222.016 412.955C222.137 413.114 222.29 413.295 222.476 413.5C222.661 413.708 222.915 413.888 223.237 414.04C223.563 414.195 223.989 414.273 224.516 414.273C225.22 414.273 225.802 414.102 226.26 413.761C226.718 413.42 226.947 412.886 226.947 412.159V410.386H226.834C226.735 410.545 226.595 410.742 226.413 410.977C226.235 411.208 225.978 411.415 225.641 411.597C225.307 411.775 224.857 411.864 224.288 411.864C223.584 411.864 222.951 411.697 222.391 411.364C221.834 411.03 221.393 410.545 221.067 409.909C220.745 409.273 220.584 408.5 220.584 407.591C220.584 406.697 220.741 405.919 221.055 405.256C221.37 404.589 221.807 404.074 222.368 403.71C222.929 403.343 223.576 403.159 224.311 403.159C224.879 403.159 225.33 403.254 225.663 403.443C226 403.629 226.258 403.841 226.436 404.08C226.618 404.314 226.758 404.508 226.857 404.659H226.993V403.273H228.288V412.25C228.288 413 228.118 413.61 227.777 414.08C227.44 414.553 226.985 414.9 226.413 415.119C225.845 415.343 225.213 415.455 224.516 415.455ZM224.47 410.659C225.008 410.659 225.463 410.536 225.834 410.29C226.205 410.044 226.487 409.689 226.68 409.227C226.874 408.765 226.97 408.212 226.97 407.568C226.97 406.939 226.875 406.384 226.686 405.903C226.497 405.422 226.216 405.045 225.845 404.773C225.474 404.5 225.016 404.364 224.47 404.364C223.902 404.364 223.429 404.508 223.05 404.795C222.675 405.083 222.393 405.47 222.203 405.955C222.018 406.439 221.925 406.977 221.925 407.568C221.925 408.174 222.019 408.71 222.209 409.176C222.402 409.638 222.686 410.002 223.061 410.267C223.44 410.528 223.91 410.659 224.47 410.659ZM234.402 412.182C233.561 412.182 232.836 411.996 232.226 411.625C231.62 411.25 231.152 410.727 230.822 410.057C230.497 409.383 230.334 408.598 230.334 407.705C230.334 406.811 230.497 406.023 230.822 405.341C231.152 404.655 231.61 404.121 232.197 403.739C232.788 403.352 233.478 403.159 234.266 403.159C234.72 403.159 235.169 403.235 235.612 403.386C236.055 403.538 236.459 403.784 236.822 404.125C237.186 404.462 237.476 404.909 237.692 405.466C237.908 406.023 238.016 406.708 238.016 407.523V408.091H231.288V406.932H236.652C236.652 406.439 236.554 406 236.357 405.614C236.163 405.227 235.887 404.922 235.527 404.699C235.171 404.475 234.75 404.364 234.266 404.364C233.732 404.364 233.269 404.496 232.879 404.761C232.493 405.023 232.196 405.364 231.987 405.784C231.779 406.205 231.675 406.655 231.675 407.136V407.909C231.675 408.568 231.788 409.127 232.016 409.585C232.247 410.04 232.567 410.386 232.976 410.625C233.385 410.86 233.86 410.977 234.402 410.977C234.754 410.977 235.072 410.928 235.357 410.83C235.644 410.727 235.893 410.576 236.101 410.375C236.309 410.17 236.47 409.917 236.584 409.614L237.879 409.977C237.743 410.417 237.514 410.803 237.192 411.136C236.87 411.466 236.472 411.723 235.999 411.909C235.525 412.091 234.993 412.182 234.402 412.182Z" fill="white"/>
<path d="M149.886 186H148.409L152.682 174.364H154.136L158.409 186H156.932L153.455 176.205H153.364L149.886 186ZM150.432 181.455H156.386V182.705H150.432V181.455ZM160.04 186V177.273H161.335V178.636H161.449C161.631 178.17 161.924 177.809 162.33 177.551C162.735 177.29 163.222 177.159 163.79 177.159C164.366 177.159 164.845 177.29 165.227 177.551C165.614 177.809 165.915 178.17 166.131 178.636H166.222C166.445 178.186 166.78 177.828 167.227 177.562C167.674 177.294 168.21 177.159 168.835 177.159C169.616 177.159 170.254 177.403 170.75 177.892C171.246 178.377 171.494 179.133 171.494 180.159V186H170.153V180.159C170.153 179.515 169.977 179.055 169.625 178.778C169.273 178.502 168.858 178.364 168.381 178.364C167.767 178.364 167.292 178.549 166.955 178.92C166.617 179.288 166.449 179.754 166.449 180.318V186H165.085V180.023C165.085 179.527 164.924 179.127 164.602 178.824C164.28 178.517 163.866 178.364 163.358 178.364C163.009 178.364 162.684 178.456 162.381 178.642C162.081 178.828 161.839 179.085 161.653 179.415C161.472 179.741 161.381 180.117 161.381 180.545V186H160.04ZM176.514 186.205C175.961 186.205 175.459 186.1 175.009 185.892C174.558 185.68 174.2 185.375 173.935 184.977C173.67 184.576 173.537 184.091 173.537 183.523C173.537 183.023 173.635 182.617 173.832 182.307C174.029 181.992 174.293 181.746 174.622 181.568C174.952 181.39 175.315 181.258 175.713 181.17C176.115 181.08 176.518 181.008 176.923 180.955C177.454 180.886 177.884 180.835 178.213 180.801C178.546 180.763 178.789 180.701 178.94 180.614C179.096 180.527 179.173 180.375 179.173 180.159V180.114C179.173 179.553 179.02 179.117 178.713 178.807C178.41 178.496 177.95 178.341 177.332 178.341C176.692 178.341 176.19 178.481 175.827 178.761C175.463 179.042 175.207 179.341 175.06 179.659L173.787 179.205C174.014 178.674 174.317 178.261 174.696 177.966C175.079 177.667 175.495 177.458 175.946 177.341C176.401 177.22 176.848 177.159 177.287 177.159C177.567 177.159 177.889 177.193 178.253 177.261C178.62 177.326 178.974 177.46 179.315 177.665C179.66 177.869 179.946 178.178 180.173 178.591C180.401 179.004 180.514 179.557 180.514 180.25V186H179.173V184.818H179.105C179.014 185.008 178.863 185.21 178.651 185.426C178.438 185.642 178.156 185.826 177.804 185.977C177.452 186.129 177.022 186.205 176.514 186.205ZM176.719 185C177.249 185 177.696 184.896 178.06 184.688C178.427 184.479 178.704 184.21 178.889 183.881C179.079 183.551 179.173 183.205 179.173 182.841V181.614C179.116 181.682 178.991 181.744 178.798 181.801C178.609 181.854 178.389 181.902 178.139 181.943C177.893 181.981 177.652 182.015 177.418 182.045C177.187 182.072 176.999 182.095 176.855 182.114C176.507 182.159 176.181 182.233 175.878 182.335C175.579 182.434 175.336 182.583 175.151 182.784C174.969 182.981 174.878 183.25 174.878 183.591C174.878 184.057 175.05 184.409 175.395 184.648C175.743 184.883 176.185 185 176.719 185ZM182.712 186V184.977L187.666 178.614V178.523H182.871V177.273H189.393V178.341L184.575 184.659V184.75H189.553V186H182.712ZM194.913 186.182C194.125 186.182 193.434 185.994 192.839 185.619C192.249 185.244 191.786 184.72 191.453 184.045C191.124 183.371 190.959 182.583 190.959 181.682C190.959 180.773 191.124 179.979 191.453 179.301C191.786 178.623 192.249 178.097 192.839 177.722C193.434 177.347 194.125 177.159 194.913 177.159C195.701 177.159 196.391 177.347 196.982 177.722C197.576 178.097 198.038 178.623 198.368 179.301C198.701 179.979 198.868 180.773 198.868 181.682C198.868 182.583 198.701 183.371 198.368 184.045C198.038 184.72 197.576 185.244 196.982 185.619C196.391 185.994 195.701 186.182 194.913 186.182ZM194.913 184.977C195.512 184.977 196.004 184.824 196.391 184.517C196.777 184.21 197.063 183.807 197.249 183.307C197.434 182.807 197.527 182.265 197.527 181.682C197.527 181.098 197.434 180.555 197.249 180.051C197.063 179.547 196.777 179.14 196.391 178.83C196.004 178.519 195.512 178.364 194.913 178.364C194.315 178.364 193.822 178.519 193.436 178.83C193.05 179.14 192.764 179.547 192.578 180.051C192.393 180.555 192.3 181.098 192.3 181.682C192.3 182.265 192.393 182.807 192.578 183.307C192.764 183.807 193.05 184.21 193.436 184.517C193.822 184.824 194.315 184.977 194.913 184.977ZM202.256 180.75V186H200.915V177.273H202.21V178.636H202.324C202.528 178.193 202.839 177.837 203.256 177.568C203.672 177.295 204.21 177.159 204.869 177.159C205.46 177.159 205.977 177.28 206.42 177.523C206.864 177.761 207.208 178.125 207.455 178.614C207.701 179.098 207.824 179.712 207.824 180.455V186H206.483V180.545C206.483 179.86 206.305 179.326 205.949 178.943C205.593 178.557 205.104 178.364 204.483 178.364C204.055 178.364 203.672 178.456 203.335 178.642C203.002 178.828 202.739 179.098 202.545 179.455C202.352 179.811 202.256 180.242 202.256 180.75ZM214.956 186V174.364H216.365V180.136H216.501L221.729 174.364H223.57L218.683 179.614L223.57 186H221.865L217.82 180.591L216.365 182.227V186H214.956ZM225.759 186V177.273H227.099V186H225.759ZM226.44 175.818C226.179 175.818 225.954 175.729 225.764 175.551C225.579 175.373 225.486 175.159 225.486 174.909C225.486 174.659 225.579 174.445 225.764 174.267C225.954 174.089 226.179 174 226.44 174C226.702 174 226.925 174.089 227.111 174.267C227.3 174.445 227.395 174.659 227.395 174.909C227.395 175.159 227.3 175.373 227.111 175.551C226.925 175.729 226.702 175.818 226.44 175.818ZM230.896 180.75V186H229.555V177.273H230.851V178.636H230.964C231.169 178.193 231.48 177.837 231.896 177.568C232.313 177.295 232.851 177.159 233.51 177.159C234.101 177.159 234.618 177.28 235.061 177.523C235.504 177.761 235.849 178.125 236.095 178.614C236.341 179.098 236.464 179.712 236.464 180.455V186H235.124V180.545C235.124 179.86 234.946 179.326 234.589 178.943C234.233 178.557 233.745 178.364 233.124 178.364C232.696 178.364 232.313 178.456 231.976 178.642C231.643 178.828 231.379 179.098 231.186 179.455C230.993 179.811 230.896 180.242 230.896 180.75ZM242.574 186.182C241.733 186.182 241.008 185.996 240.398 185.625C239.792 185.25 239.324 184.727 238.994 184.057C238.669 183.383 238.506 182.598 238.506 181.705C238.506 180.811 238.669 180.023 238.994 179.341C239.324 178.655 239.782 178.121 240.369 177.739C240.96 177.352 241.65 177.159 242.438 177.159C242.892 177.159 243.341 177.235 243.784 177.386C244.227 177.538 244.631 177.784 244.994 178.125C245.358 178.462 245.648 178.909 245.864 179.466C246.08 180.023 246.188 180.708 246.188 181.523V182.091H239.46V180.932H244.824C244.824 180.439 244.725 180 244.528 179.614C244.335 179.227 244.059 178.922 243.699 178.699C243.343 178.475 242.922 178.364 242.438 178.364C241.903 178.364 241.441 178.496 241.051 178.761C240.665 179.023 240.367 179.364 240.159 179.784C239.951 180.205 239.847 180.655 239.847 181.136V181.909C239.847 182.568 239.96 183.127 240.188 183.585C240.419 184.04 240.739 184.386 241.148 184.625C241.557 184.86 242.032 184.977 242.574 184.977C242.926 184.977 243.244 184.928 243.528 184.83C243.816 184.727 244.064 184.576 244.273 184.375C244.481 184.17 244.642 183.917 244.756 183.614L246.051 183.977C245.915 184.417 245.686 184.803 245.364 185.136C245.042 185.466 244.644 185.723 244.17 185.909C243.697 186.091 243.165 186.182 242.574 186.182ZM254.409 179.227L253.205 179.568C253.129 179.367 253.017 179.172 252.869 178.983C252.725 178.79 252.528 178.631 252.278 178.506C252.028 178.381 251.708 178.318 251.318 178.318C250.784 178.318 250.339 178.441 249.983 178.688C249.631 178.93 249.455 179.239 249.455 179.614C249.455 179.947 249.576 180.21 249.818 180.403C250.061 180.597 250.439 180.758 250.955 180.886L252.25 181.205C253.03 181.394 253.612 181.684 253.994 182.074C254.377 182.46 254.568 182.958 254.568 183.568C254.568 184.068 254.424 184.515 254.136 184.909C253.852 185.303 253.455 185.614 252.943 185.841C252.432 186.068 251.837 186.182 251.159 186.182C250.269 186.182 249.532 185.989 248.949 185.602C248.366 185.216 247.996 184.652 247.841 183.909L249.114 183.591C249.235 184.061 249.464 184.413 249.801 184.648C250.142 184.883 250.587 185 251.136 185C251.761 185 252.258 184.867 252.625 184.602C252.996 184.333 253.182 184.011 253.182 183.636C253.182 183.333 253.076 183.08 252.864 182.875C252.652 182.667 252.326 182.511 251.886 182.409L250.432 182.068C249.633 181.879 249.045 181.585 248.67 181.188C248.299 180.786 248.114 180.284 248.114 179.682C248.114 179.189 248.252 178.754 248.528 178.375C248.809 177.996 249.189 177.699 249.67 177.483C250.155 177.267 250.705 177.159 251.318 177.159C252.182 177.159 252.86 177.348 253.352 177.727C253.848 178.106 254.201 178.606 254.409 179.227ZM256.587 186V177.273H257.928V186H256.587ZM257.268 175.818C257.007 175.818 256.782 175.729 256.592 175.551C256.407 175.373 256.314 175.159 256.314 174.909C256.314 174.659 256.407 174.445 256.592 174.267C256.782 174.089 257.007 174 257.268 174C257.53 174 257.753 174.089 257.939 174.267C258.128 174.445 258.223 174.659 258.223 174.909C258.223 175.159 258.128 175.373 257.939 175.551C257.753 175.729 257.53 175.818 257.268 175.818ZM266.565 179.227L265.361 179.568C265.285 179.367 265.173 179.172 265.026 178.983C264.882 178.79 264.685 178.631 264.435 178.506C264.185 178.381 263.865 178.318 263.474 178.318C262.94 178.318 262.495 178.441 262.139 178.688C261.787 178.93 261.611 179.239 261.611 179.614C261.611 179.947 261.732 180.21 261.974 180.403C262.217 180.597 262.596 180.758 263.111 180.886L264.406 181.205C265.187 181.394 265.768 181.684 266.151 182.074C266.533 182.46 266.724 182.958 266.724 183.568C266.724 184.068 266.58 184.515 266.293 184.909C266.009 185.303 265.611 185.614 265.099 185.841C264.588 186.068 263.993 186.182 263.315 186.182C262.425 186.182 261.688 185.989 261.105 185.602C260.522 185.216 260.152 184.652 259.997 183.909L261.27 183.591C261.391 184.061 261.62 184.413 261.957 184.648C262.298 184.883 262.743 185 263.293 185C263.918 185 264.414 184.867 264.781 184.602C265.152 184.333 265.338 184.011 265.338 183.636C265.338 183.333 265.232 183.08 265.02 182.875C264.808 182.667 264.482 182.511 264.043 182.409L262.588 182.068C261.789 181.879 261.202 181.585 260.827 181.188C260.455 180.786 260.27 180.284 260.27 179.682C260.27 179.189 260.408 178.754 260.685 178.375C260.965 177.996 261.346 177.699 261.827 177.483C262.312 177.267 262.861 177.159 263.474 177.159C264.338 177.159 265.016 177.348 265.509 177.727C266.005 178.106 266.357 178.606 266.565 179.227Z" fill="white"/>
<path d="M149.886 159H148.409L152.682 147.364H154.136L158.409 159H156.932L153.455 149.205H153.364L149.886 159ZM150.432 154.455H156.386V155.705H150.432V154.455ZM160.04 162.273V150.273H161.335V151.659H161.494C161.593 151.508 161.729 151.314 161.903 151.08C162.081 150.841 162.335 150.629 162.665 150.443C162.998 150.254 163.449 150.159 164.017 150.159C164.752 150.159 165.4 150.343 165.96 150.71C166.521 151.078 166.958 151.598 167.273 152.273C167.587 152.947 167.744 153.742 167.744 154.659C167.744 155.583 167.587 156.384 167.273 157.062C166.958 157.737 166.523 158.259 165.966 158.631C165.409 158.998 164.767 159.182 164.04 159.182C163.479 159.182 163.03 159.089 162.693 158.903C162.356 158.714 162.097 158.5 161.915 158.261C161.733 158.019 161.593 157.818 161.494 157.659H161.381V162.273H160.04ZM161.358 154.636C161.358 155.295 161.455 155.877 161.648 156.381C161.841 156.881 162.123 157.273 162.494 157.557C162.866 157.837 163.32 157.977 163.858 157.977C164.419 157.977 164.886 157.83 165.261 157.534C165.64 157.235 165.924 156.833 166.114 156.33C166.307 155.822 166.403 155.258 166.403 154.636C166.403 154.023 166.309 153.47 166.119 152.977C165.934 152.481 165.652 152.089 165.273 151.801C164.898 151.509 164.426 151.364 163.858 151.364C163.313 151.364 162.854 151.502 162.483 151.778C162.112 152.051 161.831 152.434 161.642 152.926C161.453 153.415 161.358 153.985 161.358 154.636ZM172.358 159.205C171.805 159.205 171.303 159.1 170.852 158.892C170.402 158.68 170.044 158.375 169.778 157.977C169.513 157.576 169.381 157.091 169.381 156.523C169.381 156.023 169.479 155.617 169.676 155.307C169.873 154.992 170.136 154.746 170.466 154.568C170.795 154.39 171.159 154.258 171.557 154.17C171.958 154.08 172.362 154.008 172.767 153.955C173.297 153.886 173.727 153.835 174.057 153.801C174.39 153.763 174.633 153.701 174.784 153.614C174.939 153.527 175.017 153.375 175.017 153.159V153.114C175.017 152.553 174.864 152.117 174.557 151.807C174.254 151.496 173.794 151.341 173.176 151.341C172.536 151.341 172.034 151.481 171.67 151.761C171.307 152.042 171.051 152.341 170.903 152.659L169.631 152.205C169.858 151.674 170.161 151.261 170.54 150.966C170.922 150.667 171.339 150.458 171.79 150.341C172.244 150.22 172.691 150.159 173.131 150.159C173.411 150.159 173.733 150.193 174.097 150.261C174.464 150.326 174.818 150.46 175.159 150.665C175.504 150.869 175.79 151.178 176.017 151.591C176.244 152.004 176.358 152.557 176.358 153.25V159H175.017V157.818H174.949C174.858 158.008 174.706 158.21 174.494 158.426C174.282 158.642 174 158.826 173.648 158.977C173.295 159.129 172.866 159.205 172.358 159.205ZM172.562 158C173.093 158 173.54 157.896 173.903 157.688C174.271 157.479 174.547 157.21 174.733 156.881C174.922 156.551 175.017 156.205 175.017 155.841V154.614C174.96 154.682 174.835 154.744 174.642 154.801C174.453 154.854 174.233 154.902 173.983 154.943C173.737 154.981 173.496 155.015 173.261 155.045C173.03 155.072 172.843 155.095 172.699 155.114C172.35 155.159 172.025 155.233 171.722 155.335C171.422 155.434 171.18 155.583 170.994 155.784C170.813 155.981 170.722 156.25 170.722 156.591C170.722 157.057 170.894 157.409 171.239 157.648C171.587 157.883 172.028 158 172.562 158ZM182.351 159.182C181.533 159.182 180.828 158.989 180.237 158.602C179.646 158.216 179.192 157.684 178.874 157.006C178.555 156.328 178.396 155.553 178.396 154.682C178.396 153.795 178.559 153.013 178.885 152.335C179.214 151.653 179.673 151.121 180.26 150.739C180.851 150.352 181.54 150.159 182.328 150.159C182.942 150.159 183.495 150.273 183.987 150.5C184.48 150.727 184.883 151.045 185.197 151.455C185.512 151.864 185.707 152.341 185.783 152.886H184.442C184.339 152.489 184.112 152.136 183.76 151.83C183.411 151.519 182.942 151.364 182.351 151.364C181.828 151.364 181.37 151.5 180.976 151.773C180.586 152.042 180.281 152.422 180.061 152.915C179.845 153.403 179.737 153.977 179.737 154.636C179.737 155.311 179.843 155.898 180.055 156.398C180.271 156.898 180.574 157.286 180.964 157.562C181.358 157.839 181.821 157.977 182.351 157.977C182.699 157.977 183.016 157.917 183.3 157.795C183.584 157.674 183.824 157.5 184.021 157.273C184.218 157.045 184.358 156.773 184.442 156.455H185.783C185.707 156.97 185.519 157.434 185.22 157.847C184.925 158.256 184.533 158.581 184.044 158.824C183.559 159.062 182.995 159.182 182.351 159.182ZM189.084 153.75V159H187.743V147.364H189.084V151.636H189.197C189.402 151.186 189.709 150.828 190.118 150.562C190.531 150.294 191.08 150.159 191.766 150.159C192.36 150.159 192.881 150.278 193.328 150.517C193.775 150.752 194.122 151.114 194.368 151.602C194.618 152.087 194.743 152.705 194.743 153.455V159H193.402V153.545C193.402 152.852 193.222 152.316 192.862 151.938C192.506 151.555 192.012 151.364 191.379 151.364C190.94 151.364 190.546 151.456 190.197 151.642C189.853 151.828 189.58 152.098 189.379 152.455C189.182 152.811 189.084 153.242 189.084 153.75ZM200.855 159.182C200.014 159.182 199.289 158.996 198.679 158.625C198.073 158.25 197.605 157.727 197.276 157.057C196.95 156.383 196.787 155.598 196.787 154.705C196.787 153.811 196.95 153.023 197.276 152.341C197.605 151.655 198.063 151.121 198.651 150.739C199.241 150.352 199.931 150.159 200.719 150.159C201.173 150.159 201.622 150.235 202.065 150.386C202.509 150.538 202.912 150.784 203.276 151.125C203.639 151.462 203.929 151.909 204.145 152.466C204.361 153.023 204.469 153.708 204.469 154.523V155.091H197.741V153.932H203.105C203.105 153.439 203.007 153 202.81 152.614C202.616 152.227 202.34 151.922 201.98 151.699C201.624 151.475 201.204 151.364 200.719 151.364C200.185 151.364 199.723 151.496 199.332 151.761C198.946 152.023 198.649 152.364 198.44 152.784C198.232 153.205 198.128 153.655 198.128 154.136V154.909C198.128 155.568 198.241 156.127 198.469 156.585C198.7 157.04 199.02 157.386 199.429 157.625C199.838 157.86 200.313 157.977 200.855 157.977C201.207 157.977 201.526 157.928 201.81 157.83C202.098 157.727 202.346 157.576 202.554 157.375C202.762 157.17 202.923 156.917 203.037 156.614L204.332 156.977C204.196 157.417 203.967 157.803 203.645 158.136C203.323 158.466 202.925 158.723 202.452 158.909C201.978 159.091 201.446 159.182 200.855 159.182ZM211.19 159V147.364H212.599V153.136H212.736L217.963 147.364H219.804L214.918 152.614L219.804 159H218.099L214.054 153.591L212.599 155.227V159H211.19ZM224.014 159.205C223.461 159.205 222.959 159.1 222.509 158.892C222.058 158.68 221.7 158.375 221.435 157.977C221.17 157.576 221.037 157.091 221.037 156.523C221.037 156.023 221.135 155.617 221.332 155.307C221.529 154.992 221.793 154.746 222.122 154.568C222.452 154.39 222.815 154.258 223.213 154.17C223.615 154.08 224.018 154.008 224.423 153.955C224.954 153.886 225.384 153.835 225.713 153.801C226.046 153.763 226.289 153.701 226.44 153.614C226.596 153.527 226.673 153.375 226.673 153.159V153.114C226.673 152.553 226.52 152.117 226.213 151.807C225.91 151.496 225.45 151.341 224.832 151.341C224.192 151.341 223.69 151.481 223.327 151.761C222.963 152.042 222.707 152.341 222.56 152.659L221.287 152.205C221.514 151.674 221.817 151.261 222.196 150.966C222.579 150.667 222.995 150.458 223.446 150.341C223.901 150.22 224.348 150.159 224.787 150.159C225.067 150.159 225.389 150.193 225.753 150.261C226.12 150.326 226.474 150.46 226.815 150.665C227.16 150.869 227.446 151.178 227.673 151.591C227.901 152.004 228.014 152.557 228.014 153.25V159H226.673V157.818H226.605C226.514 158.008 226.363 158.21 226.151 158.426C225.938 158.642 225.656 158.826 225.304 158.977C224.952 159.129 224.522 159.205 224.014 159.205ZM224.219 158C224.749 158 225.196 157.896 225.56 157.688C225.927 157.479 226.204 157.21 226.389 156.881C226.579 156.551 226.673 156.205 226.673 155.841V154.614C226.616 154.682 226.491 154.744 226.298 154.801C226.109 154.854 225.889 154.902 225.639 154.943C225.393 154.981 225.152 155.015 224.918 155.045C224.687 155.072 224.499 155.095 224.355 155.114C224.007 155.159 223.681 155.233 223.378 155.335C223.079 155.434 222.836 155.583 222.651 155.784C222.469 155.981 222.378 156.25 222.378 156.591C222.378 157.057 222.55 157.409 222.895 157.648C223.243 157.883 223.685 158 224.219 158ZM234.348 150.273V151.409H229.643V150.273H234.348ZM231.053 159V149.068C231.053 148.568 231.17 148.152 231.405 147.818C231.64 147.485 231.945 147.235 232.32 147.068C232.695 146.902 233.09 146.818 233.507 146.818C233.837 146.818 234.106 146.845 234.314 146.898C234.522 146.951 234.678 147 234.78 147.045L234.393 148.205C234.325 148.182 234.231 148.153 234.109 148.119C233.992 148.085 233.837 148.068 233.643 148.068C233.2 148.068 232.88 148.18 232.683 148.403C232.49 148.627 232.393 148.955 232.393 149.386V159H231.053ZM237.477 155.818L237.455 154.159H237.727L241.545 150.273H243.205L239.136 154.386H239.023L237.477 155.818ZM236.227 159V147.364H237.568V159H236.227ZM241.773 159L238.364 154.682L239.318 153.75L243.477 159H241.773ZM247.499 159.205C246.946 159.205 246.444 159.1 245.993 158.892C245.542 158.68 245.184 158.375 244.919 157.977C244.654 157.576 244.521 157.091 244.521 156.523C244.521 156.023 244.62 155.617 244.817 155.307C245.014 154.992 245.277 154.746 245.607 154.568C245.936 154.39 246.3 154.258 246.697 154.17C247.099 154.08 247.502 154.008 247.908 153.955C248.438 153.886 248.868 153.835 249.197 153.801C249.531 153.763 249.773 153.701 249.925 153.614C250.08 153.527 250.158 153.375 250.158 153.159V153.114C250.158 152.553 250.004 152.117 249.697 151.807C249.394 151.496 248.934 151.341 248.317 151.341C247.677 151.341 247.175 151.481 246.811 151.761C246.447 152.042 246.192 152.341 246.044 152.659L244.771 152.205C244.999 151.674 245.302 151.261 245.68 150.966C246.063 150.667 246.48 150.458 246.93 150.341C247.385 150.22 247.832 150.159 248.271 150.159C248.552 150.159 248.874 150.193 249.237 150.261C249.605 150.326 249.959 150.46 250.3 150.665C250.644 150.869 250.93 151.178 251.158 151.591C251.385 152.004 251.499 152.557 251.499 153.25V159H250.158V157.818H250.089C249.999 158.008 249.847 158.21 249.635 158.426C249.423 158.642 249.141 158.826 248.788 158.977C248.436 159.129 248.006 159.205 247.499 159.205ZM247.703 158C248.233 158 248.68 157.896 249.044 157.688C249.411 157.479 249.688 157.21 249.874 156.881C250.063 156.551 250.158 156.205 250.158 155.841V154.614C250.101 154.682 249.976 154.744 249.783 154.801C249.593 154.854 249.374 154.902 249.124 154.943C248.877 154.981 248.637 155.015 248.402 155.045C248.171 155.072 247.983 155.095 247.839 155.114C247.491 155.159 247.165 155.233 246.862 155.335C246.563 155.434 246.321 155.583 246.135 155.784C245.953 155.981 245.862 156.25 245.862 156.591C245.862 157.057 246.035 157.409 246.379 157.648C246.728 157.883 247.169 158 247.703 158Z" fill="white"/>
<path d="M313.436 400.01H315.118L319.073 409.669H319.209L323.164 400.01H324.846V411.646H323.527V402.806H323.414L319.777 411.646H318.505L314.868 402.806H314.755V411.646H313.436V400.01ZM330.057 411.851C329.504 411.851 329.002 411.747 328.551 411.539C328.101 411.326 327.743 411.021 327.478 410.624C327.212 410.222 327.08 409.737 327.08 409.169C327.08 408.669 327.178 408.264 327.375 407.953C327.572 407.639 327.836 407.393 328.165 407.215C328.495 407.037 328.858 406.904 329.256 406.817C329.658 406.726 330.061 406.654 330.466 406.601C330.997 406.533 331.426 406.482 331.756 406.448C332.089 406.41 332.332 406.347 332.483 406.26C332.639 406.173 332.716 406.021 332.716 405.806V405.76C332.716 405.2 332.563 404.764 332.256 404.453C331.953 404.143 331.493 403.987 330.875 403.987C330.235 403.987 329.733 404.128 329.37 404.408C329.006 404.688 328.75 404.987 328.603 405.306L327.33 404.851C327.557 404.321 327.86 403.908 328.239 403.612C328.622 403.313 329.038 403.105 329.489 402.987C329.944 402.866 330.391 402.806 330.83 402.806C331.11 402.806 331.432 402.84 331.796 402.908C332.163 402.972 332.517 403.107 332.858 403.311C333.203 403.516 333.489 403.825 333.716 404.237C333.944 404.65 334.057 405.203 334.057 405.896V411.646H332.716V410.465H332.648C332.557 410.654 332.406 410.857 332.194 411.073C331.981 411.289 331.699 411.472 331.347 411.624C330.995 411.775 330.565 411.851 330.057 411.851ZM330.262 410.646C330.792 410.646 331.239 410.542 331.603 410.334C331.97 410.126 332.247 409.857 332.432 409.527C332.622 409.198 332.716 408.851 332.716 408.487V407.26C332.659 407.328 332.534 407.391 332.341 407.448C332.152 407.501 331.932 407.548 331.682 407.59C331.436 407.628 331.195 407.662 330.961 407.692C330.73 407.718 330.542 407.741 330.398 407.76C330.05 407.806 329.724 407.879 329.421 407.982C329.122 408.08 328.879 408.23 328.694 408.431C328.512 408.628 328.421 408.896 328.421 409.237C328.421 409.703 328.593 410.056 328.938 410.294C329.286 410.529 329.728 410.646 330.262 410.646ZM336.505 411.646V402.919H337.8V404.237H337.891C338.05 403.806 338.338 403.455 338.755 403.186C339.171 402.917 339.641 402.783 340.164 402.783C340.262 402.783 340.385 402.785 340.533 402.789C340.681 402.792 340.792 402.798 340.868 402.806V404.169C340.823 404.158 340.719 404.141 340.556 404.118C340.397 404.092 340.228 404.078 340.05 404.078C339.626 404.078 339.247 404.167 338.914 404.345C338.584 404.52 338.323 404.762 338.13 405.073C337.94 405.379 337.846 405.73 337.846 406.124V411.646H336.505ZM350.799 411.806C350.321 411.798 349.844 411.707 349.367 411.533C348.89 411.359 348.454 411.065 348.06 410.652C347.666 410.235 347.35 409.673 347.111 408.965C346.873 408.253 346.753 407.359 346.753 406.283C346.753 405.253 346.85 404.34 347.043 403.544C347.236 402.745 347.516 402.073 347.884 401.527C348.251 400.978 348.694 400.561 349.213 400.277C349.736 399.993 350.325 399.851 350.98 399.851C351.632 399.851 352.212 399.982 352.719 400.243C353.23 400.501 353.647 400.86 353.969 401.323C354.291 401.785 354.499 402.317 354.594 402.919H353.208C353.079 402.396 352.829 401.963 352.458 401.618C352.087 401.273 351.594 401.101 350.98 401.101C350.079 401.101 349.369 401.493 348.85 402.277C348.335 403.061 348.075 404.162 348.071 405.578H348.162C348.374 405.256 348.626 404.982 348.918 404.754C349.213 404.523 349.539 404.345 349.895 404.22C350.251 404.095 350.628 404.033 351.026 404.033C351.693 404.033 352.302 404.2 352.855 404.533C353.408 404.862 353.852 405.319 354.185 405.902C354.518 406.482 354.685 407.146 354.685 407.896C354.685 408.616 354.524 409.275 354.202 409.874C353.88 410.468 353.427 410.942 352.844 411.294C352.265 411.643 351.583 411.813 350.799 411.806ZM350.799 410.556C351.276 410.556 351.704 410.436 352.083 410.198C352.465 409.959 352.766 409.639 352.986 409.237C353.21 408.836 353.321 408.389 353.321 407.896C353.321 407.415 353.213 406.978 352.998 406.584C352.785 406.186 352.492 405.87 352.117 405.635C351.746 405.4 351.321 405.283 350.844 405.283C350.484 405.283 350.149 405.355 349.838 405.499C349.528 405.639 349.255 405.832 349.02 406.078C348.789 406.325 348.607 406.607 348.475 406.925C348.342 407.239 348.276 407.571 348.276 407.919C348.276 408.381 348.384 408.813 348.6 409.215C348.819 409.616 349.119 409.94 349.498 410.186C349.88 410.432 350.314 410.556 350.799 410.556ZM358.395 410.056L358.304 410.669C358.24 411.101 358.141 411.563 358.009 412.056C357.88 412.548 357.746 413.012 357.605 413.448C357.465 413.883 357.35 414.23 357.259 414.487H356.236C356.285 414.245 356.35 413.925 356.429 413.527C356.509 413.129 356.588 412.684 356.668 412.192C356.751 411.703 356.819 411.203 356.873 410.692L356.941 410.056H358.395ZM365.357 411.646V410.624L369.198 406.419C369.649 405.927 370.02 405.499 370.311 405.135C370.603 404.768 370.819 404.423 370.959 404.101C371.103 403.775 371.175 403.434 371.175 403.078C371.175 402.669 371.077 402.315 370.88 402.016C370.686 401.717 370.421 401.485 370.084 401.323C369.747 401.16 369.368 401.078 368.948 401.078C368.501 401.078 368.111 401.171 367.777 401.357C367.448 401.539 367.192 401.794 367.01 402.124C366.832 402.453 366.743 402.84 366.743 403.283H365.402C365.402 402.601 365.56 402.003 365.874 401.487C366.188 400.972 366.616 400.571 367.158 400.283C367.703 399.995 368.315 399.851 368.993 399.851C369.675 399.851 370.279 399.995 370.806 400.283C371.332 400.571 371.745 400.959 372.044 401.448C372.344 401.936 372.493 402.48 372.493 403.078C372.493 403.506 372.416 403.925 372.26 404.334C372.109 404.739 371.844 405.192 371.465 405.692C371.09 406.188 370.569 406.794 369.902 407.51L367.289 410.306V410.396H372.698V411.646H365.357ZM378.84 411.806C377.984 411.806 377.255 411.573 376.652 411.107C376.05 410.637 375.59 409.957 375.272 409.067C374.953 408.173 374.794 407.093 374.794 405.828C374.794 404.571 374.953 403.497 375.272 402.607C375.594 401.713 376.056 401.031 376.658 400.561C377.264 400.088 377.991 399.851 378.84 399.851C379.688 399.851 380.414 400.088 381.016 400.561C381.622 401.031 382.084 401.713 382.402 402.607C382.724 403.497 382.885 404.571 382.885 405.828C382.885 407.093 382.726 408.173 382.408 409.067C382.09 409.957 381.63 410.637 381.027 411.107C380.425 411.573 379.696 411.806 378.84 411.806ZM378.84 410.556C379.688 410.556 380.347 410.146 380.817 409.328C381.287 408.51 381.522 407.343 381.522 405.828C381.522 404.821 381.414 403.963 381.198 403.254C380.986 402.546 380.679 402.006 380.277 401.635C379.88 401.264 379.4 401.078 378.84 401.078C377.999 401.078 377.342 401.493 376.868 402.323C376.395 403.148 376.158 404.317 376.158 405.828C376.158 406.836 376.264 407.692 376.476 408.396C376.688 409.101 376.993 409.637 377.391 410.004C377.792 410.372 378.275 410.556 378.84 410.556ZM385.044 411.646V410.624L388.885 406.419C389.336 405.927 389.707 405.499 389.999 405.135C390.291 404.768 390.507 404.423 390.647 404.101C390.791 403.775 390.863 403.434 390.863 403.078C390.863 402.669 390.764 402.315 390.567 402.016C390.374 401.717 390.109 401.485 389.772 401.323C389.435 401.16 389.056 401.078 388.635 401.078C388.188 401.078 387.798 401.171 387.465 401.357C387.135 401.539 386.88 401.794 386.698 402.124C386.52 402.453 386.431 402.84 386.431 403.283H385.09C385.09 402.601 385.247 402.003 385.561 401.487C385.876 400.972 386.304 400.571 386.846 400.283C387.391 399.995 388.003 399.851 388.681 399.851C389.363 399.851 389.967 399.995 390.493 400.283C391.02 400.571 391.433 400.959 391.732 401.448C392.031 401.936 392.181 402.48 392.181 403.078C392.181 403.506 392.103 403.925 391.948 404.334C391.796 404.739 391.531 405.192 391.152 405.692C390.777 406.188 390.257 406.794 389.59 407.51L386.976 410.306V410.396H392.385V411.646H385.044ZM394.732 411.646V410.624L398.573 406.419C399.024 405.927 399.395 405.499 399.686 405.135C399.978 404.768 400.194 404.423 400.334 404.101C400.478 403.775 400.55 403.434 400.55 403.078C400.55 402.669 400.452 402.315 400.255 402.016C400.061 401.717 399.796 401.485 399.459 401.323C399.122 401.16 398.743 401.078 398.323 401.078C397.876 401.078 397.486 401.171 397.152 401.357C396.823 401.539 396.567 401.794 396.385 402.124C396.207 402.453 396.118 402.84 396.118 403.283H394.777C394.777 402.601 394.935 402.003 395.249 401.487C395.563 400.972 395.991 400.571 396.533 400.283C397.078 399.995 397.69 399.851 398.368 399.851C399.05 399.851 399.654 399.995 400.181 400.283C400.707 400.571 401.12 400.959 401.419 401.448C401.719 401.936 401.868 402.48 401.868 403.078C401.868 403.506 401.791 403.925 401.635 404.334C401.484 404.739 401.219 405.192 400.84 405.692C400.465 406.188 399.944 406.794 399.277 407.51L396.664 410.306V410.396H402.073V411.646H394.732Z" fill="white"/>
<path d="M313.232 340.896V339.874L317.073 335.669C317.524 335.177 317.895 334.749 318.186 334.385C318.478 334.018 318.694 333.673 318.834 333.351C318.978 333.025 319.05 332.684 319.05 332.328C319.05 331.919 318.952 331.565 318.755 331.266C318.561 330.967 318.296 330.735 317.959 330.573C317.622 330.41 317.243 330.328 316.823 330.328C316.376 330.328 315.986 330.421 315.652 330.607C315.323 330.789 315.067 331.044 314.885 331.374C314.707 331.703 314.618 332.09 314.618 332.533H313.277C313.277 331.851 313.435 331.253 313.749 330.737C314.063 330.222 314.491 329.821 315.033 329.533C315.578 329.245 316.19 329.101 316.868 329.101C317.55 329.101 318.154 329.245 318.681 329.533C319.207 329.821 319.62 330.209 319.919 330.698C320.219 331.186 320.368 331.73 320.368 332.328C320.368 332.756 320.291 333.175 320.135 333.584C319.984 333.989 319.719 334.442 319.34 334.942C318.965 335.438 318.444 336.044 317.777 336.76L315.164 339.556V339.646H320.573V340.896H313.232ZM326.556 341.056C325.889 341.056 325.289 340.923 324.755 340.658C324.221 340.393 323.792 340.029 323.471 339.567C323.149 339.105 322.972 338.578 322.942 337.987H324.306C324.359 338.514 324.597 338.95 325.022 339.294C325.45 339.635 325.961 339.806 326.556 339.806C327.033 339.806 327.457 339.694 327.828 339.47C328.203 339.247 328.497 338.94 328.709 338.55C328.925 338.156 329.033 337.711 329.033 337.215C329.033 336.707 328.921 336.254 328.698 335.857C328.478 335.455 328.175 335.139 327.789 334.908C327.402 334.677 326.961 334.559 326.465 334.556C326.109 334.552 325.743 334.607 325.368 334.72C324.993 334.83 324.685 334.972 324.442 335.146L323.124 334.987L323.828 329.26H329.874V330.51H325.01L324.601 333.942H324.669C324.908 333.753 325.207 333.595 325.567 333.47C325.927 333.345 326.302 333.283 326.692 333.283C327.404 333.283 328.039 333.453 328.596 333.794C329.156 334.131 329.596 334.593 329.914 335.181C330.236 335.768 330.397 336.438 330.397 337.192C330.397 337.934 330.23 338.597 329.897 339.181C329.567 339.76 329.113 340.218 328.533 340.556C327.953 340.889 327.294 341.056 326.556 341.056Z" fill="white"/>
<path d="M316.868 285.874C316.202 285.874 315.601 285.741 315.067 285.476C314.533 285.211 314.105 284.847 313.783 284.385C313.461 283.923 313.285 283.397 313.255 282.806H314.618C314.671 283.332 314.91 283.768 315.334 284.113C315.762 284.453 316.274 284.624 316.868 284.624C317.346 284.624 317.77 284.512 318.141 284.289C318.516 284.065 318.81 283.758 319.022 283.368C319.238 282.974 319.346 282.529 319.346 282.033C319.346 281.525 319.234 281.073 319.01 280.675C318.791 280.274 318.488 279.957 318.101 279.726C317.715 279.495 317.274 279.378 316.777 279.374C316.421 279.37 316.056 279.425 315.681 279.539C315.306 279.649 314.997 279.791 314.755 279.965L313.436 279.806L314.141 274.078H320.186V275.328H315.323L314.914 278.76H314.982C315.221 278.571 315.52 278.414 315.88 278.289C316.239 278.164 316.614 278.101 317.005 278.101C317.717 278.101 318.351 278.272 318.908 278.613C319.469 278.95 319.908 279.412 320.226 279.999C320.548 280.586 320.709 281.257 320.709 282.01C320.709 282.753 320.542 283.416 320.209 283.999C319.88 284.578 319.425 285.037 318.846 285.374C318.266 285.707 317.607 285.874 316.868 285.874ZM326.762 285.874C325.906 285.874 325.176 285.641 324.574 285.175C323.972 284.705 323.512 284.025 323.194 283.135C322.875 282.241 322.716 281.162 322.716 279.897C322.716 278.639 322.875 277.565 323.194 276.675C323.516 275.781 323.978 275.099 324.58 274.63C325.186 274.156 325.913 273.919 326.762 273.919C327.61 273.919 328.336 274.156 328.938 274.63C329.544 275.099 330.006 275.781 330.324 276.675C330.646 277.565 330.807 278.639 330.807 279.897C330.807 281.162 330.648 282.241 330.33 283.135C330.012 284.025 329.551 284.705 328.949 285.175C328.347 285.641 327.618 285.874 326.762 285.874ZM326.762 284.624C327.61 284.624 328.269 284.215 328.739 283.397C329.209 282.578 329.444 281.412 329.444 279.897C329.444 278.889 329.336 278.031 329.12 277.323C328.908 276.614 328.601 276.075 328.199 275.703C327.801 275.332 327.322 275.147 326.762 275.147C325.921 275.147 325.264 275.561 324.79 276.391C324.317 277.217 324.08 278.385 324.08 279.897C324.08 280.904 324.186 281.76 324.398 282.465C324.61 283.169 324.915 283.705 325.313 284.073C325.714 284.44 326.197 284.624 326.762 284.624Z" fill="white"/>
<path d="M313.596 228.184L318.8 217.888V217.797H312.8V216.547H320.255V217.865L315.073 228.184H313.596ZM325.853 228.343C325.186 228.343 324.586 228.21 324.051 227.945C323.517 227.68 323.089 227.316 322.767 226.854C322.445 226.392 322.269 225.865 322.239 225.275H323.603C323.656 225.801 323.894 226.237 324.319 226.581C324.747 226.922 325.258 227.093 325.853 227.093C326.33 227.093 326.754 226.981 327.125 226.757C327.5 226.534 327.794 226.227 328.006 225.837C328.222 225.443 328.33 224.998 328.33 224.502C328.33 223.994 328.218 223.542 327.995 223.144C327.775 222.742 327.472 222.426 327.086 222.195C326.699 221.964 326.258 221.846 325.762 221.843C325.406 221.839 325.04 221.894 324.665 222.007C324.29 222.117 323.981 222.259 323.739 222.434L322.421 222.275L323.125 216.547H329.171V217.797H324.307L323.898 221.229H323.966C324.205 221.04 324.504 220.882 324.864 220.757C325.224 220.632 325.599 220.57 325.989 220.57C326.701 220.57 327.336 220.74 327.892 221.081C328.453 221.418 328.892 221.881 329.211 222.468C329.533 223.055 329.694 223.725 329.694 224.479C329.694 225.221 329.527 225.884 329.194 226.468C328.864 227.047 328.409 227.506 327.83 227.843C327.25 228.176 326.591 228.343 325.853 228.343Z" fill="white"/>
<path d="M312.366 160.364V172H310.957V161.841H310.888L308.048 163.727V162.295L310.957 160.364H312.366ZM319.508 172.159C318.652 172.159 317.923 171.926 317.32 171.46C316.718 170.991 316.258 170.311 315.94 169.42C315.621 168.527 315.462 167.447 315.462 166.182C315.462 164.924 315.621 163.85 315.94 162.96C316.262 162.066 316.724 161.384 317.326 160.915C317.932 160.441 318.659 160.205 319.508 160.205C320.356 160.205 321.082 160.441 321.684 160.915C322.29 161.384 322.752 162.066 323.07 162.96C323.392 163.85 323.553 164.924 323.553 166.182C323.553 167.447 323.394 168.527 323.076 169.42C322.758 170.311 322.298 170.991 321.695 171.46C321.093 171.926 320.364 172.159 319.508 172.159ZM319.508 170.909C320.356 170.909 321.015 170.5 321.485 169.682C321.955 168.864 322.19 167.697 322.19 166.182C322.19 165.174 322.082 164.316 321.866 163.608C321.654 162.9 321.347 162.36 320.945 161.989C320.548 161.617 320.068 161.432 319.508 161.432C318.667 161.432 318.01 161.847 317.536 162.676C317.063 163.502 316.826 164.67 316.826 166.182C316.826 167.189 316.932 168.045 317.144 168.75C317.356 169.455 317.661 169.991 318.059 170.358C318.46 170.725 318.943 170.909 319.508 170.909ZM329.508 172.159C328.652 172.159 327.923 171.926 327.32 171.46C326.718 170.991 326.258 170.311 325.94 169.42C325.621 168.527 325.462 167.447 325.462 166.182C325.462 164.924 325.621 163.85 325.94 162.96C326.262 162.066 326.724 161.384 327.326 160.915C327.932 160.441 328.659 160.205 329.508 160.205C330.356 160.205 331.082 160.441 331.684 160.915C332.29 161.384 332.752 162.066 333.07 162.96C333.392 163.85 333.553 164.924 333.553 166.182C333.553 167.447 333.394 168.527 333.076 169.42C332.758 170.311 332.298 170.991 331.695 171.46C331.093 171.926 330.364 172.159 329.508 172.159ZM329.508 170.909C330.356 170.909 331.015 170.5 331.485 169.682C331.955 168.864 332.19 167.697 332.19 166.182C332.19 165.174 332.082 164.316 331.866 163.608C331.654 162.9 331.347 162.36 330.945 161.989C330.548 161.617 330.068 161.432 329.508 161.432C328.667 161.432 328.01 161.847 327.536 162.676C327.063 163.502 326.826 164.67 326.826 166.182C326.826 167.189 326.932 168.045 327.144 168.75C327.356 169.455 327.661 169.991 328.059 170.358C328.46 170.725 328.943 170.909 329.508 170.909Z" fill="white"/>
<path d="M714.144 400.01H715.553V408.328C715.553 409.071 715.417 409.701 715.144 410.22C714.872 410.739 714.487 411.133 713.991 411.402C713.495 411.671 712.91 411.806 712.235 411.806C711.599 411.806 711.033 411.69 710.536 411.459C710.04 411.224 709.65 410.891 709.366 410.459C709.082 410.027 708.94 409.514 708.94 408.919H710.326C710.326 409.249 710.408 409.537 710.571 409.783C710.737 410.025 710.964 410.215 711.252 410.351C711.54 410.487 711.868 410.556 712.235 410.556C712.641 410.556 712.985 410.47 713.269 410.3C713.553 410.129 713.769 409.879 713.917 409.55C714.069 409.217 714.144 408.809 714.144 408.328V400.01ZM723.696 408.078V402.919H725.036V411.646H723.696V410.169H723.605C723.4 410.612 723.082 410.989 722.65 411.3C722.218 411.607 721.673 411.76 721.014 411.76C720.468 411.76 719.983 411.641 719.559 411.402C719.135 411.16 718.802 410.796 718.559 410.311C718.317 409.823 718.196 409.207 718.196 408.465V402.919H719.536V408.374C719.536 409.01 719.714 409.518 720.071 409.896C720.43 410.275 720.889 410.465 721.446 410.465C721.779 410.465 722.118 410.379 722.463 410.209C722.811 410.039 723.103 409.777 723.338 409.425C723.576 409.073 723.696 408.624 723.696 408.078ZM728.833 400.01V411.646H727.492V400.01H728.833ZM739.857 400.01V411.646H738.448V401.487H738.38L735.539 403.374V401.942L738.448 400.01H739.857ZM747 411.806C746.143 411.806 745.414 411.573 744.812 411.107C744.21 410.637 743.75 409.957 743.431 409.067C743.113 408.173 742.954 407.093 742.954 405.828C742.954 404.571 743.113 403.497 743.431 402.607C743.753 401.713 744.215 401.031 744.818 400.561C745.424 400.088 746.151 399.851 747 399.851C747.848 399.851 748.573 400.088 749.176 400.561C749.782 401.031 750.244 401.713 750.562 402.607C750.884 403.497 751.045 404.571 751.045 405.828C751.045 407.093 750.886 408.173 750.568 409.067C750.25 409.957 749.789 410.637 749.187 411.107C748.585 411.573 747.856 411.806 747 411.806ZM747 410.556C747.848 410.556 748.507 410.146 748.977 409.328C749.446 408.51 749.681 407.343 749.681 405.828C749.681 404.821 749.573 403.963 749.357 403.254C749.145 402.546 748.839 402.006 748.437 401.635C748.039 401.264 747.56 401.078 747 401.078C746.159 401.078 745.501 401.493 745.028 402.323C744.554 403.148 744.318 404.317 744.318 405.828C744.318 406.836 744.424 407.692 744.636 408.396C744.848 409.101 745.153 409.637 745.551 410.004C745.952 410.372 746.435 410.556 747 410.556ZM754.821 410.056L754.73 410.669C754.665 411.101 754.567 411.563 754.434 412.056C754.305 412.548 754.171 413.012 754.031 413.448C753.891 413.883 753.775 414.23 753.684 414.487H752.661C752.711 414.245 752.775 413.925 752.855 413.527C752.934 413.129 753.014 412.684 753.093 412.192C753.177 411.703 753.245 411.203 753.298 410.692L753.366 410.056H754.821ZM761.782 411.646V410.624L765.623 406.419C766.074 405.927 766.445 405.499 766.737 405.135C767.028 404.768 767.244 404.423 767.384 404.101C767.528 403.775 767.6 403.434 767.6 403.078C767.6 402.669 767.502 402.315 767.305 402.016C767.112 401.717 766.847 401.485 766.509 401.323C766.172 401.16 765.794 401.078 765.373 401.078C764.926 401.078 764.536 401.171 764.203 401.357C763.873 401.539 763.617 401.794 763.436 402.124C763.258 402.453 763.169 402.84 763.169 403.283H761.828C761.828 402.601 761.985 402.003 762.299 401.487C762.614 400.972 763.042 400.571 763.583 400.283C764.129 399.995 764.741 399.851 765.419 399.851C766.1 399.851 766.705 399.995 767.231 400.283C767.758 400.571 768.17 400.959 768.47 401.448C768.769 401.936 768.919 402.48 768.919 403.078C768.919 403.506 768.841 403.925 768.686 404.334C768.534 404.739 768.269 405.192 767.89 405.692C767.515 406.188 766.994 406.794 766.328 407.51L763.714 410.306V410.396H769.123V411.646H761.782ZM775.265 411.806C774.409 411.806 773.68 411.573 773.078 411.107C772.475 410.637 772.015 409.957 771.697 409.067C771.379 408.173 771.22 407.093 771.22 405.828C771.22 404.571 771.379 403.497 771.697 402.607C772.019 401.713 772.481 401.031 773.083 400.561C773.689 400.088 774.417 399.851 775.265 399.851C776.114 399.851 776.839 400.088 777.441 400.561C778.047 401.031 778.509 401.713 778.828 402.607C779.15 403.497 779.311 404.571 779.311 405.828C779.311 407.093 779.152 408.173 778.833 409.067C778.515 409.957 778.055 410.637 777.453 411.107C776.85 411.573 776.121 411.806 775.265 411.806ZM775.265 410.556C776.114 410.556 776.773 410.146 777.242 409.328C777.712 408.51 777.947 407.343 777.947 405.828C777.947 404.821 777.839 403.963 777.623 403.254C777.411 402.546 777.104 402.006 776.703 401.635C776.305 401.264 775.826 401.078 775.265 401.078C774.424 401.078 773.767 401.493 773.294 402.323C772.82 403.148 772.583 404.317 772.583 405.828C772.583 406.836 772.689 407.692 772.902 408.396C773.114 409.101 773.419 409.637 773.816 410.004C774.218 410.372 774.701 410.556 775.265 410.556ZM781.47 411.646V410.624L785.311 406.419C785.761 405.927 786.133 405.499 786.424 405.135C786.716 404.768 786.932 404.423 787.072 404.101C787.216 403.775 787.288 403.434 787.288 403.078C787.288 402.669 787.189 402.315 786.992 402.016C786.799 401.717 786.534 401.485 786.197 401.323C785.86 401.16 785.481 401.078 785.061 401.078C784.614 401.078 784.223 401.171 783.89 401.357C783.561 401.539 783.305 401.794 783.123 402.124C782.945 402.453 782.856 402.84 782.856 403.283H781.515C781.515 402.601 781.672 402.003 781.987 401.487C782.301 400.972 782.729 400.571 783.271 400.283C783.816 399.995 784.428 399.851 785.106 399.851C785.788 399.851 786.392 399.995 786.919 400.283C787.445 400.571 787.858 400.959 788.157 401.448C788.456 401.936 788.606 402.48 788.606 403.078C788.606 403.506 788.528 403.925 788.373 404.334C788.222 404.739 787.956 405.192 787.578 405.692C787.203 406.188 786.682 406.794 786.015 407.51L783.402 410.306V410.396H788.811V411.646H781.47ZM791.157 411.646V410.624L794.998 406.419C795.449 405.927 795.82 405.499 796.112 405.135C796.403 404.768 796.619 404.423 796.759 404.101C796.903 403.775 796.975 403.434 796.975 403.078C796.975 402.669 796.877 402.315 796.68 402.016C796.487 401.717 796.222 401.485 795.884 401.323C795.547 401.16 795.169 401.078 794.748 401.078C794.301 401.078 793.911 401.171 793.578 401.357C793.248 401.539 792.992 401.794 792.811 402.124C792.633 402.453 792.544 402.84 792.544 403.283H791.203C791.203 402.601 791.36 402.003 791.674 401.487C791.989 400.972 792.417 400.571 792.958 400.283C793.504 399.995 794.116 399.851 794.794 399.851C795.475 399.851 796.08 399.995 796.606 400.283C797.133 400.571 797.545 400.959 797.845 401.448C798.144 401.936 798.294 402.48 798.294 403.078C798.294 403.506 798.216 403.925 798.061 404.334C797.909 404.739 797.644 405.192 797.265 405.692C796.89 406.188 796.369 406.794 795.703 407.51L793.089 410.306V410.396H798.498V411.646H791.157Z" fill="white"/>
<path d="M1114.98 400.01V411.646H1113.61L1107.27 402.51H1107.16V411.646H1105.75V400.01H1107.11L1113.48 409.169H1113.59V400.01H1114.98ZM1121.16 411.828C1120.37 411.828 1119.68 411.641 1119.08 411.266C1118.49 410.891 1118.03 410.366 1117.7 409.692C1117.37 409.018 1117.2 408.23 1117.2 407.328C1117.2 406.419 1117.37 405.626 1117.7 404.948C1118.03 404.27 1118.49 403.743 1119.08 403.368C1119.68 402.993 1120.37 402.806 1121.16 402.806C1121.95 402.806 1122.64 402.993 1123.23 403.368C1123.82 403.743 1124.28 404.27 1124.61 404.948C1124.95 405.626 1125.11 406.419 1125.11 407.328C1125.11 408.23 1124.95 409.018 1124.61 409.692C1124.28 410.366 1123.82 410.891 1123.23 411.266C1122.64 411.641 1121.95 411.828 1121.16 411.828ZM1121.16 410.624C1121.76 410.624 1122.25 410.47 1122.64 410.164C1123.02 409.857 1123.31 409.453 1123.49 408.953C1123.68 408.453 1123.77 407.912 1123.77 407.328C1123.77 406.745 1123.68 406.201 1123.49 405.698C1123.31 405.194 1123.02 404.787 1122.64 404.476C1122.25 404.165 1121.76 404.01 1121.16 404.01C1120.56 404.01 1120.07 404.165 1119.68 404.476C1119.29 404.787 1119.01 405.194 1118.82 405.698C1118.64 406.201 1118.54 406.745 1118.54 407.328C1118.54 407.912 1118.64 408.453 1118.82 408.953C1119.01 409.453 1119.29 409.857 1119.68 410.164C1120.07 410.47 1120.56 410.624 1121.16 410.624ZM1128.84 411.646L1126.18 402.919H1127.59L1129.48 409.601H1129.57L1131.43 402.919H1132.86L1134.7 409.578H1134.79L1136.68 402.919H1138.09L1135.43 411.646H1134.11L1132.2 404.942H1132.07L1130.16 411.646H1128.84ZM1148.43 400.01V411.646H1147.02V401.487H1146.95L1144.11 403.374V401.942L1147.02 400.01H1148.43ZM1155.71 411.806C1154.96 411.806 1154.29 411.677 1153.7 411.419C1153.12 411.162 1152.66 410.804 1152.31 410.345C1151.97 409.883 1151.79 409.347 1151.76 408.737H1153.19C1153.22 409.112 1153.35 409.436 1153.57 409.709C1153.8 409.978 1154.1 410.186 1154.47 410.334C1154.83 410.482 1155.24 410.556 1155.69 410.556C1156.19 410.556 1156.63 410.468 1157.02 410.294C1157.4 410.12 1157.71 409.878 1157.93 409.567C1158.15 409.256 1158.26 408.896 1158.26 408.487C1158.26 408.059 1158.15 407.682 1157.94 407.357C1157.72 407.027 1157.41 406.77 1157.01 406.584C1156.6 406.398 1156.1 406.306 1155.51 406.306H1154.57V405.056H1155.51C1155.97 405.056 1156.37 404.972 1156.72 404.806C1157.07 404.639 1157.35 404.404 1157.54 404.101C1157.75 403.798 1157.85 403.442 1157.85 403.033C1157.85 402.639 1157.76 402.296 1157.58 402.004C1157.41 401.713 1157.16 401.485 1156.85 401.323C1156.53 401.16 1156.16 401.078 1155.73 401.078C1155.33 401.078 1154.95 401.152 1154.6 401.3C1154.24 401.444 1153.96 401.654 1153.73 401.931C1153.51 402.203 1153.39 402.533 1153.37 402.919H1152.01C1152.03 402.309 1152.21 401.775 1152.56 401.317C1152.9 400.855 1153.35 400.495 1153.91 400.237C1154.47 399.98 1155.08 399.851 1155.76 399.851C1156.47 399.851 1157.09 399.997 1157.61 400.289C1158.12 400.576 1158.52 400.957 1158.79 401.431C1159.07 401.904 1159.21 402.415 1159.21 402.965C1159.21 403.62 1159.04 404.179 1158.69 404.641C1158.35 405.103 1157.89 405.423 1157.3 405.601V405.692C1158.04 405.813 1158.61 406.126 1159.02 406.629C1159.43 407.129 1159.64 407.749 1159.64 408.487C1159.64 409.12 1159.47 409.688 1159.12 410.192C1158.78 410.692 1158.32 411.086 1157.73 411.374C1157.14 411.662 1156.46 411.806 1155.71 411.806ZM1163.63 410.056L1163.54 410.669C1163.47 411.101 1163.37 411.563 1163.24 412.056C1163.11 412.548 1162.98 413.012 1162.84 413.448C1162.7 413.883 1162.58 414.23 1162.49 414.487H1161.47C1161.52 414.245 1161.58 413.925 1161.66 413.527C1161.74 413.129 1161.82 412.684 1161.9 412.192C1161.98 411.703 1162.05 411.203 1162.11 410.692L1162.17 410.056H1163.63ZM1170.59 411.646V410.624L1174.43 406.419C1174.88 405.927 1175.25 405.499 1175.54 405.135C1175.84 404.768 1176.05 404.423 1176.19 404.101C1176.34 403.775 1176.41 403.434 1176.41 403.078C1176.41 402.669 1176.31 402.315 1176.11 402.016C1175.92 401.717 1175.65 401.485 1175.32 401.323C1174.98 401.16 1174.6 401.078 1174.18 401.078C1173.73 401.078 1173.34 401.171 1173.01 401.357C1172.68 401.539 1172.43 401.794 1172.24 402.124C1172.07 402.453 1171.98 402.84 1171.98 403.283H1170.64C1170.64 402.601 1170.79 402.003 1171.11 401.487C1171.42 400.972 1171.85 400.571 1172.39 400.283C1172.94 399.995 1173.55 399.851 1174.23 399.851C1174.91 399.851 1175.51 399.995 1176.04 400.283C1176.57 400.571 1176.98 400.959 1177.28 401.448C1177.58 401.936 1177.73 402.48 1177.73 403.078C1177.73 403.506 1177.65 403.925 1177.49 404.334C1177.34 404.739 1177.08 405.192 1176.7 405.692C1176.32 406.188 1175.8 406.794 1175.14 407.51L1172.52 410.306V410.396H1177.93V411.646H1170.59ZM1184.07 411.806C1183.22 411.806 1182.49 411.573 1181.89 411.107C1181.28 410.637 1180.82 409.957 1180.51 409.067C1180.19 408.173 1180.03 407.093 1180.03 405.828C1180.03 404.571 1180.19 403.497 1180.51 402.607C1180.83 401.713 1181.29 401.031 1181.89 400.561C1182.5 400.088 1183.22 399.851 1184.07 399.851C1184.92 399.851 1185.65 400.088 1186.25 400.561C1186.86 401.031 1187.32 401.713 1187.64 402.607C1187.96 403.497 1188.12 404.571 1188.12 405.828C1188.12 407.093 1187.96 408.173 1187.64 409.067C1187.32 409.957 1186.86 410.637 1186.26 411.107C1185.66 411.573 1184.93 411.806 1184.07 411.806ZM1184.07 410.556C1184.92 410.556 1185.58 410.146 1186.05 409.328C1186.52 408.51 1186.76 407.343 1186.76 405.828C1186.76 404.821 1186.65 403.963 1186.43 403.254C1186.22 402.546 1185.91 402.006 1185.51 401.635C1185.11 401.264 1184.63 401.078 1184.07 401.078C1183.23 401.078 1182.58 401.493 1182.1 402.323C1181.63 403.148 1181.39 404.317 1181.39 405.828C1181.39 406.836 1181.5 407.692 1181.71 408.396C1181.92 409.101 1182.23 409.637 1182.62 410.004C1183.03 410.372 1183.51 410.556 1184.07 410.556ZM1190.28 411.646V410.624L1194.12 406.419C1194.57 405.927 1194.94 405.499 1195.23 405.135C1195.52 404.768 1195.74 404.423 1195.88 404.101C1196.02 403.775 1196.1 403.434 1196.1 403.078C1196.1 402.669 1196 402.315 1195.8 402.016C1195.61 401.717 1195.34 401.485 1195.01 401.323C1194.67 401.16 1194.29 401.078 1193.87 401.078C1193.42 401.078 1193.03 401.171 1192.7 401.357C1192.37 401.539 1192.11 401.794 1191.93 402.124C1191.75 402.453 1191.66 402.84 1191.66 403.283H1190.32C1190.32 402.601 1190.48 402.003 1190.79 401.487C1191.11 400.972 1191.54 400.571 1192.08 400.283C1192.62 399.995 1193.24 399.851 1193.91 399.851C1194.6 399.851 1195.2 399.995 1195.73 400.283C1196.25 400.571 1196.67 400.959 1196.97 401.448C1197.26 401.936 1197.41 402.48 1197.41 403.078C1197.41 403.506 1197.34 403.925 1197.18 404.334C1197.03 404.739 1196.76 405.192 1196.39 405.692C1196.01 406.188 1195.49 406.794 1194.82 407.51L1192.21 410.306V410.396H1197.62V411.646H1190.28ZM1199.97 411.646V410.624L1203.81 406.419C1204.26 405.927 1204.63 405.499 1204.92 405.135C1205.21 404.768 1205.43 404.423 1205.57 404.101C1205.71 403.775 1205.78 403.434 1205.78 403.078C1205.78 402.669 1205.68 402.315 1205.49 402.016C1205.29 401.717 1205.03 401.485 1204.69 401.323C1204.36 401.16 1203.98 401.078 1203.56 401.078C1203.11 401.078 1202.72 401.171 1202.39 401.357C1202.06 401.539 1201.8 401.794 1201.62 402.124C1201.44 402.453 1201.35 402.84 1201.35 403.283H1200.01C1200.01 402.601 1200.17 402.003 1200.48 401.487C1200.8 400.972 1201.22 400.571 1201.77 400.283C1202.31 399.995 1202.92 399.851 1203.6 399.851C1204.28 399.851 1204.89 399.995 1205.41 400.283C1205.94 400.571 1206.35 400.959 1206.65 401.448C1206.95 401.936 1207.1 402.48 1207.1 403.078C1207.1 403.506 1207.02 403.925 1206.87 404.334C1206.72 404.739 1206.45 405.192 1206.07 405.692C1205.7 406.188 1205.18 406.794 1204.51 407.51L1201.9 410.306V410.396H1207.31V411.646H1199.97Z" fill="white"/>
<rect x="166.613" y="343.727" width="41.311" height="47.9207" fill="#FB433D"/>
<rect x="207.924" y="239.621" width="41.311" height="152.024" fill="#03CEA4"/>
<path d="M141 390.82H275.674" stroke="#9A9F9F" stroke-width="2"/>
<path d="M340.119 390.82H1465.43" stroke="#9A9F9F" stroke-width="2"/>
<path d="M340.119 335.465H1465.43" stroke="white" stroke-opacity="0.5"/>
<path d="M340.119 280.934H1465.43" stroke="white" stroke-opacity="0.5"/>
<path d="M340.119 223.098H1465.43" stroke="white" stroke-opacity="0.5"/>
<path d="M340.119 166.914H1465.43" stroke="white" stroke-opacity="0.5"/>
<circle cx="127" cy="154" r="7" fill="#03CEA4"/>
<circle cx="127" cy="180" r="7" fill="#FB433D"/>
<path d="M351.686 377.601L373.168 364.381L395.476 337.116L417.784 323.897L439.265 332.985L461.573 368.513L483.881 309.025L505.363 318.939L526.845 355.293L548.326 349.509L571.46 331.333L592.942 322.244L615.25 349.509L636.732 317.287L659.04 351.162L682.174 286.717L702.829 351.162H725.137L748.271 337.116L768.927 364.381L791.235 351.162L813.543 315.634L835.024 349.509L857.332 318.939L879.64 352.814L901.948 360.25L923.43 333.811L944.085 343.726L967.22 369.339L989.527 335.464L1011.84 350.336L1033.32 323.897L1055.63 371.817L1078.76 366.034L1099.41 310.677L1122.55 335.464L1143.2 347.031L1165.51 373.47L1188.65 357.772L1209.3 371.817L1229.96 373.47L1253.09 357.772L1297.71 337.116L1320.02 347.031L1342.32 296.631L1362.15 337.116L1385.29 389.994L1407.59 339.595L1429.08 351.162L1450.56 342.074" stroke="#FB433D" stroke-width="4"/>
<path d="M352.512 220.62L372.341 214.01L394.649 256.974L416.131 236.318L440.091 185.919L462.399 244.58L482.229 214.01L504.537 205.748L526.845 244.58L549.152 195.833L570.634 266.062L592.942 248.712L615.25 220.62L638.384 266.062L659.866 232.187L682.174 229.708L702.003 235.492L723.485 237.144L746.619 259.452L769.753 200.791L791.235 262.757L813.543 230.535L834.198 238.797L857.332 176.83L879.64 251.19L900.296 231.361L923.43 219.794L944.912 234.666L967.22 171.047L989.527 250.364L1011.01 223.099L1033.32 265.236L1054.8 248.712L1077.11 271.846L1099.41 233.013L1121.72 261.931H1143.2L1165.51 243.754L1187.82 206.574L1230.78 278.455L1253.09 297.458L1275.4 275.977L1297.71 307.373L1320.02 235.492L1341.5 252.016L1363.8 208.227L1386.11 282.587L1407.59 222.272L1429.9 203.269L1451.38 310.678" stroke="#03CEA4" stroke-width="4"/>
</svg>
