<svg width="1632" height="843" viewBox="0 0 1632 843" fill="none" xmlns="http://www.w3.org/2000/svg">
<rect width="1632" height="843" fill="#35403E"/>
<rect x="629" y="320" width="374" height="210" rx="20" fill="#03CEA4"/>
<path d="M692.628 440V410.909H696.151V425.341H696.492L709.56 410.909H714.162L701.946 424.034L714.162 440H709.901L699.787 426.477L696.151 430.568V440H692.628ZM724.688 440.511C723.305 440.511 722.051 440.251 720.924 439.73C719.797 439.2 718.902 438.438 718.239 437.443C717.576 436.439 717.245 435.227 717.245 433.807C717.245 432.557 717.491 431.544 717.983 430.767C718.476 429.981 719.134 429.366 719.958 428.92C720.782 428.475 721.691 428.144 722.685 427.926C723.689 427.699 724.697 427.519 725.711 427.386C727.036 427.216 728.111 427.088 728.935 427.003C729.768 426.908 730.374 426.752 730.753 426.534C731.141 426.316 731.336 425.937 731.336 425.398V425.284C731.336 423.883 730.952 422.794 730.185 422.017C729.427 421.241 728.277 420.852 726.733 420.852C725.133 420.852 723.878 421.203 722.969 421.903C722.06 422.604 721.421 423.352 721.051 424.148L717.87 423.011C718.438 421.686 719.195 420.653 720.142 419.915C721.099 419.167 722.141 418.646 723.267 418.352C724.404 418.049 725.521 417.898 726.62 417.898C727.32 417.898 728.125 417.983 729.034 418.153C729.953 418.314 730.838 418.651 731.691 419.162C732.552 419.673 733.267 420.445 733.836 421.477C734.404 422.509 734.688 423.892 734.688 425.625V440H731.336V437.045H731.165C730.938 437.519 730.559 438.026 730.029 438.565C729.498 439.105 728.793 439.564 727.912 439.943C727.032 440.322 725.957 440.511 724.688 440.511ZM725.199 437.5C726.525 437.5 727.642 437.24 728.551 436.719C729.47 436.198 730.161 435.526 730.625 434.702C731.099 433.878 731.336 433.011 731.336 432.102V429.034C731.194 429.205 730.881 429.361 730.398 429.503C729.925 429.635 729.375 429.754 728.75 429.858C728.135 429.953 727.533 430.038 726.946 430.114C726.369 430.18 725.9 430.237 725.54 430.284C724.669 430.398 723.855 430.582 723.097 430.838C722.349 431.084 721.743 431.458 721.279 431.96C720.824 432.453 720.597 433.125 720.597 433.977C720.597 435.142 721.028 436.023 721.89 436.619C722.761 437.206 723.864 437.5 725.199 437.5ZM750.522 418.182V421.023H738.761V418.182H750.522ZM742.284 440V415.17C742.284 413.92 742.577 412.879 743.164 412.045C743.752 411.212 744.514 410.587 745.451 410.17C746.389 409.754 747.378 409.545 748.42 409.545C749.244 409.545 749.916 409.612 750.437 409.744C750.958 409.877 751.346 410 751.602 410.114L750.636 413.011C750.466 412.955 750.229 412.884 749.926 412.798C749.632 412.713 749.244 412.67 748.761 412.67C747.653 412.67 746.853 412.95 746.36 413.509C745.877 414.067 745.636 414.886 745.636 415.966V440H742.284ZM758.346 432.045L758.289 427.898H758.971L768.516 418.182H772.664L762.493 428.466H762.209L758.346 432.045ZM755.221 440V410.909H758.573V440H755.221ZM769.084 440L760.561 429.205L762.948 426.875L773.346 440H769.084ZM783.399 440.511C782.016 440.511 780.761 440.251 779.635 439.73C778.508 439.2 777.613 438.438 776.95 437.443C776.287 436.439 775.956 435.227 775.956 433.807C775.956 432.557 776.202 431.544 776.694 430.767C777.187 429.981 777.845 429.366 778.669 428.92C779.493 428.475 780.402 428.144 781.396 427.926C782.4 427.699 783.408 427.519 784.422 427.386C785.747 427.216 786.822 427.088 787.646 427.003C788.479 426.908 789.085 426.752 789.464 426.534C789.852 426.316 790.047 425.937 790.047 425.398V425.284C790.047 423.883 789.663 422.794 788.896 422.017C788.138 421.241 786.988 420.852 785.444 420.852C783.844 420.852 782.589 421.203 781.68 421.903C780.771 422.604 780.132 423.352 779.762 424.148L776.581 423.011C777.149 421.686 777.906 420.653 778.853 419.915C779.81 419.167 780.851 418.646 781.978 418.352C783.115 418.049 784.232 417.898 785.331 417.898C786.031 417.898 786.836 417.983 787.745 418.153C788.664 418.314 789.549 418.651 790.402 419.162C791.263 419.673 791.978 420.445 792.547 421.477C793.115 422.509 793.399 423.892 793.399 425.625V440H790.047V437.045H789.876C789.649 437.519 789.27 438.026 788.74 438.565C788.209 439.105 787.504 439.564 786.623 439.943C785.743 440.322 784.668 440.511 783.399 440.511ZM783.91 437.5C785.236 437.5 786.353 437.24 787.262 436.719C788.181 436.198 788.872 435.526 789.336 434.702C789.81 433.878 790.047 433.011 790.047 432.102V429.034C789.904 429.205 789.592 429.361 789.109 429.503C788.636 429.635 788.086 429.754 787.461 429.858C786.846 429.953 786.244 430.038 785.657 430.114C785.08 430.18 784.611 430.237 784.251 430.284C783.38 430.398 782.565 430.582 781.808 430.838C781.06 431.084 780.454 431.458 779.99 431.96C779.535 432.453 779.308 433.125 779.308 433.977C779.308 435.142 779.739 436.023 780.6 436.619C781.472 437.206 782.575 437.5 783.91 437.5ZM834.631 420H831.108C830.9 418.987 830.535 418.097 830.015 417.33C829.503 416.562 828.878 415.919 828.14 415.398C827.41 414.867 826.601 414.47 825.711 414.205C824.82 413.939 823.892 413.807 822.926 413.807C821.165 413.807 819.569 414.252 818.14 415.142C816.719 416.032 815.587 417.344 814.745 419.077C813.911 420.81 813.495 422.936 813.495 425.455C813.495 427.973 813.911 430.099 814.745 431.832C815.587 433.565 816.719 434.877 818.14 435.767C819.569 436.657 821.165 437.102 822.926 437.102C823.892 437.102 824.82 436.97 825.711 436.705C826.601 436.439 827.41 436.046 828.14 435.526C828.878 434.995 829.503 434.347 830.015 433.58C830.535 432.803 830.9 431.913 831.108 430.909H834.631C834.366 432.396 833.883 433.726 833.182 434.901C832.481 436.075 831.61 437.074 830.569 437.898C829.527 438.712 828.357 439.332 827.06 439.759C825.772 440.185 824.394 440.398 822.926 440.398C820.445 440.398 818.239 439.792 816.307 438.58C814.375 437.367 812.855 435.644 811.748 433.409C810.64 431.174 810.086 428.523 810.086 425.455C810.086 422.386 810.64 419.735 811.748 417.5C812.855 415.265 814.375 413.542 816.307 412.33C818.239 411.117 820.445 410.511 822.926 410.511C824.394 410.511 825.772 410.724 827.06 411.151C828.357 411.577 829.527 412.202 830.569 413.026C831.61 413.84 832.481 414.834 833.182 416.009C833.883 417.173 834.366 418.504 834.631 420ZM843.221 410.909V440H839.869V410.909H843.221ZM863.111 431.08V418.182H866.463V440H863.111V436.307H862.884C862.373 437.415 861.577 438.357 860.498 439.134C859.418 439.901 858.054 440.284 856.407 440.284C855.043 440.284 853.831 439.986 852.77 439.389C851.71 438.783 850.876 437.874 850.27 436.662C849.664 435.44 849.361 433.902 849.361 432.045V418.182H852.713V431.818C852.713 433.409 853.158 434.678 854.049 435.625C854.948 436.572 856.094 437.045 857.486 437.045C858.319 437.045 859.167 436.832 860.029 436.406C860.9 435.98 861.629 435.327 862.216 434.446C862.813 433.565 863.111 432.443 863.111 431.08ZM888.058 423.068L885.047 423.92C884.857 423.419 884.578 422.931 884.208 422.457C883.849 421.974 883.356 421.577 882.731 421.264C882.106 420.952 881.306 420.795 880.331 420.795C878.995 420.795 877.883 421.103 876.993 421.719C876.112 422.325 875.672 423.097 875.672 424.034C875.672 424.867 875.975 425.526 876.581 426.009C877.187 426.491 878.134 426.894 879.422 427.216L882.66 428.011C884.611 428.485 886.065 429.209 887.021 430.185C887.977 431.151 888.456 432.396 888.456 433.92C888.456 435.17 888.096 436.288 887.376 437.273C886.666 438.258 885.672 439.034 884.393 439.602C883.115 440.17 881.628 440.455 879.933 440.455C877.708 440.455 875.866 439.972 874.407 439.006C872.949 438.04 872.026 436.629 871.637 434.773L874.819 433.977C875.122 435.152 875.695 436.032 876.538 436.619C877.39 437.206 878.503 437.5 879.876 437.5C881.439 437.5 882.679 437.169 883.598 436.506C884.526 435.833 884.99 435.028 884.99 434.091C884.99 433.333 884.725 432.699 884.194 432.188C883.664 431.667 882.85 431.278 881.751 431.023L878.115 430.17C876.117 429.697 874.649 428.963 873.711 427.969C872.783 426.965 872.319 425.71 872.319 424.205C872.319 422.973 872.665 421.884 873.356 420.938C874.057 419.991 875.009 419.247 876.211 418.707C877.423 418.168 878.797 417.898 880.331 417.898C882.49 417.898 884.185 418.371 885.416 419.318C886.656 420.265 887.537 421.515 888.058 423.068ZM902.99 418.182V421.023H891.684V418.182H902.99ZM894.979 412.955H898.331V433.75C898.331 434.697 898.469 435.407 898.743 435.881C899.027 436.345 899.387 436.657 899.823 436.818C900.268 436.97 900.737 437.045 901.229 437.045C901.598 437.045 901.901 437.027 902.138 436.989C902.375 436.941 902.564 436.903 902.706 436.875L903.388 439.886C903.161 439.972 902.844 440.057 902.436 440.142C902.029 440.237 901.513 440.284 900.888 440.284C899.941 440.284 899.013 440.08 898.104 439.673C897.204 439.266 896.456 438.646 895.86 437.812C895.273 436.979 894.979 435.928 894.979 434.659V412.955ZM916.946 440.455C914.844 440.455 913.031 439.991 911.506 439.062C909.991 438.125 908.821 436.818 907.998 435.142C907.183 433.456 906.776 431.496 906.776 429.261C906.776 427.027 907.183 425.057 907.998 423.352C908.821 421.638 909.967 420.303 911.435 419.347C912.912 418.381 914.636 417.898 916.605 417.898C917.742 417.898 918.864 418.087 919.972 418.466C921.08 418.845 922.088 419.46 922.998 420.312C923.907 421.155 924.631 422.273 925.171 423.665C925.711 425.057 925.98 426.771 925.98 428.807V430.227H909.162V427.33H922.571C922.571 426.098 922.325 425 921.833 424.034C921.35 423.068 920.658 422.306 919.759 421.747C918.869 421.188 917.818 420.909 916.605 420.909C915.27 420.909 914.115 421.241 913.14 421.903C912.174 422.557 911.43 423.409 910.909 424.46C910.389 425.511 910.128 426.638 910.128 427.841V429.773C910.128 431.42 910.412 432.817 910.98 433.963C911.558 435.099 912.358 435.966 913.381 436.562C914.404 437.15 915.592 437.443 916.946 437.443C917.827 437.443 918.623 437.32 919.333 437.074C920.052 436.818 920.673 436.439 921.194 435.938C921.714 435.426 922.117 434.792 922.401 434.034L925.64 434.943C925.299 436.042 924.726 437.008 923.921 437.841C923.116 438.665 922.122 439.309 920.938 439.773C919.754 440.227 918.424 440.455 916.946 440.455ZM931.08 440V418.182H934.319V421.477H934.546C934.944 420.398 935.663 419.522 936.705 418.849C937.747 418.177 938.921 417.841 940.228 417.841C940.474 417.841 940.782 417.846 941.151 417.855C941.52 417.865 941.8 417.879 941.989 417.898V421.307C941.875 421.278 941.615 421.236 941.208 421.179C940.81 421.113 940.389 421.08 939.944 421.08C938.883 421.08 937.936 421.302 937.103 421.747C936.279 422.183 935.625 422.789 935.142 423.565C934.669 424.332 934.432 425.208 934.432 426.193V440H931.08Z" fill="black"/>
<path d="M756.72 110H759.27V101.42H764.61C768.78 101.42 771.3 98.9 771.3 95.21C771.3 91.52 768.78 89 764.61 89H756.72V110ZM759.27 99.14V91.28H764.61C767.58 91.28 768.69 93.14 768.69 95.21C768.69 97.28 767.58 99.14 764.61 99.14H759.27ZM780.388 97.01H782.488V94.88H780.568C778.348 94.88 777.088 95.87 776.458 97.94V94.88H774.058V110H776.458V103.34C776.458 99.77 777.328 97.01 780.388 97.01ZM791.151 110.24C795.651 110.24 798.861 106.97 798.861 102.44C798.861 97.88 795.651 94.64 791.151 94.64C786.681 94.64 783.471 97.88 783.471 102.44C783.471 106.97 786.681 110.24 791.151 110.24ZM785.931 102.44C785.931 99.14 788.061 96.8 791.151 96.8C794.271 96.8 796.401 99.14 796.401 102.44C796.401 105.74 794.271 108.08 791.151 108.08C788.061 108.08 785.931 105.74 785.931 102.44ZM808.369 110.24C810.499 110.24 812.479 109.16 813.379 107.51V110H815.779V88.67H813.379V97.34C812.479 95.72 810.499 94.64 808.369 94.64C803.659 94.64 801.079 98.03 801.079 102.44C801.079 106.85 803.659 110.24 808.369 110.24ZM803.539 102.44C803.539 99.02 805.549 96.8 808.579 96.8C811.609 96.8 813.589 99.02 813.589 102.44C813.589 105.86 811.609 108.08 808.579 108.08C805.549 108.08 803.539 105.86 803.539 102.44ZM832.342 94.88H829.942V103.04C829.942 105.98 828.082 108.05 825.502 108.05C823.222 108.05 821.722 106.31 821.722 103.73V94.88H819.322V104.12C819.322 107.81 821.542 110.24 824.962 110.24C827.272 110.24 829.162 109.19 829.942 107.09V110H832.342V94.88ZM842.794 110.24C846.634 110.24 849.124 108.2 849.634 105.11H847.294C846.754 106.94 845.104 108.08 842.824 108.08C839.554 108.08 837.934 105.53 837.934 102.44C837.934 99.35 839.524 96.8 842.824 96.8C845.104 96.8 846.994 98.15 847.294 99.98H849.664C849.214 96.62 846.184 94.64 842.794 94.64C838.024 94.64 835.444 98.39 835.444 102.44C835.444 106.49 838.024 110.24 842.794 110.24ZM851.733 102.35C851.733 106.67 854.733 110.24 859.203 110.24C862.953 110.24 865.623 108.23 866.133 105.14H863.703C863.223 107.03 861.663 108.11 859.203 108.11C856.353 108.11 854.283 105.89 854.103 102.77H865.923C865.953 102.56 865.983 102.05 865.983 101.72C865.983 97.7 863.343 94.64 858.933 94.64C854.493 94.64 851.733 97.91 851.733 102.35ZM854.223 100.85C854.673 98.18 856.383 96.68 858.933 96.68C861.633 96.68 863.343 98.3 863.523 100.85H854.223ZM875.544 97.01H877.644V94.88H875.724C873.504 94.88 872.244 95.87 871.614 97.94V94.88H869.214V110H871.614V103.34C871.614 99.77 872.484 97.01 875.544 97.01ZM885.041 110.24C888.371 110.24 890.591 108.5 890.591 105.8C890.591 98.87 881.741 102.92 881.741 98.84C881.741 97.52 882.911 96.68 884.681 96.68C886.061 96.68 887.951 97.34 888.161 99.26H890.501C890.321 96.47 888.071 94.64 884.741 94.64C881.561 94.64 879.401 96.32 879.401 98.87C879.401 105.41 888.191 101.36 888.191 105.86C888.191 107.09 886.931 108.14 885.041 108.14C882.851 108.14 881.531 107.09 881.321 105.14H879.011C879.251 108.29 881.531 110.24 885.041 110.24Z" fill="white"/>
<rect x="651" y="149.5" width="93" height="81" rx="19.5" fill="#2B5C52"/>
<path d="M680.913 197H679.066L684.407 182.455H686.225L691.566 197H689.719L685.373 184.756H685.259L680.913 197ZM681.594 191.318H689.038V192.881H681.594V191.318ZM693.604 201.091V186.091H695.224V187.824H695.423C695.546 187.634 695.716 187.393 695.934 187.099C696.156 186.801 696.474 186.536 696.886 186.304C697.302 186.067 697.866 185.949 698.576 185.949C699.495 185.949 700.304 186.179 701.005 186.638C701.706 187.097 702.253 187.748 702.646 188.591C703.039 189.434 703.235 190.428 703.235 191.574C703.235 192.729 703.039 193.731 702.646 194.578C702.253 195.421 701.708 196.074 701.012 196.538C700.316 196.998 699.513 197.227 698.604 197.227C697.904 197.227 697.343 197.111 696.921 196.879C696.5 196.643 696.175 196.375 695.948 196.077C695.721 195.774 695.546 195.523 695.423 195.324H695.281V201.091H693.604ZM695.252 191.545C695.252 192.369 695.373 193.096 695.614 193.726C695.856 194.351 696.209 194.841 696.673 195.196C697.137 195.546 697.705 195.722 698.377 195.722C699.078 195.722 699.663 195.537 700.131 195.168C700.605 194.794 700.96 194.292 701.197 193.662C701.438 193.027 701.559 192.322 701.559 191.545C701.559 190.778 701.441 190.087 701.204 189.472C700.972 188.851 700.619 188.361 700.146 188.001C699.677 187.637 699.087 187.455 698.377 187.455C697.695 187.455 697.122 187.627 696.658 187.973C696.194 188.314 695.844 188.792 695.607 189.408C695.371 190.018 695.252 190.731 695.252 191.545ZM705.792 201.091V186.091H707.411V187.824H707.61C707.733 187.634 707.904 187.393 708.121 187.099C708.344 186.801 708.661 186.536 709.073 186.304C709.49 186.067 710.053 185.949 710.763 185.949C711.682 185.949 712.492 186.179 713.192 186.638C713.893 187.097 714.44 187.748 714.833 188.591C715.226 189.434 715.423 190.428 715.423 191.574C715.423 192.729 715.226 193.731 714.833 194.578C714.44 195.421 713.896 196.074 713.2 196.538C712.504 196.998 711.701 197.227 710.792 197.227C710.091 197.227 709.53 197.111 709.109 196.879C708.687 196.643 708.363 196.375 708.136 196.077C707.908 195.774 707.733 195.523 707.61 195.324H707.468V201.091H705.792ZM707.44 191.545C707.44 192.369 707.56 193.096 707.802 193.726C708.043 194.351 708.396 194.841 708.86 195.196C709.324 195.546 709.892 195.722 710.565 195.722C711.265 195.722 711.85 195.537 712.319 195.168C712.792 194.794 713.147 194.292 713.384 193.662C713.626 193.027 713.746 192.322 713.746 191.545C713.746 190.778 713.628 190.087 713.391 189.472C713.159 188.851 712.807 188.361 712.333 188.001C711.864 187.637 711.275 187.455 710.565 187.455C709.883 187.455 709.31 187.627 708.846 187.973C708.382 188.314 708.031 188.792 707.795 189.408C707.558 190.018 707.44 190.731 707.44 191.545Z" fill="white"/>
<rect x="651" y="149.5" width="93" height="81" rx="19.5" stroke="#03CEA4"/>
<rect x="777" y="149.5" width="93" height="81" rx="19.5" fill="#2B5C52"/>
<path d="M806.913 197H805.066L810.407 182.455H812.225L817.566 197H815.719L811.373 184.756H811.259L806.913 197ZM807.594 191.318H815.038V192.881H807.594V191.318ZM819.604 201.091V186.091H821.224V187.824H821.423C821.546 187.634 821.716 187.393 821.934 187.099C822.156 186.801 822.474 186.536 822.886 186.304C823.302 186.067 823.866 185.949 824.576 185.949C825.495 185.949 826.304 186.179 827.005 186.638C827.706 187.097 828.253 187.748 828.646 188.591C829.039 189.434 829.235 190.428 829.235 191.574C829.235 192.729 829.039 193.731 828.646 194.578C828.253 195.421 827.708 196.074 827.012 196.538C826.316 196.998 825.513 197.227 824.604 197.227C823.904 197.227 823.343 197.111 822.921 196.879C822.5 196.643 822.175 196.375 821.948 196.077C821.721 195.774 821.546 195.523 821.423 195.324H821.281V201.091H819.604ZM821.252 191.545C821.252 192.369 821.373 193.096 821.614 193.726C821.856 194.351 822.209 194.841 822.673 195.196C823.137 195.546 823.705 195.722 824.377 195.722C825.078 195.722 825.663 195.537 826.131 195.168C826.605 194.794 826.96 194.292 827.197 193.662C827.438 193.027 827.559 192.322 827.559 191.545C827.559 190.778 827.441 190.087 827.204 189.472C826.972 188.851 826.619 188.361 826.146 188.001C825.677 187.637 825.087 187.455 824.377 187.455C823.695 187.455 823.122 187.627 822.658 187.973C822.194 188.314 821.844 188.792 821.607 189.408C821.371 190.018 821.252 190.731 821.252 191.545ZM831.792 201.091V186.091H833.411V187.824H833.61C833.733 187.634 833.904 187.393 834.121 187.099C834.344 186.801 834.661 186.536 835.073 186.304C835.49 186.067 836.053 185.949 836.763 185.949C837.682 185.949 838.492 186.179 839.192 186.638C839.893 187.097 840.44 187.748 840.833 188.591C841.226 189.434 841.423 190.428 841.423 191.574C841.423 192.729 841.226 193.731 840.833 194.578C840.44 195.421 839.896 196.074 839.2 196.538C838.504 196.998 837.701 197.227 836.792 197.227C836.091 197.227 835.53 197.111 835.109 196.879C834.687 196.643 834.363 196.375 834.136 196.077C833.908 195.774 833.733 195.523 833.61 195.324H833.468V201.091H831.792ZM833.44 191.545C833.44 192.369 833.56 193.096 833.802 193.726C834.043 194.351 834.396 194.841 834.86 195.196C835.324 195.546 835.892 195.722 836.565 195.722C837.265 195.722 837.85 195.537 838.319 195.168C838.792 194.794 839.147 194.292 839.384 193.662C839.626 193.027 839.746 192.322 839.746 191.545C839.746 190.778 839.628 190.087 839.391 189.472C839.159 188.851 838.807 188.361 838.333 188.001C837.864 187.637 837.275 187.455 836.565 187.455C835.883 187.455 835.31 187.627 834.846 187.973C834.382 188.314 834.031 188.792 833.795 189.408C833.558 190.018 833.44 190.731 833.44 191.545Z" fill="white"/>
<rect x="777" y="149.5" width="93" height="81" rx="19.5" stroke="#03CEA4"/>
<rect x="903" y="149.5" width="93" height="81" rx="19.5" fill="#2B5C52"/>
<path d="M932.913 197H931.066L936.407 182.455H938.225L943.566 197H941.719L937.373 184.756H937.259L932.913 197ZM933.594 191.318H941.038V192.881H933.594V191.318ZM945.604 201.091V186.091H947.224V187.824H947.423C947.546 187.634 947.716 187.393 947.934 187.099C948.156 186.801 948.474 186.536 948.886 186.304C949.302 186.067 949.866 185.949 950.576 185.949C951.495 185.949 952.304 186.179 953.005 186.638C953.706 187.097 954.253 187.748 954.646 188.591C955.039 189.434 955.235 190.428 955.235 191.574C955.235 192.729 955.039 193.731 954.646 194.578C954.253 195.421 953.708 196.074 953.012 196.538C952.316 196.998 951.513 197.227 950.604 197.227C949.904 197.227 949.343 197.111 948.921 196.879C948.5 196.643 948.175 196.375 947.948 196.077C947.721 195.774 947.546 195.523 947.423 195.324H947.281V201.091H945.604ZM947.252 191.545C947.252 192.369 947.373 193.096 947.614 193.726C947.856 194.351 948.209 194.841 948.673 195.196C949.137 195.546 949.705 195.722 950.377 195.722C951.078 195.722 951.663 195.537 952.131 195.168C952.605 194.794 952.96 194.292 953.197 193.662C953.438 193.027 953.559 192.322 953.559 191.545C953.559 190.778 953.441 190.087 953.204 189.472C952.972 188.851 952.619 188.361 952.146 188.001C951.677 187.637 951.087 187.455 950.377 187.455C949.695 187.455 949.122 187.627 948.658 187.973C948.194 188.314 947.844 188.792 947.607 189.408C947.371 190.018 947.252 190.731 947.252 191.545ZM957.792 201.091V186.091H959.411V187.824H959.61C959.733 187.634 959.904 187.393 960.121 187.099C960.344 186.801 960.661 186.536 961.073 186.304C961.49 186.067 962.053 185.949 962.763 185.949C963.682 185.949 964.492 186.179 965.192 186.638C965.893 187.097 966.44 187.748 966.833 188.591C967.226 189.434 967.423 190.428 967.423 191.574C967.423 192.729 967.226 193.731 966.833 194.578C966.44 195.421 965.896 196.074 965.2 196.538C964.504 196.998 963.701 197.227 962.792 197.227C962.091 197.227 961.53 197.111 961.109 196.879C960.687 196.643 960.363 196.375 960.136 196.077C959.908 195.774 959.733 195.523 959.61 195.324H959.468V201.091H957.792ZM959.44 191.545C959.44 192.369 959.56 193.096 959.802 193.726C960.043 194.351 960.396 194.841 960.86 195.196C961.324 195.546 961.892 195.722 962.565 195.722C963.265 195.722 963.85 195.537 964.319 195.168C964.792 194.794 965.147 194.292 965.384 193.662C965.626 193.027 965.746 192.322 965.746 191.545C965.746 190.778 965.628 190.087 965.391 189.472C965.159 188.851 964.807 188.361 964.333 188.001C963.864 187.637 963.275 187.455 962.565 187.455C961.883 187.455 961.31 187.627 960.846 187.973C960.382 188.314 960.031 188.792 959.795 189.408C959.558 190.018 959.44 190.731 959.44 191.545Z" fill="white"/>
<rect x="903" y="149.5" width="93" height="81" rx="19.5" stroke="#03CEA4"/>
<rect x="651" y="618.5" width="93" height="81" rx="19.5" fill="#2B5C52"/>
<path d="M680.913 666H679.066L684.407 651.455H686.225L691.566 666H689.719L685.373 653.756H685.259L680.913 666ZM681.594 660.318H689.038V661.881H681.594V660.318ZM693.604 670.091V655.091H695.224V656.824H695.423C695.546 656.634 695.716 656.393 695.934 656.099C696.156 655.801 696.474 655.536 696.886 655.304C697.302 655.067 697.866 654.949 698.576 654.949C699.495 654.949 700.304 655.179 701.005 655.638C701.706 656.097 702.253 656.748 702.646 657.591C703.039 658.434 703.235 659.428 703.235 660.574C703.235 661.729 703.039 662.731 702.646 663.578C702.253 664.421 701.708 665.074 701.012 665.538C700.316 665.998 699.513 666.227 698.604 666.227C697.904 666.227 697.343 666.111 696.921 665.879C696.5 665.643 696.175 665.375 695.948 665.077C695.721 664.774 695.546 664.523 695.423 664.324H695.281V670.091H693.604ZM695.252 660.545C695.252 661.369 695.373 662.096 695.614 662.726C695.856 663.351 696.209 663.841 696.673 664.196C697.137 664.546 697.705 664.722 698.377 664.722C699.078 664.722 699.663 664.537 700.131 664.168C700.605 663.794 700.96 663.292 701.197 662.662C701.438 662.027 701.559 661.322 701.559 660.545C701.559 659.778 701.441 659.087 701.204 658.472C700.972 657.851 700.619 657.361 700.146 657.001C699.677 656.637 699.087 656.455 698.377 656.455C697.695 656.455 697.122 656.627 696.658 656.973C696.194 657.314 695.844 657.792 695.607 658.408C695.371 659.018 695.252 659.731 695.252 660.545ZM705.792 670.091V655.091H707.411V656.824H707.61C707.733 656.634 707.904 656.393 708.121 656.099C708.344 655.801 708.661 655.536 709.073 655.304C709.49 655.067 710.053 654.949 710.763 654.949C711.682 654.949 712.492 655.179 713.192 655.638C713.893 656.097 714.44 656.748 714.833 657.591C715.226 658.434 715.423 659.428 715.423 660.574C715.423 661.729 715.226 662.731 714.833 663.578C714.44 664.421 713.896 665.074 713.2 665.538C712.504 665.998 711.701 666.227 710.792 666.227C710.091 666.227 709.53 666.111 709.109 665.879C708.687 665.643 708.363 665.375 708.136 665.077C707.908 664.774 707.733 664.523 707.61 664.324H707.468V670.091H705.792ZM707.44 660.545C707.44 661.369 707.56 662.096 707.802 662.726C708.043 663.351 708.396 663.841 708.86 664.196C709.324 664.546 709.892 664.722 710.565 664.722C711.265 664.722 711.85 664.537 712.319 664.168C712.792 663.794 713.147 663.292 713.384 662.662C713.626 662.027 713.746 661.322 713.746 660.545C713.746 659.778 713.628 659.087 713.391 658.472C713.159 657.851 712.807 657.361 712.333 657.001C711.864 656.637 711.275 656.455 710.565 656.455C709.883 656.455 709.31 656.627 708.846 656.973C708.382 657.314 708.031 657.792 707.795 658.408C707.558 659.018 707.44 659.731 707.44 660.545Z" fill="white"/>
<rect x="651" y="618.5" width="93" height="81" rx="19.5" stroke="#03CEA4"/>
<rect x="777" y="618.5" width="93" height="81" rx="19.5" fill="#2B5C52"/>
<path d="M806.913 666H805.066L810.407 651.455H812.225L817.566 666H815.719L811.373 653.756H811.259L806.913 666ZM807.594 660.318H815.038V661.881H807.594V660.318ZM819.604 670.091V655.091H821.224V656.824H821.423C821.546 656.634 821.716 656.393 821.934 656.099C822.156 655.801 822.474 655.536 822.886 655.304C823.302 655.067 823.866 654.949 824.576 654.949C825.495 654.949 826.304 655.179 827.005 655.638C827.706 656.097 828.253 656.748 828.646 657.591C829.039 658.434 829.235 659.428 829.235 660.574C829.235 661.729 829.039 662.731 828.646 663.578C828.253 664.421 827.708 665.074 827.012 665.538C826.316 665.998 825.513 666.227 824.604 666.227C823.904 666.227 823.343 666.111 822.921 665.879C822.5 665.643 822.175 665.375 821.948 665.077C821.721 664.774 821.546 664.523 821.423 664.324H821.281V670.091H819.604ZM821.252 660.545C821.252 661.369 821.373 662.096 821.614 662.726C821.856 663.351 822.209 663.841 822.673 664.196C823.137 664.546 823.705 664.722 824.377 664.722C825.078 664.722 825.663 664.537 826.131 664.168C826.605 663.794 826.96 663.292 827.197 662.662C827.438 662.027 827.559 661.322 827.559 660.545C827.559 659.778 827.441 659.087 827.204 658.472C826.972 657.851 826.619 657.361 826.146 657.001C825.677 656.637 825.087 656.455 824.377 656.455C823.695 656.455 823.122 656.627 822.658 656.973C822.194 657.314 821.844 657.792 821.607 658.408C821.371 659.018 821.252 659.731 821.252 660.545ZM831.792 670.091V655.091H833.411V656.824H833.61C833.733 656.634 833.904 656.393 834.121 656.099C834.344 655.801 834.661 655.536 835.073 655.304C835.49 655.067 836.053 654.949 836.763 654.949C837.682 654.949 838.492 655.179 839.192 655.638C839.893 656.097 840.44 656.748 840.833 657.591C841.226 658.434 841.423 659.428 841.423 660.574C841.423 661.729 841.226 662.731 840.833 663.578C840.44 664.421 839.896 665.074 839.2 665.538C838.504 665.998 837.701 666.227 836.792 666.227C836.091 666.227 835.53 666.111 835.109 665.879C834.687 665.643 834.363 665.375 834.136 665.077C833.908 664.774 833.733 664.523 833.61 664.324H833.468V670.091H831.792ZM833.44 660.545C833.44 661.369 833.56 662.096 833.802 662.726C834.043 663.351 834.396 663.841 834.86 664.196C835.324 664.546 835.892 664.722 836.565 664.722C837.265 664.722 837.85 664.537 838.319 664.168C838.792 663.794 839.147 663.292 839.384 662.662C839.626 662.027 839.746 661.322 839.746 660.545C839.746 659.778 839.628 659.087 839.391 658.472C839.159 657.851 838.807 657.361 838.333 657.001C837.864 656.637 837.275 656.455 836.565 656.455C835.883 656.455 835.31 656.627 834.846 656.973C834.382 657.314 834.031 657.792 833.795 658.408C833.558 659.018 833.44 659.731 833.44 660.545Z" fill="white"/>
<rect x="777" y="618.5" width="93" height="81" rx="19.5" stroke="#03CEA4"/>
<rect x="903" y="618.5" width="93" height="81" rx="19.5" fill="#2B5C52"/>
<path d="M932.913 666H931.066L936.407 651.455H938.225L943.566 666H941.719L937.373 653.756H937.259L932.913 666ZM933.594 660.318H941.038V661.881H933.594V660.318ZM945.604 670.091V655.091H947.224V656.824H947.423C947.546 656.634 947.716 656.393 947.934 656.099C948.156 655.801 948.474 655.536 948.886 655.304C949.302 655.067 949.866 654.949 950.576 654.949C951.495 654.949 952.304 655.179 953.005 655.638C953.706 656.097 954.253 656.748 954.646 657.591C955.039 658.434 955.235 659.428 955.235 660.574C955.235 661.729 955.039 662.731 954.646 663.578C954.253 664.421 953.708 665.074 953.012 665.538C952.316 665.998 951.513 666.227 950.604 666.227C949.904 666.227 949.343 666.111 948.921 665.879C948.5 665.643 948.175 665.375 947.948 665.077C947.721 664.774 947.546 664.523 947.423 664.324H947.281V670.091H945.604ZM947.252 660.545C947.252 661.369 947.373 662.096 947.614 662.726C947.856 663.351 948.209 663.841 948.673 664.196C949.137 664.546 949.705 664.722 950.377 664.722C951.078 664.722 951.663 664.537 952.131 664.168C952.605 663.794 952.96 663.292 953.197 662.662C953.438 662.027 953.559 661.322 953.559 660.545C953.559 659.778 953.441 659.087 953.204 658.472C952.972 657.851 952.619 657.361 952.146 657.001C951.677 656.637 951.087 656.455 950.377 656.455C949.695 656.455 949.122 656.627 948.658 656.973C948.194 657.314 947.844 657.792 947.607 658.408C947.371 659.018 947.252 659.731 947.252 660.545ZM957.792 670.091V655.091H959.411V656.824H959.61C959.733 656.634 959.904 656.393 960.121 656.099C960.344 655.801 960.661 655.536 961.073 655.304C961.49 655.067 962.053 654.949 962.763 654.949C963.682 654.949 964.492 655.179 965.192 655.638C965.893 656.097 966.44 656.748 966.833 657.591C967.226 658.434 967.423 659.428 967.423 660.574C967.423 661.729 967.226 662.731 966.833 663.578C966.44 664.421 965.896 665.074 965.2 665.538C964.504 665.998 963.701 666.227 962.792 666.227C962.091 666.227 961.53 666.111 961.109 665.879C960.687 665.643 960.363 665.375 960.136 665.077C959.908 664.774 959.733 664.523 959.61 664.324H959.468V670.091H957.792ZM959.44 660.545C959.44 661.369 959.56 662.096 959.802 662.726C960.043 663.351 960.396 663.841 960.86 664.196C961.324 664.546 961.892 664.722 962.565 664.722C963.265 664.722 963.85 664.537 964.319 664.168C964.792 663.794 965.147 663.292 965.384 662.662C965.626 662.027 965.746 661.322 965.746 660.545C965.746 659.778 965.628 659.087 965.391 658.472C965.159 657.851 964.807 657.361 964.333 657.001C963.864 656.637 963.275 656.455 962.565 656.455C961.883 656.455 961.31 656.627 960.846 656.973C960.382 657.314 960.031 657.792 959.795 658.408C959.558 659.018 959.44 659.731 959.44 660.545Z" fill="white"/>
<rect x="903" y="618.5" width="93" height="81" rx="19.5" stroke="#03CEA4"/>
<path d="M757.37 759.24C762.02 759.24 765.77 756.39 766.22 752.46H763.58C763.28 755.04 760.64 756.93 757.37 756.93C752.99 756.93 749.9 753.96 749.9 748.5C749.9 743.04 752.99 740.07 757.37 740.07C760.58 740.07 763.19 741.96 763.55 744.54H766.25C765.68 740.61 761.93 737.76 757.37 737.76C752.15 737.76 747.26 741.24 747.26 748.5C747.26 755.73 752.12 759.24 757.37 759.24ZM776.03 759.24C780.53 759.24 783.74 755.97 783.74 751.44C783.74 746.88 780.53 743.64 776.03 743.64C771.56 743.64 768.35 746.88 768.35 751.44C768.35 755.97 771.56 759.24 776.03 759.24ZM770.81 751.44C770.81 748.14 772.94 745.8 776.03 745.8C779.15 745.8 781.28 748.14 781.28 751.44C781.28 754.74 779.15 757.08 776.03 757.08C772.94 757.08 770.81 754.74 770.81 751.44ZM786.828 759H789.228V750.84C789.228 747.9 791.088 745.83 793.668 745.83C795.948 745.83 797.448 747.57 797.448 750.15V759H799.848V749.76C799.848 746.07 797.628 743.64 794.208 743.64C791.898 743.64 790.008 744.69 789.228 746.79V743.88H786.828V759ZM809.07 759.24C812.4 759.24 814.62 757.5 814.62 754.8C814.62 747.87 805.77 751.92 805.77 747.84C805.77 746.52 806.94 745.68 808.71 745.68C810.09 745.68 811.98 746.34 812.19 748.26H814.53C814.35 745.47 812.1 743.64 808.77 743.64C805.59 743.64 803.43 745.32 803.43 747.87C803.43 754.41 812.22 750.36 812.22 754.86C812.22 756.09 810.96 757.14 809.07 757.14C806.88 757.14 805.56 756.09 805.35 754.14H803.04C803.28 757.29 805.56 759.24 809.07 759.24ZM830.932 743.88H828.532V752.04C828.532 754.98 826.672 757.05 824.092 757.05C821.812 757.05 820.312 755.31 820.312 752.73V743.88H817.912V753.12C817.912 756.81 820.132 759.24 823.552 759.24C825.862 759.24 827.752 758.19 828.532 756.09V759H830.932V743.88ZM834.904 759H837.304V750.12C837.304 747.54 838.804 745.77 841.354 745.77C843.454 745.77 844.744 747.54 844.744 750.12V759H847.144V750.12C847.144 747.54 848.644 745.77 851.164 745.77C853.294 745.77 854.584 747.54 854.584 750.12V759H856.984V749.49C856.984 745.83 855.004 743.64 851.734 743.64C849.424 743.64 847.414 745.05 846.844 746.85C846.304 744.78 844.354 743.64 841.864 743.64C839.554 743.64 837.874 744.96 837.304 746.79V743.88H834.904V759ZM860.079 751.35C860.079 755.67 863.079 759.24 867.549 759.24C871.299 759.24 873.969 757.23 874.479 754.14H872.049C871.569 756.03 870.009 757.11 867.549 757.11C864.699 757.11 862.629 754.89 862.449 751.77H874.269C874.299 751.56 874.329 751.05 874.329 750.72C874.329 746.7 871.689 743.64 867.279 743.64C862.839 743.64 860.079 746.91 860.079 751.35ZM862.569 749.85C863.019 747.18 864.729 745.68 867.279 745.68C869.979 745.68 871.689 747.3 871.869 749.85H862.569ZM883.89 746.01H885.99V743.88H884.07C881.85 743.88 880.59 744.87 879.96 746.94V743.88H877.56V759H879.96V752.34C879.96 748.77 880.83 746.01 883.89 746.01ZM893.386 759.24C896.716 759.24 898.936 757.5 898.936 754.8C898.936 747.87 890.086 751.92 890.086 747.84C890.086 746.52 891.256 745.68 893.026 745.68C894.406 745.68 896.296 746.34 896.506 748.26H898.846C898.666 745.47 896.416 743.64 893.086 743.64C889.906 743.64 887.746 745.32 887.746 747.87C887.746 754.41 896.536 750.36 896.536 754.86C896.536 756.09 895.276 757.14 893.386 757.14C891.196 757.14 889.876 756.09 889.666 754.14H887.356C887.596 757.29 889.876 759.24 893.386 759.24Z" fill="white"/>
<rect x="1138.5" y="324.5" width="93" height="81" rx="19.5" fill="#2B5C52"/>
<path d="M1168.41 372H1166.57L1171.91 357.455H1173.73L1179.07 372H1177.22L1172.87 359.756H1172.76L1168.41 372ZM1169.09 366.318H1176.54V367.881H1169.09V366.318ZM1181.1 376.091V361.091H1182.72V362.824H1182.92C1183.05 362.634 1183.22 362.393 1183.43 362.099C1183.66 361.801 1183.97 361.536 1184.39 361.304C1184.8 361.067 1185.37 360.949 1186.08 360.949C1186.99 360.949 1187.8 361.179 1188.5 361.638C1189.21 362.097 1189.75 362.748 1190.15 363.591C1190.54 364.434 1190.74 365.428 1190.74 366.574C1190.74 367.729 1190.54 368.731 1190.15 369.578C1189.75 370.421 1189.21 371.074 1188.51 371.538C1187.82 371.998 1187.01 372.227 1186.1 372.227C1185.4 372.227 1184.84 372.111 1184.42 371.879C1184 371.643 1183.68 371.375 1183.45 371.077C1183.22 370.774 1183.05 370.523 1182.92 370.324H1182.78V376.091H1181.1ZM1182.75 366.545C1182.75 367.369 1182.87 368.096 1183.11 368.726C1183.36 369.351 1183.71 369.841 1184.17 370.196C1184.64 370.546 1185.2 370.722 1185.88 370.722C1186.58 370.722 1187.16 370.537 1187.63 370.168C1188.1 369.794 1188.46 369.292 1188.7 368.662C1188.94 368.027 1189.06 367.322 1189.06 366.545C1189.06 365.778 1188.94 365.087 1188.7 364.472C1188.47 363.851 1188.12 363.361 1187.65 363.001C1187.18 362.637 1186.59 362.455 1185.88 362.455C1185.2 362.455 1184.62 362.627 1184.16 362.973C1183.69 363.314 1183.34 363.792 1183.11 364.408C1182.87 365.018 1182.75 365.731 1182.75 366.545ZM1193.29 376.091V361.091H1194.91V362.824H1195.11C1195.23 362.634 1195.4 362.393 1195.62 362.099C1195.84 361.801 1196.16 361.536 1196.57 361.304C1196.99 361.067 1197.55 360.949 1198.26 360.949C1199.18 360.949 1199.99 361.179 1200.69 361.638C1201.39 362.097 1201.94 362.748 1202.33 363.591C1202.73 364.434 1202.92 365.428 1202.92 366.574C1202.92 367.729 1202.73 368.731 1202.33 369.578C1201.94 370.421 1201.4 371.074 1200.7 371.538C1200 371.998 1199.2 372.227 1198.29 372.227C1197.59 372.227 1197.03 372.111 1196.61 371.879C1196.19 371.643 1195.86 371.375 1195.64 371.077C1195.41 370.774 1195.23 370.523 1195.11 370.324H1194.97V376.091H1193.29ZM1194.94 366.545C1194.94 367.369 1195.06 368.096 1195.3 368.726C1195.54 369.351 1195.9 369.841 1196.36 370.196C1196.82 370.546 1197.39 370.722 1198.06 370.722C1198.77 370.722 1199.35 370.537 1199.82 370.168C1200.29 369.794 1200.65 369.292 1200.88 368.662C1201.13 368.027 1201.25 367.322 1201.25 366.545C1201.25 365.778 1201.13 365.087 1200.89 364.472C1200.66 363.851 1200.31 363.361 1199.83 363.001C1199.36 362.637 1198.77 362.455 1198.06 362.455C1197.38 362.455 1196.81 362.627 1196.35 362.973C1195.88 363.314 1195.53 363.792 1195.29 364.408C1195.06 365.018 1194.94 365.731 1194.94 366.545Z" fill="white"/>
<rect x="1138.5" y="324.5" width="93" height="81" rx="19.5" stroke="#03CEA4"/>
<rect x="1138.5" y="438.5" width="93" height="81" rx="19.5" fill="#2B5C52"/>
<path d="M1168.41 486H1166.57L1171.91 471.455H1173.73L1179.07 486H1177.22L1172.87 473.756H1172.76L1168.41 486ZM1169.09 480.318H1176.54V481.881H1169.09V480.318ZM1181.1 490.091V475.091H1182.72V476.824H1182.92C1183.05 476.634 1183.22 476.393 1183.43 476.099C1183.66 475.801 1183.97 475.536 1184.39 475.304C1184.8 475.067 1185.37 474.949 1186.08 474.949C1186.99 474.949 1187.8 475.179 1188.5 475.638C1189.21 476.097 1189.75 476.748 1190.15 477.591C1190.54 478.434 1190.74 479.428 1190.74 480.574C1190.74 481.729 1190.54 482.731 1190.15 483.578C1189.75 484.421 1189.21 485.074 1188.51 485.538C1187.82 485.998 1187.01 486.227 1186.1 486.227C1185.4 486.227 1184.84 486.111 1184.42 485.879C1184 485.643 1183.68 485.375 1183.45 485.077C1183.22 484.774 1183.05 484.523 1182.92 484.324H1182.78V490.091H1181.1ZM1182.75 480.545C1182.75 481.369 1182.87 482.096 1183.11 482.726C1183.36 483.351 1183.71 483.841 1184.17 484.196C1184.64 484.546 1185.2 484.722 1185.88 484.722C1186.58 484.722 1187.16 484.537 1187.63 484.168C1188.1 483.794 1188.46 483.292 1188.7 482.662C1188.94 482.027 1189.06 481.322 1189.06 480.545C1189.06 479.778 1188.94 479.087 1188.7 478.472C1188.47 477.851 1188.12 477.361 1187.65 477.001C1187.18 476.637 1186.59 476.455 1185.88 476.455C1185.2 476.455 1184.62 476.627 1184.16 476.973C1183.69 477.314 1183.34 477.792 1183.11 478.408C1182.87 479.018 1182.75 479.731 1182.75 480.545ZM1193.29 490.091V475.091H1194.91V476.824H1195.11C1195.23 476.634 1195.4 476.393 1195.62 476.099C1195.84 475.801 1196.16 475.536 1196.57 475.304C1196.99 475.067 1197.55 474.949 1198.26 474.949C1199.18 474.949 1199.99 475.179 1200.69 475.638C1201.39 476.097 1201.94 476.748 1202.33 477.591C1202.73 478.434 1202.92 479.428 1202.92 480.574C1202.92 481.729 1202.73 482.731 1202.33 483.578C1201.94 484.421 1201.4 485.074 1200.7 485.538C1200 485.998 1199.2 486.227 1198.29 486.227C1197.59 486.227 1197.03 486.111 1196.61 485.879C1196.19 485.643 1195.86 485.375 1195.64 485.077C1195.41 484.774 1195.23 484.523 1195.11 484.324H1194.97V490.091H1193.29ZM1194.94 480.545C1194.94 481.369 1195.06 482.096 1195.3 482.726C1195.54 483.351 1195.9 483.841 1196.36 484.196C1196.82 484.546 1197.39 484.722 1198.06 484.722C1198.77 484.722 1199.35 484.537 1199.82 484.168C1200.29 483.794 1200.65 483.292 1200.88 482.662C1201.13 482.027 1201.25 481.322 1201.25 480.545C1201.25 479.778 1201.13 479.087 1200.89 478.472C1200.66 477.851 1200.31 477.361 1199.83 477.001C1199.36 476.637 1198.77 476.455 1198.06 476.455C1197.38 476.455 1196.81 476.627 1196.35 476.973C1195.88 477.314 1195.53 477.792 1195.29 478.408C1195.06 479.018 1194.94 479.731 1194.94 480.545Z" fill="white"/>
<rect x="1138.5" y="438.5" width="93" height="81" rx="19.5" stroke="#03CEA4"/>
<path d="M1277.03 414.24C1281.41 414.24 1284.71 412.08 1284.71 408.27C1284.71 400.38 1272.35 403.71 1272.35 398.34C1272.35 396.33 1274.03 395.07 1276.88 395.07C1279.7 395.07 1281.53 396.6 1281.77 398.97H1284.29C1283.99 395.19 1281.08 392.76 1276.88 392.76C1272.68 392.76 1269.77 395.01 1269.77 398.34C1269.77 405.84 1282.04 402.87 1282.04 408.27C1282.04 410.82 1279.94 411.93 1277.03 411.93C1273.76 411.93 1271.84 410.04 1271.57 407.13H1269.05C1269.32 411.42 1272.32 414.24 1277.03 414.24ZM1289.41 394.05V398.88H1286.26V401.01H1289.41V409.26C1289.41 412.2 1291.27 414 1294.15 414H1296.46V411.87H1294.24C1292.77 411.87 1291.81 410.88 1291.81 409.2V401.01H1296.46V398.88H1291.81V394.05H1289.41ZM1305.4 401.01H1307.5V398.88H1305.58C1303.36 398.88 1302.1 399.87 1301.47 401.94V398.88H1299.07V414H1301.47V407.34C1301.47 403.77 1302.34 401.01 1305.4 401.01ZM1308.49 406.35C1308.49 410.67 1311.49 414.24 1315.96 414.24C1319.71 414.24 1322.38 412.23 1322.89 409.14H1320.46C1319.98 411.03 1318.42 412.11 1315.96 412.11C1313.11 412.11 1311.04 409.89 1310.86 406.77H1322.68C1322.71 406.56 1322.74 406.05 1322.74 405.72C1322.74 401.7 1320.1 398.64 1315.69 398.64C1311.25 398.64 1308.49 401.91 1308.49 406.35ZM1310.98 404.85C1311.43 402.18 1313.14 400.68 1315.69 400.68C1318.39 400.68 1320.1 402.3 1320.28 404.85H1310.98ZM1335.66 404.16C1335.66 404.64 1335.36 404.97 1334.7 404.97H1331.28C1327.62 404.97 1325.25 406.8 1325.25 409.68C1325.25 412.44 1327.32 414.24 1330.5 414.24C1332.84 414.24 1334.85 413.13 1335.66 411.39V414H1338.06V404.25C1338.06 400.89 1335.6 398.64 1331.67 398.64C1328.28 398.64 1325.52 400.8 1325.25 403.71H1327.53C1327.65 402.06 1329.39 400.68 1331.61 400.68C1334.19 400.68 1335.66 402.09 1335.66 404.16ZM1327.71 409.65C1327.71 407.88 1329.18 406.8 1331.43 406.8H1335.66V407.19C1335.66 410.31 1333.89 412.2 1330.86 412.2C1328.94 412.2 1327.71 411.21 1327.71 409.65ZM1341.61 414H1344.01V405.12C1344.01 402.54 1345.51 400.77 1348.06 400.77C1350.16 400.77 1351.45 402.54 1351.45 405.12V414H1353.85V405.12C1353.85 402.54 1355.35 400.77 1357.87 400.77C1360 400.77 1361.29 402.54 1361.29 405.12V414H1363.69V404.49C1363.69 400.83 1361.71 398.64 1358.44 398.64C1356.13 398.64 1354.12 400.05 1353.55 401.85C1353.01 399.78 1351.06 398.64 1348.57 398.64C1346.26 398.64 1344.58 399.96 1344.01 401.79V398.88H1341.61V414ZM1270.22 450H1272.77V441.42H1278.11C1282.28 441.42 1284.8 438.9 1284.8 435.21C1284.8 431.52 1282.28 429 1278.11 429H1270.22V450ZM1272.77 439.14V431.28H1278.11C1281.08 431.28 1282.19 433.14 1282.19 435.21C1282.19 437.28 1281.08 439.14 1278.11 439.14H1272.77ZM1293.89 437.01H1295.99V434.88H1294.07C1291.85 434.88 1290.59 435.87 1289.96 437.94V434.88H1287.56V450H1289.96V443.34C1289.96 439.77 1290.83 437.01 1293.89 437.01ZM1304.65 450.24C1309.15 450.24 1312.36 446.97 1312.36 442.44C1312.36 437.88 1309.15 434.64 1304.65 434.64C1300.18 434.64 1296.97 437.88 1296.97 442.44C1296.97 446.97 1300.18 450.24 1304.65 450.24ZM1299.43 442.44C1299.43 439.14 1301.56 436.8 1304.65 436.8C1307.77 436.8 1309.9 439.14 1309.9 442.44C1309.9 445.74 1307.77 448.08 1304.65 448.08C1301.56 448.08 1299.43 445.74 1299.43 442.44ZM1321.93 450.24C1325.77 450.24 1328.26 448.2 1328.77 445.11H1326.43C1325.89 446.94 1324.24 448.08 1321.96 448.08C1318.69 448.08 1317.07 445.53 1317.07 442.44C1317.07 439.35 1318.66 436.8 1321.96 436.8C1324.24 436.8 1326.13 438.15 1326.43 439.98H1328.8C1328.35 436.62 1325.32 434.64 1321.93 434.64C1317.16 434.64 1314.58 438.39 1314.58 442.44C1314.58 446.49 1317.16 450.24 1321.93 450.24ZM1330.87 442.35C1330.87 446.67 1333.87 450.24 1338.34 450.24C1342.09 450.24 1344.76 448.23 1345.27 445.14H1342.84C1342.36 447.03 1340.8 448.11 1338.34 448.11C1335.49 448.11 1333.42 445.89 1333.24 442.77H1345.06C1345.09 442.56 1345.12 442.05 1345.12 441.72C1345.12 437.7 1342.48 434.64 1338.07 434.64C1333.63 434.64 1330.87 437.91 1330.87 442.35ZM1333.36 440.85C1333.81 438.18 1335.52 436.68 1338.07 436.68C1340.77 436.68 1342.48 438.3 1342.66 440.85H1333.36ZM1353.45 450.24C1356.78 450.24 1359 448.5 1359 445.8C1359 438.87 1350.15 442.92 1350.15 438.84C1350.15 437.52 1351.32 436.68 1353.09 436.68C1354.47 436.68 1356.36 437.34 1356.57 439.26H1358.91C1358.73 436.47 1356.48 434.64 1353.15 434.64C1349.97 434.64 1347.81 436.32 1347.81 438.87C1347.81 445.41 1356.6 441.36 1356.6 445.86C1356.6 447.09 1355.34 448.14 1353.45 448.14C1351.26 448.14 1349.94 447.09 1349.73 445.14H1347.42C1347.66 448.29 1349.94 450.24 1353.45 450.24ZM1367.54 450.24C1370.87 450.24 1373.09 448.5 1373.09 445.8C1373.09 438.87 1364.24 442.92 1364.24 438.84C1364.24 437.52 1365.41 436.68 1367.18 436.68C1368.56 436.68 1370.45 437.34 1370.66 439.26H1373C1372.82 436.47 1370.57 434.64 1367.24 434.64C1364.06 434.64 1361.9 436.32 1361.9 438.87C1361.9 445.41 1370.69 441.36 1370.69 445.86C1370.69 447.09 1369.43 448.14 1367.54 448.14C1365.35 448.14 1364.03 447.09 1363.82 445.14H1361.51C1361.75 448.29 1364.03 450.24 1367.54 450.24ZM1383.08 450.24C1387.58 450.24 1390.79 446.97 1390.79 442.44C1390.79 437.88 1387.58 434.64 1383.08 434.64C1378.61 434.64 1375.4 437.88 1375.4 442.44C1375.4 446.97 1378.61 450.24 1383.08 450.24ZM1377.86 442.44C1377.86 439.14 1379.99 436.8 1383.08 436.8C1386.2 436.8 1388.33 439.14 1388.33 442.44C1388.33 445.74 1386.2 448.08 1383.08 448.08C1379.99 448.08 1377.86 445.74 1377.86 442.44ZM1400.21 437.01H1402.31V434.88H1400.39C1398.17 434.88 1396.91 435.87 1396.28 437.94V434.88H1393.88V450H1396.28V443.34C1396.28 439.77 1397.15 437.01 1400.21 437.01ZM1409.7 450.24C1413.03 450.24 1415.25 448.5 1415.25 445.8C1415.25 438.87 1406.4 442.92 1406.4 438.84C1406.4 437.52 1407.57 436.68 1409.34 436.68C1410.72 436.68 1412.61 437.34 1412.82 439.26H1415.16C1414.98 436.47 1412.73 434.64 1409.4 434.64C1406.22 434.64 1404.06 436.32 1404.06 438.87C1404.06 445.41 1412.85 441.36 1412.85 445.86C1412.85 447.09 1411.59 448.14 1409.7 448.14C1407.51 448.14 1406.19 447.09 1405.98 445.14H1403.67C1403.91 448.29 1406.19 450.24 1409.7 450.24Z" fill="white"/>
<path d="M697 315L692.67 307.5L701.33 307.5L697 315ZM696.25 308.25L696.25 235L697.75 235L697.75 308.25L696.25 308.25Z" fill="white"/>
<path d="M823 315L818.67 307.5L827.33 307.5L823 315ZM822.25 308.25L822.25 235L823.75 235L823.75 308.25L822.25 308.25Z" fill="white"/>
<path d="M949 315L944.67 307.5L953.33 307.5L949 315ZM948.25 308.25L948.25 235L949.75 235L949.75 308.25L948.25 308.25Z" fill="white"/>
<path d="M697 614L692.67 606.5L701.33 606.5L697 614ZM696.25 607.25L696.25 534L697.75 534L697.75 607.25L696.25 607.25Z" fill="white"/>
<path d="M823 614L818.67 606.5L827.33 606.5L823 614ZM822.25 607.25L822.25 534L823.75 534L823.75 607.25L822.25 607.25Z" fill="white"/>
<path d="M949 614L944.67 606.5L953.33 606.5L949 614ZM948.25 607.25L948.25 534L949.75 534L949.75 607.25L948.25 607.25Z" fill="white"/>
<path d="M623 368L615.5 363.67V372.33L623 368ZM616.25 367.25H498V368.75H616.25V367.25Z" fill="white"/>
<path d="M498 481L505.5 476.67L505.5 485.33L498 481ZM504.75 480.25L623 480.25L623 481.75L504.75 481.75L504.75 480.25Z" fill="white"/>
<path d="M1134 368L1126.5 363.67V372.33L1134 368ZM1009 368L1016.5 372.33V363.67L1009 368ZM1127.25 367.25H1015.75V368.75H1127.25V367.25Z" fill="white"/>
<path d="M1009 481L1016.5 476.67L1016.5 485.33L1009 481ZM1134 481L1126.5 485.33L1126.5 476.67L1134 481ZM1015.75 480.25L1127.25 480.25L1127.25 481.75L1015.75 481.75L1015.75 480.25Z" fill="white"/>
<path d="M226.64 432.24C231.29 432.24 235.04 429.39 235.49 425.46H232.85C232.55 428.04 229.91 429.93 226.64 429.93C222.26 429.93 219.17 426.96 219.17 421.5C219.17 416.04 222.26 413.07 226.64 413.07C229.85 413.07 232.46 414.96 232.82 417.54H235.52C234.95 413.61 231.2 410.76 226.64 410.76C221.42 410.76 216.53 414.24 216.53 421.5C216.53 428.73 221.39 432.24 226.64 432.24ZM245.3 432.24C249.8 432.24 253.01 428.97 253.01 424.44C253.01 419.88 249.8 416.64 245.3 416.64C240.83 416.64 237.62 419.88 237.62 424.44C237.62 428.97 240.83 432.24 245.3 432.24ZM240.08 424.44C240.08 421.14 242.21 418.8 245.3 418.8C248.42 418.8 250.55 421.14 250.55 424.44C250.55 427.74 248.42 430.08 245.3 430.08C242.21 430.08 240.08 427.74 240.08 424.44ZM256.097 432H258.497V423.84C258.497 420.9 260.357 418.83 262.937 418.83C265.217 418.83 266.717 420.57 266.717 423.15V432H269.117V422.76C269.117 419.07 266.897 416.64 263.477 416.64C261.167 416.64 259.277 417.69 258.497 419.79V416.88H256.097V432ZM273.089 432H275.489V423.84C275.489 420.9 277.349 418.83 279.929 418.83C282.209 418.83 283.709 420.57 283.709 423.15V432H286.109V422.76C286.109 419.07 283.889 416.64 280.469 416.64C278.159 416.64 276.269 417.69 275.489 419.79V416.88H273.089V432ZM289.212 424.35C289.212 428.67 292.212 432.24 296.682 432.24C300.432 432.24 303.102 430.23 303.612 427.14H301.182C300.702 429.03 299.142 430.11 296.682 430.11C293.832 430.11 291.762 427.89 291.582 424.77H303.402C303.432 424.56 303.462 424.05 303.462 423.72C303.462 419.7 300.822 416.64 296.412 416.64C291.972 416.64 289.212 419.91 289.212 424.35ZM291.702 422.85C292.152 420.18 293.862 418.68 296.412 418.68C299.112 418.68 300.822 420.3 301.002 422.85H291.702ZM313.173 432.24C317.013 432.24 319.503 430.2 320.013 427.11H317.673C317.133 428.94 315.483 430.08 313.203 430.08C309.933 430.08 308.313 427.53 308.313 424.44C308.313 421.35 309.903 418.8 313.203 418.8C315.483 418.8 317.373 420.15 317.673 421.98H320.043C319.593 418.62 316.563 416.64 313.173 416.64C308.403 416.64 305.823 420.39 305.823 424.44C305.823 428.49 308.403 432.24 313.173 432.24ZM324.456 412.05V416.88H321.306V419.01H324.456V427.26C324.456 430.2 326.316 432 329.196 432H331.506V429.87H329.286C327.816 429.87 326.856 428.88 326.856 427.2V419.01H331.506V416.88H326.856V412.05H324.456ZM340.515 432.24C345.015 432.24 348.225 428.97 348.225 424.44C348.225 419.88 345.015 416.64 340.515 416.64C336.045 416.64 332.835 419.88 332.835 424.44C332.835 428.97 336.045 432.24 340.515 432.24ZM335.295 424.44C335.295 421.14 337.425 418.8 340.515 418.8C343.635 418.8 345.765 421.14 345.765 424.44C345.765 427.74 343.635 430.08 340.515 430.08C337.425 430.08 335.295 427.74 335.295 424.44ZM357.642 419.01H359.742V416.88H357.822C355.602 416.88 354.342 417.87 353.712 419.94V416.88H351.312V432H353.712V425.34C353.712 421.77 354.582 419.01 357.642 419.01ZM367.138 432.24C370.468 432.24 372.688 430.5 372.688 427.8C372.688 420.87 363.838 424.92 363.838 420.84C363.838 419.52 365.008 418.68 366.778 418.68C368.158 418.68 370.048 419.34 370.258 421.26H372.598C372.418 418.47 370.168 416.64 366.838 416.64C363.658 416.64 361.498 418.32 361.498 420.87C361.498 427.41 370.288 423.36 370.288 427.86C370.288 429.09 369.028 430.14 367.138 430.14C364.948 430.14 363.628 429.09 363.418 427.14H361.108C361.348 430.29 363.628 432.24 367.138 432.24Z" fill="white"/>
<path d="M494 394.5C494 400.851 475.196 406 452 406C428.804 406 410 400.851 410 394.5C410 388.149 410 336 410 336H494C494 336 494 391.64 494 394.5Z" fill="#2B5C52" stroke="#03CEA4"/>
<ellipse cx="452" cy="336.5" rx="42" ry="11.5" fill="#2B5C52" stroke="#03CEA4"/>
<path d="M444.559 378H440.07V363.455H444.757C446.168 363.455 447.376 363.746 448.38 364.328C449.383 364.906 450.153 365.737 450.688 366.821C451.223 367.901 451.49 369.193 451.49 370.699C451.49 372.214 451.221 373.518 450.681 374.612C450.141 375.701 449.355 376.539 448.323 377.126C447.291 377.709 446.036 378 444.559 378ZM441.831 376.438H444.445C445.648 376.438 446.644 376.205 447.435 375.741C448.226 375.277 448.815 374.617 449.203 373.76C449.592 372.903 449.786 371.883 449.786 370.699C449.786 369.525 449.594 368.514 449.211 367.666C448.827 366.814 448.254 366.161 447.492 365.706C446.73 365.247 445.78 365.017 444.644 365.017H441.831V376.438ZM454.445 378V363.455H459.53C460.543 363.455 461.379 363.63 462.037 363.98C462.695 364.326 463.185 364.792 463.507 365.379C463.829 365.962 463.99 366.608 463.99 367.318C463.99 367.943 463.879 368.459 463.657 368.866C463.439 369.274 463.15 369.596 462.79 369.832C462.435 370.069 462.049 370.244 461.632 370.358V370.5C462.078 370.528 462.525 370.685 462.975 370.969C463.425 371.253 463.801 371.66 464.104 372.19C464.407 372.721 464.559 373.369 464.559 374.136C464.559 374.866 464.393 375.521 464.061 376.104C463.73 376.686 463.207 377.148 462.492 377.489C461.777 377.83 460.846 378 459.701 378H454.445ZM456.206 376.438H459.701C460.851 376.438 461.668 376.215 462.151 375.77C462.639 375.32 462.882 374.776 462.882 374.136C462.882 373.644 462.757 373.189 462.506 372.773C462.255 372.351 461.898 372.015 461.434 371.764C460.97 371.509 460.42 371.381 459.786 371.381H456.206V376.438ZM456.206 369.847H459.473C460.004 369.847 460.482 369.742 460.908 369.534C461.339 369.326 461.68 369.032 461.931 368.653C462.186 368.275 462.314 367.83 462.314 367.318C462.314 366.679 462.092 366.137 461.647 365.692C461.202 365.242 460.496 365.017 459.53 365.017H456.206V369.847Z" fill="white"/>
<path d="M494 507.5C494 513.851 475.196 519 452 519C428.804 519 410 513.851 410 507.5C410 501.149 410 449 410 449H494C494 449 494 504.64 494 507.5Z" fill="#2B5C52" stroke="#03CEA4"/>
<ellipse cx="452" cy="449.5" rx="42" ry="11.5" fill="#2B5C52" stroke="#03CEA4"/>
<path d="M444.559 491H440.07V476.455H444.757C446.168 476.455 447.376 476.746 448.38 477.328C449.383 477.906 450.153 478.737 450.688 479.821C451.223 480.901 451.49 482.193 451.49 483.699C451.49 485.214 451.221 486.518 450.681 487.612C450.141 488.701 449.355 489.539 448.323 490.126C447.291 490.709 446.036 491 444.559 491ZM441.831 489.438H444.445C445.648 489.438 446.644 489.205 447.435 488.741C448.226 488.277 448.815 487.617 449.203 486.76C449.592 485.903 449.786 484.883 449.786 483.699C449.786 482.525 449.594 481.514 449.211 480.666C448.827 479.814 448.254 479.161 447.492 478.706C446.73 478.247 445.78 478.017 444.644 478.017H441.831V489.438ZM454.445 491V476.455H459.53C460.543 476.455 461.379 476.63 462.037 476.98C462.695 477.326 463.185 477.792 463.507 478.379C463.829 478.962 463.99 479.608 463.99 480.318C463.99 480.943 463.879 481.459 463.657 481.866C463.439 482.274 463.15 482.596 462.79 482.832C462.435 483.069 462.049 483.244 461.632 483.358V483.5C462.078 483.528 462.525 483.685 462.975 483.969C463.425 484.253 463.801 484.66 464.104 485.19C464.407 485.721 464.559 486.369 464.559 487.136C464.559 487.866 464.393 488.521 464.061 489.104C463.73 489.686 463.207 490.148 462.492 490.489C461.777 490.83 460.846 491 459.701 491H454.445ZM456.206 489.438H459.701C460.851 489.438 461.668 489.215 462.151 488.77C462.639 488.32 462.882 487.776 462.882 487.136C462.882 486.644 462.757 486.189 462.506 485.773C462.255 485.351 461.898 485.015 461.434 484.764C460.97 484.509 460.42 484.381 459.786 484.381H456.206V489.438ZM456.206 482.847H459.473C460.004 482.847 460.482 482.742 460.908 482.534C461.339 482.326 461.68 482.032 461.931 481.653C462.186 481.275 462.314 480.83 462.314 480.318C462.314 479.679 462.092 479.137 461.647 478.692C461.202 478.242 460.496 478.017 459.53 478.017H456.206V482.847Z" fill="white"/>
</svg>
