<svg width="32" height="32" viewBox="0 0 32 32" fill="none" xmlns="http://www.w3.org/2000/svg">
<path fill-rule="evenodd" clip-rule="evenodd" d="M6.52655 8.98309C6.52655 8.83525 6.59521 8.57105 6.98107 8.20131C7.37024 7.8284 8.00023 7.43436 8.88259 7.07675C10.6408 6.36418 13.1566 5.89471 16.0002 5.89471C18.8438 5.89471 21.3596 6.36418 23.1178 7.07675C24.0001 7.43436 24.6301 7.8284 25.0193 8.20131C25.4052 8.57105 25.4738 8.83525 25.4738 8.98309C25.4738 9.13092 25.4052 9.39512 25.0193 9.76486C24.6301 10.1378 24.0001 10.5318 23.1178 10.8894C21.3596 11.602 18.8438 12.0715 16.0002 12.0715C13.1566 12.0715 10.6408 11.602 8.88259 10.8894C8.00023 10.5318 7.37024 10.1378 6.98107 9.76486C6.59521 9.39512 6.52655 9.13092 6.52655 8.98309ZM16.0002 3.36841C12.914 3.36841 10.0614 3.87307 7.93367 4.73543C6.87305 5.16529 5.93067 5.70893 5.23322 6.37724C4.53246 7.04872 4.00024 7.92928 4.00024 8.98309C4.00024 9.13156 4.01081 9.2766 4.03092 9.4181H4.00024V13.7698V18.5564V22.5815H6.52655V22.1195C6.96051 22.3737 7.43396 22.6015 7.93367 22.804C10.0614 23.6664 12.914 24.171 16.0002 24.171C19.0864 24.171 21.9389 23.6664 24.0667 22.804C24.5664 22.6015 25.0399 22.3737 25.4738 22.1195V22.5815H28.0001V18.5564V13.7698V9.4181H27.9694C27.9896 9.2766 28.0001 9.13156 28.0001 8.98309C28.0001 7.92928 27.4679 7.04872 26.7671 6.37724C26.0697 5.70893 25.1273 5.16529 24.0667 4.73543C21.9389 3.87307 19.0864 3.36841 16.0002 3.36841ZM25.4738 12.5463C25.0399 12.8004 24.5664 13.0282 24.0667 13.2307C21.9389 14.0931 19.0864 14.5978 16.0002 14.5978C12.914 14.5978 10.0614 14.0931 7.93367 13.2307C7.43396 13.0282 6.96051 12.8004 6.52655 12.5463V13.7698C6.52655 13.9177 6.5952 14.1819 6.98107 14.5516C7.37024 14.9245 8.00023 15.3186 8.88258 15.6762C10.6408 16.3887 13.1566 16.8582 16.0002 16.8582C18.8438 16.8582 21.3596 16.3887 23.1178 15.6762C24.0001 15.3186 24.6301 14.9245 25.0193 14.5516C25.4052 14.1819 25.4738 13.9177 25.4738 13.7698V12.5463ZM6.52655 18.5564V17.333C6.96051 17.5872 7.43396 17.815 7.93367 18.0175C10.0614 18.8799 12.914 19.3845 16.0002 19.3845C19.0864 19.3845 21.9389 18.8799 24.0667 18.0175C24.5664 17.815 25.0399 17.5872 25.4738 17.333V18.5564C25.4738 18.7042 25.4052 18.9684 25.0193 19.3381C24.6301 19.7111 24.0001 20.1051 23.1178 20.4627C21.3596 21.1753 18.8438 21.6447 16.0002 21.6447C13.1566 21.6447 10.6408 21.1753 8.88258 20.4627C8.00023 20.1051 7.37024 19.7111 6.98107 19.3381C6.5952 18.9684 6.52655 18.7042 6.52655 18.5564ZM6.52655 22.5816V23.0168C6.52655 23.1646 6.59521 23.4288 6.98107 23.7986C7.37024 24.1715 8.00023 24.5655 8.88258 24.9231C10.6408 25.6357 13.1566 26.1052 16.0002 26.1052C18.8438 26.1052 21.3596 25.6357 23.1178 24.9231C24.0001 24.5655 24.6301 24.1715 25.0193 23.7986C25.4052 23.4288 25.4738 23.1646 25.4738 23.0168V22.5816H28.0001V23.0168C28.0001 24.0706 27.4679 24.9512 26.7671 25.6226C26.0697 26.2909 25.1273 26.8346 24.0667 27.2644C21.9389 28.1268 19.0864 28.6315 16.0002 28.6315C12.914 28.6315 10.0614 28.1268 7.93367 27.2644C6.87305 26.8346 5.93067 26.2909 5.23322 25.6226C4.53246 24.9512 4.00024 24.0706 4.00024 23.0168V22.5816H6.52655Z" fill="#03CEA4"/>
</svg>
