<svg width="32" height="32" viewBox="0 0 32 32" fill="none" xmlns="http://www.w3.org/2000/svg">
<path fill-rule="evenodd" clip-rule="evenodd" d="M15.9996 7.99996C13.7904 7.99996 11.9996 9.79082 11.9996 12C11.9996 14.2091 13.7904 16 15.9996 16C18.2087 16 19.9996 14.2091 19.9996 12C19.9996 9.79082 18.2087 7.99996 15.9996 7.99996ZM14.6662 12C14.6662 11.2636 15.2632 10.6666 15.9996 10.6666C16.7359 10.6666 17.3329 11.2636 17.3329 12C17.3329 12.7363 16.7359 13.3333 15.9996 13.3333C15.2632 13.3333 14.6662 12.7363 14.6662 12Z" fill="#03CEA4"/>
<path fill-rule="evenodd" clip-rule="evenodd" d="M15.9996 2.66663C10.8449 2.66663 6.66624 6.8453 6.66624 12C6.66624 13.4173 6.98215 14.7608 7.54741 15.964L2.877 24.0534L8.70568 24.6245L12.1146 29.3867L15.997 22.6622L19.8794 29.3867L23.2883 24.6245L29.117 24.0534L24.4494 15.9689C25.0161 14.7645 25.3329 13.4192 25.3329 12C25.3329 6.8453 21.1542 2.66663 15.9996 2.66663ZM7.25549 21.8029L9.21484 18.4093C10.4411 19.7069 12.0356 20.6529 13.8312 21.0801L11.8743 24.4696L10.1698 22.0885L7.25549 21.8029ZM22.7811 18.4126C21.5542 19.7096 19.9593 20.6549 18.1634 21.0812L20.1197 24.4696L21.8242 22.0885L24.7385 21.8029L22.7811 18.4126ZM9.3329 12C9.3329 8.31806 12.3177 5.33329 15.9996 5.33329C19.6815 5.33329 22.6662 8.31806 22.6662 12C22.6662 15.6819 19.6815 18.6666 15.9996 18.6666C12.3177 18.6666 9.3329 15.6819 9.3329 12Z" fill="#03CEA4"/>
</svg>
