<svg width="1080" height="144" viewBox="0 0 1080 144" fill="none" xmlns="http://www.w3.org/2000/svg">
<rect x="32" width="80" height="80" rx="40" fill="#FFE435"/>
<g clip-path="url(#clip0_507_17829)">
<path d="M53.002 53.3315H57.446V57.7755H53.002V53.3315Z" fill="#222222"/>
<path d="M53.002 22.2241H57.446V53.3321H53.002V22.2241ZM61.89 22.2241H66.334V57.7761H61.89V22.2241ZM70.778 22.2241H75.222V57.7761H70.778V22.2241ZM79.666 22.2241H84.11V57.7761H79.666V22.2241ZM88.554 36.6671H92.998V43.3331H88.554V36.6671Z" fill="#222222"/>
</g>
<path d="M12.2834 105.5H10.7863C10.6977 105.069 10.5428 104.691 10.3214 104.365C10.1041 104.039 9.83847 103.765 9.52455 103.544C9.21465 103.319 8.87055 103.15 8.49223 103.037C8.11392 102.924 7.71951 102.868 7.30899 102.868C6.56041 102.868 5.88227 103.057 5.27455 103.435C4.67085 103.814 4.18991 104.371 3.83172 105.108C3.47755 105.844 3.30047 106.748 3.30047 107.818C3.30047 108.889 3.47755 109.792 3.83172 110.529C4.18991 111.265 4.67085 111.823 5.27455 112.201C5.88227 112.579 6.56041 112.768 7.30899 112.768C7.71951 112.768 8.11392 112.712 8.49223 112.599C8.87055 112.487 9.21465 112.32 9.52455 112.098C9.83847 111.873 10.1041 111.597 10.3214 111.271C10.5428 110.941 10.6977 110.563 10.7863 110.136H12.2834C12.1707 110.768 11.9655 111.334 11.6677 111.833C11.3698 112.332 10.9996 112.756 10.5569 113.107C10.1142 113.453 9.61711 113.716 9.06574 113.897C8.51839 114.078 7.93281 114.169 7.30899 114.169C6.25454 114.169 5.31681 113.911 4.49578 113.396C3.67476 112.881 3.02881 112.149 2.55793 111.199C2.08705 110.249 1.85161 109.122 1.85161 107.818C1.85161 106.514 2.08705 105.387 2.55793 104.438C3.02881 103.488 3.67476 102.755 4.49578 102.24C5.31681 101.725 6.25454 101.467 7.30899 101.467C7.93281 101.467 8.51839 101.558 9.06574 101.739C9.61711 101.92 10.1142 102.186 10.5569 102.536C10.9996 102.882 11.3698 103.305 11.6677 103.804C11.9655 104.299 12.1707 104.864 12.2834 105.5ZM15.9343 101.636V114H14.5095V101.636H15.9343ZM18.5437 114V104.727H19.9684V114H18.5437ZM19.2682 103.182C18.9905 103.182 18.751 103.087 18.5498 102.898C18.3526 102.709 18.254 102.482 18.254 102.216C18.254 101.95 18.3526 101.723 18.5498 101.534C18.751 101.345 18.9905 101.25 19.2682 101.25C19.5459 101.25 19.7833 101.345 19.9805 101.534C20.1817 101.723 20.2824 101.95 20.2824 102.216C20.2824 102.482 20.1817 102.709 19.9805 102.898C19.7833 103.087 19.5459 103.182 19.2682 103.182ZM26.3449 114.193C25.4756 114.193 24.7271 113.988 24.0992 113.577C23.4714 113.167 22.9884 112.601 22.6503 111.881C22.3123 111.161 22.1432 110.338 22.1432 109.412C22.1432 108.47 22.3163 107.639 22.6624 106.919C23.0126 106.194 23.4995 105.629 24.1234 105.222C24.7512 104.812 25.4837 104.607 26.3208 104.607C26.9728 104.607 27.5604 104.727 28.0836 104.969C28.6068 105.21 29.0354 105.548 29.3695 105.983C29.7035 106.418 29.9108 106.925 29.9913 107.504H28.5665C28.4579 107.082 28.2164 106.707 27.8421 106.381C27.4718 106.051 26.9728 105.886 26.3449 105.886C25.7896 105.886 25.3026 106.031 24.884 106.321C24.4695 106.607 24.1455 107.011 23.9121 107.534C23.6827 108.054 23.568 108.663 23.568 109.364C23.568 110.08 23.6806 110.704 23.906 111.235C24.1354 111.766 24.4574 112.179 24.8719 112.473C25.2905 112.766 25.7815 112.913 26.3449 112.913C26.7152 112.913 27.0513 112.849 27.3531 112.72C27.655 112.591 27.9105 112.406 28.1198 112.165C28.3291 111.923 28.478 111.634 28.5665 111.295H29.9913C29.9108 111.843 29.7115 112.336 29.3936 112.775C29.0797 113.209 28.6631 113.555 28.144 113.813C27.6288 114.066 27.0291 114.193 26.3449 114.193ZM33.4021 110.619L33.378 108.857H33.6677L37.7246 104.727H39.4873L35.1649 109.098H35.0442L33.4021 110.619ZM32.074 114V101.636H33.4987V114H32.074ZM37.966 114L34.3439 109.412L35.3581 108.422L39.7771 114H37.966ZM41.5142 114V101.636H43.0114V107.142H49.6037V101.636H51.1009V114H49.6037V108.47H43.0114V114H41.5142ZM57.6721 114.193C56.835 114.193 56.1005 113.994 55.4686 113.596C54.8408 113.197 54.3498 112.64 53.9956 111.923C53.6455 111.207 53.4704 110.37 53.4704 109.412C53.4704 108.446 53.6455 107.603 53.9956 106.882C54.3498 106.162 54.8408 105.603 55.4686 105.204C56.1005 104.806 56.835 104.607 57.6721 104.607C58.5092 104.607 59.2417 104.806 59.8695 105.204C60.5014 105.603 60.9924 106.162 61.3426 106.882C61.6967 107.603 61.8738 108.446 61.8738 109.412C61.8738 110.37 61.6967 111.207 61.3426 111.923C60.9924 112.64 60.5014 113.197 59.8695 113.596C59.2417 113.994 58.5092 114.193 57.6721 114.193ZM57.6721 112.913C58.308 112.913 58.8312 112.75 59.2417 112.424C59.6522 112.098 59.9561 111.67 60.1533 111.138C60.3505 110.607 60.4491 110.032 60.4491 109.412C60.4491 108.792 60.3505 108.215 60.1533 107.679C59.9561 107.144 59.6522 106.711 59.2417 106.381C58.8312 106.051 58.308 105.886 57.6721 105.886C57.0362 105.886 56.513 106.051 56.1025 106.381C55.692 106.711 55.3881 107.144 55.1909 107.679C54.9937 108.215 54.8951 108.792 54.8951 109.412C54.8951 110.032 54.9937 110.607 55.1909 111.138C55.3881 111.67 55.692 112.098 56.1025 112.424C56.513 112.75 57.0362 112.913 57.6721 112.913ZM69.8924 110.209V104.727H71.3171V114H69.8924V112.43H69.7958C69.5784 112.901 69.2404 113.302 68.7816 113.632C68.3228 113.958 67.7432 114.121 67.0429 114.121C66.4634 114.121 65.9482 113.994 65.4975 113.74C65.0467 113.483 64.6925 113.096 64.435 112.581C64.1774 112.062 64.0486 111.408 64.0486 110.619V104.727H65.4733V110.523C65.4733 111.199 65.6625 111.738 66.0408 112.141C66.4231 112.543 66.9101 112.744 67.5017 112.744C67.8559 112.744 68.2161 112.654 68.5823 112.473C68.9526 112.292 69.2625 112.014 69.512 111.64C69.7656 111.265 69.8924 110.788 69.8924 110.209ZM80.4947 106.804L79.2149 107.166C79.1344 106.953 79.0157 106.746 78.8587 106.544C78.7058 106.339 78.4965 106.17 78.2309 106.037C77.9652 105.904 77.6252 105.838 77.2106 105.838C76.6432 105.838 76.1703 105.969 75.7919 106.23C75.4177 106.488 75.2305 106.816 75.2305 107.214C75.2305 107.569 75.3593 107.848 75.6169 108.054C75.8745 108.259 76.2769 108.43 76.8243 108.567L78.2007 108.905C79.0298 109.106 79.6475 109.414 80.054 109.828C80.4605 110.239 80.6638 110.768 80.6638 111.416C80.6638 111.947 80.5108 112.422 80.2049 112.841C79.9031 113.259 79.4805 113.589 78.9372 113.831C78.3939 114.072 77.762 114.193 77.0416 114.193C76.0958 114.193 75.313 113.988 74.6932 113.577C74.0734 113.167 73.681 112.567 73.516 111.778L74.8683 111.44C74.9971 111.939 75.2406 112.314 75.5988 112.563C75.961 112.813 76.4339 112.938 77.0174 112.938C77.6815 112.938 78.2087 112.797 78.5991 112.515C78.9935 112.229 79.1907 111.887 79.1907 111.489C79.1907 111.167 79.0781 110.897 78.8527 110.68C78.6273 110.458 78.2812 110.293 77.8143 110.185L76.2689 109.822C75.4197 109.621 74.7959 109.309 74.3974 108.887C74.003 108.46 73.8058 107.927 73.8058 107.287C73.8058 106.764 73.9527 106.301 74.2465 105.898C74.5443 105.496 74.9488 105.18 75.4599 104.951C75.9751 104.721 76.5586 104.607 77.2106 104.607C78.1282 104.607 78.8486 104.808 79.3718 105.21C79.8991 105.613 80.2734 106.144 80.4947 106.804ZM86.6962 114.193C85.8027 114.193 85.032 113.996 84.384 113.602C83.7401 113.203 83.243 112.648 82.8929 111.935C82.5468 111.219 82.3737 110.386 82.3737 109.436C82.3737 108.486 82.5468 107.649 82.8929 106.925C83.243 106.196 83.73 105.629 84.3538 105.222C84.9817 104.812 85.7141 104.607 86.5513 104.607C87.0342 104.607 87.5111 104.687 87.982 104.848C88.4529 105.009 88.8815 105.271 89.2679 105.633C89.6543 105.991 89.9621 106.466 90.1915 107.058C90.4209 107.649 90.5356 108.378 90.5356 109.243V109.847H83.3879V108.615H89.0868C89.0868 108.092 88.9821 107.625 88.7729 107.214C88.5676 106.804 88.2738 106.48 87.8915 106.243C87.5132 106.005 87.0664 105.886 86.5513 105.886C85.9838 105.886 85.4928 106.027 85.0783 106.309C84.6677 106.587 84.3518 106.949 84.1305 107.396C83.9091 107.842 83.7984 108.321 83.7984 108.832V109.653C83.7984 110.354 83.9192 110.947 84.1606 111.434C84.4061 111.917 84.7462 112.286 85.1809 112.539C85.6155 112.789 86.1206 112.913 86.6962 112.913C87.0704 112.913 87.4085 112.861 87.7104 112.756C88.0162 112.648 88.2798 112.487 88.5012 112.273C88.7226 112.056 88.8936 111.786 89.0143 111.464L90.3908 111.851C90.2459 112.318 90.0024 112.728 89.6603 113.082C89.3182 113.433 88.8956 113.706 88.3925 113.903C87.8895 114.097 87.324 114.193 86.6962 114.193ZM107.626 105.5H106.129C106.04 105.069 105.886 104.691 105.664 104.365C105.447 104.039 105.181 103.765 104.867 103.544C104.557 103.319 104.213 103.15 103.835 103.037C103.457 102.924 103.062 102.868 102.652 102.868C101.903 102.868 101.225 103.057 100.617 103.435C100.014 103.814 99.5327 104.371 99.1745 105.108C98.8203 105.844 98.6432 106.748 98.6432 107.818C98.6432 108.889 98.8203 109.792 99.1745 110.529C99.5327 111.265 100.014 111.823 100.617 112.201C101.225 112.579 101.903 112.768 102.652 112.768C103.062 112.768 103.457 112.712 103.835 112.599C104.213 112.487 104.557 112.32 104.867 112.098C105.181 111.873 105.447 111.597 105.664 111.271C105.886 110.941 106.04 110.563 106.129 110.136H107.626C107.514 110.768 107.308 111.334 107.01 111.833C106.713 112.332 106.342 112.756 105.9 113.107C105.457 113.453 104.96 113.716 104.409 113.897C103.861 114.078 103.276 114.169 102.652 114.169C101.597 114.169 100.66 113.911 99.8386 113.396C99.0175 112.881 98.3716 112.149 97.9007 111.199C97.4298 110.249 97.1944 109.122 97.1944 107.818C97.1944 106.514 97.4298 105.387 97.9007 104.438C98.3716 103.488 99.0175 102.755 99.8386 102.24C100.66 101.725 101.597 101.467 102.652 101.467C103.276 101.467 103.861 101.558 104.409 101.739C104.96 101.92 105.457 102.186 105.9 102.536C106.342 102.882 106.713 103.305 107.01 103.804C107.308 104.299 107.514 104.864 107.626 105.5ZM111.277 101.636V114H109.852V101.636H111.277ZM117.654 114.193C116.816 114.193 116.082 113.994 115.45 113.596C114.822 113.197 114.331 112.64 113.977 111.923C113.627 111.207 113.452 110.37 113.452 109.412C113.452 108.446 113.627 107.603 113.977 106.882C114.331 106.162 114.822 105.603 115.45 105.204C116.082 104.806 116.816 104.607 117.654 104.607C118.491 104.607 119.223 104.806 119.851 105.204C120.483 105.603 120.974 106.162 121.324 106.882C121.678 107.603 121.855 108.446 121.855 109.412C121.855 110.37 121.678 111.207 121.324 111.923C120.974 112.64 120.483 113.197 119.851 113.596C119.223 113.994 118.491 114.193 117.654 114.193ZM117.654 112.913C118.289 112.913 118.813 112.75 119.223 112.424C119.634 112.098 119.938 111.67 120.135 111.138C120.332 110.607 120.431 110.032 120.431 109.412C120.431 108.792 120.332 108.215 120.135 107.679C119.938 107.144 119.634 106.711 119.223 106.381C118.813 106.051 118.289 105.886 117.654 105.886C117.018 105.886 116.494 106.051 116.084 106.381C115.673 106.711 115.37 107.144 115.172 107.679C114.975 108.215 114.877 108.792 114.877 109.412C114.877 110.032 114.975 110.607 115.172 111.138C115.37 111.67 115.673 112.098 116.084 112.424C116.494 112.75 117.018 112.913 117.654 112.913ZM129.874 110.209V104.727H131.299V114H129.874V112.43H129.777C129.56 112.901 129.222 113.302 128.763 113.632C128.304 113.958 127.725 114.121 127.024 114.121C126.445 114.121 125.93 113.994 125.479 113.74C125.028 113.483 124.674 113.096 124.416 112.581C124.159 112.062 124.03 111.408 124.03 110.619V104.727H125.455V110.523C125.455 111.199 125.644 111.738 126.022 112.141C126.405 112.543 126.892 112.744 127.483 112.744C127.837 112.744 128.198 112.654 128.564 112.473C128.934 112.292 129.244 112.014 129.493 111.64C129.747 111.265 129.874 110.788 129.874 110.209ZM137.409 114.193C136.637 114.193 135.955 113.998 135.363 113.608C134.771 113.213 134.308 112.658 133.974 111.941C133.64 111.221 133.473 110.37 133.473 109.388C133.473 108.414 133.64 107.569 133.974 106.852C134.308 106.136 134.773 105.583 135.369 105.192C135.965 104.802 136.653 104.607 137.434 104.607C138.037 104.607 138.514 104.707 138.864 104.908C139.218 105.106 139.488 105.331 139.673 105.585C139.862 105.834 140.009 106.039 140.114 106.2H140.235V101.636H141.659V114H140.283V112.575H140.114C140.009 112.744 139.86 112.958 139.667 113.215C139.474 113.469 139.198 113.696 138.84 113.897C138.482 114.095 138.005 114.193 137.409 114.193ZM137.603 112.913C138.174 112.913 138.657 112.764 139.051 112.467C139.446 112.165 139.746 111.748 139.951 111.217C140.156 110.682 140.259 110.064 140.259 109.364C140.259 108.671 140.158 108.066 139.957 107.547C139.756 107.023 139.458 106.617 139.064 106.327C138.669 106.033 138.182 105.886 137.603 105.886C136.999 105.886 136.496 106.041 136.093 106.351C135.695 106.657 135.395 107.074 135.194 107.601C134.997 108.124 134.898 108.712 134.898 109.364C134.898 110.024 134.999 110.623 135.2 111.163C135.405 111.698 135.707 112.125 136.105 112.442C136.508 112.756 137.007 112.913 137.603 112.913Z" fill="white"/>
<circle cx="228" cy="40" r="40" fill="#336791"/>
<path d="M226.953 50.4661C226.79 56.271 226.993 62.1163 227.561 63.5369C228.13 64.9576 229.346 67.7207 233.528 66.8247C237.023 66.0756 238.294 64.6259 238.846 61.426C239.252 59.0718 240.035 52.5335 240.136 51.1938" stroke="white" stroke-width="1.4" stroke-linecap="round" stroke-linejoin="round"/>
<path d="M221.94 21.3658C221.94 21.3658 203.004 13.6265 203.884 31.2261C204.071 34.9703 209.251 59.5571 215.429 52.1306C217.686 49.4148 219.728 47.2848 219.728 47.2848" stroke="white" stroke-width="1.4" stroke-linecap="round" stroke-linejoin="round"/>
<path d="M232.167 19.9532C231.512 20.1587 242.7 15.863 249.059 23.988C251.305 26.8583 248.702 38.5857 242.476 47.8248" stroke="white" stroke-width="1.4" stroke-linecap="round" stroke-linejoin="round"/>
<path d="M242.476 47.8247C242.476 47.8247 242.882 49.8219 248.779 48.6046C251.363 48.071 249.808 50.1022 247.187 51.3192C245.037 52.3173 240.215 52.5731 240.136 51.1938C239.933 47.6352 242.674 48.7164 242.476 47.8247ZM242.476 47.8247C242.297 47.0216 241.072 46.2335 240.261 44.2681C239.553 42.5526 230.555 29.3972 242.757 31.351C243.204 31.2585 239.574 19.7447 228.155 19.5575C216.738 19.3703 217.113 33.5975 217.113 33.5975" stroke="white" stroke-width="1.4" stroke-linecap="round" stroke-linejoin="bevel"/>
<path d="M223.757 49.0417C222.165 50.8197 222.633 51.1319 219.452 51.787C216.233 52.4505 218.124 53.6314 219.358 53.9399C220.855 54.3145 224.318 54.8448 226.658 51.5684C227.37 50.5709 226.654 48.9792 225.675 48.5735C225.202 48.3776 224.57 48.1321 223.757 49.0417Z" stroke="white" stroke-width="1.4" stroke-linecap="round" stroke-linejoin="round"/>
<path d="M223.653 49.0107C223.492 47.9653 223.996 46.7213 224.536 45.266C225.348 43.0824 227.22 40.8985 225.722 33.9719C224.606 28.8103 217.118 32.8977 217.113 33.5976C217.108 34.2972 217.452 37.1451 216.988 40.4613C216.383 44.7888 219.741 48.4486 223.609 48.0742" stroke="white" stroke-width="1.4" stroke-linecap="round" stroke-linejoin="round"/>
<path d="M221.602 33.7169C221.569 33.9559 222.04 34.5938 222.655 34.679C223.268 34.7646 223.793 34.2661 223.827 34.0273C223.86 33.7883 223.389 33.525 222.774 33.4394C222.16 33.3537 221.635 33.4784 221.602 33.7169Z" stroke="white" stroke-width="1.3"/>
<path d="M240.796 33.3763C240.829 33.6153 240.359 34.2532 239.744 34.3384C239.13 34.424 238.605 33.9255 238.571 33.6867C238.538 33.4477 239.009 33.1844 239.624 33.0988C240.238 33.0132 240.763 33.1377 240.796 33.3763Z" stroke="white" stroke-width="1.3"/>
<path d="M242.757 31.3511C242.858 33.2261 242.353 34.5032 242.289 36.4992C242.195 39.4005 243.673 42.7213 241.446 46.0461" stroke="white" stroke-width="1.4" stroke-linecap="round" stroke-linejoin="round"/>
<path d="M181.676 114V101.636H185.854C186.824 101.636 187.617 101.811 188.232 102.162C188.852 102.508 189.311 102.977 189.609 103.568C189.907 104.16 190.056 104.82 190.056 105.548C190.056 106.277 189.907 106.939 189.609 107.534C189.315 108.13 188.86 108.605 188.245 108.959C187.629 109.309 186.84 109.484 185.878 109.484H182.884V108.156H185.83C186.494 108.156 187.027 108.042 187.43 107.812C187.832 107.583 188.124 107.273 188.305 106.882C188.49 106.488 188.583 106.043 188.583 105.548C188.583 105.053 188.49 104.611 188.305 104.22C188.124 103.83 187.83 103.524 187.424 103.303C187.017 103.077 186.478 102.964 185.806 102.964H183.174V114H181.676ZM195.942 114.193C195.105 114.193 194.37 113.994 193.738 113.596C193.11 113.197 192.619 112.64 192.265 111.923C191.915 111.207 191.74 110.37 191.74 109.412C191.74 108.446 191.915 107.603 192.265 106.882C192.619 106.162 193.11 105.603 193.738 105.204C194.37 104.806 195.105 104.607 195.942 104.607C196.779 104.607 197.511 104.806 198.139 105.204C198.771 105.603 199.262 106.162 199.612 106.882C199.966 107.603 200.143 108.446 200.143 109.412C200.143 110.37 199.966 111.207 199.612 111.923C199.262 112.64 198.771 113.197 198.139 113.596C197.511 113.994 196.779 114.193 195.942 114.193ZM195.942 112.913C196.578 112.913 197.101 112.75 197.511 112.424C197.922 112.098 198.226 111.67 198.423 111.138C198.62 110.607 198.719 110.032 198.719 109.412C198.719 108.792 198.62 108.215 198.423 107.679C198.226 107.144 197.922 106.711 197.511 106.381C197.101 106.051 196.578 105.886 195.942 105.886C195.306 105.886 194.783 106.051 194.372 106.381C193.962 106.711 193.658 107.144 193.46 107.679C193.263 108.215 193.165 108.792 193.165 109.412C193.165 110.032 193.263 110.607 193.46 111.138C193.658 111.67 193.962 112.098 194.372 112.424C194.783 112.75 195.306 112.913 195.942 112.913ZM208.886 106.804L207.606 107.166C207.526 106.953 207.407 106.746 207.25 106.544C207.097 106.339 206.888 106.17 206.622 106.037C206.357 105.904 206.017 105.838 205.602 105.838C205.035 105.838 204.562 105.969 204.184 106.23C203.809 106.488 203.622 106.816 203.622 107.214C203.622 107.569 203.751 107.848 204.008 108.054C204.266 108.259 204.669 108.43 205.216 108.567L206.592 108.905C207.421 109.106 208.039 109.414 208.446 109.828C208.852 110.239 209.055 110.768 209.055 111.416C209.055 111.947 208.902 112.422 208.597 112.841C208.295 113.259 207.872 113.589 207.329 113.831C206.785 114.072 206.154 114.193 205.433 114.193C204.487 114.193 203.705 113.988 203.085 113.577C202.465 113.167 202.073 112.567 201.908 111.778L203.26 111.44C203.389 111.939 203.632 112.314 203.99 112.563C204.353 112.813 204.825 112.938 205.409 112.938C206.073 112.938 206.6 112.797 206.991 112.515C207.385 112.229 207.582 111.887 207.582 111.489C207.582 111.167 207.47 110.897 207.244 110.68C207.019 110.458 206.673 110.293 206.206 110.185L204.66 109.822C203.811 109.621 203.187 109.309 202.789 108.887C202.395 108.46 202.197 107.927 202.197 107.287C202.197 106.764 202.344 106.301 202.638 105.898C202.936 105.496 203.34 105.18 203.852 104.951C204.367 104.721 204.95 104.607 205.602 104.607C206.52 104.607 207.24 104.808 207.763 105.21C208.291 105.613 208.665 106.144 208.886 106.804ZM215.233 104.727V105.935H210.427V104.727H215.233ZM211.828 102.506H213.253V111.344C213.253 111.746 213.311 112.048 213.428 112.249C213.548 112.446 213.701 112.579 213.886 112.648C214.076 112.712 214.275 112.744 214.484 112.744C214.641 112.744 214.77 112.736 214.87 112.72C214.971 112.7 215.052 112.684 215.112 112.672L215.402 113.952C215.305 113.988 215.17 114.024 214.997 114.06C214.824 114.101 214.605 114.121 214.339 114.121C213.937 114.121 213.542 114.034 213.156 113.861C212.774 113.688 212.456 113.424 212.202 113.07C211.953 112.716 211.828 112.269 211.828 111.73V102.506ZM221.019 117.67C220.331 117.67 219.739 117.582 219.244 117.405C218.749 117.232 218.337 117.002 218.007 116.717C217.681 116.435 217.421 116.133 217.228 115.811L218.363 115.014C218.492 115.183 218.655 115.376 218.852 115.594C219.049 115.815 219.319 116.006 219.661 116.167C220.007 116.332 220.46 116.415 221.019 116.415C221.768 116.415 222.385 116.234 222.872 115.871C223.359 115.509 223.603 114.942 223.603 114.169V112.286H223.482C223.377 112.455 223.229 112.664 223.035 112.913C222.846 113.159 222.573 113.378 222.214 113.571C221.86 113.761 221.381 113.855 220.778 113.855C220.029 113.855 219.357 113.678 218.761 113.324C218.17 112.97 217.701 112.455 217.355 111.778C217.013 111.102 216.841 110.281 216.841 109.315C216.841 108.366 217.009 107.538 217.343 106.834C217.677 106.126 218.141 105.578 218.737 105.192C219.333 104.802 220.021 104.607 220.802 104.607C221.405 104.607 221.884 104.707 222.239 104.908C222.597 105.106 222.87 105.331 223.06 105.585C223.253 105.834 223.402 106.039 223.506 106.2H223.651V104.727H225.028V114.266C225.028 115.062 224.846 115.71 224.484 116.21C224.126 116.713 223.643 117.081 223.035 117.314C222.432 117.552 221.76 117.67 221.019 117.67ZM220.971 112.575C221.542 112.575 222.025 112.444 222.42 112.183C222.814 111.921 223.114 111.545 223.319 111.054C223.524 110.563 223.627 109.975 223.627 109.291C223.627 108.623 223.526 108.033 223.325 107.522C223.124 107.011 222.826 106.611 222.432 106.321C222.037 106.031 221.55 105.886 220.971 105.886C220.367 105.886 219.864 106.039 219.462 106.345C219.063 106.651 218.763 107.062 218.562 107.577C218.365 108.092 218.266 108.663 218.266 109.291C218.266 109.935 218.367 110.505 218.568 111C218.773 111.491 219.075 111.877 219.474 112.159C219.876 112.436 220.375 112.575 220.971 112.575ZM227.636 114V104.727H229.012V106.128H229.109C229.274 105.669 229.577 105.297 230.02 105.011C230.463 104.725 230.964 104.582 231.523 104.582C231.781 104.582 232.006 104.613 232.199 104.673C232.393 104.733 232.562 104.816 232.707 104.92L232.224 106.128C232.123 106.076 232.004 106.035 231.867 106.007C231.735 105.975 231.58 105.959 231.403 105.959C230.952 105.959 230.549 106.053 230.195 106.243C229.845 106.432 229.567 106.689 229.362 107.015C229.161 107.341 229.06 107.714 229.06 108.132V114H227.636ZM237.765 114.193C236.872 114.193 236.101 113.996 235.453 113.602C234.809 113.203 234.312 112.648 233.962 111.935C233.616 111.219 233.443 110.386 233.443 109.436C233.443 108.486 233.616 107.649 233.962 106.925C234.312 106.196 234.799 105.629 235.423 105.222C236.051 104.812 236.783 104.607 237.621 104.607C238.104 104.607 238.58 104.687 239.051 104.848C239.522 105.009 239.951 105.271 240.337 105.633C240.724 105.991 241.031 106.466 241.261 107.058C241.49 107.649 241.605 108.378 241.605 109.243V109.847H234.457V108.615H240.156C240.156 108.092 240.051 107.625 239.842 107.214C239.637 106.804 239.343 106.48 238.961 106.243C238.582 106.005 238.136 105.886 237.621 105.886C237.053 105.886 236.562 106.027 236.148 106.309C235.737 106.587 235.421 106.949 235.2 107.396C234.978 107.842 234.868 108.321 234.868 108.832V109.653C234.868 110.354 234.989 110.947 235.23 111.434C235.475 111.917 235.816 112.286 236.25 112.539C236.685 112.789 237.19 112.913 237.765 112.913C238.14 112.913 238.478 112.861 238.78 112.756C239.086 112.648 239.349 112.487 239.571 112.273C239.792 112.056 239.963 111.786 240.084 111.464L241.46 111.851C241.315 112.318 241.072 112.728 240.73 113.082C240.388 113.433 239.965 113.706 239.462 113.903C238.959 114.097 238.393 114.193 237.765 114.193ZM250.727 104.727C250.654 104.116 250.361 103.641 249.845 103.303C249.33 102.964 248.698 102.795 247.95 102.795C247.402 102.795 246.924 102.884 246.513 103.061C246.107 103.238 245.789 103.482 245.559 103.792C245.334 104.101 245.221 104.454 245.221 104.848C245.221 105.178 245.3 105.462 245.457 105.699C245.618 105.933 245.823 106.128 246.072 106.285C246.322 106.438 246.583 106.565 246.857 106.665C247.131 106.762 247.382 106.84 247.612 106.901L248.867 107.239C249.189 107.323 249.548 107.44 249.942 107.589C250.34 107.738 250.721 107.941 251.083 108.199C251.449 108.452 251.751 108.778 251.989 109.176C252.226 109.575 252.345 110.064 252.345 110.643C252.345 111.312 252.17 111.915 251.819 112.455C251.473 112.994 250.966 113.422 250.298 113.74C249.634 114.058 248.827 114.217 247.877 114.217C246.992 114.217 246.225 114.074 245.577 113.789C244.933 113.503 244.426 113.105 244.056 112.593C243.69 112.082 243.482 111.489 243.434 110.812H244.98C245.02 111.279 245.177 111.666 245.451 111.972C245.728 112.273 246.078 112.499 246.501 112.648C246.928 112.793 247.386 112.865 247.877 112.865C248.449 112.865 248.962 112.772 249.417 112.587C249.872 112.398 250.232 112.137 250.497 111.803C250.763 111.464 250.896 111.07 250.896 110.619C250.896 110.209 250.781 109.875 250.552 109.617C250.322 109.36 250.02 109.15 249.646 108.989C249.272 108.828 248.867 108.687 248.433 108.567L246.911 108.132C245.946 107.854 245.181 107.458 244.617 106.943C244.054 106.428 243.772 105.754 243.772 104.92C243.772 104.228 243.959 103.625 244.334 103.109C244.712 102.59 245.219 102.188 245.855 101.902C246.495 101.612 247.209 101.467 247.998 101.467C248.795 101.467 249.503 101.61 250.123 101.896C250.743 102.178 251.234 102.564 251.596 103.055C251.962 103.546 252.156 104.103 252.176 104.727H250.727ZM259.298 110.136H260.94L262.316 111.947L262.678 112.43L264.731 115.159H263.089L261.737 113.348L261.399 112.889L259.298 110.136ZM265.238 107.818C265.238 109.122 265.003 110.249 264.532 111.199C264.061 112.149 263.415 112.881 262.594 113.396C261.773 113.911 260.835 114.169 259.781 114.169C258.726 114.169 257.788 113.911 256.967 113.396C256.146 112.881 255.5 112.149 255.03 111.199C254.559 110.249 254.323 109.122 254.323 107.818C254.323 106.514 254.559 105.387 255.03 104.438C255.5 103.488 256.146 102.755 256.967 102.24C257.788 101.725 258.726 101.467 259.781 101.467C260.835 101.467 261.773 101.725 262.594 102.24C263.415 102.755 264.061 103.488 264.532 104.438C265.003 105.387 265.238 106.514 265.238 107.818ZM263.789 107.818C263.789 106.748 263.61 105.844 263.252 105.108C262.898 104.371 262.417 103.814 261.809 103.435C261.205 103.057 260.529 102.868 259.781 102.868C259.032 102.868 258.354 103.057 257.746 103.435C257.143 103.814 256.662 104.371 256.303 105.108C255.949 105.844 255.772 106.748 255.772 107.818C255.772 108.889 255.949 109.792 256.303 110.529C256.662 111.265 257.143 111.823 257.746 112.201C258.354 112.579 259.032 112.768 259.781 112.768C260.529 112.768 261.205 112.579 261.809 112.201C262.417 111.823 262.898 111.265 263.252 110.529C263.61 109.792 263.789 108.889 263.789 107.818ZM267.755 114V101.636H269.253V112.672H275V114H267.755Z" fill="white"/>
<rect x="344" width="80" height="80" rx="40" fill="#29B5E8"/>
<path d="M399.584 51.3946L390.408 46.0938C389.119 45.3516 387.47 45.793 386.724 47.0821C386.435 47.5899 386.322 48.1485 386.377 48.6915V59.0508C386.377 60.5313 387.58 61.7344 389.064 61.7344C390.545 61.7344 391.748 60.5313 391.748 59.0508V53.0938L396.888 56.0626C398.177 56.8086 399.83 56.3633 400.572 55.0743C401.318 53.7852 400.877 52.1368 399.584 51.3946Z" fill="white"/>
<path d="M376.763 40.0352C376.778 39.0781 376.274 38.1875 375.446 37.707L366.271 32.4102C365.872 32.1797 365.415 32.0586 364.958 32.0586C364.017 32.0586 363.142 32.5625 362.673 33.375C361.946 34.6328 362.38 36.2461 363.638 36.9727L368.927 40.0234L363.638 43.0781C363.028 43.4297 362.591 43.9961 362.411 44.6758C362.228 45.3555 362.321 46.0664 362.673 46.6758C363.142 47.4883 364.017 47.9922 364.954 47.9922C365.415 47.9922 365.872 47.8711 366.271 47.6406L375.446 42.3438C376.267 41.8672 376.771 40.9844 376.763 40.0352Z" fill="white"/>
<path d="M368.353 28.6562L377.529 33.9531C378.599 34.5742 379.92 34.3711 380.763 33.5469C381.298 33.0547 381.63 32.3516 381.63 31.5703V20.9531C381.63 19.4688 380.427 18.2656 378.947 18.2656C377.462 18.2656 376.259 19.4688 376.259 20.9531V26.9961L371.048 23.9883C369.759 23.2422 368.111 23.6836 367.365 24.9727C366.619 26.2617 367.064 27.9102 368.353 28.6562Z" fill="white"/>
<path d="M388.985 40.4648C388.985 40.668 388.868 40.9492 388.724 41.0977L385.087 44.7344C384.942 44.8789 384.657 44.9961 384.454 44.9961H383.528C383.325 44.9961 383.04 44.8789 382.896 44.7344L379.255 41.0977C379.11 40.9492 378.993 40.668 378.993 40.4648V39.5391C378.993 39.332 379.11 39.0508 379.255 38.9062L382.896 35.2656C383.04 35.1211 383.325 35.0039 383.528 35.0039H384.454C384.657 35.0039 384.942 35.1211 385.087 35.2656L388.724 38.9062C388.868 39.0508 388.985 39.332 388.985 39.5391V40.4648ZM385.739 40.0195V39.9805C385.739 39.832 385.653 39.625 385.548 39.5156L384.474 38.4453C384.368 38.3359 384.161 38.25 384.009 38.25H383.97C383.821 38.25 383.614 38.3359 383.505 38.4453L382.435 39.5156C382.329 39.6211 382.243 39.8281 382.243 39.9805V40.0195C382.243 40.1719 382.329 40.3789 382.435 40.4844L383.505 41.5586C383.614 41.6641 383.821 41.75 383.97 41.75H384.009C384.161 41.75 384.368 41.6641 384.474 41.5586L385.548 40.4844C385.653 40.3789 385.739 40.1719 385.739 40.0195Z" fill="white"/>
<path d="M390.408 33.9531L399.584 28.6562C400.873 27.9141 401.318 26.2617 400.572 24.9727C399.826 23.6836 398.177 23.2422 396.888 23.9883L391.748 26.957V20.9531C391.748 19.4688 390.544 18.2656 389.064 18.2656C387.58 18.2656 386.377 19.4688 386.377 20.9531V31.3594C386.326 31.8984 386.431 32.4609 386.724 32.9688C387.47 34.2578 389.119 34.6992 390.408 33.9531Z" fill="white"/>
<path d="M379.369 45.7812C378.759 45.664 378.107 45.7617 377.529 46.0937L368.353 51.3945C367.064 52.1367 366.619 53.7851 367.365 55.0742C368.111 56.3671 369.759 56.8085 371.048 56.0624L376.259 53.0546V59.0507C376.259 60.5312 377.462 61.7343 378.947 61.7343C380.427 61.7343 381.63 60.5312 381.63 59.0507V48.4335C381.63 47.0937 380.65 45.9843 379.369 45.7812Z" fill="white"/>
<path d="M405.318 33.3437C404.576 32.0507 402.923 31.6093 401.634 32.3554L392.458 37.6523C391.579 38.1601 391.095 39.0898 391.111 40.0351C391.103 40.9765 391.587 41.8945 392.458 42.3945L401.634 47.6953C402.923 48.4375 404.572 47.9961 405.318 46.707C406.064 45.4179 405.619 43.7695 404.329 43.0234L399.134 40.0234L404.329 37.0234C405.622 36.2812 406.064 34.6328 405.318 33.3437Z" fill="white"/>
<path d="M350.796 104.727C350.724 104.116 350.43 103.641 349.915 103.303C349.4 102.964 348.768 102.795 348.019 102.795C347.472 102.795 346.993 102.884 346.582 103.061C346.176 103.238 345.858 103.482 345.629 103.792C345.403 104.101 345.29 104.454 345.29 104.848C345.29 105.178 345.369 105.462 345.526 105.699C345.687 105.933 345.892 106.128 346.142 106.285C346.391 106.438 346.653 106.565 346.926 106.665C347.2 106.762 347.452 106.84 347.681 106.901L348.937 107.239C349.259 107.323 349.617 107.44 350.011 107.589C350.41 107.738 350.79 107.941 351.152 108.199C351.519 108.452 351.82 108.778 352.058 109.176C352.295 109.575 352.414 110.064 352.414 110.643C352.414 111.312 352.239 111.915 351.889 112.455C351.543 112.994 351.036 113.422 350.367 113.74C349.703 114.058 348.896 114.217 347.947 114.217C347.061 114.217 346.295 114.074 345.647 113.789C345.003 113.503 344.496 113.105 344.125 112.593C343.759 112.082 343.552 111.489 343.504 110.812H345.049C345.089 111.279 345.246 111.666 345.52 111.972C345.798 112.273 346.148 112.499 346.57 112.648C346.997 112.793 347.456 112.865 347.947 112.865C348.518 112.865 349.031 112.772 349.486 112.587C349.941 112.398 350.301 112.137 350.567 111.803C350.832 111.464 350.965 111.07 350.965 110.619C350.965 110.209 350.85 109.875 350.621 109.617C350.392 109.36 350.09 109.15 349.716 108.989C349.341 108.828 348.937 108.687 348.502 108.567L346.981 108.132C346.015 107.854 345.25 107.458 344.687 106.943C344.123 106.428 343.842 105.754 343.842 104.92C343.842 104.228 344.029 103.625 344.403 103.109C344.781 102.59 345.288 102.188 345.924 101.902C346.564 101.612 347.279 101.467 348.067 101.467C348.864 101.467 349.573 101.61 350.192 101.896C350.812 102.178 351.303 102.564 351.665 103.055C352.032 103.546 352.225 104.103 352.245 104.727H350.796ZM356.107 108.422V114H354.682V104.727H356.059V106.176H356.18C356.397 105.705 356.727 105.327 357.17 105.041C357.612 104.751 358.184 104.607 358.884 104.607C359.512 104.607 360.061 104.735 360.532 104.993C361.003 105.246 361.369 105.633 361.631 106.152C361.893 106.667 362.023 107.319 362.023 108.108V114H360.599V108.205C360.599 107.476 360.409 106.909 360.031 106.502C359.653 106.092 359.134 105.886 358.474 105.886C358.019 105.886 357.612 105.985 357.254 106.182C356.9 106.379 356.62 106.667 356.415 107.045C356.21 107.424 356.107 107.883 356.107 108.422ZM368.394 114.193C367.557 114.193 366.822 113.994 366.19 113.596C365.562 113.197 365.071 112.64 364.717 111.923C364.367 111.207 364.192 110.37 364.192 109.412C364.192 108.446 364.367 107.603 364.717 106.882C365.071 106.162 365.562 105.603 366.19 105.204C366.822 104.806 367.557 104.607 368.394 104.607C369.231 104.607 369.963 104.806 370.591 105.204C371.223 105.603 371.714 106.162 372.064 106.882C372.418 107.603 372.595 108.446 372.595 109.412C372.595 110.37 372.418 111.207 372.064 111.923C371.714 112.64 371.223 113.197 370.591 113.596C369.963 113.994 369.231 114.193 368.394 114.193ZM368.394 112.913C369.03 112.913 369.553 112.75 369.963 112.424C370.374 112.098 370.678 111.67 370.875 111.138C371.072 110.607 371.171 110.032 371.171 109.412C371.171 108.792 371.072 108.215 370.875 107.679C370.678 107.144 370.374 106.711 369.963 106.381C369.553 106.051 369.03 105.886 368.394 105.886C367.758 105.886 367.235 106.051 366.824 106.381C366.414 106.711 366.11 107.144 365.913 107.679C365.715 108.215 365.617 108.792 365.617 109.412C365.617 110.032 365.715 110.607 365.913 111.138C366.11 111.67 366.414 112.098 366.824 112.424C367.235 112.75 367.758 112.913 368.394 112.913ZM376.556 114L373.73 104.727H375.228L377.232 111.827H377.328L379.309 104.727H380.83L382.786 111.803H382.882L384.887 104.727H386.384L383.559 114H382.158L380.13 106.876H379.985L377.956 114H376.556ZM392.397 104.727V105.935H387.398V104.727H392.397ZM388.895 114V103.447C388.895 102.916 389.02 102.473 389.269 102.119C389.519 101.765 389.843 101.5 390.241 101.322C390.64 101.145 391.06 101.057 391.503 101.057C391.853 101.057 392.139 101.085 392.36 101.141C392.582 101.198 392.747 101.25 392.855 101.298L392.445 102.53C392.372 102.506 392.272 102.475 392.143 102.439C392.018 102.403 391.853 102.385 391.648 102.385C391.177 102.385 390.837 102.504 390.628 102.741C390.423 102.979 390.32 103.327 390.32 103.786V114H388.895ZM395.818 101.636V114H394.393V101.636H395.818ZM401.156 114.217C400.569 114.217 400.035 114.107 399.556 113.885C399.077 113.66 398.697 113.336 398.415 112.913C398.134 112.487 397.993 111.972 397.993 111.368C397.993 110.837 398.097 110.406 398.307 110.076C398.516 109.742 398.796 109.48 399.146 109.291C399.496 109.102 399.882 108.961 400.305 108.869C400.732 108.772 401.16 108.696 401.591 108.639C402.154 108.567 402.611 108.512 402.961 108.476C403.315 108.436 403.573 108.37 403.734 108.277C403.899 108.184 403.981 108.023 403.981 107.794V107.746C403.981 107.15 403.818 106.687 403.492 106.357C403.171 106.027 402.682 105.862 402.026 105.862C401.345 105.862 400.812 106.011 400.426 106.309C400.039 106.607 399.768 106.925 399.611 107.263L398.258 106.78C398.5 106.216 398.822 105.778 399.224 105.464C399.631 105.146 400.074 104.924 400.553 104.8C401.035 104.671 401.51 104.607 401.977 104.607C402.275 104.607 402.617 104.643 403.004 104.715C403.394 104.784 403.77 104.926 404.132 105.144C404.499 105.361 404.803 105.689 405.044 106.128C405.285 106.567 405.406 107.154 405.406 107.891V114H403.981V112.744H403.909C403.812 112.946 403.651 113.161 403.426 113.39C403.201 113.62 402.901 113.815 402.527 113.976C402.152 114.137 401.696 114.217 401.156 114.217ZM401.374 112.938C401.937 112.938 402.412 112.827 402.798 112.605C403.189 112.384 403.482 112.098 403.68 111.748C403.881 111.398 403.981 111.03 403.981 110.643V109.339C403.921 109.412 403.788 109.478 403.583 109.539C403.382 109.595 403.148 109.645 402.883 109.69C402.621 109.73 402.366 109.766 402.116 109.798C401.871 109.826 401.671 109.851 401.518 109.871C401.148 109.919 400.802 109.998 400.48 110.106C400.162 110.211 399.905 110.37 399.707 110.583C399.514 110.792 399.418 111.078 399.418 111.44C399.418 111.935 399.601 112.31 399.967 112.563C400.337 112.813 400.806 112.938 401.374 112.938ZM409.335 110.619L409.311 108.857H409.6L413.657 104.727H415.42L411.098 109.098H410.977L409.335 110.619ZM408.007 114V101.636H409.431V114H408.007ZM413.899 114L410.277 109.412L411.291 108.422L415.71 114H413.899ZM420.76 114.193C419.866 114.193 419.095 113.996 418.447 113.602C417.804 113.203 417.307 112.648 416.956 111.935C416.61 111.219 416.437 110.386 416.437 109.436C416.437 108.486 416.61 107.649 416.956 106.925C417.307 106.196 417.793 105.629 418.417 105.222C419.045 104.812 419.778 104.607 420.615 104.607C421.098 104.607 421.575 104.687 422.045 104.848C422.516 105.009 422.945 105.271 423.331 105.633C423.718 105.991 424.026 106.466 424.255 107.058C424.484 107.649 424.599 108.378 424.599 109.243V109.847H417.451V108.615H423.15C423.15 108.092 423.046 107.625 422.836 107.214C422.631 106.804 422.337 106.48 421.955 106.243C421.577 106.005 421.13 105.886 420.615 105.886C420.047 105.886 419.556 106.027 419.142 106.309C418.731 106.587 418.415 106.949 418.194 107.396C417.973 107.842 417.862 108.321 417.862 108.832V109.653C417.862 110.354 417.983 110.947 418.224 111.434C418.47 111.917 418.81 112.286 419.244 112.539C419.679 112.789 420.184 112.913 420.76 112.913C421.134 112.913 421.472 112.861 421.774 112.756C422.08 112.648 422.343 112.487 422.565 112.273C422.786 112.056 422.957 111.786 423.078 111.464L424.454 111.851C424.309 112.318 424.066 112.728 423.724 113.082C423.382 113.433 422.959 113.706 422.456 113.903C421.953 114.097 421.387 114.193 420.76 114.193Z" fill="white"/>
<rect x="500" width="80" height="80" rx="40" fill="white"/>
<path d="M550.065 32.1306H536.36C536.426 32.4585 536.557 32.7864 536.623 33.0486C537.082 34.6224 537.344 36.2618 537.475 37.9667C537.541 38.6224 537.541 39.3437 537.541 39.9995C537.541 40.6552 537.541 41.3765 537.475 42.0323C537.344 43.7372 537.082 45.3765 536.623 46.9503C536.557 47.2782 536.426 47.606 536.36 47.8683H550.065C554.393 47.8683 557.869 44.3273 557.869 39.9995C557.869 35.6716 554.393 32.1306 550.065 32.1306Z" fill="#00A9E5"/>
<path d="M537.475 42.0323C537.541 41.3765 537.541 40.6552 537.541 39.9995C537.541 39.3437 537.541 38.6224 537.475 37.9667C537.344 36.2618 537.082 34.6224 536.623 33.0486C536.557 32.7208 536.426 32.3929 536.361 32.1306H515.18C514.393 34.6224 514 37.2454 514 39.9995C514 42.7536 514.393 45.3765 515.18 47.8683H536.361C536.426 47.5404 536.557 47.2126 536.623 46.9503C537.082 45.3765 537.344 43.7372 537.475 42.0323Z" fill="#353535"/>
<path d="M552.426 50.4919H535.377C534.852 51.6723 534.262 52.787 533.606 53.8362C532.623 55.4756 531.442 56.9182 530.131 58.2952C529.672 58.7542 529.213 59.1477 528.754 59.6067C527.836 60.4591 526.786 61.1805 525.737 61.9018C529.868 64.6559 534.852 66.2296 540.164 66.2296C549.278 66.2296 557.278 61.5739 562 54.5575C559.573 52.0657 556.164 50.4919 552.426 50.4919Z" fill="#00BFB3"/>
<path d="M533.607 53.8362C534.262 52.787 534.853 51.6723 535.377 50.4919H516.164C518.197 55.1477 521.541 59.1477 525.803 61.9018C526.853 61.1805 527.836 60.4591 528.82 59.6067C529.279 59.2132 529.738 58.7542 530.197 58.2952C531.443 56.9837 532.623 55.4756 533.607 53.8362Z" fill="#019B8F"/>
<path d="M530.131 21.7049C529.672 21.2459 529.213 20.8525 528.754 20.3935C527.836 19.541 526.787 18.8197 525.738 18.0984C521.541 20.8525 518.197 24.8525 516.099 29.5082H535.312C534.787 28.3279 534.197 27.2131 533.541 26.164C532.623 24.5246 531.443 23.0164 530.131 21.7049Z" fill="#F9B110"/>
<path d="M540.164 13.7705C534.852 13.7705 529.868 15.3443 525.737 18.0984C526.786 18.8197 527.77 19.541 528.754 20.3935C529.213 20.7869 529.672 21.2459 530.131 21.7049C531.442 23.082 532.623 24.5246 533.606 26.1639C534.262 27.2131 534.852 28.3279 535.377 29.5082H552.426C556.164 29.5082 559.573 27.9344 562 25.4426C557.278 18.4262 549.278 13.7705 540.164 13.7705Z" fill="#FED10A"/>
<path d="M488.248 114V101.636H495.709V102.964H489.745V107.142H495.323V108.47H489.745V112.672H495.806V114H488.248ZM499.639 101.636V114H498.215V101.636H499.639ZM504.977 114.217C504.39 114.217 503.857 114.107 503.378 113.885C502.899 113.66 502.518 113.336 502.237 112.913C501.955 112.487 501.814 111.972 501.814 111.368C501.814 110.837 501.919 110.406 502.128 110.076C502.337 109.742 502.617 109.48 502.967 109.291C503.317 109.102 503.704 108.961 504.126 108.869C504.553 108.772 504.982 108.696 505.412 108.639C505.976 108.567 506.432 108.512 506.783 108.476C507.137 108.436 507.394 108.37 507.555 108.277C507.72 108.184 507.803 108.023 507.803 107.794V107.746C507.803 107.15 507.64 106.687 507.314 106.357C506.992 106.027 506.503 105.862 505.847 105.862C505.167 105.862 504.633 106.011 504.247 106.309C503.861 106.607 503.589 106.925 503.432 107.263L502.08 106.78C502.321 106.216 502.643 105.778 503.046 105.464C503.452 105.146 503.895 104.924 504.374 104.8C504.857 104.671 505.332 104.607 505.799 104.607C506.096 104.607 506.438 104.643 506.825 104.715C507.215 104.784 507.591 104.926 507.954 105.144C508.32 105.361 508.624 105.689 508.865 106.128C509.107 106.567 509.227 107.154 509.227 107.891V114H507.803V112.744H507.73C507.634 112.946 507.473 113.161 507.247 113.39C507.022 113.62 506.722 113.815 506.348 113.976C505.974 114.137 505.517 114.217 504.977 114.217ZM505.195 112.938C505.758 112.938 506.233 112.827 506.62 112.605C507.01 112.384 507.304 112.098 507.501 111.748C507.702 111.398 507.803 111.03 507.803 110.643V109.339C507.742 109.412 507.61 109.478 507.404 109.539C507.203 109.595 506.97 109.645 506.704 109.69C506.442 109.73 506.187 109.766 505.937 109.798C505.692 109.826 505.493 109.851 505.34 109.871C504.969 109.919 504.623 109.998 504.301 110.106C503.983 110.211 503.726 110.37 503.529 110.583C503.335 110.792 503.239 111.078 503.239 111.44C503.239 111.935 503.422 112.31 503.788 112.563C504.158 112.813 504.627 112.938 505.195 112.938ZM518.396 106.804L517.116 107.166C517.036 106.953 516.917 106.746 516.76 106.544C516.607 106.339 516.398 106.17 516.132 106.037C515.867 105.904 515.527 105.838 515.112 105.838C514.545 105.838 514.072 105.969 513.693 106.23C513.319 106.488 513.132 106.816 513.132 107.214C513.132 107.569 513.261 107.848 513.518 108.054C513.776 108.259 514.178 108.43 514.726 108.567L516.102 108.905C516.931 109.106 517.549 109.414 517.955 109.828C518.362 110.239 518.565 110.768 518.565 111.416C518.565 111.947 518.412 112.422 518.106 112.841C517.804 113.259 517.382 113.589 516.839 113.831C516.295 114.072 515.663 114.193 514.943 114.193C513.997 114.193 513.214 113.988 512.595 113.577C511.975 113.167 511.582 112.567 511.417 111.778L512.77 111.44C512.898 111.939 513.142 112.314 513.5 112.563C513.862 112.813 514.335 112.938 514.919 112.938C515.583 112.938 516.11 112.797 516.5 112.515C516.895 112.229 517.092 111.887 517.092 111.489C517.092 111.167 516.979 110.897 516.754 110.68C516.529 110.458 516.183 110.293 515.716 110.185L514.17 109.822C513.321 109.621 512.697 109.309 512.299 108.887C511.904 108.46 511.707 107.927 511.707 107.287C511.707 106.764 511.854 106.301 512.148 105.898C512.446 105.496 512.85 105.18 513.361 104.951C513.876 104.721 514.46 104.607 515.112 104.607C516.03 104.607 516.75 104.808 517.273 105.21C517.8 105.613 518.175 106.144 518.396 106.804ZM524.742 104.727V105.935H519.937V104.727H524.742ZM521.338 102.506H522.762V111.344C522.762 111.746 522.821 112.048 522.937 112.249C523.058 112.446 523.211 112.579 523.396 112.648C523.585 112.712 523.785 112.744 523.994 112.744C524.151 112.744 524.28 112.736 524.38 112.72C524.481 112.7 524.561 112.684 524.622 112.672L524.911 113.952C524.815 113.988 524.68 114.024 524.507 114.06C524.334 114.101 524.115 114.121 523.849 114.121C523.446 114.121 523.052 114.034 522.666 113.861C522.283 113.688 521.965 113.424 521.712 113.07C521.462 112.716 521.338 112.269 521.338 111.73V102.506ZM526.886 114V104.727H528.31V114H526.886ZM527.61 103.182C527.332 103.182 527.093 103.087 526.892 102.898C526.694 102.709 526.596 102.482 526.596 102.216C526.596 101.95 526.694 101.723 526.892 101.534C527.093 101.345 527.332 101.25 527.61 101.25C527.888 101.25 528.125 101.345 528.322 101.534C528.524 101.723 528.624 101.95 528.624 102.216C528.624 102.482 528.524 102.709 528.322 102.898C528.125 103.087 527.888 103.182 527.61 103.182ZM534.687 114.193C533.817 114.193 533.069 113.988 532.441 113.577C531.813 113.167 531.33 112.601 530.992 111.881C530.654 111.161 530.485 110.338 530.485 109.412C530.485 108.47 530.658 107.639 531.004 106.919C531.354 106.194 531.841 105.629 532.465 105.222C533.093 104.812 533.825 104.607 534.663 104.607C535.315 104.607 535.902 104.727 536.425 104.969C536.949 105.21 537.377 105.548 537.711 105.983C538.045 106.418 538.253 106.925 538.333 107.504H536.908C536.8 107.082 536.558 106.707 536.184 106.381C535.814 106.051 535.315 105.886 534.687 105.886C534.131 105.886 533.644 106.031 533.226 106.321C532.811 106.607 532.487 107.011 532.254 107.534C532.024 108.054 531.91 108.663 531.91 109.364C531.91 110.08 532.022 110.704 532.248 111.235C532.477 111.766 532.799 112.179 533.214 112.473C533.632 112.766 534.123 112.913 534.687 112.913C535.057 112.913 535.393 112.849 535.695 112.72C535.997 112.591 536.252 112.406 536.462 112.165C536.671 111.923 536.82 111.634 536.908 111.295H538.333C538.253 111.843 538.053 112.336 537.735 112.775C537.421 113.209 537.005 113.555 536.486 113.813C535.971 114.066 535.371 114.193 534.687 114.193ZM546.984 106.804L545.704 107.166C545.624 106.953 545.505 106.746 545.348 106.544C545.195 106.339 544.986 106.17 544.72 106.037C544.455 105.904 544.114 105.838 543.7 105.838C543.132 105.838 542.66 105.969 542.281 106.23C541.907 106.488 541.72 106.816 541.72 107.214C541.72 107.569 541.849 107.848 542.106 108.054C542.364 108.259 542.766 108.43 543.314 108.567L544.69 108.905C545.519 109.106 546.137 109.414 546.543 109.828C546.95 110.239 547.153 110.768 547.153 111.416C547.153 111.947 547 112.422 546.694 112.841C546.392 113.259 545.97 113.589 545.426 113.831C544.883 114.072 544.251 114.193 543.531 114.193C542.585 114.193 541.802 113.988 541.182 113.577C540.563 113.167 540.17 112.567 540.005 111.778L541.358 111.44C541.486 111.939 541.73 112.314 542.088 112.563C542.45 112.813 542.923 112.938 543.507 112.938C544.171 112.938 544.698 112.797 545.088 112.515C545.483 112.229 545.68 111.887 545.68 111.489C545.68 111.167 545.567 110.897 545.342 110.68C545.117 110.458 544.77 110.293 544.304 110.185L542.758 109.822C541.909 109.621 541.285 109.309 540.887 108.887C540.492 108.46 540.295 107.927 540.295 107.287C540.295 106.764 540.442 106.301 540.736 105.898C541.034 105.496 541.438 105.18 541.949 104.951C542.464 104.721 543.048 104.607 543.7 104.607C544.617 104.607 545.338 104.808 545.861 105.21C546.388 105.613 546.763 106.144 546.984 106.804ZM553.185 114.193C552.292 114.193 551.521 113.996 550.873 113.602C550.229 113.203 549.732 112.648 549.382 111.935C549.036 111.219 548.863 110.386 548.863 109.436C548.863 108.486 549.036 107.649 549.382 106.925C549.732 106.196 550.219 105.629 550.843 105.222C551.471 104.812 552.203 104.607 553.041 104.607C553.523 104.607 554 104.687 554.471 104.848C554.942 105.009 555.371 105.271 555.757 105.633C556.144 105.991 556.451 106.466 556.681 107.058C556.91 107.649 557.025 108.378 557.025 109.243V109.847H549.877V108.615H555.576C555.576 108.092 555.471 107.625 555.262 107.214C555.057 106.804 554.763 106.48 554.381 106.243C554.002 106.005 553.556 105.886 553.041 105.886C552.473 105.886 551.982 106.027 551.568 106.309C551.157 106.587 550.841 106.949 550.62 107.396C550.398 107.842 550.288 108.321 550.288 108.832V109.653C550.288 110.354 550.408 110.947 550.65 111.434C550.895 111.917 551.235 112.286 551.67 112.539C552.105 112.789 552.61 112.913 553.185 112.913C553.56 112.913 553.898 112.861 554.2 112.756C554.505 112.648 554.769 112.487 554.99 112.273C555.212 112.056 555.383 111.786 555.504 111.464L556.88 111.851C556.735 112.318 556.492 112.728 556.15 113.082C555.807 113.433 555.385 113.706 554.882 113.903C554.379 114.097 553.813 114.193 553.185 114.193ZM561.921 114.217C561.333 114.217 560.8 114.107 560.321 113.885C559.842 113.66 559.462 113.336 559.18 112.913C558.898 112.487 558.758 111.972 558.758 111.368C558.758 110.837 558.862 110.406 559.071 110.076C559.281 109.742 559.56 109.48 559.911 109.291C560.261 109.102 560.647 108.961 561.07 108.869C561.496 108.772 561.925 108.696 562.356 108.639C562.919 108.567 563.376 108.512 563.726 108.476C564.08 108.436 564.338 108.37 564.499 108.277C564.664 108.184 564.746 108.023 564.746 107.794V107.746C564.746 107.15 564.583 106.687 564.257 106.357C563.935 106.027 563.446 105.862 562.79 105.862C562.11 105.862 561.577 106.011 561.19 106.309C560.804 106.607 560.532 106.925 560.375 107.263L559.023 106.78C559.265 106.216 559.587 105.778 559.989 105.464C560.396 105.146 560.838 104.924 561.317 104.8C561.8 104.671 562.275 104.607 562.742 104.607C563.04 104.607 563.382 104.643 563.768 104.715C564.159 104.784 564.535 104.926 564.897 105.144C565.263 105.361 565.567 105.689 565.809 106.128C566.05 106.567 566.171 107.154 566.171 107.891V114H564.746V112.744H564.674C564.577 112.946 564.416 113.161 564.191 113.39C563.965 113.62 563.666 113.815 563.291 113.976C562.917 114.137 562.46 114.217 561.921 114.217ZM562.138 112.938C562.702 112.938 563.177 112.827 563.563 112.605C563.953 112.384 564.247 112.098 564.444 111.748C564.646 111.398 564.746 111.03 564.746 110.643V109.339C564.686 109.412 564.553 109.478 564.348 109.539C564.146 109.595 563.913 109.645 563.647 109.69C563.386 109.73 563.13 109.766 562.881 109.798C562.635 109.826 562.436 109.851 562.283 109.871C561.913 109.919 561.567 109.998 561.245 110.106C560.927 110.211 560.669 110.37 560.472 110.583C560.279 110.792 560.182 111.078 560.182 111.44C560.182 111.935 560.365 112.31 560.732 112.563C561.102 112.813 561.571 112.938 562.138 112.938ZM568.771 114V104.727H570.148V106.128H570.244C570.409 105.669 570.713 105.297 571.156 105.011C571.599 104.725 572.1 104.582 572.659 104.582C572.917 104.582 573.142 104.613 573.335 104.673C573.528 104.733 573.697 104.816 573.842 104.92L573.359 106.128C573.259 106.076 573.14 106.035 573.003 106.007C572.87 105.975 572.715 105.959 572.538 105.959C572.088 105.959 571.685 106.053 571.331 106.243C570.981 106.432 570.703 106.689 570.498 107.015C570.297 107.341 570.196 107.714 570.196 108.132V114H568.771ZM578.78 114.193C577.911 114.193 577.163 113.988 576.535 113.577C575.907 113.167 575.424 112.601 575.086 111.881C574.748 111.161 574.579 110.338 574.579 109.412C574.579 108.47 574.752 107.639 575.098 106.919C575.448 106.194 575.935 105.629 576.559 105.222C577.187 104.812 577.919 104.607 578.756 104.607C579.408 104.607 579.996 104.727 580.519 104.969C581.042 105.21 581.471 105.548 581.805 105.983C582.139 106.418 582.346 106.925 582.427 107.504H581.002C580.893 107.082 580.652 106.707 580.278 106.381C579.907 106.051 579.408 105.886 578.78 105.886C578.225 105.886 577.738 106.031 577.32 106.321C576.905 106.607 576.581 107.011 576.348 107.534C576.118 108.054 576.004 108.663 576.004 109.364C576.004 110.08 576.116 110.704 576.342 111.235C576.571 111.766 576.893 112.179 577.307 112.473C577.726 112.766 578.217 112.913 578.78 112.913C579.151 112.913 579.487 112.849 579.789 112.72C580.091 112.591 580.346 112.406 580.555 112.165C580.765 111.923 580.914 111.634 581.002 111.295H582.427C582.346 111.843 582.147 112.336 581.829 112.775C581.515 113.209 581.099 113.555 580.58 113.813C580.064 114.066 579.465 114.193 578.78 114.193ZM585.934 108.422V114H584.51V101.636H585.934V106.176H586.055C586.272 105.697 586.598 105.317 587.033 105.035C587.472 104.749 588.055 104.607 588.784 104.607C589.416 104.607 589.969 104.733 590.444 104.987C590.919 105.236 591.287 105.621 591.549 106.14C591.814 106.655 591.947 107.311 591.947 108.108V114H590.522V108.205C590.522 107.468 590.331 106.899 589.949 106.496C589.571 106.09 589.045 105.886 588.373 105.886C587.906 105.886 587.488 105.985 587.117 106.182C586.751 106.379 586.461 106.667 586.248 107.045C586.039 107.424 585.934 107.883 585.934 108.422Z" fill="white"/>
<rect x="656" width="80" height="80" rx="40" fill="#29F1FB"/>
<path d="M696.69 18.7191C700.395 18.7191 704.099 18.7002 707.802 18.7191C714.896 18.7633 721.405 23.2907 723.882 29.899C724.949 32.7523 725.181 35.7049 724.876 38.7363C724.43 43.1881 723.101 47.3199 720.584 51.0229C716.7 56.7389 711.225 59.9154 704.445 60.9731C702.146 61.331 699.84 61.2884 697.53 61.2884C696.572 61.2884 696.06 60.8502 696.003 60.0572C695.941 59.2076 696.476 58.5549 697.422 58.4982C698.468 58.4335 699.523 58.4871 700.574 58.4588C706.957 58.2854 712.484 56.0863 716.862 51.3649C719.93 48.0545 721.484 44.022 722.01 39.5781C722.376 36.4947 722.337 33.4302 721.118 30.5091C719.249 26.04 715.899 23.3002 711.286 22.0296C709.495 21.5362 707.66 21.4432 705.824 21.4321C698.968 21.3911 692.109 21.4164 685.255 21.4148C684.966 21.4148 684.675 21.4258 684.388 21.4006C684.059 21.3702 683.752 21.2226 683.522 20.9848C683.293 20.747 683.156 20.4347 683.138 20.1048C683.133 19.7864 683.241 19.4765 683.443 19.2303C683.645 18.9841 683.928 18.8175 684.241 18.7601C684.555 18.7168 684.871 18.7015 685.187 18.7144C689.022 18.7144 692.858 18.7144 696.695 18.7144L696.69 18.7191Z" fill="white"/>
<path d="M689.669 51.5077H677.373C677.11 51.5193 676.847 51.5136 676.585 51.4904C675.874 51.3942 675.426 50.9859 675.357 50.2671C675.287 49.5482 675.625 49.0564 676.302 48.8042C676.733 48.6465 677.184 48.6796 677.628 48.6796C685.717 48.6796 693.807 48.6922 701.895 48.6654C704.733 48.656 707.183 47.6045 709.13 45.5237C710.799 43.7392 711.674 41.5827 711.934 39.155C712.139 37.2507 711.868 35.4993 710.685 33.945C709.371 32.2109 707.594 31.3407 705.458 31.3313C697.816 31.2982 690.167 31.3187 682.531 31.3076C681.719 31.3076 680.906 31.2414 680.097 31.1658C679.398 31.1011 679.012 30.6802 678.965 29.9772C678.913 29.211 679.305 28.6593 680.001 28.5253C680.233 28.4922 680.469 28.4811 680.704 28.4922C688.901 28.4922 697.098 28.4922 705.296 28.4922C709.427 28.5001 713 30.9987 714.302 34.905C715.225 37.6779 714.896 40.4729 713.86 43.1606C711.871 48.3202 707.187 51.4935 701.645 51.5077C697.653 51.5187 693.66 51.5077 689.669 51.5077Z" fill="white"/>
<path d="M671.332 31.1733C670.387 31.1733 669.441 31.1859 668.495 31.1733C667.707 31.1591 667.101 30.6405 667.011 29.9343C666.922 29.228 667.365 28.6211 668.217 28.4477C668.683 28.3722 669.155 28.341 669.627 28.3547C670.913 28.3437 672.201 28.3405 673.487 28.3547C673.88 28.3541 674.272 28.3996 674.654 28.4903C675.349 28.6668 675.729 29.2596 675.647 29.98C675.565 30.7004 675.13 31.1339 674.402 31.1576C673.379 31.1922 672.352 31.167 671.329 31.167L671.332 31.1733Z" fill="white"/>
<path d="M688.586 61.2825C687.694 61.2825 686.802 61.2983 685.906 61.2825C685.058 61.2636 684.488 60.7828 684.401 60.0734C684.368 59.7003 684.484 59.3294 684.724 59.0415C684.963 58.7535 685.307 58.572 685.679 58.5364C687.588 58.3864 689.505 58.3837 691.414 58.5285C691.595 58.5362 691.771 58.5806 691.934 58.6589C692.096 58.7373 692.241 58.848 692.359 58.9842C692.477 59.1204 692.566 59.2793 692.62 59.4512C692.675 59.623 692.694 59.8042 692.676 59.9835C692.617 60.7717 692.062 61.2541 691.186 61.2888H688.586V61.2825Z" fill="white"/>
<path d="M643.676 114H642.106L646.646 101.636H648.191L652.731 114H651.161L647.467 103.592H647.37L643.676 114ZM644.255 109.17H650.582V110.499H644.255V109.17ZM654.464 117.477V104.727H655.84V106.2H656.009C656.114 106.039 656.259 105.834 656.444 105.585C656.633 105.331 656.903 105.106 657.253 104.908C657.607 104.707 658.086 104.607 658.689 104.607C659.47 104.607 660.158 104.802 660.754 105.192C661.35 105.583 661.815 106.136 662.149 106.852C662.483 107.569 662.65 108.414 662.65 109.388C662.65 110.37 662.483 111.221 662.149 111.941C661.815 112.658 661.352 113.213 660.76 113.608C660.169 113.998 659.486 114.193 658.714 114.193C658.118 114.193 657.641 114.095 657.283 113.897C656.925 113.696 656.649 113.469 656.456 113.215C656.263 112.958 656.114 112.744 656.009 112.575H655.888V117.477H654.464ZM655.864 109.364C655.864 110.064 655.967 110.682 656.172 111.217C656.377 111.748 656.677 112.165 657.072 112.467C657.466 112.764 657.949 112.913 658.52 112.913C659.116 112.913 659.613 112.756 660.012 112.442C660.414 112.125 660.716 111.698 660.917 111.163C661.122 110.623 661.225 110.024 661.225 109.364C661.225 108.712 661.124 108.124 660.923 107.601C660.726 107.074 660.426 106.657 660.024 106.351C659.625 106.041 659.124 105.886 658.52 105.886C657.941 105.886 657.454 106.033 657.06 106.327C656.665 106.617 656.367 107.023 656.166 107.547C655.965 108.066 655.864 108.671 655.864 109.364ZM667.552 114.217C666.964 114.217 666.431 114.107 665.952 113.885C665.473 113.66 665.093 113.336 664.811 112.913C664.529 112.487 664.388 111.972 664.388 111.368C664.388 110.837 664.493 110.406 664.702 110.076C664.912 109.742 665.191 109.48 665.541 109.291C665.892 109.102 666.278 108.961 666.701 108.869C667.127 108.772 667.556 108.696 667.986 108.639C668.55 108.567 669.007 108.512 669.357 108.476C669.711 108.436 669.968 108.37 670.129 108.277C670.294 108.184 670.377 108.023 670.377 107.794V107.746C670.377 107.15 670.214 106.687 669.888 106.357C669.566 106.027 669.077 105.862 668.421 105.862C667.741 105.862 667.208 106.011 666.821 106.309C666.435 106.607 666.163 106.925 666.006 107.263L664.654 106.78C664.895 106.216 665.217 105.778 665.62 105.464C666.026 105.146 666.469 104.924 666.948 104.8C667.431 104.671 667.906 104.607 668.373 104.607C668.671 104.607 669.013 104.643 669.399 104.715C669.789 104.784 670.166 104.926 670.528 105.144C670.894 105.361 671.198 105.689 671.439 106.128C671.681 106.567 671.802 107.154 671.802 107.891V114H670.377V112.744H670.305C670.208 112.946 670.047 113.161 669.822 113.39C669.596 113.62 669.296 113.815 668.922 113.976C668.548 114.137 668.091 114.217 667.552 114.217ZM667.769 112.938C668.332 112.938 668.807 112.827 669.194 112.605C669.584 112.384 669.878 112.098 670.075 111.748C670.276 111.398 670.377 111.03 670.377 110.643V109.339C670.317 109.412 670.184 109.478 669.979 109.539C669.777 109.595 669.544 109.645 669.278 109.69C669.017 109.73 668.761 109.766 668.512 109.798C668.266 109.826 668.067 109.851 667.914 109.871C667.544 109.919 667.198 109.998 666.876 110.106C666.558 110.211 666.3 110.37 666.103 110.583C665.91 110.792 665.813 111.078 665.813 111.44C665.813 111.935 665.996 112.31 666.362 112.563C666.733 112.813 667.202 112.938 667.769 112.938ZM678.169 114.193C677.3 114.193 676.551 113.988 675.923 113.577C675.296 113.167 674.813 112.601 674.475 111.881C674.136 111.161 673.967 110.338 673.967 109.412C673.967 108.47 674.141 107.639 674.487 106.919C674.837 106.194 675.324 105.629 675.948 105.222C676.575 104.812 677.308 104.607 678.145 104.607C678.797 104.607 679.385 104.727 679.908 104.969C680.431 105.21 680.86 105.548 681.194 105.983C681.528 106.418 681.735 106.925 681.815 107.504H680.391C680.282 107.082 680.041 106.707 679.666 106.381C679.296 106.051 678.797 105.886 678.169 105.886C677.614 105.886 677.127 106.031 676.708 106.321C676.294 106.607 675.97 107.011 675.736 107.534C675.507 108.054 675.392 108.663 675.392 109.364C675.392 110.08 675.505 110.704 675.73 111.235C675.96 111.766 676.282 112.179 676.696 112.473C677.115 112.766 677.606 112.913 678.169 112.913C678.539 112.913 678.875 112.849 679.177 112.72C679.479 112.591 679.735 112.406 679.944 112.165C680.153 111.923 680.302 111.634 680.391 111.295H681.815C681.735 111.843 681.536 112.336 681.218 112.775C680.904 113.209 680.487 113.555 679.968 113.813C679.453 114.066 678.853 114.193 678.169 114.193ZM685.323 108.422V114H683.898V101.636H685.323V106.176H685.444C685.661 105.697 685.987 105.317 686.422 105.035C686.86 104.749 687.444 104.607 688.172 104.607C688.804 104.607 689.358 104.733 689.833 104.987C690.307 105.236 690.676 105.621 690.937 106.14C691.203 106.655 691.336 107.311 691.336 108.108V114H689.911V108.205C689.911 107.468 689.72 106.899 689.337 106.496C688.959 106.09 688.434 105.886 687.762 105.886C687.295 105.886 686.876 105.985 686.506 106.182C686.14 106.379 685.85 106.667 685.637 107.045C685.428 107.424 685.323 107.883 685.323 108.422ZM697.83 114.193C696.936 114.193 696.166 113.996 695.518 113.602C694.874 113.203 694.377 112.648 694.027 111.935C693.681 111.219 693.508 110.386 693.508 109.436C693.508 108.486 693.681 107.649 694.027 106.925C694.377 106.196 694.864 105.629 695.488 105.222C696.115 104.812 696.848 104.607 697.685 104.607C698.168 104.607 698.645 104.687 699.116 104.848C699.587 105.009 700.015 105.271 700.402 105.633C700.788 105.991 701.096 106.466 701.325 107.058C701.555 107.649 701.669 108.378 701.669 109.243V109.847H694.522V108.615H700.221C700.221 108.092 700.116 107.625 699.907 107.214C699.701 106.804 699.408 106.48 699.025 106.243C698.647 106.005 698.2 105.886 697.685 105.886C697.118 105.886 696.627 106.027 696.212 106.309C695.802 106.587 695.486 106.949 695.264 107.396C695.043 107.842 694.932 108.321 694.932 108.832V109.653C694.932 110.354 695.053 110.947 695.294 111.434C695.54 111.917 695.88 112.286 696.315 112.539C696.749 112.789 697.254 112.913 697.83 112.913C698.204 112.913 698.542 112.861 698.844 112.756C699.15 112.648 699.414 112.487 699.635 112.273C699.856 112.056 700.027 111.786 700.148 111.464L701.525 111.851C701.38 112.318 701.136 112.728 700.794 113.082C700.452 113.433 700.029 113.706 699.526 113.903C699.023 114.097 698.458 114.193 697.83 114.193ZM712.626 114H708.811V101.636H712.795C713.995 101.636 715.021 101.884 715.874 102.379C716.728 102.87 717.382 103.576 717.836 104.498C718.291 105.415 718.519 106.514 718.519 107.794C718.519 109.082 718.289 110.191 717.83 111.12C717.371 112.046 716.703 112.758 715.826 113.257C714.949 113.752 713.882 114 712.626 114ZM710.308 112.672H712.53C713.552 112.672 714.399 112.475 715.071 112.08C715.744 111.686 716.245 111.124 716.575 110.396C716.905 109.667 717.07 108.8 717.07 107.794C717.07 106.796 716.907 105.937 716.581 105.216C716.255 104.492 715.768 103.936 715.12 103.55C714.472 103.16 713.665 102.964 712.699 102.964H710.308V112.672ZM720.837 114V104.727H722.213V106.128H722.31C722.479 105.669 722.785 105.297 723.227 105.011C723.67 104.725 724.169 104.582 724.724 104.582C724.829 104.582 724.96 104.584 725.117 104.588C725.274 104.592 725.393 104.598 725.473 104.607V106.055C725.425 106.043 725.314 106.025 725.141 106.001C724.972 105.973 724.793 105.959 724.604 105.959C724.153 105.959 723.751 106.053 723.396 106.243C723.046 106.428 722.769 106.685 722.563 107.015C722.362 107.341 722.261 107.714 722.261 108.132V114H720.837ZM733.006 110.209V104.727H734.43V114H733.006V112.43H732.909C732.692 112.901 732.354 113.302 731.895 113.632C731.436 113.958 730.856 114.121 730.156 114.121C729.577 114.121 729.062 113.994 728.611 113.74C728.16 113.483 727.806 113.096 727.548 112.581C727.291 112.062 727.162 111.408 727.162 110.619V104.727H728.587V110.523C728.587 111.199 728.776 111.738 729.154 112.141C729.536 112.543 730.023 112.744 730.615 112.744C730.969 112.744 731.329 112.654 731.696 112.473C732.066 112.292 732.376 112.014 732.625 111.64C732.879 111.265 733.006 110.788 733.006 110.209ZM737.04 114V104.727H738.465V114H737.04ZM737.764 103.182C737.487 103.182 737.247 103.087 737.046 102.898C736.849 102.709 736.75 102.482 736.75 102.216C736.75 101.95 736.849 101.723 737.046 101.534C737.247 101.345 737.487 101.25 737.764 101.25C738.042 101.25 738.279 101.345 738.477 101.534C738.678 101.723 738.778 101.95 738.778 102.216C738.778 102.482 738.678 102.709 738.477 102.898C738.279 103.087 738.042 103.182 737.764 103.182ZM744.575 114.193C743.803 114.193 743.121 113.998 742.529 113.608C741.937 113.213 741.474 112.658 741.14 111.941C740.806 111.221 740.639 110.37 740.639 109.388C740.639 108.414 740.806 107.569 741.14 106.852C741.474 106.136 741.939 105.583 742.535 105.192C743.131 104.802 743.819 104.607 744.6 104.607C745.203 104.607 745.68 104.707 746.03 104.908C746.384 105.106 746.654 105.331 746.839 105.585C747.028 105.834 747.175 106.039 747.28 106.2H747.401V101.636H748.825V114H747.449V112.575H747.28C747.175 112.744 747.026 112.958 746.833 113.215C746.64 113.469 746.364 113.696 746.006 113.897C745.648 114.095 745.171 114.193 744.575 114.193ZM744.769 112.913C745.34 112.913 745.823 112.764 746.217 112.467C746.612 112.165 746.912 111.748 747.117 111.217C747.322 110.682 747.425 110.064 747.425 109.364C747.425 108.671 747.324 108.066 747.123 107.547C746.922 107.023 746.624 106.617 746.23 106.327C745.835 106.033 745.348 105.886 744.769 105.886C744.165 105.886 743.662 106.041 743.259 106.351C742.861 106.657 742.561 107.074 742.36 107.601C742.163 108.124 742.064 108.712 742.064 109.364C742.064 110.024 742.165 110.623 742.366 111.163C742.571 111.698 742.873 112.125 743.271 112.442C743.674 112.756 744.173 112.913 744.769 112.913Z" fill="white"/>
<rect x="812" width="80" height="80" rx="40" fill="white"/>
<g clip-path="url(#clip1_507_17829)">
<path d="M828.005 54.9934L833.623 61.5566L834.129 60.9584V18.9793L833.623 18.345L828.005 24.9057V54.9934Z" fill="#1A476F"/>
<path d="M833.624 61.5565L844.36 66.9066L844.806 66.1904L844.814 13.5606L844.367 13L833.624 18.3329V61.5565Z" fill="#1F5B98"/>
<path d="M875.995 24.9057L870.375 18.345L869.746 18.5434L869.871 61.0209L870.375 61.5566L875.995 54.9942V24.9057Z" fill="#2D72B8"/>
<path d="M859.639 66.9066L870.374 61.5565V18.3329L859.631 13L859.123 13.6852L859.13 66.128L859.639 66.9066Z" fill="#5294CF"/>
<path d="M844.368 13H859.632V66.9073H844.368V13Z" fill="#2D72B8"/>
</g>
<path d="M802.216 114H800.646L805.186 101.636H806.731L811.271 114H809.701L806.007 103.592H805.91L802.216 114ZM802.795 109.17H809.122V110.499H802.795V109.17ZM813.004 114V104.727H814.38V106.176H814.501C814.694 105.681 815.006 105.297 815.437 105.023C815.867 104.745 816.384 104.607 816.988 104.607C817.6 104.607 818.109 104.745 818.515 105.023C818.926 105.297 819.246 105.681 819.475 106.176H819.572C819.809 105.697 820.165 105.317 820.64 105.035C821.115 104.749 821.685 104.607 822.349 104.607C823.178 104.607 823.856 104.866 824.383 105.385C824.911 105.9 825.174 106.703 825.174 107.794V114H823.749V107.794C823.749 107.11 823.562 106.621 823.188 106.327C822.814 106.033 822.373 105.886 821.866 105.886C821.214 105.886 820.709 106.084 820.351 106.478C819.992 106.868 819.813 107.363 819.813 107.963V114H818.364V107.649C818.364 107.122 818.193 106.697 817.851 106.375C817.509 106.049 817.069 105.886 816.529 105.886C816.159 105.886 815.813 105.985 815.491 106.182C815.173 106.379 814.915 106.653 814.718 107.003C814.525 107.349 814.428 107.75 814.428 108.205V114H813.004ZM830.508 114.217C829.92 114.217 829.387 114.107 828.908 113.885C828.429 113.66 828.049 113.336 827.767 112.913C827.485 112.487 827.344 111.972 827.344 111.368C827.344 110.837 827.449 110.406 827.658 110.076C827.868 109.742 828.147 109.48 828.497 109.291C828.848 109.102 829.234 108.961 829.657 108.869C830.083 108.772 830.512 108.696 830.942 108.639C831.506 108.567 831.963 108.512 832.313 108.476C832.667 108.436 832.925 108.37 833.086 108.277C833.251 108.184 833.333 108.023 833.333 107.794V107.746C833.333 107.15 833.17 106.687 832.844 106.357C832.522 106.027 832.033 105.862 831.377 105.862C830.697 105.862 830.164 106.011 829.777 106.309C829.391 106.607 829.119 106.925 828.962 107.263L827.61 106.78C827.852 106.216 828.173 105.778 828.576 105.464C828.982 105.146 829.425 104.924 829.904 104.8C830.387 104.671 830.862 104.607 831.329 104.607C831.627 104.607 831.969 104.643 832.355 104.715C832.745 104.784 833.122 104.926 833.484 105.144C833.85 105.361 834.154 105.689 834.396 106.128C834.637 106.567 834.758 107.154 834.758 107.891V114H833.333V112.744H833.261C833.164 112.946 833.003 113.161 832.778 113.39C832.552 113.62 832.252 113.815 831.878 113.976C831.504 114.137 831.047 114.217 830.508 114.217ZM830.725 112.938C831.289 112.938 831.763 112.827 832.15 112.605C832.54 112.384 832.834 112.098 833.031 111.748C833.232 111.398 833.333 111.03 833.333 110.643V109.339C833.273 109.412 833.14 109.478 832.935 109.539C832.733 109.595 832.5 109.645 832.234 109.69C831.973 109.73 831.717 109.766 831.468 109.798C831.222 109.826 831.023 109.851 830.87 109.871C830.5 109.919 830.154 109.998 829.832 110.106C829.514 110.211 829.256 110.37 829.059 110.583C828.866 110.792 828.769 111.078 828.769 111.44C828.769 111.935 828.952 112.31 829.318 112.563C829.689 112.813 830.158 112.938 830.725 112.938ZM837.093 114V112.913L842.357 106.152V106.055H837.262V104.727H844.192V105.862L839.073 112.575V112.672H844.361V114H837.093ZM850.057 114.193C849.22 114.193 848.485 113.994 847.853 113.596C847.226 113.197 846.735 112.64 846.38 111.923C846.03 111.207 845.855 110.37 845.855 109.412C845.855 108.446 846.03 107.603 846.38 106.882C846.735 106.162 847.226 105.603 847.853 105.204C848.485 104.806 849.22 104.607 850.057 104.607C850.894 104.607 851.626 104.806 852.254 105.204C852.886 105.603 853.377 106.162 853.727 106.882C854.081 107.603 854.259 108.446 854.259 109.412C854.259 110.37 854.081 111.207 853.727 111.923C853.377 112.64 852.886 113.197 852.254 113.596C851.626 113.994 850.894 114.193 850.057 114.193ZM850.057 112.913C850.693 112.913 851.216 112.75 851.626 112.424C852.037 112.098 852.341 111.67 852.538 111.138C852.735 110.607 852.834 110.032 852.834 109.412C852.834 108.792 852.735 108.215 852.538 107.679C852.341 107.144 852.037 106.711 851.626 106.381C851.216 106.051 850.693 105.886 850.057 105.886C849.421 105.886 848.898 106.051 848.487 106.381C848.077 106.711 847.773 107.144 847.576 107.679C847.378 108.215 847.28 108.792 847.28 109.412C847.28 110.032 847.378 110.607 847.576 111.138C847.773 111.67 848.077 112.098 848.487 112.424C848.898 112.75 849.421 112.913 850.057 112.913ZM857.858 108.422V114H856.433V104.727H857.81V106.176H857.931C858.148 105.705 858.478 105.327 858.921 105.041C859.363 104.751 859.935 104.607 860.635 104.607C861.263 104.607 861.812 104.735 862.283 104.993C862.754 105.246 863.12 105.633 863.382 106.152C863.643 106.667 863.774 107.319 863.774 108.108V114H862.35V108.205C862.35 107.476 862.16 106.909 861.782 106.502C861.404 106.092 860.885 105.886 860.225 105.886C859.77 105.886 859.363 105.985 859.005 106.182C858.651 106.379 858.371 106.667 858.166 107.045C857.961 107.424 857.858 107.883 857.858 108.422ZM871.352 114V101.636H875.53C876.496 101.636 877.288 101.801 877.908 102.131C878.528 102.457 878.987 102.906 879.285 103.478C879.582 104.049 879.731 104.699 879.731 105.428C879.731 106.156 879.582 106.802 879.285 107.365C878.987 107.929 878.53 108.372 877.914 108.694C877.299 109.011 876.512 109.17 875.554 109.17H872.173V107.818H875.506C876.166 107.818 876.697 107.722 877.099 107.528C877.506 107.335 877.8 107.062 877.981 106.707C878.166 106.349 878.258 105.923 878.258 105.428C878.258 104.933 878.166 104.5 877.981 104.13C877.796 103.759 877.5 103.474 877.093 103.272C876.687 103.067 876.149 102.964 875.481 102.964H872.849V114H871.352ZM877.172 108.446L880.214 114H878.476L875.481 108.446H877.172ZM886.042 114H882.226V101.636H886.211C887.41 101.636 888.436 101.884 889.289 102.379C890.143 102.87 890.797 103.576 891.251 104.498C891.706 105.415 891.934 106.514 891.934 107.794C891.934 109.082 891.704 110.191 891.245 111.12C890.787 112.046 890.118 112.758 889.241 113.257C888.364 113.752 887.297 114 886.042 114ZM883.723 112.672H885.945C886.967 112.672 887.814 112.475 888.486 112.08C889.159 111.686 889.66 111.124 889.99 110.396C890.32 109.667 890.485 108.8 890.485 107.794C890.485 106.796 890.322 105.937 889.996 105.216C889.67 104.492 889.183 103.936 888.535 103.55C887.887 103.16 887.08 102.964 886.114 102.964H883.723V112.672ZM901.206 104.727C901.134 104.116 900.84 103.641 900.325 103.303C899.81 102.964 899.178 102.795 898.429 102.795C897.882 102.795 897.403 102.884 896.992 103.061C896.586 103.238 896.268 103.482 896.039 103.792C895.813 104.101 895.701 104.454 895.701 104.848C895.701 105.178 895.779 105.462 895.936 105.699C896.097 105.933 896.302 106.128 896.552 106.285C896.801 106.438 897.063 106.565 897.337 106.665C897.61 106.762 897.862 106.84 898.091 106.901L899.347 107.239C899.669 107.323 900.027 107.44 900.421 107.589C900.82 107.738 901.2 107.941 901.562 108.199C901.929 108.452 902.231 108.778 902.468 109.176C902.705 109.575 902.824 110.064 902.824 110.643C902.824 111.312 902.649 111.915 902.299 112.455C901.953 112.994 901.446 113.422 900.778 113.74C900.114 114.058 899.307 114.217 898.357 114.217C897.471 114.217 896.705 114.074 896.057 113.789C895.413 113.503 894.906 113.105 894.535 112.593C894.169 112.082 893.962 111.489 893.914 110.812H895.459C895.499 111.279 895.656 111.666 895.93 111.972C896.208 112.273 896.558 112.499 896.98 112.648C897.407 112.793 897.866 112.865 898.357 112.865C898.928 112.865 899.441 112.772 899.896 112.587C900.351 112.398 900.711 112.137 900.977 111.803C901.242 111.464 901.375 111.07 901.375 110.619C901.375 110.209 901.261 109.875 901.031 109.617C900.802 109.36 900.5 109.15 900.126 108.989C899.751 108.828 899.347 108.687 898.912 108.567L897.391 108.132C896.425 107.854 895.66 107.458 895.097 106.943C894.533 106.428 894.252 105.754 894.252 104.92C894.252 104.228 894.439 103.625 894.813 103.109C895.191 102.59 895.699 102.188 896.334 101.902C896.974 101.612 897.689 101.467 898.478 101.467C899.274 101.467 899.983 101.61 900.603 101.896C901.222 102.178 901.713 102.564 902.076 103.055C902.442 103.546 902.635 104.103 902.655 104.727H901.206Z" fill="white"/>
<rect x="968" width="80" height="80" rx="40" fill="#173361"/>
<g clip-path="url(#clip2_507_17829)">
<path fill-rule="evenodd" clip-rule="evenodd" d="M1018.38 41.3395C1019.61 41.2278 1020.84 41.2278 1022.07 41.1162V40.2232C1020.84 40.1116 1019.61 40.1116 1018.38 39.9999L1014.7 39.8883C1012.58 39.7767 1010.34 39.7767 1008.22 39.7767C1008.22 37.6557 1008.22 35.4232 1008.11 33.3023L1008 29.6185C1007.89 28.3906 1007.89 27.1627 1007.78 25.9348H1006.77C1006.66 27.1627 1006.66 28.3906 1006.55 29.6185L1006.44 33.3023C1006.44 34.3069 1006.44 35.3116 1006.44 36.3162C1005.99 35.4232 1005.66 34.4185 1005.21 33.5255L1003.65 30.1767C1003.09 29.0604 1002.64 27.9441 1002.08 26.8278L1001.19 27.1627C1001.64 28.3906 1001.97 29.5069 1002.42 30.6232L1003.76 34.0837C1004.09 35.0883 1004.54 35.9813 1004.87 36.986C1004.09 36.3162 1003.42 35.5348 1002.64 34.865L999.963 32.2976C999.07 31.5162 998.177 30.6232 997.172 29.8418L996.391 30.6232C997.172 31.5162 998.065 32.4092 998.846 33.4139L1001.41 36.093C1002.08 36.8744 1002.87 37.5441 1003.53 38.3255C1002.64 37.9906 1001.64 37.5441 1000.63 37.2092L997.172 35.8697C996.056 35.4232 994.828 34.9767 993.712 34.6418L993.265 35.6464C994.381 36.2046 995.498 36.6511 996.614 37.2092L999.963 38.772C1000.86 39.2185 1001.86 39.5534 1002.75 39.9999C1001.75 39.9999 1000.74 39.9999 999.74 39.9999L996.056 40.1116C994.828 40.2232 993.6 40.2232 992.372 40.3348V41.3395C993.6 41.4511 994.828 41.4511 996.056 41.5627L999.74 41.6744C1001.97 41.786 1004.09 41.786 1006.21 41.786C1006.21 43.9069 1006.21 46.1395 1006.33 48.2604L1006.44 51.9441C1006.55 53.172 1006.55 54.3999 1006.66 55.6278H1007.55C1007.67 54.3999 1007.67 53.172 1007.78 51.9441L1007.89 48.2604C1007.89 47.2557 1007.89 46.1395 1008 45.1348C1008.45 46.1395 1008.78 47.0325 1009.23 48.0371L1010.79 51.386C1011.35 52.5023 1011.8 53.6185 1012.35 54.7348L1013.25 54.3999C1012.91 53.172 1012.47 52.0557 1012.02 50.9395L1010.9 47.2557C1010.57 46.2511 1010.12 45.3581 1009.79 44.3534C1010.57 45.1348 1011.24 45.8046 1012.02 46.4743L1014.7 49.0418C1015.59 49.8232 1016.48 50.7162 1017.49 51.4976L1018.16 50.8278C1017.38 49.9348 1016.48 49.0418 1015.7 48.0371L1013.13 45.3581C1012.47 44.5767 1011.68 43.7953 1011.01 43.1255C1012.02 43.4604 1012.91 43.9069 1013.92 44.2418L1017.38 45.5813C1018.49 46.0278 1019.72 46.4744 1020.84 46.8092L1021.17 45.9162C1020.06 45.3581 1018.94 44.7999 1017.82 44.3534L1014.47 42.7906C1013.47 42.3441 1012.58 41.8976 1011.57 41.5627C1012.58 41.5627 1013.69 41.5627 1014.7 41.4511L1018.38 41.3395Z" fill="white"/>
<path fill-rule="evenodd" clip-rule="evenodd" d="M1008 64C994.716 64 984 53.2837 984 40C984 26.7163 994.716 16 1008 16C1021.28 16 1032 26.7163 1032 40C1032 53.2837 1021.28 64 1008 64ZM1008 18.2326C996.056 18.2326 986.233 28.0558 986.233 40C986.233 51.9442 996.056 61.7674 1008 61.7674C1019.94 61.7674 1029.77 51.9442 1029.77 40C1029.77 28.0558 1019.94 18.2326 1008 18.2326Z" fill="white"/>
</g>
<path d="M980.192 105.5H978.694C978.606 105.069 978.451 104.691 978.23 104.365C978.012 104.039 977.747 103.765 977.433 103.544C977.123 103.319 976.779 103.15 976.4 103.037C976.022 102.924 975.628 102.868 975.217 102.868C974.469 102.868 973.79 103.057 973.183 103.435C972.579 103.814 972.098 104.371 971.74 105.108C971.386 105.844 971.209 106.748 971.209 107.818C971.209 108.889 971.386 109.792 971.74 110.529C972.098 111.265 972.579 111.823 973.183 112.201C973.79 112.579 974.469 112.768 975.217 112.768C975.628 112.768 976.022 112.712 976.4 112.599C976.779 112.487 977.123 112.32 977.433 112.098C977.747 111.873 978.012 111.597 978.23 111.271C978.451 110.941 978.606 110.563 978.694 110.136H980.192C980.079 110.768 979.874 111.334 979.576 111.833C979.278 112.332 978.908 112.756 978.465 113.107C978.022 113.453 977.525 113.716 976.974 113.897C976.427 114.078 975.841 114.169 975.217 114.169C974.163 114.169 973.225 113.911 972.404 113.396C971.583 112.881 970.937 112.149 970.466 111.199C969.995 110.249 969.76 109.122 969.76 107.818C969.76 106.514 969.995 105.387 970.466 104.438C970.937 103.488 971.583 102.755 972.404 102.24C973.225 101.725 974.163 101.467 975.217 101.467C975.841 101.467 976.427 101.558 976.974 101.739C977.525 101.92 978.022 102.186 978.465 102.536C978.908 102.882 979.278 103.305 979.576 103.804C979.874 104.299 980.079 104.864 980.192 105.5ZM986.185 114.193C985.348 114.193 984.613 113.994 983.981 113.596C983.353 113.197 982.862 112.64 982.508 111.923C982.158 111.207 981.983 110.37 981.983 109.412C981.983 108.446 982.158 107.603 982.508 106.882C982.862 106.162 983.353 105.603 983.981 105.204C984.613 104.806 985.348 104.607 986.185 104.607C987.022 104.607 987.754 104.806 988.382 105.204C989.014 105.603 989.505 106.162 989.855 106.882C990.209 107.603 990.386 108.446 990.386 109.412C990.386 110.37 990.209 111.207 989.855 111.923C989.505 112.64 989.014 113.197 988.382 113.596C987.754 113.994 987.022 114.193 986.185 114.193ZM986.185 112.913C986.821 112.913 987.344 112.75 987.754 112.424C988.165 112.098 988.469 111.67 988.666 111.138C988.863 110.607 988.962 110.032 988.962 109.412C988.962 108.792 988.863 108.215 988.666 107.679C988.469 107.144 988.165 106.711 987.754 106.381C987.344 106.051 986.821 105.886 986.185 105.886C985.549 105.886 985.026 106.051 984.615 106.381C984.205 106.711 983.901 107.144 983.704 107.679C983.506 108.215 983.408 108.792 983.408 109.412C983.408 110.032 983.506 110.607 983.704 111.138C983.901 111.67 984.205 112.098 984.615 112.424C985.026 112.75 985.549 112.913 986.185 112.913ZM993.986 108.422V114H992.561V104.727H993.938V106.176H994.058C994.276 105.705 994.606 105.327 995.049 105.041C995.491 104.751 996.063 104.607 996.763 104.607C997.391 104.607 997.94 104.735 998.411 104.993C998.882 105.246 999.248 105.633 999.51 106.152C999.771 106.667 999.902 107.319 999.902 108.108V114H998.477V108.205C998.477 107.476 998.288 106.909 997.91 106.502C997.532 106.092 997.013 105.886 996.352 105.886C995.898 105.886 995.491 105.985 995.133 106.182C994.779 106.379 994.499 106.667 994.294 107.045C994.089 107.424 993.986 107.883 993.986 108.422ZM1006.63 104.727V105.935H1001.64V104.727H1006.63ZM1003.13 114V103.447C1003.13 102.916 1003.26 102.473 1003.51 102.119C1003.76 101.765 1004.08 101.5 1004.48 101.322C1004.88 101.145 1005.3 101.057 1005.74 101.057C1006.09 101.057 1006.38 101.085 1006.6 101.141C1006.82 101.198 1006.99 101.25 1007.09 101.298L1006.68 102.53C1006.61 102.506 1006.51 102.475 1006.38 102.439C1006.26 102.403 1006.09 102.385 1005.89 102.385C1005.42 102.385 1005.08 102.504 1004.87 102.741C1004.66 102.979 1004.56 103.327 1004.56 103.786V114H1003.13ZM1010.06 101.636V114H1008.63V101.636H1010.06ZM1018.51 110.209V104.727H1019.93V114H1018.51V112.43H1018.41C1018.2 112.901 1017.86 113.302 1017.4 113.632C1016.94 113.958 1016.36 114.121 1015.66 114.121C1015.08 114.121 1014.57 113.994 1014.11 113.74C1013.66 113.483 1013.31 113.096 1013.05 112.581C1012.79 112.062 1012.67 111.408 1012.67 110.619V104.727H1014.09V110.523C1014.09 111.199 1014.28 111.738 1014.66 112.141C1015.04 112.543 1015.53 112.744 1016.12 112.744C1016.47 112.744 1016.83 112.654 1017.2 112.473C1017.57 112.292 1017.88 112.014 1018.13 111.64C1018.38 111.265 1018.51 110.788 1018.51 110.209ZM1026.43 114.193C1025.54 114.193 1024.77 113.996 1024.12 113.602C1023.48 113.203 1022.98 112.648 1022.63 111.935C1022.28 111.219 1022.11 110.386 1022.11 109.436C1022.11 108.486 1022.28 107.649 1022.63 106.925C1022.98 106.196 1023.47 105.629 1024.09 105.222C1024.72 104.812 1025.45 104.607 1026.29 104.607C1026.77 104.607 1027.25 104.687 1027.72 104.848C1028.19 105.009 1028.62 105.271 1029 105.633C1029.39 105.991 1029.7 106.466 1029.93 107.058C1030.16 107.649 1030.27 108.378 1030.27 109.243V109.847H1023.12V108.615H1028.82C1028.82 108.092 1028.72 107.625 1028.51 107.214C1028.3 106.804 1028.01 106.48 1027.63 106.243C1027.25 106.005 1026.8 105.886 1026.29 105.886C1025.72 105.886 1025.23 106.027 1024.81 106.309C1024.4 106.587 1024.09 106.949 1023.87 107.396C1023.64 107.842 1023.53 108.321 1023.53 108.832V109.653C1023.53 110.354 1023.65 110.947 1023.9 111.434C1024.14 111.917 1024.48 112.286 1024.92 112.539C1025.35 112.789 1025.86 112.913 1026.43 112.913C1026.81 112.913 1027.14 112.861 1027.45 112.756C1027.75 112.648 1028.02 112.487 1028.24 112.273C1028.46 112.056 1028.63 111.786 1028.75 111.464L1030.13 111.851C1029.98 112.318 1029.74 112.728 1029.4 113.082C1029.05 113.433 1028.63 113.706 1028.13 113.903C1027.62 114.097 1027.06 114.193 1026.43 114.193ZM1033.86 108.422V114H1032.44V104.727H1033.81V106.176H1033.94C1034.15 105.705 1034.48 105.327 1034.93 105.041C1035.37 104.751 1035.94 104.607 1036.64 104.607C1037.27 104.607 1037.82 104.735 1038.29 104.993C1038.76 105.246 1039.13 105.633 1039.39 106.152C1039.65 106.667 1039.78 107.319 1039.78 108.108V114H1038.35V108.205C1038.35 107.476 1038.17 106.909 1037.79 106.502C1037.41 106.092 1036.89 105.886 1036.23 105.886C1035.77 105.886 1035.37 105.985 1035.01 106.182C1034.66 106.379 1034.38 106.667 1034.17 107.045C1033.97 107.424 1033.86 107.883 1033.86 108.422ZM1046.42 104.727V105.935H1041.61V104.727H1046.42ZM1043.01 102.506H1044.44V111.344C1044.44 111.746 1044.49 112.048 1044.61 112.249C1044.73 112.446 1044.88 112.579 1045.07 112.648C1045.26 112.712 1045.46 112.744 1045.67 112.744C1045.82 112.744 1045.95 112.736 1046.05 112.72C1046.15 112.7 1046.23 112.684 1046.29 112.672L1046.58 113.952C1046.49 113.988 1046.35 114.024 1046.18 114.06C1046.01 114.101 1045.79 114.121 1045.52 114.121C1045.12 114.121 1044.72 114.034 1044.34 113.861C1043.96 113.688 1043.64 113.424 1043.38 113.07C1043.14 112.716 1043.01 112.269 1043.01 111.73V102.506Z" fill="white"/>
<defs>
<clipPath id="clip0_507_17829">
<rect width="40" height="35.552" fill="white" transform="translate(53 22.2241)"/>
</clipPath>
<clipPath id="clip1_507_17829">
<rect width="48" height="54" fill="white" transform="translate(828 13)"/>
</clipPath>
<clipPath id="clip2_507_17829">
<rect width="48" height="48" fill="white" transform="translate(984 16)"/>
</clipPath>
</defs>
</svg>
