<svg width="600" height="304" viewBox="0 0 600 304" fill="none" xmlns="http://www.w3.org/2000/svg">
<rect x="41" width="80" height="80" rx="40" fill="#FFE435"/>
<g clip-path="url(#clip0_507_17830)">
<path d="M62.002 53.3315H66.446V57.7755H62.002V53.3315Z" fill="#222222"/>
<path d="M62.002 22.2241H66.446V53.3321H62.002V22.2241ZM70.89 22.2241H75.334V57.7761H70.89V22.2241ZM79.778 22.2241H84.222V57.7761H79.778V22.2241ZM88.666 22.2241H93.11V57.7761H88.666V22.2241ZM97.554 36.6671H101.998V43.3331H97.554V36.6671Z" fill="#222222"/>
</g>
<path d="M21.2834 105.5H19.7863C19.6977 105.069 19.5428 104.691 19.3214 104.365C19.1041 104.039 18.8385 103.765 18.5245 103.544C18.2147 103.319 17.8705 103.15 17.4922 103.037C17.1139 102.924 16.7195 102.868 16.309 102.868C15.5604 102.868 14.8823 103.057 14.2745 103.435C13.6709 103.814 13.1899 104.371 12.8317 105.108C12.4776 105.844 12.3005 106.748 12.3005 107.818C12.3005 108.889 12.4776 109.792 12.8317 110.529C13.1899 111.265 13.6709 111.823 14.2745 112.201C14.8823 112.579 15.5604 112.768 16.309 112.768C16.7195 112.768 17.1139 112.712 17.4922 112.599C17.8705 112.487 18.2147 112.32 18.5245 112.098C18.8385 111.873 19.1041 111.597 19.3214 111.271C19.5428 110.941 19.6977 110.563 19.7863 110.136H21.2834C21.1707 110.768 20.9655 111.334 20.6677 111.833C20.3698 112.332 19.9996 112.756 19.5569 113.107C19.1142 113.453 18.6171 113.716 18.0657 113.897C17.5184 114.078 16.9328 114.169 16.309 114.169C15.2545 114.169 14.3168 113.911 13.4958 113.396C12.6748 112.881 12.0288 112.149 11.5579 111.199C11.087 110.249 10.8516 109.122 10.8516 107.818C10.8516 106.514 11.087 105.387 11.5579 104.438C12.0288 103.488 12.6748 102.755 13.4958 102.24C14.3168 101.725 15.2545 101.467 16.309 101.467C16.9328 101.467 17.5184 101.558 18.0657 101.739C18.6171 101.92 19.1142 102.186 19.5569 102.536C19.9996 102.882 20.3698 103.305 20.6677 103.804C20.9655 104.299 21.1707 104.864 21.2834 105.5ZM24.9343 101.636V114H23.5095V101.636H24.9343ZM27.5437 114V104.727H28.9684V114H27.5437ZM28.2682 103.182C27.9905 103.182 27.751 103.087 27.5498 102.898C27.3526 102.709 27.254 102.482 27.254 102.216C27.254 101.95 27.3526 101.723 27.5498 101.534C27.751 101.345 27.9905 101.25 28.2682 101.25C28.5459 101.25 28.7833 101.345 28.9805 101.534C29.1817 101.723 29.2824 101.95 29.2824 102.216C29.2824 102.482 29.1817 102.709 28.9805 102.898C28.7833 103.087 28.5459 103.182 28.2682 103.182ZM35.3449 114.193C34.4756 114.193 33.7271 113.988 33.0992 113.577C32.4714 113.167 31.9884 112.601 31.6503 111.881C31.3123 111.161 31.1432 110.338 31.1432 109.412C31.1432 108.47 31.3163 107.639 31.6624 106.919C32.0126 106.194 32.4995 105.629 33.1234 105.222C33.7512 104.812 34.4837 104.607 35.3208 104.607C35.9728 104.607 36.5604 104.727 37.0836 104.969C37.6068 105.21 38.0354 105.548 38.3695 105.983C38.7035 106.418 38.9108 106.925 38.9913 107.504H37.5665C37.4579 107.082 37.2164 106.707 36.8421 106.381C36.4718 106.051 35.9728 105.886 35.3449 105.886C34.7896 105.886 34.3026 106.031 33.884 106.321C33.4695 106.607 33.1455 107.011 32.9121 107.534C32.6827 108.054 32.568 108.663 32.568 109.364C32.568 110.08 32.6806 110.704 32.906 111.235C33.1354 111.766 33.4574 112.179 33.8719 112.473C34.2905 112.766 34.7815 112.913 35.3449 112.913C35.7152 112.913 36.0513 112.849 36.3531 112.72C36.655 112.591 36.9105 112.406 37.1198 112.165C37.3291 111.923 37.478 111.634 37.5665 111.295H38.9913C38.9108 111.843 38.7115 112.336 38.3936 112.775C38.0797 113.209 37.6631 113.555 37.144 113.813C36.6288 114.066 36.0291 114.193 35.3449 114.193ZM42.4021 110.619L42.378 108.857H42.6677L46.7246 104.727H48.4873L44.1649 109.098H44.0442L42.4021 110.619ZM41.074 114V101.636H42.4987V114H41.074ZM46.966 114L43.3439 109.412L44.3581 108.422L48.7771 114H46.966ZM50.5142 114V101.636H52.0114V107.142H58.6037V101.636H60.1009V114H58.6037V108.47H52.0114V114H50.5142ZM66.6721 114.193C65.835 114.193 65.1005 113.994 64.4686 113.596C63.8408 113.197 63.3498 112.64 62.9956 111.923C62.6455 111.207 62.4704 110.37 62.4704 109.412C62.4704 108.446 62.6455 107.603 62.9956 106.882C63.3498 106.162 63.8408 105.603 64.4686 105.204C65.1005 104.806 65.835 104.607 66.6721 104.607C67.5092 104.607 68.2417 104.806 68.8695 105.204C69.5014 105.603 69.9924 106.162 70.3426 106.882C70.6967 107.603 70.8738 108.446 70.8738 109.412C70.8738 110.37 70.6967 111.207 70.3426 111.923C69.9924 112.64 69.5014 113.197 68.8695 113.596C68.2417 113.994 67.5092 114.193 66.6721 114.193ZM66.6721 112.913C67.308 112.913 67.8312 112.75 68.2417 112.424C68.6522 112.098 68.9561 111.67 69.1533 111.138C69.3505 110.607 69.4491 110.032 69.4491 109.412C69.4491 108.792 69.3505 108.215 69.1533 107.679C68.9561 107.144 68.6522 106.711 68.2417 106.381C67.8312 106.051 67.308 105.886 66.6721 105.886C66.0362 105.886 65.513 106.051 65.1025 106.381C64.692 106.711 64.3881 107.144 64.1909 107.679C63.9937 108.215 63.8951 108.792 63.8951 109.412C63.8951 110.032 63.9937 110.607 64.1909 111.138C64.3881 111.67 64.692 112.098 65.1025 112.424C65.513 112.75 66.0362 112.913 66.6721 112.913ZM78.8924 110.209V104.727H80.3171V114H78.8924V112.43H78.7958C78.5784 112.901 78.2404 113.302 77.7816 113.632C77.3228 113.958 76.7432 114.121 76.0429 114.121C75.4634 114.121 74.9482 113.994 74.4975 113.74C74.0467 113.483 73.6925 113.096 73.435 112.581C73.1774 112.062 73.0486 111.408 73.0486 110.619V104.727H74.4733V110.523C74.4733 111.199 74.6625 111.738 75.0408 112.141C75.4231 112.543 75.9101 112.744 76.5017 112.744C76.8559 112.744 77.2161 112.654 77.5823 112.473C77.9526 112.292 78.2625 112.014 78.512 111.64C78.7656 111.265 78.8924 110.788 78.8924 110.209ZM89.4947 106.804L88.2149 107.166C88.1344 106.953 88.0157 106.746 87.8587 106.544C87.7058 106.339 87.4965 106.17 87.2309 106.037C86.9652 105.904 86.6252 105.838 86.2106 105.838C85.6432 105.838 85.1703 105.969 84.7919 106.23C84.4177 106.488 84.2305 106.816 84.2305 107.214C84.2305 107.569 84.3593 107.848 84.6169 108.054C84.8745 108.259 85.2769 108.43 85.8243 108.567L87.2007 108.905C88.0298 109.106 88.6475 109.414 89.054 109.828C89.4605 110.239 89.6638 110.768 89.6638 111.416C89.6638 111.947 89.5108 112.422 89.2049 112.841C88.9031 113.259 88.4805 113.589 87.9372 113.831C87.3939 114.072 86.762 114.193 86.0416 114.193C85.0958 114.193 84.313 113.988 83.6932 113.577C83.0734 113.167 82.681 112.567 82.516 111.778L83.8683 111.44C83.9971 111.939 84.2406 112.314 84.5988 112.563C84.961 112.813 85.4339 112.938 86.0174 112.938C86.6815 112.938 87.2087 112.797 87.5991 112.515C87.9935 112.229 88.1907 111.887 88.1907 111.489C88.1907 111.167 88.0781 110.897 87.8527 110.68C87.6273 110.458 87.2812 110.293 86.8143 110.185L85.2689 109.822C84.4197 109.621 83.7959 109.309 83.3974 108.887C83.003 108.46 82.8058 107.927 82.8058 107.287C82.8058 106.764 82.9527 106.301 83.2465 105.898C83.5443 105.496 83.9488 105.18 84.4599 104.951C84.9751 104.721 85.5586 104.607 86.2106 104.607C87.1282 104.607 87.8486 104.808 88.3718 105.21C88.8991 105.613 89.2734 106.144 89.4947 106.804ZM95.6962 114.193C94.8027 114.193 94.032 113.996 93.384 113.602C92.7401 113.203 92.243 112.648 91.8929 111.935C91.5468 111.219 91.3737 110.386 91.3737 109.436C91.3737 108.486 91.5468 107.649 91.8929 106.925C92.243 106.196 92.73 105.629 93.3538 105.222C93.9817 104.812 94.7141 104.607 95.5513 104.607C96.0342 104.607 96.5111 104.687 96.982 104.848C97.4529 105.009 97.8815 105.271 98.2679 105.633C98.6543 105.991 98.9621 106.466 99.1915 107.058C99.4209 107.649 99.5356 108.378 99.5356 109.243V109.847H92.3879V108.615H98.0868C98.0868 108.092 97.9821 107.625 97.7729 107.214C97.5676 106.804 97.2738 106.48 96.8915 106.243C96.5132 106.005 96.0664 105.886 95.5513 105.886C94.9838 105.886 94.4928 106.027 94.0783 106.309C93.6677 106.587 93.3518 106.949 93.1305 107.396C92.9091 107.842 92.7984 108.321 92.7984 108.832V109.653C92.7984 110.354 92.9192 110.947 93.1606 111.434C93.4061 111.917 93.7462 112.286 94.1809 112.539C94.6155 112.789 95.1206 112.913 95.6962 112.913C96.0704 112.913 96.4085 112.861 96.7104 112.756C97.0162 112.648 97.2798 112.487 97.5012 112.273C97.7226 112.056 97.8936 111.786 98.0143 111.464L99.3908 111.851C99.2459 112.318 99.0024 112.728 98.6603 113.082C98.3182 113.433 97.8956 113.706 97.3925 113.903C96.8895 114.097 96.324 114.193 95.6962 114.193ZM116.626 105.5H115.129C115.04 105.069 114.886 104.691 114.664 104.365C114.447 104.039 114.181 103.765 113.867 103.544C113.557 103.319 113.213 103.15 112.835 103.037C112.457 102.924 112.062 102.868 111.652 102.868C110.903 102.868 110.225 103.057 109.617 103.435C109.014 103.814 108.533 104.371 108.174 105.108C107.82 105.844 107.643 106.748 107.643 107.818C107.643 108.889 107.82 109.792 108.174 110.529C108.533 111.265 109.014 111.823 109.617 112.201C110.225 112.579 110.903 112.768 111.652 112.768C112.062 112.768 112.457 112.712 112.835 112.599C113.213 112.487 113.557 112.32 113.867 112.098C114.181 111.873 114.447 111.597 114.664 111.271C114.886 110.941 115.04 110.563 115.129 110.136H116.626C116.514 110.768 116.308 111.334 116.01 111.833C115.713 112.332 115.342 112.756 114.9 113.107C114.457 113.453 113.96 113.716 113.409 113.897C112.861 114.078 112.276 114.169 111.652 114.169C110.597 114.169 109.66 113.911 108.839 113.396C108.018 112.881 107.372 112.149 106.901 111.199C106.43 110.249 106.194 109.122 106.194 107.818C106.194 106.514 106.43 105.387 106.901 104.438C107.372 103.488 108.018 102.755 108.839 102.24C109.66 101.725 110.597 101.467 111.652 101.467C112.276 101.467 112.861 101.558 113.409 101.739C113.96 101.92 114.457 102.186 114.9 102.536C115.342 102.882 115.713 103.305 116.01 103.804C116.308 104.299 116.514 104.864 116.626 105.5ZM120.277 101.636V114H118.852V101.636H120.277ZM126.654 114.193C125.816 114.193 125.082 113.994 124.45 113.596C123.822 113.197 123.331 112.64 122.977 111.923C122.627 111.207 122.452 110.37 122.452 109.412C122.452 108.446 122.627 107.603 122.977 106.882C123.331 106.162 123.822 105.603 124.45 105.204C125.082 104.806 125.816 104.607 126.654 104.607C127.491 104.607 128.223 104.806 128.851 105.204C129.483 105.603 129.974 106.162 130.324 106.882C130.678 107.603 130.855 108.446 130.855 109.412C130.855 110.37 130.678 111.207 130.324 111.923C129.974 112.64 129.483 113.197 128.851 113.596C128.223 113.994 127.491 114.193 126.654 114.193ZM126.654 112.913C127.289 112.913 127.813 112.75 128.223 112.424C128.634 112.098 128.938 111.67 129.135 111.138C129.332 110.607 129.431 110.032 129.431 109.412C129.431 108.792 129.332 108.215 129.135 107.679C128.938 107.144 128.634 106.711 128.223 106.381C127.813 106.051 127.289 105.886 126.654 105.886C126.018 105.886 125.494 106.051 125.084 106.381C124.673 106.711 124.37 107.144 124.172 107.679C123.975 108.215 123.877 108.792 123.877 109.412C123.877 110.032 123.975 110.607 124.172 111.138C124.37 111.67 124.673 112.098 125.084 112.424C125.494 112.75 126.018 112.913 126.654 112.913ZM138.874 110.209V104.727H140.299V114H138.874V112.43H138.777C138.56 112.901 138.222 113.302 137.763 113.632C137.304 113.958 136.725 114.121 136.024 114.121C135.445 114.121 134.93 113.994 134.479 113.74C134.028 113.483 133.674 113.096 133.416 112.581C133.159 112.062 133.03 111.408 133.03 110.619V104.727H134.455V110.523C134.455 111.199 134.644 111.738 135.022 112.141C135.405 112.543 135.892 112.744 136.483 112.744C136.837 112.744 137.198 112.654 137.564 112.473C137.934 112.292 138.244 112.014 138.493 111.64C138.747 111.265 138.874 110.788 138.874 110.209ZM146.409 114.193C145.637 114.193 144.955 113.998 144.363 113.608C143.771 113.213 143.308 112.658 142.974 111.941C142.64 111.221 142.473 110.37 142.473 109.388C142.473 108.414 142.64 107.569 142.974 106.852C143.308 106.136 143.773 105.583 144.369 105.192C144.965 104.802 145.653 104.607 146.434 104.607C147.037 104.607 147.514 104.707 147.864 104.908C148.218 105.106 148.488 105.331 148.673 105.585C148.862 105.834 149.009 106.039 149.114 106.2H149.235V101.636H150.659V114H149.283V112.575H149.114C149.009 112.744 148.86 112.958 148.667 113.215C148.474 113.469 148.198 113.696 147.84 113.897C147.482 114.095 147.005 114.193 146.409 114.193ZM146.603 112.913C147.174 112.913 147.657 112.764 148.051 112.467C148.446 112.165 148.746 111.748 148.951 111.217C149.156 110.682 149.259 110.064 149.259 109.364C149.259 108.671 149.158 108.066 148.957 107.547C148.756 107.023 148.458 106.617 148.064 106.327C147.669 106.033 147.182 105.886 146.603 105.886C145.999 105.886 145.496 106.041 145.093 106.351C144.695 106.657 144.395 107.074 144.194 107.601C143.997 108.124 143.898 108.712 143.898 109.364C143.898 110.024 143.999 110.623 144.2 111.163C144.405 111.698 144.707 112.125 145.105 112.442C145.508 112.756 146.007 112.913 146.603 112.913Z" fill="white"/>
<circle cx="227" cy="40" r="40" fill="#336791"/>
<path d="M225.953 50.4661C225.79 56.271 225.993 62.1163 226.561 63.5369C227.13 64.9576 228.346 67.7207 232.528 66.8247C236.023 66.0756 237.294 64.6259 237.846 61.426C238.252 59.0718 239.035 52.5335 239.136 51.1938" stroke="white" stroke-width="1.4" stroke-linecap="round" stroke-linejoin="round"/>
<path d="M220.94 21.3658C220.94 21.3658 202.004 13.6265 202.884 31.2261C203.071 34.9703 208.251 59.5571 214.429 52.1306C216.686 49.4148 218.728 47.2848 218.728 47.2848" stroke="white" stroke-width="1.4" stroke-linecap="round" stroke-linejoin="round"/>
<path d="M231.167 19.9532C230.512 20.1587 241.7 15.863 248.059 23.988C250.305 26.8583 247.702 38.5857 241.476 47.8248" stroke="white" stroke-width="1.4" stroke-linecap="round" stroke-linejoin="round"/>
<path d="M241.476 47.8247C241.476 47.8247 241.882 49.8219 247.779 48.6046C250.363 48.071 248.808 50.1022 246.187 51.3192C244.037 52.3173 239.215 52.5731 239.136 51.1938C238.933 47.6352 241.674 48.7164 241.476 47.8247ZM241.476 47.8247C241.297 47.0216 240.072 46.2335 239.261 44.2681C238.553 42.5526 229.555 29.3972 241.757 31.351C242.204 31.2585 238.574 19.7447 227.155 19.5575C215.738 19.3703 216.113 33.5975 216.113 33.5975" stroke="white" stroke-width="1.4" stroke-linecap="round" stroke-linejoin="bevel"/>
<path d="M222.757 49.0417C221.165 50.8197 221.633 51.1319 218.452 51.787C215.233 52.4505 217.124 53.6314 218.358 53.9399C219.855 54.3145 223.318 54.8448 225.658 51.5684C226.37 50.5709 225.654 48.9792 224.675 48.5735C224.202 48.3776 223.57 48.1321 222.757 49.0417Z" stroke="white" stroke-width="1.4" stroke-linecap="round" stroke-linejoin="round"/>
<path d="M222.653 49.0107C222.492 47.9653 222.996 46.7213 223.536 45.266C224.348 43.0824 226.22 40.8985 224.722 33.9719C223.606 28.8103 216.118 32.8977 216.113 33.5976C216.108 34.2972 216.452 37.1451 215.988 40.4613C215.383 44.7888 218.741 48.4486 222.609 48.0742" stroke="white" stroke-width="1.4" stroke-linecap="round" stroke-linejoin="round"/>
<path d="M220.602 33.7169C220.569 33.9559 221.04 34.5938 221.655 34.679C222.268 34.7646 222.793 34.2661 222.827 34.0273C222.86 33.7883 222.389 33.525 221.774 33.4394C221.16 33.3537 220.635 33.4784 220.602 33.7169Z" stroke="white" stroke-width="1.3"/>
<path d="M239.796 33.3763C239.829 33.6153 239.359 34.2532 238.744 34.3384C238.13 34.424 237.605 33.9255 237.571 33.6867C237.538 33.4477 238.009 33.1844 238.624 33.0988C239.238 33.0132 239.763 33.1377 239.796 33.3763Z" stroke="white" stroke-width="1.3"/>
<path d="M241.757 31.3511C241.858 33.2261 241.353 34.5032 241.289 36.4992C241.195 39.4005 242.673 42.7213 240.446 46.0461" stroke="white" stroke-width="1.4" stroke-linecap="round" stroke-linejoin="round"/>
<path d="M180.676 114V101.636H184.854C185.824 101.636 186.617 101.811 187.232 102.162C187.852 102.508 188.311 102.977 188.609 103.568C188.907 104.16 189.056 104.82 189.056 105.548C189.056 106.277 188.907 106.939 188.609 107.534C188.315 108.13 187.86 108.605 187.245 108.959C186.629 109.309 185.84 109.484 184.878 109.484H181.884V108.156H184.83C185.494 108.156 186.027 108.042 186.43 107.812C186.832 107.583 187.124 107.273 187.305 106.882C187.49 106.488 187.583 106.043 187.583 105.548C187.583 105.053 187.49 104.611 187.305 104.22C187.124 103.83 186.83 103.524 186.424 103.303C186.017 103.077 185.478 102.964 184.806 102.964H182.174V114H180.676ZM194.942 114.193C194.105 114.193 193.37 113.994 192.738 113.596C192.11 113.197 191.619 112.64 191.265 111.923C190.915 111.207 190.74 110.37 190.74 109.412C190.74 108.446 190.915 107.603 191.265 106.882C191.619 106.162 192.11 105.603 192.738 105.204C193.37 104.806 194.105 104.607 194.942 104.607C195.779 104.607 196.511 104.806 197.139 105.204C197.771 105.603 198.262 106.162 198.612 106.882C198.966 107.603 199.143 108.446 199.143 109.412C199.143 110.37 198.966 111.207 198.612 111.923C198.262 112.64 197.771 113.197 197.139 113.596C196.511 113.994 195.779 114.193 194.942 114.193ZM194.942 112.913C195.578 112.913 196.101 112.75 196.511 112.424C196.922 112.098 197.226 111.67 197.423 111.138C197.62 110.607 197.719 110.032 197.719 109.412C197.719 108.792 197.62 108.215 197.423 107.679C197.226 107.144 196.922 106.711 196.511 106.381C196.101 106.051 195.578 105.886 194.942 105.886C194.306 105.886 193.783 106.051 193.372 106.381C192.962 106.711 192.658 107.144 192.46 107.679C192.263 108.215 192.165 108.792 192.165 109.412C192.165 110.032 192.263 110.607 192.46 111.138C192.658 111.67 192.962 112.098 193.372 112.424C193.783 112.75 194.306 112.913 194.942 112.913ZM207.886 106.804L206.606 107.166C206.526 106.953 206.407 106.746 206.25 106.544C206.097 106.339 205.888 106.17 205.622 106.037C205.357 105.904 205.017 105.838 204.602 105.838C204.035 105.838 203.562 105.969 203.184 106.23C202.809 106.488 202.622 106.816 202.622 107.214C202.622 107.569 202.751 107.848 203.008 108.054C203.266 108.259 203.669 108.43 204.216 108.567L205.592 108.905C206.421 109.106 207.039 109.414 207.446 109.828C207.852 110.239 208.055 110.768 208.055 111.416C208.055 111.947 207.902 112.422 207.597 112.841C207.295 113.259 206.872 113.589 206.329 113.831C205.785 114.072 205.154 114.193 204.433 114.193C203.487 114.193 202.705 113.988 202.085 113.577C201.465 113.167 201.073 112.567 200.908 111.778L202.26 111.44C202.389 111.939 202.632 112.314 202.99 112.563C203.353 112.813 203.825 112.938 204.409 112.938C205.073 112.938 205.6 112.797 205.991 112.515C206.385 112.229 206.582 111.887 206.582 111.489C206.582 111.167 206.47 110.897 206.244 110.68C206.019 110.458 205.673 110.293 205.206 110.185L203.66 109.822C202.811 109.621 202.187 109.309 201.789 108.887C201.395 108.46 201.197 107.927 201.197 107.287C201.197 106.764 201.344 106.301 201.638 105.898C201.936 105.496 202.34 105.18 202.852 104.951C203.367 104.721 203.95 104.607 204.602 104.607C205.52 104.607 206.24 104.808 206.763 105.21C207.291 105.613 207.665 106.144 207.886 106.804ZM214.233 104.727V105.935H209.427V104.727H214.233ZM210.828 102.506H212.253V111.344C212.253 111.746 212.311 112.048 212.428 112.249C212.548 112.446 212.701 112.579 212.886 112.648C213.076 112.712 213.275 112.744 213.484 112.744C213.641 112.744 213.77 112.736 213.87 112.72C213.971 112.7 214.052 112.684 214.112 112.672L214.402 113.952C214.305 113.988 214.17 114.024 213.997 114.06C213.824 114.101 213.605 114.121 213.339 114.121C212.937 114.121 212.542 114.034 212.156 113.861C211.774 113.688 211.456 113.424 211.202 113.07C210.953 112.716 210.828 112.269 210.828 111.73V102.506ZM220.019 117.67C219.331 117.67 218.739 117.582 218.244 117.405C217.749 117.232 217.337 117.002 217.007 116.717C216.681 116.435 216.421 116.133 216.228 115.811L217.363 115.014C217.492 115.183 217.655 115.376 217.852 115.594C218.049 115.815 218.319 116.006 218.661 116.167C219.007 116.332 219.46 116.415 220.019 116.415C220.768 116.415 221.385 116.234 221.872 115.871C222.359 115.509 222.603 114.942 222.603 114.169V112.286H222.482C222.377 112.455 222.229 112.664 222.035 112.913C221.846 113.159 221.573 113.378 221.214 113.571C220.86 113.761 220.381 113.855 219.778 113.855C219.029 113.855 218.357 113.678 217.761 113.324C217.17 112.97 216.701 112.455 216.355 111.778C216.013 111.102 215.841 110.281 215.841 109.315C215.841 108.366 216.009 107.538 216.343 106.834C216.677 106.126 217.141 105.578 217.737 105.192C218.333 104.802 219.021 104.607 219.802 104.607C220.405 104.607 220.884 104.707 221.239 104.908C221.597 105.106 221.87 105.331 222.06 105.585C222.253 105.834 222.402 106.039 222.506 106.2H222.651V104.727H224.028V114.266C224.028 115.062 223.846 115.71 223.484 116.21C223.126 116.713 222.643 117.081 222.035 117.314C221.432 117.552 220.76 117.67 220.019 117.67ZM219.971 112.575C220.542 112.575 221.025 112.444 221.42 112.183C221.814 111.921 222.114 111.545 222.319 111.054C222.524 110.563 222.627 109.975 222.627 109.291C222.627 108.623 222.526 108.033 222.325 107.522C222.124 107.011 221.826 106.611 221.432 106.321C221.037 106.031 220.55 105.886 219.971 105.886C219.367 105.886 218.864 106.039 218.462 106.345C218.063 106.651 217.763 107.062 217.562 107.577C217.365 108.092 217.266 108.663 217.266 109.291C217.266 109.935 217.367 110.505 217.568 111C217.773 111.491 218.075 111.877 218.474 112.159C218.876 112.436 219.375 112.575 219.971 112.575ZM226.636 114V104.727H228.012V106.128H228.109C228.274 105.669 228.577 105.297 229.02 105.011C229.463 104.725 229.964 104.582 230.523 104.582C230.781 104.582 231.006 104.613 231.199 104.673C231.393 104.733 231.562 104.816 231.707 104.92L231.224 106.128C231.123 106.076 231.004 106.035 230.867 106.007C230.735 105.975 230.58 105.959 230.403 105.959C229.952 105.959 229.549 106.053 229.195 106.243C228.845 106.432 228.567 106.689 228.362 107.015C228.161 107.341 228.06 107.714 228.06 108.132V114H226.636ZM236.765 114.193C235.872 114.193 235.101 113.996 234.453 113.602C233.809 113.203 233.312 112.648 232.962 111.935C232.616 111.219 232.443 110.386 232.443 109.436C232.443 108.486 232.616 107.649 232.962 106.925C233.312 106.196 233.799 105.629 234.423 105.222C235.051 104.812 235.783 104.607 236.621 104.607C237.104 104.607 237.58 104.687 238.051 104.848C238.522 105.009 238.951 105.271 239.337 105.633C239.724 105.991 240.031 106.466 240.261 107.058C240.49 107.649 240.605 108.378 240.605 109.243V109.847H233.457V108.615H239.156C239.156 108.092 239.051 107.625 238.842 107.214C238.637 106.804 238.343 106.48 237.961 106.243C237.582 106.005 237.136 105.886 236.621 105.886C236.053 105.886 235.562 106.027 235.148 106.309C234.737 106.587 234.421 106.949 234.2 107.396C233.978 107.842 233.868 108.321 233.868 108.832V109.653C233.868 110.354 233.989 110.947 234.23 111.434C234.475 111.917 234.816 112.286 235.25 112.539C235.685 112.789 236.19 112.913 236.765 112.913C237.14 112.913 237.478 112.861 237.78 112.756C238.086 112.648 238.349 112.487 238.571 112.273C238.792 112.056 238.963 111.786 239.084 111.464L240.46 111.851C240.315 112.318 240.072 112.728 239.73 113.082C239.388 113.433 238.965 113.706 238.462 113.903C237.959 114.097 237.393 114.193 236.765 114.193ZM249.727 104.727C249.654 104.116 249.361 103.641 248.845 103.303C248.33 102.964 247.698 102.795 246.95 102.795C246.402 102.795 245.924 102.884 245.513 103.061C245.107 103.238 244.789 103.482 244.559 103.792C244.334 104.101 244.221 104.454 244.221 104.848C244.221 105.178 244.3 105.462 244.457 105.699C244.618 105.933 244.823 106.128 245.072 106.285C245.322 106.438 245.583 106.565 245.857 106.665C246.131 106.762 246.382 106.84 246.612 106.901L247.867 107.239C248.189 107.323 248.548 107.44 248.942 107.589C249.34 107.738 249.721 107.941 250.083 108.199C250.449 108.452 250.751 108.778 250.989 109.176C251.226 109.575 251.345 110.064 251.345 110.643C251.345 111.312 251.17 111.915 250.819 112.455C250.473 112.994 249.966 113.422 249.298 113.74C248.634 114.058 247.827 114.217 246.877 114.217C245.992 114.217 245.225 114.074 244.577 113.789C243.933 113.503 243.426 113.105 243.056 112.593C242.69 112.082 242.482 111.489 242.434 110.812H243.98C244.02 111.279 244.177 111.666 244.451 111.972C244.728 112.273 245.078 112.499 245.501 112.648C245.928 112.793 246.386 112.865 246.877 112.865C247.449 112.865 247.962 112.772 248.417 112.587C248.872 112.398 249.232 112.137 249.497 111.803C249.763 111.464 249.896 111.07 249.896 110.619C249.896 110.209 249.781 109.875 249.552 109.617C249.322 109.36 249.02 109.15 248.646 108.989C248.272 108.828 247.867 108.687 247.433 108.567L245.911 108.132C244.946 107.854 244.181 107.458 243.617 106.943C243.054 106.428 242.772 105.754 242.772 104.92C242.772 104.228 242.959 103.625 243.334 103.109C243.712 102.59 244.219 102.188 244.855 101.902C245.495 101.612 246.209 101.467 246.998 101.467C247.795 101.467 248.503 101.61 249.123 101.896C249.743 102.178 250.234 102.564 250.596 103.055C250.962 103.546 251.156 104.103 251.176 104.727H249.727ZM258.298 110.136H259.94L261.316 111.947L261.678 112.43L263.731 115.159H262.089L260.737 113.348L260.399 112.889L258.298 110.136ZM264.238 107.818C264.238 109.122 264.003 110.249 263.532 111.199C263.061 112.149 262.415 112.881 261.594 113.396C260.773 113.911 259.835 114.169 258.781 114.169C257.726 114.169 256.788 113.911 255.967 113.396C255.146 112.881 254.5 112.149 254.03 111.199C253.559 110.249 253.323 109.122 253.323 107.818C253.323 106.514 253.559 105.387 254.03 104.438C254.5 103.488 255.146 102.755 255.967 102.24C256.788 101.725 257.726 101.467 258.781 101.467C259.835 101.467 260.773 101.725 261.594 102.24C262.415 102.755 263.061 103.488 263.532 104.438C264.003 105.387 264.238 106.514 264.238 107.818ZM262.789 107.818C262.789 106.748 262.61 105.844 262.252 105.108C261.898 104.371 261.417 103.814 260.809 103.435C260.205 103.057 259.529 102.868 258.781 102.868C258.032 102.868 257.354 103.057 256.746 103.435C256.143 103.814 255.662 104.371 255.303 105.108C254.949 105.844 254.772 106.748 254.772 107.818C254.772 108.889 254.949 109.792 255.303 110.529C255.662 111.265 256.143 111.823 256.746 112.201C257.354 112.579 258.032 112.768 258.781 112.768C259.529 112.768 260.205 112.579 260.809 112.201C261.417 111.823 261.898 111.265 262.252 110.529C262.61 109.792 262.789 108.889 262.789 107.818ZM266.755 114V101.636H268.253V112.672H274V114H266.755Z" fill="white"/>
<rect x="333" width="80" height="80" rx="40" fill="#29B5E8"/>
<path d="M388.584 51.3946L379.408 46.0938C378.119 45.3516 376.47 45.793 375.724 47.0821C375.435 47.5899 375.322 48.1485 375.377 48.6915V59.0508C375.377 60.5313 376.58 61.7344 378.064 61.7344C379.545 61.7344 380.748 60.5313 380.748 59.0508V53.0938L385.888 56.0626C387.177 56.8086 388.83 56.3633 389.572 55.0743C390.318 53.7852 389.877 52.1368 388.584 51.3946Z" fill="white"/>
<path d="M365.763 40.0352C365.778 39.0781 365.274 38.1875 364.446 37.707L355.271 32.4102C354.872 32.1797 354.415 32.0586 353.958 32.0586C353.017 32.0586 352.142 32.5625 351.673 33.375C350.946 34.6328 351.38 36.2461 352.638 36.9727L357.927 40.0234L352.638 43.0781C352.028 43.4297 351.591 43.9961 351.411 44.6758C351.228 45.3555 351.321 46.0664 351.673 46.6758C352.142 47.4883 353.017 47.9922 353.954 47.9922C354.415 47.9922 354.872 47.8711 355.271 47.6406L364.446 42.3438C365.267 41.8672 365.771 40.9844 365.763 40.0352Z" fill="white"/>
<path d="M357.353 28.6562L366.529 33.9531C367.599 34.5742 368.92 34.3711 369.763 33.5469C370.298 33.0547 370.63 32.3516 370.63 31.5703V20.9531C370.63 19.4688 369.427 18.2656 367.947 18.2656C366.462 18.2656 365.259 19.4688 365.259 20.9531V26.9961L360.048 23.9883C358.759 23.2422 357.111 23.6836 356.365 24.9727C355.619 26.2617 356.064 27.9102 357.353 28.6562Z" fill="white"/>
<path d="M377.985 40.4648C377.985 40.668 377.868 40.9492 377.724 41.0977L374.087 44.7344C373.942 44.8789 373.657 44.9961 373.454 44.9961H372.528C372.325 44.9961 372.04 44.8789 371.896 44.7344L368.255 41.0977C368.11 40.9492 367.993 40.668 367.993 40.4648V39.5391C367.993 39.332 368.11 39.0508 368.255 38.9062L371.896 35.2656C372.04 35.1211 372.325 35.0039 372.528 35.0039H373.454C373.657 35.0039 373.942 35.1211 374.087 35.2656L377.724 38.9062C377.868 39.0508 377.985 39.332 377.985 39.5391V40.4648ZM374.739 40.0195V39.9805C374.739 39.832 374.653 39.625 374.548 39.5156L373.474 38.4453C373.368 38.3359 373.161 38.25 373.009 38.25H372.97C372.821 38.25 372.614 38.3359 372.505 38.4453L371.435 39.5156C371.329 39.6211 371.243 39.8281 371.243 39.9805V40.0195C371.243 40.1719 371.329 40.3789 371.435 40.4844L372.505 41.5586C372.614 41.6641 372.821 41.75 372.97 41.75H373.009C373.161 41.75 373.368 41.6641 373.474 41.5586L374.548 40.4844C374.653 40.3789 374.739 40.1719 374.739 40.0195Z" fill="white"/>
<path d="M379.408 33.9531L388.584 28.6562C389.873 27.9141 390.318 26.2617 389.572 24.9727C388.826 23.6836 387.177 23.2422 385.888 23.9883L380.748 26.957V20.9531C380.748 19.4688 379.544 18.2656 378.064 18.2656C376.58 18.2656 375.377 19.4688 375.377 20.9531V31.3594C375.326 31.8984 375.431 32.4609 375.724 32.9688C376.47 34.2578 378.119 34.6992 379.408 33.9531Z" fill="white"/>
<path d="M368.369 45.7812C367.759 45.664 367.107 45.7617 366.529 46.0937L357.353 51.3945C356.064 52.1367 355.619 53.7851 356.365 55.0742C357.111 56.3671 358.759 56.8085 360.048 56.0624L365.259 53.0546V59.0507C365.259 60.5312 366.462 61.7343 367.947 61.7343C369.427 61.7343 370.63 60.5312 370.63 59.0507V48.4335C370.63 47.0937 369.65 45.9843 368.369 45.7812Z" fill="white"/>
<path d="M394.318 33.3437C393.576 32.0507 391.923 31.6093 390.634 32.3554L381.458 37.6523C380.579 38.1601 380.095 39.0898 380.111 40.0351C380.103 40.9765 380.587 41.8945 381.458 42.3945L390.634 47.6953C391.923 48.4375 393.572 47.9961 394.318 46.707C395.064 45.4179 394.619 43.7695 393.329 43.0234L388.134 40.0234L393.329 37.0234C394.622 36.2812 395.064 34.6328 394.318 33.3437Z" fill="white"/>
<path d="M339.796 104.727C339.724 104.116 339.43 103.641 338.915 103.303C338.4 102.964 337.768 102.795 337.019 102.795C336.472 102.795 335.993 102.884 335.582 103.061C335.176 103.238 334.858 103.482 334.629 103.792C334.403 104.101 334.29 104.454 334.29 104.848C334.29 105.178 334.369 105.462 334.526 105.699C334.687 105.933 334.892 106.128 335.142 106.285C335.391 106.438 335.653 106.565 335.926 106.665C336.2 106.762 336.452 106.84 336.681 106.901L337.937 107.239C338.259 107.323 338.617 107.44 339.011 107.589C339.41 107.738 339.79 107.941 340.152 108.199C340.519 108.452 340.82 108.778 341.058 109.176C341.295 109.575 341.414 110.064 341.414 110.643C341.414 111.312 341.239 111.915 340.889 112.455C340.543 112.994 340.036 113.422 339.367 113.74C338.703 114.058 337.896 114.217 336.947 114.217C336.061 114.217 335.295 114.074 334.647 113.789C334.003 113.503 333.496 113.105 333.125 112.593C332.759 112.082 332.552 111.489 332.504 110.812H334.049C334.089 111.279 334.246 111.666 334.52 111.972C334.798 112.273 335.148 112.499 335.57 112.648C335.997 112.793 336.456 112.865 336.947 112.865C337.518 112.865 338.031 112.772 338.486 112.587C338.941 112.398 339.301 112.137 339.567 111.803C339.832 111.464 339.965 111.07 339.965 110.619C339.965 110.209 339.85 109.875 339.621 109.617C339.392 109.36 339.09 109.15 338.716 108.989C338.341 108.828 337.937 108.687 337.502 108.567L335.981 108.132C335.015 107.854 334.25 107.458 333.687 106.943C333.123 106.428 332.842 105.754 332.842 104.92C332.842 104.228 333.029 103.625 333.403 103.109C333.781 102.59 334.288 102.188 334.924 101.902C335.564 101.612 336.279 101.467 337.067 101.467C337.864 101.467 338.573 101.61 339.192 101.896C339.812 102.178 340.303 102.564 340.665 103.055C341.032 103.546 341.225 104.103 341.245 104.727H339.796ZM345.107 108.422V114H343.682V104.727H345.059V106.176H345.18C345.397 105.705 345.727 105.327 346.17 105.041C346.612 104.751 347.184 104.607 347.884 104.607C348.512 104.607 349.061 104.735 349.532 104.993C350.003 105.246 350.369 105.633 350.631 106.152C350.893 106.667 351.023 107.319 351.023 108.108V114H349.599V108.205C349.599 107.476 349.409 106.909 349.031 106.502C348.653 106.092 348.134 105.886 347.474 105.886C347.019 105.886 346.612 105.985 346.254 106.182C345.9 106.379 345.62 106.667 345.415 107.045C345.21 107.424 345.107 107.883 345.107 108.422ZM357.394 114.193C356.557 114.193 355.822 113.994 355.19 113.596C354.562 113.197 354.071 112.64 353.717 111.923C353.367 111.207 353.192 110.37 353.192 109.412C353.192 108.446 353.367 107.603 353.717 106.882C354.071 106.162 354.562 105.603 355.19 105.204C355.822 104.806 356.557 104.607 357.394 104.607C358.231 104.607 358.963 104.806 359.591 105.204C360.223 105.603 360.714 106.162 361.064 106.882C361.418 107.603 361.595 108.446 361.595 109.412C361.595 110.37 361.418 111.207 361.064 111.923C360.714 112.64 360.223 113.197 359.591 113.596C358.963 113.994 358.231 114.193 357.394 114.193ZM357.394 112.913C358.03 112.913 358.553 112.75 358.963 112.424C359.374 112.098 359.678 111.67 359.875 111.138C360.072 110.607 360.171 110.032 360.171 109.412C360.171 108.792 360.072 108.215 359.875 107.679C359.678 107.144 359.374 106.711 358.963 106.381C358.553 106.051 358.03 105.886 357.394 105.886C356.758 105.886 356.235 106.051 355.824 106.381C355.414 106.711 355.11 107.144 354.913 107.679C354.715 108.215 354.617 108.792 354.617 109.412C354.617 110.032 354.715 110.607 354.913 111.138C355.11 111.67 355.414 112.098 355.824 112.424C356.235 112.75 356.758 112.913 357.394 112.913ZM365.556 114L362.73 104.727H364.228L366.232 111.827H366.328L368.309 104.727H369.83L371.786 111.803H371.882L373.887 104.727H375.384L372.559 114H371.158L369.13 106.876H368.985L366.956 114H365.556ZM381.397 104.727V105.935H376.398V104.727H381.397ZM377.895 114V103.447C377.895 102.916 378.02 102.473 378.269 102.119C378.519 101.765 378.843 101.5 379.241 101.322C379.64 101.145 380.06 101.057 380.503 101.057C380.853 101.057 381.139 101.085 381.36 101.141C381.582 101.198 381.747 101.25 381.855 101.298L381.445 102.53C381.372 102.506 381.272 102.475 381.143 102.439C381.018 102.403 380.853 102.385 380.648 102.385C380.177 102.385 379.837 102.504 379.628 102.741C379.423 102.979 379.32 103.327 379.32 103.786V114H377.895ZM384.818 101.636V114H383.393V101.636H384.818ZM390.156 114.217C389.569 114.217 389.035 114.107 388.556 113.885C388.077 113.66 387.697 113.336 387.415 112.913C387.134 112.487 386.993 111.972 386.993 111.368C386.993 110.837 387.097 110.406 387.307 110.076C387.516 109.742 387.796 109.48 388.146 109.291C388.496 109.102 388.882 108.961 389.305 108.869C389.732 108.772 390.16 108.696 390.591 108.639C391.154 108.567 391.611 108.512 391.961 108.476C392.315 108.436 392.573 108.37 392.734 108.277C392.899 108.184 392.981 108.023 392.981 107.794V107.746C392.981 107.15 392.818 106.687 392.492 106.357C392.171 106.027 391.682 105.862 391.026 105.862C390.345 105.862 389.812 106.011 389.426 106.309C389.039 106.607 388.768 106.925 388.611 107.263L387.258 106.78C387.5 106.216 387.822 105.778 388.224 105.464C388.631 105.146 389.074 104.924 389.553 104.8C390.035 104.671 390.51 104.607 390.977 104.607C391.275 104.607 391.617 104.643 392.004 104.715C392.394 104.784 392.77 104.926 393.132 105.144C393.499 105.361 393.803 105.689 394.044 106.128C394.285 106.567 394.406 107.154 394.406 107.891V114H392.981V112.744H392.909C392.812 112.946 392.651 113.161 392.426 113.39C392.201 113.62 391.901 113.815 391.527 113.976C391.152 114.137 390.696 114.217 390.156 114.217ZM390.374 112.938C390.937 112.938 391.412 112.827 391.798 112.605C392.189 112.384 392.482 112.098 392.68 111.748C392.881 111.398 392.981 111.03 392.981 110.643V109.339C392.921 109.412 392.788 109.478 392.583 109.539C392.382 109.595 392.148 109.645 391.883 109.69C391.621 109.73 391.366 109.766 391.116 109.798C390.871 109.826 390.671 109.851 390.518 109.871C390.148 109.919 389.802 109.998 389.48 110.106C389.162 110.211 388.905 110.37 388.707 110.583C388.514 110.792 388.418 111.078 388.418 111.44C388.418 111.935 388.601 112.31 388.967 112.563C389.337 112.813 389.806 112.938 390.374 112.938ZM398.335 110.619L398.311 108.857H398.6L402.657 104.727H404.42L400.098 109.098H399.977L398.335 110.619ZM397.007 114V101.636H398.431V114H397.007ZM402.899 114L399.277 109.412L400.291 108.422L404.71 114H402.899ZM409.76 114.193C408.866 114.193 408.095 113.996 407.447 113.602C406.804 113.203 406.307 112.648 405.956 111.935C405.61 111.219 405.437 110.386 405.437 109.436C405.437 108.486 405.61 107.649 405.956 106.925C406.307 106.196 406.793 105.629 407.417 105.222C408.045 104.812 408.778 104.607 409.615 104.607C410.098 104.607 410.575 104.687 411.045 104.848C411.516 105.009 411.945 105.271 412.331 105.633C412.718 105.991 413.026 106.466 413.255 107.058C413.484 107.649 413.599 108.378 413.599 109.243V109.847H406.451V108.615H412.15C412.15 108.092 412.046 107.625 411.836 107.214C411.631 106.804 411.337 106.48 410.955 106.243C410.577 106.005 410.13 105.886 409.615 105.886C409.047 105.886 408.556 106.027 408.142 106.309C407.731 106.587 407.415 106.949 407.194 107.396C406.973 107.842 406.862 108.321 406.862 108.832V109.653C406.862 110.354 406.983 110.947 407.224 111.434C407.47 111.917 407.81 112.286 408.244 112.539C408.679 112.789 409.184 112.913 409.76 112.913C410.134 112.913 410.472 112.861 410.774 112.756C411.08 112.648 411.343 112.487 411.565 112.273C411.786 112.056 411.957 111.786 412.078 111.464L413.454 111.851C413.309 112.318 413.066 112.728 412.724 113.082C412.382 113.433 411.959 113.706 411.456 113.903C410.953 114.097 410.387 114.193 409.76 114.193Z" fill="white"/>
<rect x="479" width="80" height="80" rx="40" fill="white"/>
<path d="M529.065 32.1306H515.36C515.426 32.4585 515.557 32.7864 515.623 33.0486C516.082 34.6224 516.344 36.2618 516.475 37.9667C516.541 38.6224 516.541 39.3437 516.541 39.9995C516.541 40.6552 516.541 41.3765 516.475 42.0323C516.344 43.7372 516.082 45.3765 515.623 46.9503C515.557 47.2782 515.426 47.606 515.36 47.8683H529.065C533.393 47.8683 536.869 44.3273 536.869 39.9995C536.869 35.6716 533.393 32.1306 529.065 32.1306Z" fill="#00A9E5"/>
<path d="M516.475 42.0323C516.541 41.3765 516.541 40.6552 516.541 39.9995C516.541 39.3437 516.541 38.6224 516.475 37.9667C516.344 36.2618 516.082 34.6224 515.623 33.0486C515.557 32.7208 515.426 32.3929 515.361 32.1306H494.18C493.393 34.6224 493 37.2454 493 39.9995C493 42.7536 493.393 45.3765 494.18 47.8683H515.361C515.426 47.5404 515.557 47.2126 515.623 46.9503C516.082 45.3765 516.344 43.7372 516.475 42.0323Z" fill="#353535"/>
<path d="M531.426 50.4919H514.377C513.852 51.6723 513.262 52.787 512.606 53.8362C511.623 55.4756 510.442 56.9182 509.131 58.2952C508.672 58.7542 508.213 59.1477 507.754 59.6067C506.836 60.4591 505.786 61.1805 504.737 61.9018C508.868 64.6559 513.852 66.2296 519.164 66.2296C528.278 66.2296 536.278 61.5739 541 54.5575C538.573 52.0657 535.164 50.4919 531.426 50.4919Z" fill="#00BFB3"/>
<path d="M512.607 53.8362C513.262 52.787 513.853 51.6723 514.377 50.4919H495.164C497.197 55.1477 500.541 59.1477 504.803 61.9018C505.853 61.1805 506.836 60.4591 507.82 59.6067C508.279 59.2132 508.738 58.7542 509.197 58.2952C510.443 56.9837 511.623 55.4756 512.607 53.8362Z" fill="#019B8F"/>
<path d="M509.131 21.7049C508.672 21.2459 508.213 20.8525 507.754 20.3935C506.836 19.541 505.787 18.8197 504.738 18.0984C500.541 20.8525 497.197 24.8525 495.099 29.5082H514.312C513.787 28.3279 513.197 27.2131 512.541 26.164C511.623 24.5246 510.443 23.0164 509.131 21.7049Z" fill="#F9B110"/>
<path d="M519.164 13.7705C513.852 13.7705 508.868 15.3443 504.737 18.0984C505.786 18.8197 506.77 19.541 507.754 20.3935C508.213 20.7869 508.672 21.2459 509.131 21.7049C510.442 23.082 511.623 24.5246 512.606 26.1639C513.262 27.2131 513.852 28.3279 514.377 29.5082H531.426C535.164 29.5082 538.573 27.9344 541 25.4426C536.278 18.4262 528.278 13.7705 519.164 13.7705Z" fill="#FED10A"/>
<path d="M467.248 114V101.636H474.709V102.964H468.745V107.142H474.323V108.47H468.745V112.672H474.806V114H467.248ZM478.639 101.636V114H477.215V101.636H478.639ZM483.977 114.217C483.39 114.217 482.857 114.107 482.378 113.885C481.899 113.66 481.518 113.336 481.237 112.913C480.955 112.487 480.814 111.972 480.814 111.368C480.814 110.837 480.919 110.406 481.128 110.076C481.337 109.742 481.617 109.48 481.967 109.291C482.317 109.102 482.704 108.961 483.126 108.869C483.553 108.772 483.982 108.696 484.412 108.639C484.976 108.567 485.432 108.512 485.783 108.476C486.137 108.436 486.394 108.37 486.555 108.277C486.72 108.184 486.803 108.023 486.803 107.794V107.746C486.803 107.15 486.64 106.687 486.314 106.357C485.992 106.027 485.503 105.862 484.847 105.862C484.167 105.862 483.633 106.011 483.247 106.309C482.861 106.607 482.589 106.925 482.432 107.263L481.08 106.78C481.321 106.216 481.643 105.778 482.046 105.464C482.452 105.146 482.895 104.924 483.374 104.8C483.857 104.671 484.332 104.607 484.799 104.607C485.096 104.607 485.438 104.643 485.825 104.715C486.215 104.784 486.591 104.926 486.954 105.144C487.32 105.361 487.624 105.689 487.865 106.128C488.107 106.567 488.227 107.154 488.227 107.891V114H486.803V112.744H486.73C486.634 112.946 486.473 113.161 486.247 113.39C486.022 113.62 485.722 113.815 485.348 113.976C484.974 114.137 484.517 114.217 483.977 114.217ZM484.195 112.938C484.758 112.938 485.233 112.827 485.62 112.605C486.01 112.384 486.304 112.098 486.501 111.748C486.702 111.398 486.803 111.03 486.803 110.643V109.339C486.742 109.412 486.61 109.478 486.404 109.539C486.203 109.595 485.97 109.645 485.704 109.69C485.442 109.73 485.187 109.766 484.937 109.798C484.692 109.826 484.493 109.851 484.34 109.871C483.969 109.919 483.623 109.998 483.301 110.106C482.983 110.211 482.726 110.37 482.529 110.583C482.335 110.792 482.239 111.078 482.239 111.44C482.239 111.935 482.422 112.31 482.788 112.563C483.158 112.813 483.627 112.938 484.195 112.938ZM497.396 106.804L496.116 107.166C496.036 106.953 495.917 106.746 495.76 106.544C495.607 106.339 495.398 106.17 495.132 106.037C494.867 105.904 494.527 105.838 494.112 105.838C493.545 105.838 493.072 105.969 492.693 106.23C492.319 106.488 492.132 106.816 492.132 107.214C492.132 107.569 492.261 107.848 492.518 108.054C492.776 108.259 493.178 108.43 493.726 108.567L495.102 108.905C495.931 109.106 496.549 109.414 496.955 109.828C497.362 110.239 497.565 110.768 497.565 111.416C497.565 111.947 497.412 112.422 497.106 112.841C496.804 113.259 496.382 113.589 495.839 113.831C495.295 114.072 494.663 114.193 493.943 114.193C492.997 114.193 492.214 113.988 491.595 113.577C490.975 113.167 490.582 112.567 490.417 111.778L491.77 111.44C491.898 111.939 492.142 112.314 492.5 112.563C492.862 112.813 493.335 112.938 493.919 112.938C494.583 112.938 495.11 112.797 495.5 112.515C495.895 112.229 496.092 111.887 496.092 111.489C496.092 111.167 495.979 110.897 495.754 110.68C495.529 110.458 495.183 110.293 494.716 110.185L493.17 109.822C492.321 109.621 491.697 109.309 491.299 108.887C490.904 108.46 490.707 107.927 490.707 107.287C490.707 106.764 490.854 106.301 491.148 105.898C491.446 105.496 491.85 105.18 492.361 104.951C492.876 104.721 493.46 104.607 494.112 104.607C495.03 104.607 495.75 104.808 496.273 105.21C496.8 105.613 497.175 106.144 497.396 106.804ZM503.742 104.727V105.935H498.937V104.727H503.742ZM500.338 102.506H501.762V111.344C501.762 111.746 501.821 112.048 501.937 112.249C502.058 112.446 502.211 112.579 502.396 112.648C502.585 112.712 502.785 112.744 502.994 112.744C503.151 112.744 503.28 112.736 503.38 112.72C503.481 112.7 503.561 112.684 503.622 112.672L503.911 113.952C503.815 113.988 503.68 114.024 503.507 114.06C503.334 114.101 503.115 114.121 502.849 114.121C502.446 114.121 502.052 114.034 501.666 113.861C501.283 113.688 500.965 113.424 500.712 113.07C500.462 112.716 500.338 112.269 500.338 111.73V102.506ZM505.886 114V104.727H507.31V114H505.886ZM506.61 103.182C506.332 103.182 506.093 103.087 505.892 102.898C505.694 102.709 505.596 102.482 505.596 102.216C505.596 101.95 505.694 101.723 505.892 101.534C506.093 101.345 506.332 101.25 506.61 101.25C506.888 101.25 507.125 101.345 507.322 101.534C507.524 101.723 507.624 101.95 507.624 102.216C507.624 102.482 507.524 102.709 507.322 102.898C507.125 103.087 506.888 103.182 506.61 103.182ZM513.687 114.193C512.817 114.193 512.069 113.988 511.441 113.577C510.813 113.167 510.33 112.601 509.992 111.881C509.654 111.161 509.485 110.338 509.485 109.412C509.485 108.47 509.658 107.639 510.004 106.919C510.354 106.194 510.841 105.629 511.465 105.222C512.093 104.812 512.825 104.607 513.663 104.607C514.315 104.607 514.902 104.727 515.425 104.969C515.949 105.21 516.377 105.548 516.711 105.983C517.045 106.418 517.253 106.925 517.333 107.504H515.908C515.8 107.082 515.558 106.707 515.184 106.381C514.814 106.051 514.315 105.886 513.687 105.886C513.131 105.886 512.644 106.031 512.226 106.321C511.811 106.607 511.487 107.011 511.254 107.534C511.024 108.054 510.91 108.663 510.91 109.364C510.91 110.08 511.022 110.704 511.248 111.235C511.477 111.766 511.799 112.179 512.214 112.473C512.632 112.766 513.123 112.913 513.687 112.913C514.057 112.913 514.393 112.849 514.695 112.72C514.997 112.591 515.252 112.406 515.462 112.165C515.671 111.923 515.82 111.634 515.908 111.295H517.333C517.253 111.843 517.053 112.336 516.735 112.775C516.421 113.209 516.005 113.555 515.486 113.813C514.971 114.066 514.371 114.193 513.687 114.193ZM525.984 106.804L524.704 107.166C524.624 106.953 524.505 106.746 524.348 106.544C524.195 106.339 523.986 106.17 523.72 106.037C523.455 105.904 523.114 105.838 522.7 105.838C522.132 105.838 521.66 105.969 521.281 106.23C520.907 106.488 520.72 106.816 520.72 107.214C520.72 107.569 520.849 107.848 521.106 108.054C521.364 108.259 521.766 108.43 522.314 108.567L523.69 108.905C524.519 109.106 525.137 109.414 525.543 109.828C525.95 110.239 526.153 110.768 526.153 111.416C526.153 111.947 526 112.422 525.694 112.841C525.392 113.259 524.97 113.589 524.426 113.831C523.883 114.072 523.251 114.193 522.531 114.193C521.585 114.193 520.802 113.988 520.182 113.577C519.563 113.167 519.17 112.567 519.005 111.778L520.358 111.44C520.486 111.939 520.73 112.314 521.088 112.563C521.45 112.813 521.923 112.938 522.507 112.938C523.171 112.938 523.698 112.797 524.088 112.515C524.483 112.229 524.68 111.887 524.68 111.489C524.68 111.167 524.567 110.897 524.342 110.68C524.117 110.458 523.77 110.293 523.304 110.185L521.758 109.822C520.909 109.621 520.285 109.309 519.887 108.887C519.492 108.46 519.295 107.927 519.295 107.287C519.295 106.764 519.442 106.301 519.736 105.898C520.034 105.496 520.438 105.18 520.949 104.951C521.464 104.721 522.048 104.607 522.7 104.607C523.617 104.607 524.338 104.808 524.861 105.21C525.388 105.613 525.763 106.144 525.984 106.804ZM532.185 114.193C531.292 114.193 530.521 113.996 529.873 113.602C529.229 113.203 528.732 112.648 528.382 111.935C528.036 111.219 527.863 110.386 527.863 109.436C527.863 108.486 528.036 107.649 528.382 106.925C528.732 106.196 529.219 105.629 529.843 105.222C530.471 104.812 531.203 104.607 532.041 104.607C532.523 104.607 533 104.687 533.471 104.848C533.942 105.009 534.371 105.271 534.757 105.633C535.144 105.991 535.451 106.466 535.681 107.058C535.91 107.649 536.025 108.378 536.025 109.243V109.847H528.877V108.615H534.576C534.576 108.092 534.471 107.625 534.262 107.214C534.057 106.804 533.763 106.48 533.381 106.243C533.002 106.005 532.556 105.886 532.041 105.886C531.473 105.886 530.982 106.027 530.568 106.309C530.157 106.587 529.841 106.949 529.62 107.396C529.398 107.842 529.288 108.321 529.288 108.832V109.653C529.288 110.354 529.408 110.947 529.65 111.434C529.895 111.917 530.235 112.286 530.67 112.539C531.105 112.789 531.61 112.913 532.185 112.913C532.56 112.913 532.898 112.861 533.2 112.756C533.505 112.648 533.769 112.487 533.99 112.273C534.212 112.056 534.383 111.786 534.504 111.464L535.88 111.851C535.735 112.318 535.492 112.728 535.15 113.082C534.807 113.433 534.385 113.706 533.882 113.903C533.379 114.097 532.813 114.193 532.185 114.193ZM540.921 114.217C540.333 114.217 539.8 114.107 539.321 113.885C538.842 113.66 538.462 113.336 538.18 112.913C537.898 112.487 537.758 111.972 537.758 111.368C537.758 110.837 537.862 110.406 538.071 110.076C538.281 109.742 538.56 109.48 538.911 109.291C539.261 109.102 539.647 108.961 540.07 108.869C540.496 108.772 540.925 108.696 541.356 108.639C541.919 108.567 542.376 108.512 542.726 108.476C543.08 108.436 543.338 108.37 543.499 108.277C543.664 108.184 543.746 108.023 543.746 107.794V107.746C543.746 107.15 543.583 106.687 543.257 106.357C542.935 106.027 542.446 105.862 541.79 105.862C541.11 105.862 540.577 106.011 540.19 106.309C539.804 106.607 539.532 106.925 539.375 107.263L538.023 106.78C538.265 106.216 538.587 105.778 538.989 105.464C539.396 105.146 539.838 104.924 540.317 104.8C540.8 104.671 541.275 104.607 541.742 104.607C542.04 104.607 542.382 104.643 542.768 104.715C543.159 104.784 543.535 104.926 543.897 105.144C544.263 105.361 544.567 105.689 544.809 106.128C545.05 106.567 545.171 107.154 545.171 107.891V114H543.746V112.744H543.674C543.577 112.946 543.416 113.161 543.191 113.39C542.965 113.62 542.666 113.815 542.291 113.976C541.917 114.137 541.46 114.217 540.921 114.217ZM541.138 112.938C541.702 112.938 542.177 112.827 542.563 112.605C542.953 112.384 543.247 112.098 543.444 111.748C543.646 111.398 543.746 111.03 543.746 110.643V109.339C543.686 109.412 543.553 109.478 543.348 109.539C543.146 109.595 542.913 109.645 542.647 109.69C542.386 109.73 542.13 109.766 541.881 109.798C541.635 109.826 541.436 109.851 541.283 109.871C540.913 109.919 540.567 109.998 540.245 110.106C539.927 110.211 539.669 110.37 539.472 110.583C539.279 110.792 539.182 111.078 539.182 111.44C539.182 111.935 539.365 112.31 539.732 112.563C540.102 112.813 540.571 112.938 541.138 112.938ZM547.771 114V104.727H549.148V106.128H549.244C549.409 105.669 549.713 105.297 550.156 105.011C550.599 104.725 551.1 104.582 551.659 104.582C551.917 104.582 552.142 104.613 552.335 104.673C552.528 104.733 552.697 104.816 552.842 104.92L552.359 106.128C552.259 106.076 552.14 106.035 552.003 106.007C551.87 105.975 551.715 105.959 551.538 105.959C551.088 105.959 550.685 106.053 550.331 106.243C549.981 106.432 549.703 106.689 549.498 107.015C549.297 107.341 549.196 107.714 549.196 108.132V114H547.771ZM557.78 114.193C556.911 114.193 556.163 113.988 555.535 113.577C554.907 113.167 554.424 112.601 554.086 111.881C553.748 111.161 553.579 110.338 553.579 109.412C553.579 108.47 553.752 107.639 554.098 106.919C554.448 106.194 554.935 105.629 555.559 105.222C556.187 104.812 556.919 104.607 557.756 104.607C558.408 104.607 558.996 104.727 559.519 104.969C560.042 105.21 560.471 105.548 560.805 105.983C561.139 106.418 561.346 106.925 561.427 107.504H560.002C559.893 107.082 559.652 106.707 559.278 106.381C558.907 106.051 558.408 105.886 557.78 105.886C557.225 105.886 556.738 106.031 556.32 106.321C555.905 106.607 555.581 107.011 555.348 107.534C555.118 108.054 555.004 108.663 555.004 109.364C555.004 110.08 555.116 110.704 555.342 111.235C555.571 111.766 555.893 112.179 556.307 112.473C556.726 112.766 557.217 112.913 557.78 112.913C558.151 112.913 558.487 112.849 558.789 112.72C559.091 112.591 559.346 112.406 559.555 112.165C559.765 111.923 559.914 111.634 560.002 111.295H561.427C561.346 111.843 561.147 112.336 560.829 112.775C560.515 113.209 560.099 113.555 559.58 113.813C559.064 114.066 558.465 114.193 557.78 114.193ZM564.934 108.422V114H563.51V101.636H564.934V106.176H565.055C565.272 105.697 565.598 105.317 566.033 105.035C566.472 104.749 567.055 104.607 567.784 104.607C568.416 104.607 568.969 104.733 569.444 104.987C569.919 105.236 570.287 105.621 570.549 106.14C570.814 106.655 570.947 107.311 570.947 108.108V114H569.522V108.205C569.522 107.468 569.331 106.899 568.949 106.496C568.571 106.09 568.045 105.886 567.373 105.886C566.906 105.886 566.488 105.985 566.117 106.182C565.751 106.379 565.461 106.667 565.248 107.045C565.039 107.424 564.934 107.883 564.934 108.422Z" fill="white"/>
<rect x="114" y="160" width="80" height="80" rx="40" fill="#29F1FB"/>
<path d="M154.69 178.719C158.395 178.719 162.099 178.7 165.802 178.719C172.896 178.763 179.405 183.291 181.882 189.899C182.949 192.752 183.181 195.705 182.876 198.736C182.43 203.188 181.101 207.32 178.584 211.023C174.7 216.739 169.225 219.915 162.445 220.973C160.146 221.331 157.84 221.288 155.53 221.288C154.572 221.288 154.06 220.85 154.003 220.057C153.941 219.208 154.476 218.555 155.422 218.498C156.468 218.434 157.523 218.487 158.574 218.459C164.957 218.285 170.484 216.086 174.862 211.365C177.93 208.054 179.484 204.022 180.01 199.578C180.376 196.495 180.337 193.43 179.118 190.509C177.249 186.04 173.899 183.3 169.286 182.03C167.495 181.536 165.66 181.443 163.824 181.432C156.968 181.391 150.109 181.416 143.255 181.415C142.966 181.415 142.675 181.426 142.388 181.401C142.059 181.37 141.752 181.223 141.522 180.985C141.293 180.747 141.156 180.435 141.138 180.105C141.133 179.786 141.241 179.477 141.443 179.23C141.645 178.984 141.928 178.818 142.241 178.76C142.555 178.717 142.871 178.701 143.187 178.714C147.022 178.714 150.858 178.714 154.695 178.714L154.69 178.719Z" fill="white"/>
<path d="M147.669 211.508H135.373C135.11 211.519 134.847 211.514 134.585 211.49C133.874 211.394 133.426 210.986 133.357 210.267C133.287 209.548 133.625 209.056 134.302 208.804C134.733 208.647 135.184 208.68 135.628 208.68C143.717 208.68 151.807 208.692 159.895 208.665C162.733 208.656 165.183 207.605 167.13 205.524C168.799 203.739 169.674 201.583 169.934 199.155C170.139 197.251 169.868 195.499 168.685 193.945C167.371 192.211 165.594 191.341 163.458 191.331C155.816 191.298 148.167 191.319 140.531 191.308C139.719 191.308 138.906 191.241 138.097 191.166C137.398 191.101 137.012 190.68 136.965 189.977C136.913 189.211 137.305 188.659 138.001 188.525C138.233 188.492 138.469 188.481 138.704 188.492C146.901 188.492 155.098 188.492 163.296 188.492C167.427 188.5 171 190.999 172.302 194.905C173.225 197.678 172.896 200.473 171.86 203.161C169.871 208.32 165.187 211.494 159.645 211.508C155.653 211.519 151.66 211.508 147.669 211.508Z" fill="white"/>
<path d="M129.332 191.173C128.387 191.173 127.441 191.186 126.495 191.173C125.707 191.159 125.101 190.64 125.011 189.934C124.922 189.228 125.365 188.621 126.217 188.448C126.683 188.372 127.155 188.341 127.627 188.355C128.913 188.344 130.201 188.341 131.487 188.355C131.88 188.354 132.272 188.4 132.654 188.49C133.349 188.667 133.729 189.26 133.647 189.98C133.565 190.7 133.13 191.134 132.402 191.158C131.379 191.192 130.352 191.167 129.329 191.167L129.332 191.173Z" fill="white"/>
<path d="M146.586 221.283C145.694 221.283 144.802 221.298 143.906 221.283C143.058 221.264 142.488 220.783 142.401 220.073C142.368 219.7 142.484 219.329 142.724 219.041C142.963 218.754 143.307 218.572 143.679 218.536C145.588 218.386 147.505 218.384 149.414 218.529C149.595 218.536 149.771 218.581 149.934 218.659C150.096 218.737 150.241 218.848 150.359 218.984C150.477 219.12 150.566 219.279 150.62 219.451C150.675 219.623 150.694 219.804 150.676 219.984C150.617 220.772 150.062 221.254 149.186 221.289H146.586V221.283Z" fill="white"/>
<path d="M101.676 274H100.106L104.646 261.636H106.191L110.731 274H109.161L105.467 263.592H105.37L101.676 274ZM102.255 269.17H108.582V270.499H102.255V269.17ZM112.464 277.477V264.727H113.84V266.2H114.009C114.114 266.039 114.259 265.834 114.444 265.585C114.633 265.331 114.903 265.106 115.253 264.908C115.607 264.707 116.086 264.607 116.689 264.607C117.47 264.607 118.158 264.802 118.754 265.192C119.35 265.583 119.815 266.136 120.149 266.852C120.483 267.569 120.65 268.414 120.65 269.388C120.65 270.37 120.483 271.221 120.149 271.941C119.815 272.658 119.352 273.213 118.76 273.608C118.169 273.998 117.486 274.193 116.714 274.193C116.118 274.193 115.641 274.095 115.283 273.897C114.925 273.696 114.649 273.469 114.456 273.215C114.263 272.958 114.114 272.744 114.009 272.575H113.888V277.477H112.464ZM113.864 269.364C113.864 270.064 113.967 270.682 114.172 271.217C114.377 271.748 114.677 272.165 115.072 272.467C115.466 272.764 115.949 272.913 116.52 272.913C117.116 272.913 117.613 272.756 118.012 272.442C118.414 272.125 118.716 271.698 118.917 271.163C119.122 270.623 119.225 270.024 119.225 269.364C119.225 268.712 119.124 268.124 118.923 267.601C118.726 267.074 118.426 266.657 118.024 266.351C117.625 266.041 117.124 265.886 116.52 265.886C115.941 265.886 115.454 266.033 115.06 266.327C114.665 266.617 114.367 267.023 114.166 267.547C113.965 268.066 113.864 268.671 113.864 269.364ZM125.552 274.217C124.964 274.217 124.431 274.107 123.952 273.885C123.473 273.66 123.093 273.336 122.811 272.913C122.529 272.487 122.388 271.972 122.388 271.368C122.388 270.837 122.493 270.406 122.702 270.076C122.912 269.742 123.191 269.48 123.541 269.291C123.892 269.102 124.278 268.961 124.701 268.869C125.127 268.772 125.556 268.696 125.986 268.639C126.55 268.567 127.007 268.512 127.357 268.476C127.711 268.436 127.968 268.37 128.129 268.277C128.294 268.184 128.377 268.023 128.377 267.794V267.746C128.377 267.15 128.214 266.687 127.888 266.357C127.566 266.027 127.077 265.862 126.421 265.862C125.741 265.862 125.208 266.011 124.821 266.309C124.435 266.607 124.163 266.925 124.006 267.263L122.654 266.78C122.895 266.216 123.217 265.778 123.62 265.464C124.026 265.146 124.469 264.924 124.948 264.8C125.431 264.671 125.906 264.607 126.373 264.607C126.671 264.607 127.013 264.643 127.399 264.715C127.789 264.784 128.166 264.926 128.528 265.144C128.894 265.361 129.198 265.689 129.439 266.128C129.681 266.567 129.802 267.154 129.802 267.891V274H128.377V272.744H128.305C128.208 272.946 128.047 273.161 127.822 273.39C127.596 273.62 127.296 273.815 126.922 273.976C126.548 274.137 126.091 274.217 125.552 274.217ZM125.769 272.938C126.332 272.938 126.807 272.827 127.194 272.605C127.584 272.384 127.878 272.098 128.075 271.748C128.276 271.398 128.377 271.03 128.377 270.643V269.339C128.317 269.412 128.184 269.478 127.979 269.539C127.777 269.595 127.544 269.645 127.278 269.69C127.017 269.73 126.761 269.766 126.512 269.798C126.266 269.826 126.067 269.851 125.914 269.871C125.544 269.919 125.198 269.998 124.876 270.106C124.558 270.211 124.3 270.37 124.103 270.583C123.91 270.792 123.813 271.078 123.813 271.44C123.813 271.935 123.996 272.31 124.362 272.563C124.733 272.813 125.202 272.938 125.769 272.938ZM136.169 274.193C135.3 274.193 134.551 273.988 133.923 273.577C133.296 273.167 132.813 272.601 132.475 271.881C132.136 271.161 131.967 270.338 131.967 269.412C131.967 268.47 132.141 267.639 132.487 266.919C132.837 266.194 133.324 265.629 133.948 265.222C134.575 264.812 135.308 264.607 136.145 264.607C136.797 264.607 137.385 264.727 137.908 264.969C138.431 265.21 138.86 265.548 139.194 265.983C139.528 266.418 139.735 266.925 139.815 267.504H138.391C138.282 267.082 138.041 266.707 137.666 266.381C137.296 266.051 136.797 265.886 136.169 265.886C135.614 265.886 135.127 266.031 134.708 266.321C134.294 266.607 133.97 267.011 133.736 267.534C133.507 268.054 133.392 268.663 133.392 269.364C133.392 270.08 133.505 270.704 133.73 271.235C133.96 271.766 134.282 272.179 134.696 272.473C135.115 272.766 135.606 272.913 136.169 272.913C136.539 272.913 136.875 272.849 137.177 272.72C137.479 272.591 137.735 272.406 137.944 272.165C138.153 271.923 138.302 271.634 138.391 271.295H139.815C139.735 271.843 139.536 272.336 139.218 272.775C138.904 273.209 138.487 273.555 137.968 273.813C137.453 274.066 136.853 274.193 136.169 274.193ZM143.323 268.422V274H141.898V261.636H143.323V266.176H143.444C143.661 265.697 143.987 265.317 144.422 265.035C144.86 264.749 145.444 264.607 146.172 264.607C146.804 264.607 147.358 264.733 147.833 264.987C148.307 265.236 148.676 265.621 148.937 266.14C149.203 266.655 149.336 267.311 149.336 268.108V274H147.911V268.205C147.911 267.468 147.72 266.899 147.337 266.496C146.959 266.09 146.434 265.886 145.762 265.886C145.295 265.886 144.876 265.985 144.506 266.182C144.14 266.379 143.85 266.667 143.637 267.045C143.428 267.424 143.323 267.883 143.323 268.422ZM155.83 274.193C154.936 274.193 154.166 273.996 153.518 273.602C152.874 273.203 152.377 272.648 152.027 271.935C151.681 271.219 151.508 270.386 151.508 269.436C151.508 268.486 151.681 267.649 152.027 266.925C152.377 266.196 152.864 265.629 153.488 265.222C154.115 264.812 154.848 264.607 155.685 264.607C156.168 264.607 156.645 264.687 157.116 264.848C157.587 265.009 158.015 265.271 158.402 265.633C158.788 265.991 159.096 266.466 159.325 267.058C159.555 267.649 159.669 268.378 159.669 269.243V269.847H152.522V268.615H158.221C158.221 268.092 158.116 267.625 157.907 267.214C157.701 266.804 157.408 266.48 157.025 266.243C156.647 266.005 156.2 265.886 155.685 265.886C155.118 265.886 154.627 266.027 154.212 266.309C153.802 266.587 153.486 266.949 153.264 267.396C153.043 267.842 152.932 268.321 152.932 268.832V269.653C152.932 270.354 153.053 270.947 153.294 271.434C153.54 271.917 153.88 272.286 154.315 272.539C154.749 272.789 155.254 272.913 155.83 272.913C156.204 272.913 156.542 272.861 156.844 272.756C157.15 272.648 157.414 272.487 157.635 272.273C157.856 272.056 158.027 271.786 158.148 271.464L159.525 271.851C159.38 272.318 159.136 272.728 158.794 273.082C158.452 273.433 158.029 273.706 157.526 273.903C157.023 274.097 156.458 274.193 155.83 274.193ZM170.626 274H166.811V261.636H170.795C171.995 261.636 173.021 261.884 173.874 262.379C174.728 262.87 175.382 263.576 175.836 264.498C176.291 265.415 176.519 266.514 176.519 267.794C176.519 269.082 176.289 270.191 175.83 271.12C175.371 272.046 174.703 272.758 173.826 273.257C172.949 273.752 171.882 274 170.626 274ZM168.308 272.672H170.53C171.552 272.672 172.399 272.475 173.071 272.08C173.744 271.686 174.245 271.124 174.575 270.396C174.905 269.667 175.07 268.8 175.07 267.794C175.07 266.796 174.907 265.937 174.581 265.216C174.255 264.492 173.768 263.936 173.12 263.55C172.472 263.16 171.665 262.964 170.699 262.964H168.308V272.672ZM178.837 274V264.727H180.213V266.128H180.31C180.479 265.669 180.785 265.297 181.227 265.011C181.67 264.725 182.169 264.582 182.724 264.582C182.829 264.582 182.96 264.584 183.117 264.588C183.274 264.592 183.393 264.598 183.473 264.607V266.055C183.425 266.043 183.314 266.025 183.141 266.001C182.972 265.973 182.793 265.959 182.604 265.959C182.153 265.959 181.751 266.053 181.396 266.243C181.046 266.428 180.769 266.685 180.563 267.015C180.362 267.341 180.261 267.714 180.261 268.132V274H178.837ZM191.006 270.209V264.727H192.43V274H191.006V272.43H190.909C190.692 272.901 190.354 273.302 189.895 273.632C189.436 273.958 188.856 274.121 188.156 274.121C187.577 274.121 187.062 273.994 186.611 273.74C186.16 273.483 185.806 273.096 185.548 272.581C185.291 272.062 185.162 271.408 185.162 270.619V264.727H186.587V270.523C186.587 271.199 186.776 271.738 187.154 272.141C187.536 272.543 188.023 272.744 188.615 272.744C188.969 272.744 189.329 272.654 189.696 272.473C190.066 272.292 190.376 272.014 190.625 271.64C190.879 271.265 191.006 270.788 191.006 270.209ZM195.04 274V264.727H196.465V274H195.04ZM195.764 263.182C195.487 263.182 195.247 263.087 195.046 262.898C194.849 262.709 194.75 262.482 194.75 262.216C194.75 261.95 194.849 261.723 195.046 261.534C195.247 261.345 195.487 261.25 195.764 261.25C196.042 261.25 196.279 261.345 196.477 261.534C196.678 261.723 196.778 261.95 196.778 262.216C196.778 262.482 196.678 262.709 196.477 262.898C196.279 263.087 196.042 263.182 195.764 263.182ZM202.575 274.193C201.803 274.193 201.121 273.998 200.529 273.608C199.937 273.213 199.474 272.658 199.14 271.941C198.806 271.221 198.639 270.37 198.639 269.388C198.639 268.414 198.806 267.569 199.14 266.852C199.474 266.136 199.939 265.583 200.535 265.192C201.131 264.802 201.819 264.607 202.6 264.607C203.203 264.607 203.68 264.707 204.03 264.908C204.384 265.106 204.654 265.331 204.839 265.585C205.028 265.834 205.175 266.039 205.28 266.2H205.401V261.636H206.825V274H205.449V272.575H205.28C205.175 272.744 205.026 272.958 204.833 273.215C204.64 273.469 204.364 273.696 204.006 273.897C203.648 274.095 203.171 274.193 202.575 274.193ZM202.769 272.913C203.34 272.913 203.823 272.764 204.217 272.467C204.612 272.165 204.912 271.748 205.117 271.217C205.322 270.682 205.425 270.064 205.425 269.364C205.425 268.671 205.324 268.066 205.123 267.547C204.922 267.023 204.624 266.617 204.23 266.327C203.835 266.033 203.348 265.886 202.769 265.886C202.165 265.886 201.662 266.041 201.259 266.351C200.861 266.657 200.561 267.074 200.36 267.601C200.163 268.124 200.064 268.712 200.064 269.364C200.064 270.024 200.165 270.623 200.366 271.163C200.571 271.698 200.873 272.125 201.271 272.442C201.674 272.756 202.173 272.913 202.769 272.913Z" fill="white"/>
<rect x="260" y="160" width="80" height="80" rx="40" fill="white"/>
<g clip-path="url(#clip1_507_17830)">
<path d="M276.005 214.993L281.623 221.557L282.129 220.958V178.979L281.623 178.345L276.005 184.906V214.993Z" fill="#1A476F"/>
<path d="M281.624 221.556L292.36 226.907L292.806 226.19L292.814 173.561L292.367 173L281.624 178.333V221.556Z" fill="#1F5B98"/>
<path d="M323.995 184.906L318.375 178.345L317.746 178.543L317.871 221.021L318.375 221.557L323.995 214.994V184.906Z" fill="#2D72B8"/>
<path d="M307.639 226.907L318.374 221.556V178.333L307.631 173L307.123 173.685L307.13 226.128L307.639 226.907Z" fill="#5294CF"/>
<path d="M292.368 173H307.632V226.907H292.368V173Z" fill="#2D72B8"/>
</g>
<path d="M250.216 274H248.646L253.186 261.636H254.731L259.271 274H257.701L254.007 263.592H253.91L250.216 274ZM250.795 269.17H257.122V270.499H250.795V269.17ZM261.004 274V264.727H262.38V266.176H262.501C262.694 265.681 263.006 265.297 263.437 265.023C263.867 264.745 264.384 264.607 264.988 264.607C265.6 264.607 266.109 264.745 266.515 265.023C266.926 265.297 267.246 265.681 267.475 266.176H267.572C267.809 265.697 268.165 265.317 268.64 265.035C269.115 264.749 269.685 264.607 270.349 264.607C271.178 264.607 271.856 264.866 272.383 265.385C272.911 265.9 273.174 266.703 273.174 267.794V274H271.749V267.794C271.749 267.11 271.562 266.621 271.188 266.327C270.814 266.033 270.373 265.886 269.866 265.886C269.214 265.886 268.709 266.084 268.351 266.478C267.992 266.868 267.813 267.363 267.813 267.963V274H266.364V267.649C266.364 267.122 266.193 266.697 265.851 266.375C265.509 266.049 265.069 265.886 264.529 265.886C264.159 265.886 263.813 265.985 263.491 266.182C263.173 266.379 262.915 266.653 262.718 267.003C262.525 267.349 262.428 267.75 262.428 268.205V274H261.004ZM278.508 274.217C277.92 274.217 277.387 274.107 276.908 273.885C276.429 273.66 276.049 273.336 275.767 272.913C275.485 272.487 275.344 271.972 275.344 271.368C275.344 270.837 275.449 270.406 275.658 270.076C275.868 269.742 276.147 269.48 276.497 269.291C276.848 269.102 277.234 268.961 277.657 268.869C278.083 268.772 278.512 268.696 278.942 268.639C279.506 268.567 279.963 268.512 280.313 268.476C280.667 268.436 280.925 268.37 281.086 268.277C281.251 268.184 281.333 268.023 281.333 267.794V267.746C281.333 267.15 281.17 266.687 280.844 266.357C280.522 266.027 280.033 265.862 279.377 265.862C278.697 265.862 278.164 266.011 277.777 266.309C277.391 266.607 277.119 266.925 276.962 267.263L275.61 266.78C275.852 266.216 276.173 265.778 276.576 265.464C276.982 265.146 277.425 264.924 277.904 264.8C278.387 264.671 278.862 264.607 279.329 264.607C279.627 264.607 279.969 264.643 280.355 264.715C280.745 264.784 281.122 264.926 281.484 265.144C281.85 265.361 282.154 265.689 282.396 266.128C282.637 266.567 282.758 267.154 282.758 267.891V274H281.333V272.744H281.261C281.164 272.946 281.003 273.161 280.778 273.39C280.552 273.62 280.252 273.815 279.878 273.976C279.504 274.137 279.047 274.217 278.508 274.217ZM278.725 272.938C279.289 272.938 279.763 272.827 280.15 272.605C280.54 272.384 280.834 272.098 281.031 271.748C281.232 271.398 281.333 271.03 281.333 270.643V269.339C281.273 269.412 281.14 269.478 280.935 269.539C280.733 269.595 280.5 269.645 280.234 269.69C279.973 269.73 279.717 269.766 279.468 269.798C279.222 269.826 279.023 269.851 278.87 269.871C278.5 269.919 278.154 269.998 277.832 270.106C277.514 270.211 277.256 270.37 277.059 270.583C276.866 270.792 276.769 271.078 276.769 271.44C276.769 271.935 276.952 272.31 277.318 272.563C277.689 272.813 278.158 272.938 278.725 272.938ZM285.093 274V272.913L290.357 266.152V266.055H285.262V264.727H292.192V265.862L287.073 272.575V272.672H292.361V274H285.093ZM298.057 274.193C297.22 274.193 296.485 273.994 295.853 273.596C295.226 273.197 294.735 272.64 294.38 271.923C294.03 271.207 293.855 270.37 293.855 269.412C293.855 268.446 294.03 267.603 294.38 266.882C294.735 266.162 295.226 265.603 295.853 265.204C296.485 264.806 297.22 264.607 298.057 264.607C298.894 264.607 299.626 264.806 300.254 265.204C300.886 265.603 301.377 266.162 301.727 266.882C302.081 267.603 302.259 268.446 302.259 269.412C302.259 270.37 302.081 271.207 301.727 271.923C301.377 272.64 300.886 273.197 300.254 273.596C299.626 273.994 298.894 274.193 298.057 274.193ZM298.057 272.913C298.693 272.913 299.216 272.75 299.626 272.424C300.037 272.098 300.341 271.67 300.538 271.138C300.735 270.607 300.834 270.032 300.834 269.412C300.834 268.792 300.735 268.215 300.538 267.679C300.341 267.144 300.037 266.711 299.626 266.381C299.216 266.051 298.693 265.886 298.057 265.886C297.421 265.886 296.898 266.051 296.487 266.381C296.077 266.711 295.773 267.144 295.576 267.679C295.378 268.215 295.28 268.792 295.28 269.412C295.28 270.032 295.378 270.607 295.576 271.138C295.773 271.67 296.077 272.098 296.487 272.424C296.898 272.75 297.421 272.913 298.057 272.913ZM305.858 268.422V274H304.433V264.727H305.81V266.176H305.931C306.148 265.705 306.478 265.327 306.921 265.041C307.363 264.751 307.935 264.607 308.635 264.607C309.263 264.607 309.812 264.735 310.283 264.993C310.754 265.246 311.12 265.633 311.382 266.152C311.643 266.667 311.774 267.319 311.774 268.108V274H310.35V268.205C310.35 267.476 310.16 266.909 309.782 266.502C309.404 266.092 308.885 265.886 308.225 265.886C307.77 265.886 307.363 265.985 307.005 266.182C306.651 266.379 306.371 266.667 306.166 267.045C305.961 267.424 305.858 267.883 305.858 268.422ZM319.352 274V261.636H323.53C324.496 261.636 325.288 261.801 325.908 262.131C326.528 262.457 326.987 262.906 327.285 263.478C327.582 264.049 327.731 264.699 327.731 265.428C327.731 266.156 327.582 266.802 327.285 267.365C326.987 267.929 326.53 268.372 325.914 268.694C325.299 269.011 324.512 269.17 323.554 269.17H320.173V267.818H323.506C324.166 267.818 324.697 267.722 325.099 267.528C325.506 267.335 325.8 267.062 325.981 266.707C326.166 266.349 326.258 265.923 326.258 265.428C326.258 264.933 326.166 264.5 325.981 264.13C325.796 263.759 325.5 263.474 325.093 263.272C324.687 263.067 324.149 262.964 323.481 262.964H320.849V274H319.352ZM325.172 268.446L328.214 274H326.476L323.481 268.446H325.172ZM334.042 274H330.226V261.636H334.211C335.41 261.636 336.436 261.884 337.289 262.379C338.143 262.87 338.797 263.576 339.251 264.498C339.706 265.415 339.934 266.514 339.934 267.794C339.934 269.082 339.704 270.191 339.245 271.12C338.787 272.046 338.118 272.758 337.241 273.257C336.364 273.752 335.297 274 334.042 274ZM331.723 272.672H333.945C334.967 272.672 335.814 272.475 336.486 272.08C337.159 271.686 337.66 271.124 337.99 270.396C338.32 269.667 338.485 268.8 338.485 267.794C338.485 266.796 338.322 265.937 337.996 265.216C337.67 264.492 337.183 263.936 336.535 263.55C335.887 263.16 335.08 262.964 334.114 262.964H331.723V272.672ZM349.206 264.727C349.134 264.116 348.84 263.641 348.325 263.303C347.81 262.964 347.178 262.795 346.429 262.795C345.882 262.795 345.403 262.884 344.992 263.061C344.586 263.238 344.268 263.482 344.039 263.792C343.813 264.101 343.701 264.454 343.701 264.848C343.701 265.178 343.779 265.462 343.936 265.699C344.097 265.933 344.302 266.128 344.552 266.285C344.801 266.438 345.063 266.565 345.337 266.665C345.61 266.762 345.862 266.84 346.091 266.901L347.347 267.239C347.669 267.323 348.027 267.44 348.421 267.589C348.82 267.738 349.2 267.941 349.562 268.199C349.929 268.452 350.231 268.778 350.468 269.176C350.705 269.575 350.824 270.064 350.824 270.643C350.824 271.312 350.649 271.915 350.299 272.455C349.953 272.994 349.446 273.422 348.778 273.74C348.114 274.058 347.307 274.217 346.357 274.217C345.471 274.217 344.705 274.074 344.057 273.789C343.413 273.503 342.906 273.105 342.535 272.593C342.169 272.082 341.962 271.489 341.914 270.812H343.459C343.499 271.279 343.656 271.666 343.93 271.972C344.208 272.273 344.558 272.499 344.98 272.648C345.407 272.793 345.866 272.865 346.357 272.865C346.928 272.865 347.441 272.772 347.896 272.587C348.351 272.398 348.711 272.137 348.977 271.803C349.242 271.464 349.375 271.07 349.375 270.619C349.375 270.209 349.261 269.875 349.031 269.617C348.802 269.36 348.5 269.15 348.126 268.989C347.751 268.828 347.347 268.687 346.912 268.567L345.391 268.132C344.425 267.854 343.66 267.458 343.097 266.943C342.533 266.428 342.252 265.754 342.252 264.92C342.252 264.228 342.439 263.625 342.813 263.109C343.191 262.59 343.699 262.188 344.334 261.902C344.974 261.612 345.689 261.467 346.478 261.467C347.274 261.467 347.983 261.61 348.603 261.896C349.222 262.178 349.713 262.564 350.076 263.055C350.442 263.546 350.635 264.103 350.655 264.727H349.206Z" fill="white"/>
<rect x="406" y="160" width="80" height="80" rx="40" fill="#173361"/>
<g clip-path="url(#clip2_507_17830)">
<path fill-rule="evenodd" clip-rule="evenodd" d="M456.381 201.339C457.609 201.228 458.837 201.228 460.065 201.116V200.223C458.837 200.112 457.609 200.112 456.381 200L452.698 199.888C450.577 199.777 448.344 199.777 446.223 199.777C446.223 197.656 446.223 195.423 446.112 193.302L446 189.619C445.888 188.391 445.888 187.163 445.777 185.935H444.772C444.66 187.163 444.66 188.391 444.549 189.619L444.437 193.302C444.437 194.307 444.437 195.312 444.437 196.316C443.991 195.423 443.656 194.419 443.209 193.526L441.646 190.177C441.088 189.06 440.642 187.944 440.084 186.828L439.191 187.163C439.637 188.391 439.972 189.507 440.419 190.623L441.758 194.084C442.093 195.088 442.54 195.981 442.874 196.986C442.093 196.316 441.423 195.535 440.642 194.865L437.963 192.298C437.07 191.516 436.177 190.623 435.172 189.842L434.391 190.623C435.172 191.516 436.065 192.409 436.846 193.414L439.414 196.093C440.084 196.874 440.865 197.544 441.535 198.326C440.642 197.991 439.637 197.544 438.633 197.209L435.172 195.87C434.056 195.423 432.828 194.977 431.712 194.642L431.265 195.646C432.381 196.205 433.498 196.651 434.614 197.209L437.963 198.772C438.856 199.219 439.86 199.553 440.753 200C439.749 200 438.744 200 437.74 200L434.056 200.112C432.828 200.223 431.6 200.223 430.372 200.335V201.339C431.6 201.451 432.828 201.451 434.056 201.563L437.74 201.674C439.972 201.786 442.093 201.786 444.214 201.786C444.214 203.907 444.214 206.139 444.326 208.26L444.437 211.944C444.549 213.172 444.549 214.4 444.66 215.628H445.553C445.665 214.4 445.665 213.172 445.777 211.944L445.888 208.26C445.888 207.256 445.888 206.139 446 205.135C446.446 206.139 446.781 207.032 447.228 208.037L448.791 211.386C449.349 212.502 449.795 213.619 450.353 214.735L451.246 214.4C450.912 213.172 450.465 212.056 450.019 210.939L448.902 207.256C448.567 206.251 448.121 205.358 447.786 204.353C448.567 205.135 449.237 205.805 450.019 206.474L452.698 209.042C453.591 209.823 454.484 210.716 455.488 211.498L456.158 210.828C455.377 209.935 454.484 209.042 453.702 208.037L451.135 205.358C450.465 204.577 449.684 203.795 449.014 203.126C450.019 203.46 450.912 203.907 451.916 204.242L455.377 205.581C456.493 206.028 457.721 206.474 458.837 206.809L459.172 205.916C458.056 205.358 456.94 204.8 455.823 204.353L452.474 202.791C451.47 202.344 450.577 201.898 449.572 201.563C450.577 201.563 451.693 201.563 452.698 201.451L456.381 201.339Z" fill="white"/>
<path fill-rule="evenodd" clip-rule="evenodd" d="M446 224C432.716 224 422 213.284 422 200C422 186.716 432.716 176 446 176C459.284 176 470 186.716 470 200C470 213.284 459.284 224 446 224ZM446 178.233C434.056 178.233 424.233 188.056 424.233 200C424.233 211.944 434.056 221.767 446 221.767C457.944 221.767 467.767 211.944 467.767 200C467.767 188.056 457.944 178.233 446 178.233Z" fill="white"/>
</g>
<path d="M418.192 265.5H416.694C416.606 265.069 416.451 264.691 416.23 264.365C416.012 264.039 415.747 263.765 415.433 263.544C415.123 263.319 414.779 263.15 414.4 263.037C414.022 262.924 413.628 262.868 413.217 262.868C412.469 262.868 411.79 263.057 411.183 263.435C410.579 263.814 410.098 264.371 409.74 265.108C409.386 265.844 409.209 266.748 409.209 267.818C409.209 268.889 409.386 269.792 409.74 270.529C410.098 271.265 410.579 271.823 411.183 272.201C411.79 272.579 412.469 272.768 413.217 272.768C413.628 272.768 414.022 272.712 414.4 272.599C414.779 272.487 415.123 272.32 415.433 272.098C415.747 271.873 416.012 271.597 416.23 271.271C416.451 270.941 416.606 270.563 416.694 270.136H418.192C418.079 270.768 417.874 271.334 417.576 271.833C417.278 272.332 416.908 272.756 416.465 273.107C416.022 273.453 415.525 273.716 414.974 273.897C414.427 274.078 413.841 274.169 413.217 274.169C412.163 274.169 411.225 273.911 410.404 273.396C409.583 272.881 408.937 272.149 408.466 271.199C407.995 270.249 407.76 269.122 407.76 267.818C407.76 266.514 407.995 265.387 408.466 264.438C408.937 263.488 409.583 262.755 410.404 262.24C411.225 261.725 412.163 261.467 413.217 261.467C413.841 261.467 414.427 261.558 414.974 261.739C415.525 261.92 416.022 262.186 416.465 262.536C416.908 262.882 417.278 263.305 417.576 263.804C417.874 264.299 418.079 264.864 418.192 265.5ZM424.185 274.193C423.348 274.193 422.613 273.994 421.981 273.596C421.353 273.197 420.862 272.64 420.508 271.923C420.158 271.207 419.983 270.37 419.983 269.412C419.983 268.446 420.158 267.603 420.508 266.882C420.862 266.162 421.353 265.603 421.981 265.204C422.613 264.806 423.348 264.607 424.185 264.607C425.022 264.607 425.754 264.806 426.382 265.204C427.014 265.603 427.505 266.162 427.855 266.882C428.209 267.603 428.386 268.446 428.386 269.412C428.386 270.37 428.209 271.207 427.855 271.923C427.505 272.64 427.014 273.197 426.382 273.596C425.754 273.994 425.022 274.193 424.185 274.193ZM424.185 272.913C424.821 272.913 425.344 272.75 425.754 272.424C426.165 272.098 426.469 271.67 426.666 271.138C426.863 270.607 426.962 270.032 426.962 269.412C426.962 268.792 426.863 268.215 426.666 267.679C426.469 267.144 426.165 266.711 425.754 266.381C425.344 266.051 424.821 265.886 424.185 265.886C423.549 265.886 423.026 266.051 422.615 266.381C422.205 266.711 421.901 267.144 421.704 267.679C421.506 268.215 421.408 268.792 421.408 269.412C421.408 270.032 421.506 270.607 421.704 271.138C421.901 271.67 422.205 272.098 422.615 272.424C423.026 272.75 423.549 272.913 424.185 272.913ZM431.986 268.422V274H430.561V264.727H431.938V266.176H432.058C432.276 265.705 432.606 265.327 433.049 265.041C433.491 264.751 434.063 264.607 434.763 264.607C435.391 264.607 435.94 264.735 436.411 264.993C436.882 265.246 437.248 265.633 437.51 266.152C437.771 266.667 437.902 267.319 437.902 268.108V274H436.477V268.205C436.477 267.476 436.288 266.909 435.91 266.502C435.532 266.092 435.013 265.886 434.352 265.886C433.898 265.886 433.491 265.985 433.133 266.182C432.779 266.379 432.499 266.667 432.294 267.045C432.089 267.424 431.986 267.883 431.986 268.422ZM444.635 264.727V265.935H439.636V264.727H444.635ZM441.133 274V263.447C441.133 262.916 441.258 262.473 441.508 262.119C441.757 261.765 442.081 261.5 442.48 261.322C442.878 261.145 443.299 261.057 443.741 261.057C444.092 261.057 444.377 261.085 444.599 261.141C444.82 261.198 444.985 261.25 445.094 261.298L444.683 262.53C444.611 262.506 444.51 262.475 444.381 262.439C444.257 262.403 444.092 262.385 443.886 262.385C443.415 262.385 443.075 262.504 442.866 262.741C442.661 262.979 442.558 263.327 442.558 263.786V274H441.133ZM448.056 261.636V274H446.632V261.636H448.056ZM456.51 270.209V264.727H457.934V274H456.51V272.43H456.413C456.196 272.901 455.858 273.302 455.399 273.632C454.94 273.958 454.36 274.121 453.66 274.121C453.081 274.121 452.565 273.994 452.115 273.74C451.664 273.483 451.31 273.096 451.052 272.581C450.795 272.062 450.666 271.408 450.666 270.619V264.727H452.091V270.523C452.091 271.199 452.28 271.738 452.658 272.141C453.04 272.543 453.527 272.744 454.119 272.744C454.473 272.744 454.833 272.654 455.2 272.473C455.57 272.292 455.88 272.014 456.129 271.64C456.383 271.265 456.51 270.788 456.51 270.209ZM464.432 274.193C463.538 274.193 462.767 273.996 462.119 273.602C461.475 273.203 460.978 272.648 460.628 271.935C460.282 271.219 460.109 270.386 460.109 269.436C460.109 268.486 460.282 267.649 460.628 266.925C460.978 266.196 461.465 265.629 462.089 265.222C462.717 264.812 463.45 264.607 464.287 264.607C464.77 264.607 465.246 264.687 465.717 264.848C466.188 265.009 466.617 265.271 467.003 265.633C467.39 265.991 467.697 266.466 467.927 267.058C468.156 267.649 468.271 268.378 468.271 269.243V269.847H461.123V268.615H466.822C466.822 268.092 466.717 267.625 466.508 267.214C466.303 266.804 466.009 266.48 465.627 266.243C465.249 266.005 464.802 265.886 464.287 265.886C463.719 265.886 463.228 266.027 462.814 266.309C462.403 266.587 462.087 266.949 461.866 267.396C461.644 267.842 461.534 268.321 461.534 268.832V269.653C461.534 270.354 461.655 270.947 461.896 271.434C462.141 271.917 462.482 272.286 462.916 272.539C463.351 272.789 463.856 272.913 464.432 272.913C464.806 272.913 465.144 272.861 465.446 272.756C465.752 272.648 466.015 272.487 466.237 272.273C466.458 272.056 466.629 271.786 466.75 271.464L468.126 271.851C467.981 272.318 467.738 272.728 467.396 273.082C467.054 273.433 466.631 273.706 466.128 273.903C465.625 274.097 465.059 274.193 464.432 274.193ZM471.863 268.422V274H470.438V264.727H471.815V266.176H471.935C472.153 265.705 472.483 265.327 472.925 265.041C473.368 264.751 473.94 264.607 474.64 264.607C475.268 264.607 475.817 264.735 476.288 264.993C476.759 265.246 477.125 265.633 477.387 266.152C477.648 266.667 477.779 267.319 477.779 268.108V274H476.354V268.205C476.354 267.476 476.165 266.909 475.787 266.502C475.409 266.092 474.889 265.886 474.229 265.886C473.775 265.886 473.368 265.985 473.01 266.182C472.656 266.379 472.376 266.667 472.171 267.045C471.966 267.424 471.863 267.883 471.863 268.422ZM484.415 264.727V265.935H479.61V264.727H484.415ZM481.01 262.506H482.435V271.344C482.435 271.746 482.494 272.048 482.61 272.249C482.731 272.446 482.884 272.579 483.069 272.648C483.258 272.712 483.457 272.744 483.667 272.744C483.824 272.744 483.952 272.736 484.053 272.72C484.154 272.7 484.234 272.684 484.295 272.672L484.584 273.952C484.488 273.988 484.353 274.024 484.18 274.06C484.007 274.101 483.787 274.121 483.522 274.121C483.119 274.121 482.725 274.034 482.339 273.861C481.956 273.688 481.638 273.424 481.385 273.07C481.135 272.716 481.01 272.269 481.01 271.73V262.506Z" fill="white"/>
<defs>
<clipPath id="clip0_507_17830">
<rect width="40" height="35.552" fill="white" transform="translate(62 22.2241)"/>
</clipPath>
<clipPath id="clip1_507_17830">
<rect width="48" height="54" fill="white" transform="translate(276 173)"/>
</clipPath>
<clipPath id="clip2_507_17830">
<rect width="48" height="48" fill="white" transform="translate(422 176)"/>
</clipPath>
</defs>
</svg>
