<svg width="326" height="625" viewBox="0 0 326 625" fill="none" xmlns="http://www.w3.org/2000/svg">
<g clip-path="url(#clip0_507_17831)">
<rect x="45" y="0.0393066" width="80" height="80" rx="40" fill="#FFE435"/>
<g clip-path="url(#clip1_507_17831)">
<path d="M66.002 53.3708H70.446V57.8148H66.002V53.3708Z" fill="#222222"/>
<path d="M66.002 22.2634H70.446V53.3714H66.002V22.2634ZM74.89 22.2634H79.334V57.8154H74.89V22.2634ZM83.778 22.2634H88.222V57.8154H83.778V22.2634ZM92.666 22.2634H97.11V57.8154H92.666V22.2634ZM101.554 36.7064H105.998V43.3724H101.554V36.7064Z" fill="#222222"/>
</g>
<path d="M25.2834 105.539H23.7863C23.6977 105.109 23.5428 104.73 23.3214 104.404C23.1041 104.078 22.8385 103.805 22.5245 103.583C22.2147 103.358 21.8705 103.189 21.4922 103.076C21.1139 102.964 20.7195 102.907 20.309 102.907C19.5604 102.907 18.8823 103.096 18.2745 103.475C17.6709 103.853 17.1899 104.41 16.8317 105.147C16.4776 105.883 16.3005 106.787 16.3005 107.857C16.3005 108.928 16.4776 109.832 16.8317 110.568C17.1899 111.305 17.6709 111.862 18.2745 112.24C18.8823 112.619 19.5604 112.808 20.309 112.808C20.7195 112.808 21.1139 112.751 21.4922 112.639C21.8705 112.526 22.2147 112.359 22.5245 112.138C22.8385 111.912 23.1041 111.637 23.3214 111.311C23.5428 110.981 23.6977 110.602 23.7863 110.176H25.2834C25.1707 110.808 24.9655 111.373 24.6677 111.872C24.3698 112.371 23.9996 112.796 23.5569 113.146C23.1142 113.492 22.6171 113.756 22.0657 113.937C21.5184 114.118 20.9328 114.208 20.309 114.208C19.2545 114.208 18.3168 113.951 17.4958 113.436C16.6748 112.92 16.0288 112.188 15.5579 111.238C15.087 110.288 14.8516 109.161 14.8516 107.857C14.8516 106.554 15.087 105.427 15.5579 104.477C16.0288 103.527 16.6748 102.795 17.4958 102.279C18.3168 101.764 19.2545 101.507 20.309 101.507C20.9328 101.507 21.5184 101.597 22.0657 101.778C22.6171 101.959 23.1142 102.225 23.5569 102.575C23.9996 102.921 24.3698 103.344 24.6677 103.843C24.9655 104.338 25.1707 104.903 25.2834 105.539ZM28.9343 101.676V114.039H27.5095V101.676H28.9343ZM31.5437 114.039V104.767H32.9684V114.039H31.5437ZM32.2682 103.221C31.9905 103.221 31.751 103.127 31.5498 102.937C31.3526 102.748 31.254 102.521 31.254 102.255C31.254 101.99 31.3526 101.762 31.5498 101.573C31.751 101.384 31.9905 101.289 32.2682 101.289C32.5459 101.289 32.7833 101.384 32.9805 101.573C33.1817 101.762 33.2824 101.99 33.2824 102.255C33.2824 102.521 33.1817 102.748 32.9805 102.937C32.7833 103.127 32.5459 103.221 32.2682 103.221ZM39.3449 114.232C38.4756 114.232 37.7271 114.027 37.0992 113.617C36.4714 113.206 35.9884 112.641 35.6503 111.92C35.3123 111.2 35.1432 110.377 35.1432 109.451C35.1432 108.509 35.3163 107.678 35.6624 106.958C36.0126 106.234 36.4995 105.668 37.1234 105.262C37.7512 104.851 38.4837 104.646 39.3208 104.646C39.9728 104.646 40.5604 104.767 41.0836 105.008C41.6068 105.25 42.0354 105.588 42.3695 106.022C42.7035 106.457 42.9108 106.964 42.9913 107.544H41.5665C41.4579 107.121 41.2164 106.747 40.8421 106.421C40.4718 106.091 39.9728 105.926 39.3449 105.926C38.7896 105.926 38.3026 106.071 37.884 106.36C37.4695 106.646 37.1455 107.051 36.9121 107.574C36.6827 108.093 36.568 108.703 36.568 109.403C36.568 110.119 36.6806 110.743 36.906 111.274C37.1354 111.806 37.4574 112.218 37.8719 112.512C38.2905 112.806 38.7815 112.953 39.3449 112.953C39.7152 112.953 40.0513 112.888 40.3531 112.759C40.655 112.631 40.9105 112.446 41.1198 112.204C41.3291 111.963 41.478 111.673 41.5665 111.335H42.9913C42.9108 111.882 42.7115 112.375 42.3936 112.814C42.0797 113.248 41.6631 113.595 41.144 113.852C40.6288 114.106 40.0291 114.232 39.3449 114.232ZM46.4021 110.659L46.378 108.896H46.6677L50.7246 104.767H52.4873L48.1649 109.137H48.0442L46.4021 110.659ZM45.074 114.039V101.676H46.4987V114.039H45.074ZM50.966 114.039L47.3439 109.451L48.3581 108.461L52.7771 114.039H50.966ZM54.5142 114.039V101.676H56.0114V107.181H62.6037V101.676H64.1009V114.039H62.6037V108.509H56.0114V114.039H54.5142ZM70.6721 114.232C69.835 114.232 69.1005 114.033 68.4686 113.635C67.8408 113.236 67.3498 112.679 66.9956 111.963C66.6455 111.246 66.4704 110.409 66.4704 109.451C66.4704 108.485 66.6455 107.642 66.9956 106.922C67.3498 106.201 67.8408 105.642 68.4686 105.243C69.1005 104.845 69.835 104.646 70.6721 104.646C71.5092 104.646 72.2417 104.845 72.8695 105.243C73.5014 105.642 73.9924 106.201 74.3426 106.922C74.6967 107.642 74.8738 108.485 74.8738 109.451C74.8738 110.409 74.6967 111.246 74.3426 111.963C73.9924 112.679 73.5014 113.236 72.8695 113.635C72.2417 114.033 71.5092 114.232 70.6721 114.232ZM70.6721 112.953C71.308 112.953 71.8312 112.79 72.2417 112.464C72.6522 112.138 72.9561 111.709 73.1533 111.178C73.3505 110.647 73.4491 110.071 73.4491 109.451C73.4491 108.831 73.3505 108.254 73.1533 107.719C72.9561 107.183 72.6522 106.751 72.2417 106.421C71.8312 106.091 71.308 105.926 70.6721 105.926C70.0362 105.926 69.513 106.091 69.1025 106.421C68.692 106.751 68.3881 107.183 68.1909 107.719C67.9937 108.254 67.8951 108.831 67.8951 109.451C67.8951 110.071 67.9937 110.647 68.1909 111.178C68.3881 111.709 68.692 112.138 69.1025 112.464C69.513 112.79 70.0362 112.953 70.6721 112.953ZM82.8924 110.248V104.767H84.3171V114.039H82.8924V112.47H82.7958C82.5784 112.941 82.2404 113.341 81.7816 113.671C81.3228 113.997 80.7432 114.16 80.0429 114.16C79.4634 114.16 78.9482 114.033 78.4975 113.78C78.0467 113.522 77.6925 113.136 77.435 112.621C77.1774 112.101 77.0486 111.447 77.0486 110.659V104.767H78.4733V110.562C78.4733 111.238 78.6625 111.777 79.0408 112.18C79.4231 112.582 79.9101 112.784 80.5017 112.784C80.8559 112.784 81.2161 112.693 81.5823 112.512C81.9526 112.331 82.2625 112.053 82.512 111.679C82.7656 111.305 82.8924 110.828 82.8924 110.248ZM93.4947 106.843L92.2149 107.205C92.1344 106.992 92.0157 106.785 91.8587 106.584C91.7058 106.378 91.4965 106.209 91.2309 106.077C90.9652 105.944 90.6252 105.877 90.2106 105.877C89.6432 105.877 89.1703 106.008 88.7919 106.27C88.4177 106.527 88.2305 106.855 88.2305 107.254C88.2305 107.608 88.3593 107.888 88.6169 108.093C88.8745 108.298 89.2769 108.469 89.8243 108.606L91.2007 108.944C92.0298 109.145 92.6475 109.453 93.054 109.868C93.4605 110.278 93.6638 110.808 93.6638 111.455C93.6638 111.987 93.5108 112.462 93.2049 112.88C92.9031 113.299 92.4805 113.629 91.9372 113.87C91.3939 114.112 90.762 114.232 90.0416 114.232C89.0958 114.232 88.313 114.027 87.6932 113.617C87.0734 113.206 86.681 112.607 86.516 111.818L87.8683 111.48C87.9971 111.979 88.2406 112.353 88.5988 112.603C88.961 112.852 89.4339 112.977 90.0174 112.977C90.6815 112.977 91.2087 112.836 91.5991 112.554C91.9935 112.268 92.1907 111.926 92.1907 111.528C92.1907 111.206 92.0781 110.936 91.8527 110.719C91.6273 110.498 91.2812 110.333 90.8143 110.224L89.2689 109.862C88.4197 109.661 87.7959 109.349 87.3974 108.926C87.003 108.499 86.8058 107.966 86.8058 107.326C86.8058 106.803 86.9527 106.34 87.2465 105.938C87.5443 105.535 87.9488 105.219 88.4599 104.99C88.9751 104.761 89.5586 104.646 90.2106 104.646C91.1282 104.646 91.8486 104.847 92.3718 105.25C92.8991 105.652 93.2734 106.183 93.4947 106.843ZM99.6962 114.232C98.8027 114.232 98.032 114.035 97.384 113.641C96.7401 113.242 96.243 112.687 95.8929 111.975C95.5468 111.258 95.3737 110.425 95.3737 109.475C95.3737 108.526 95.5468 107.688 95.8929 106.964C96.243 106.236 96.73 105.668 97.3538 105.262C97.9817 104.851 98.7141 104.646 99.5513 104.646C100.034 104.646 100.511 104.726 100.982 104.887C101.453 105.048 101.882 105.31 102.268 105.672C102.654 106.03 102.962 106.505 103.192 107.097C103.421 107.688 103.536 108.417 103.536 109.282V109.886H96.3879V108.654H102.087C102.087 108.131 101.982 107.664 101.773 107.254C101.568 106.843 101.274 106.519 100.891 106.282C100.513 106.044 100.066 105.926 99.5513 105.926C98.9838 105.926 98.4928 106.067 98.0783 106.348C97.6677 106.626 97.3518 106.988 97.1305 107.435C96.9091 107.882 96.7984 108.361 96.7984 108.872V109.693C96.7984 110.393 96.9192 110.987 97.1606 111.474C97.4061 111.957 97.7462 112.325 98.1809 112.578C98.6155 112.828 99.1206 112.953 99.6962 112.953C100.07 112.953 100.409 112.9 100.71 112.796C101.016 112.687 101.28 112.526 101.501 112.313C101.723 112.095 101.894 111.826 102.014 111.504L103.391 111.89C103.246 112.357 103.002 112.768 102.66 113.122C102.318 113.472 101.896 113.746 101.393 113.943C100.889 114.136 100.324 114.232 99.6962 114.232ZM120.626 105.539H119.129C119.04 105.109 118.886 104.73 118.664 104.404C118.447 104.078 118.181 103.805 117.867 103.583C117.557 103.358 117.213 103.189 116.835 103.076C116.457 102.964 116.062 102.907 115.652 102.907C114.903 102.907 114.225 103.096 113.617 103.475C113.014 103.853 112.533 104.41 112.174 105.147C111.82 105.883 111.643 106.787 111.643 107.857C111.643 108.928 111.82 109.832 112.174 110.568C112.533 111.305 113.014 111.862 113.617 112.24C114.225 112.619 114.903 112.808 115.652 112.808C116.062 112.808 116.457 112.751 116.835 112.639C117.213 112.526 117.557 112.359 117.867 112.138C118.181 111.912 118.447 111.637 118.664 111.311C118.886 110.981 119.04 110.602 119.129 110.176H120.626C120.514 110.808 120.308 111.373 120.01 111.872C119.713 112.371 119.342 112.796 118.9 113.146C118.457 113.492 117.96 113.756 117.409 113.937C116.861 114.118 116.276 114.208 115.652 114.208C114.597 114.208 113.66 113.951 112.839 113.436C112.018 112.92 111.372 112.188 110.901 111.238C110.43 110.288 110.194 109.161 110.194 107.857C110.194 106.554 110.43 105.427 110.901 104.477C111.372 103.527 112.018 102.795 112.839 102.279C113.66 101.764 114.597 101.507 115.652 101.507C116.276 101.507 116.861 101.597 117.409 101.778C117.96 101.959 118.457 102.225 118.9 102.575C119.342 102.921 119.713 103.344 120.01 103.843C120.308 104.338 120.514 104.903 120.626 105.539ZM124.277 101.676V114.039H122.852V101.676H124.277ZM130.654 114.232C129.816 114.232 129.082 114.033 128.45 113.635C127.822 113.236 127.331 112.679 126.977 111.963C126.627 111.246 126.452 110.409 126.452 109.451C126.452 108.485 126.627 107.642 126.977 106.922C127.331 106.201 127.822 105.642 128.45 105.243C129.082 104.845 129.816 104.646 130.654 104.646C131.491 104.646 132.223 104.845 132.851 105.243C133.483 105.642 133.974 106.201 134.324 106.922C134.678 107.642 134.855 108.485 134.855 109.451C134.855 110.409 134.678 111.246 134.324 111.963C133.974 112.679 133.483 113.236 132.851 113.635C132.223 114.033 131.491 114.232 130.654 114.232ZM130.654 112.953C131.289 112.953 131.813 112.79 132.223 112.464C132.634 112.138 132.938 111.709 133.135 111.178C133.332 110.647 133.431 110.071 133.431 109.451C133.431 108.831 133.332 108.254 133.135 107.719C132.938 107.183 132.634 106.751 132.223 106.421C131.813 106.091 131.289 105.926 130.654 105.926C130.018 105.926 129.494 106.091 129.084 106.421C128.673 106.751 128.37 107.183 128.172 107.719C127.975 108.254 127.877 108.831 127.877 109.451C127.877 110.071 127.975 110.647 128.172 111.178C128.37 111.709 128.673 112.138 129.084 112.464C129.494 112.79 130.018 112.953 130.654 112.953ZM142.874 110.248V104.767H144.299V114.039H142.874V112.47H142.777C142.56 112.941 142.222 113.341 141.763 113.671C141.304 113.997 140.725 114.16 140.024 114.16C139.445 114.16 138.93 114.033 138.479 113.78C138.028 113.522 137.674 113.136 137.416 112.621C137.159 112.101 137.03 111.447 137.03 110.659V104.767H138.455V110.562C138.455 111.238 138.644 111.777 139.022 112.18C139.405 112.582 139.892 112.784 140.483 112.784C140.837 112.784 141.198 112.693 141.564 112.512C141.934 112.331 142.244 112.053 142.493 111.679C142.747 111.305 142.874 110.828 142.874 110.248ZM150.409 114.232C149.637 114.232 148.955 114.037 148.363 113.647C147.771 113.252 147.308 112.697 146.974 111.981C146.64 111.26 146.473 110.409 146.473 109.427C146.473 108.453 146.64 107.608 146.974 106.892C147.308 106.175 147.773 105.622 148.369 105.231C148.965 104.841 149.653 104.646 150.434 104.646C151.037 104.646 151.514 104.746 151.864 104.948C152.218 105.145 152.488 105.37 152.673 105.624C152.862 105.873 153.009 106.079 153.114 106.24H153.235V101.676H154.659V114.039H153.283V112.615H153.114C153.009 112.784 152.86 112.997 152.667 113.255C152.474 113.508 152.198 113.735 151.84 113.937C151.482 114.134 151.005 114.232 150.409 114.232ZM150.603 112.953C151.174 112.953 151.657 112.804 152.051 112.506C152.446 112.204 152.746 111.788 152.951 111.256C153.156 110.721 153.259 110.103 153.259 109.403C153.259 108.711 153.158 108.105 152.957 107.586C152.756 107.063 152.458 106.656 152.064 106.366C151.669 106.073 151.182 105.926 150.603 105.926C149.999 105.926 149.496 106.081 149.093 106.391C148.695 106.696 148.395 107.113 148.194 107.64C147.997 108.163 147.898 108.751 147.898 109.403C147.898 110.063 147.999 110.663 148.2 111.202C148.405 111.737 148.707 112.164 149.105 112.482C149.508 112.796 150.007 112.953 150.603 112.953Z" fill="white"/>
<circle cx="241" cy="40.0393" r="40" fill="#336791"/>
<path d="M239.953 50.5054C239.79 56.3103 239.993 62.1556 240.561 63.5763C241.13 64.9969 242.346 67.7601 246.528 66.864C250.023 66.1149 251.294 64.6652 251.846 61.4654C252.252 59.1111 253.035 52.5728 253.136 51.2332" stroke="white" stroke-width="1.4" stroke-linecap="round" stroke-linejoin="round"/>
<path d="M234.94 21.4051C234.94 21.4051 216.004 13.6658 216.884 31.2654C217.071 35.0096 222.251 59.5964 228.429 52.1699C230.686 49.4541 232.728 47.3241 232.728 47.3241" stroke="white" stroke-width="1.4" stroke-linecap="round" stroke-linejoin="round"/>
<path d="M245.167 19.9925C244.512 20.198 255.7 15.9024 262.059 24.0273C264.305 26.8976 261.702 38.625 255.476 47.8641" stroke="white" stroke-width="1.4" stroke-linecap="round" stroke-linejoin="round"/>
<path d="M255.476 47.864C255.476 47.864 255.882 49.8612 261.779 48.6439C264.363 48.1103 262.808 50.1415 260.187 51.3585C258.037 52.3566 253.215 52.6124 253.136 51.2331C252.933 47.6745 255.674 48.7557 255.476 47.864ZM255.476 47.864C255.297 47.0609 254.072 46.2728 253.261 44.3074C252.553 42.5919 243.555 29.4365 255.757 31.3903C256.204 31.2978 252.574 19.784 241.155 19.5968C229.738 19.4096 230.113 33.6368 230.113 33.6368" stroke="white" stroke-width="1.4" stroke-linecap="round" stroke-linejoin="bevel"/>
<path d="M236.757 49.0813C235.165 50.8592 235.633 51.1714 232.452 51.8265C229.233 52.4901 231.124 53.6709 232.358 53.9795C233.855 54.3541 237.318 54.8843 239.658 51.608C240.37 50.6105 239.654 49.0188 238.675 48.613C238.202 48.4172 237.57 48.1717 236.757 49.0813Z" stroke="white" stroke-width="1.4" stroke-linecap="round" stroke-linejoin="round"/>
<path d="M236.653 49.05C236.492 48.0046 236.996 46.7606 237.536 45.3053C238.348 43.1217 240.22 40.9378 238.722 34.0112C237.606 28.8496 230.118 32.937 230.113 33.6369C230.108 34.3365 230.452 37.1844 229.988 40.5006C229.383 44.8281 232.741 48.488 236.609 48.1135" stroke="white" stroke-width="1.4" stroke-linecap="round" stroke-linejoin="round"/>
<path d="M234.602 33.7562C234.569 33.9952 235.04 34.6331 235.655 34.7183C236.268 34.8039 236.793 34.3054 236.827 34.0666C236.86 33.8276 236.389 33.5643 235.774 33.4787C235.16 33.393 234.635 33.5178 234.602 33.7562Z" stroke="white" stroke-width="1.3"/>
<path d="M253.796 33.4156C253.829 33.6546 253.359 34.2925 252.744 34.3777C252.13 34.4633 251.605 33.9648 251.571 33.726C251.538 33.487 252.009 33.2237 252.624 33.1381C253.238 33.0525 253.763 33.177 253.796 33.4156Z" stroke="white" stroke-width="1.3"/>
<path d="M255.757 31.3906C255.858 33.2656 255.353 34.5428 255.289 36.5388C255.195 39.4401 256.673 42.7608 254.446 46.0856" stroke="white" stroke-width="1.4" stroke-linecap="round" stroke-linejoin="round"/>
<path d="M194.676 114.039V101.676H198.854C199.824 101.676 200.617 101.851 201.232 102.201C201.852 102.547 202.311 103.016 202.609 103.607C202.907 104.199 203.056 104.859 203.056 105.588C203.056 106.316 202.907 106.978 202.609 107.574C202.315 108.169 201.86 108.644 201.245 108.998C200.629 109.349 199.84 109.524 198.878 109.524H195.884V108.196H198.83C199.494 108.196 200.027 108.081 200.43 107.851C200.832 107.622 201.124 107.312 201.305 106.922C201.49 106.527 201.583 106.083 201.583 105.588C201.583 105.093 201.49 104.65 201.305 104.259C201.124 103.869 200.83 103.563 200.424 103.342C200.017 103.116 199.478 103.004 198.806 103.004H196.174V114.039H194.676ZM208.942 114.232C208.105 114.232 207.37 114.033 206.738 113.635C206.11 113.236 205.619 112.679 205.265 111.963C204.915 111.246 204.74 110.409 204.74 109.451C204.74 108.485 204.915 107.642 205.265 106.922C205.619 106.201 206.11 105.642 206.738 105.243C207.37 104.845 208.105 104.646 208.942 104.646C209.779 104.646 210.511 104.845 211.139 105.243C211.771 105.642 212.262 106.201 212.612 106.922C212.966 107.642 213.143 108.485 213.143 109.451C213.143 110.409 212.966 111.246 212.612 111.963C212.262 112.679 211.771 113.236 211.139 113.635C210.511 114.033 209.779 114.232 208.942 114.232ZM208.942 112.953C209.578 112.953 210.101 112.79 210.511 112.464C210.922 112.138 211.226 111.709 211.423 111.178C211.62 110.647 211.719 110.071 211.719 109.451C211.719 108.831 211.62 108.254 211.423 107.719C211.226 107.183 210.922 106.751 210.511 106.421C210.101 106.091 209.578 105.926 208.942 105.926C208.306 105.926 207.783 106.091 207.372 106.421C206.962 106.751 206.658 107.183 206.46 107.719C206.263 108.254 206.165 108.831 206.165 109.451C206.165 110.071 206.263 110.647 206.46 111.178C206.658 111.709 206.962 112.138 207.372 112.464C207.783 112.79 208.306 112.953 208.942 112.953ZM221.886 106.843L220.606 107.205C220.526 106.992 220.407 106.785 220.25 106.584C220.097 106.378 219.888 106.209 219.622 106.077C219.357 105.944 219.017 105.877 218.602 105.877C218.035 105.877 217.562 106.008 217.184 106.27C216.809 106.527 216.622 106.855 216.622 107.254C216.622 107.608 216.751 107.888 217.008 108.093C217.266 108.298 217.669 108.469 218.216 108.606L219.592 108.944C220.421 109.145 221.039 109.453 221.446 109.868C221.852 110.278 222.055 110.808 222.055 111.455C222.055 111.987 221.902 112.462 221.597 112.88C221.295 113.299 220.872 113.629 220.329 113.87C219.785 114.112 219.154 114.232 218.433 114.232C217.487 114.232 216.705 114.027 216.085 113.617C215.465 113.206 215.073 112.607 214.908 111.818L216.26 111.48C216.389 111.979 216.632 112.353 216.99 112.603C217.353 112.852 217.825 112.977 218.409 112.977C219.073 112.977 219.6 112.836 219.991 112.554C220.385 112.268 220.582 111.926 220.582 111.528C220.582 111.206 220.47 110.936 220.244 110.719C220.019 110.498 219.673 110.333 219.206 110.224L217.66 109.862C216.811 109.661 216.187 109.349 215.789 108.926C215.395 108.499 215.197 107.966 215.197 107.326C215.197 106.803 215.344 106.34 215.638 105.938C215.936 105.535 216.34 105.219 216.852 104.99C217.367 104.761 217.95 104.646 218.602 104.646C219.52 104.646 220.24 104.847 220.763 105.25C221.291 105.652 221.665 106.183 221.886 106.843ZM228.233 104.767V105.974H223.427V104.767H228.233ZM224.828 102.545H226.253V111.383C226.253 111.786 226.311 112.087 226.428 112.289C226.548 112.486 226.701 112.619 226.886 112.687C227.076 112.751 227.275 112.784 227.484 112.784C227.641 112.784 227.77 112.776 227.87 112.759C227.971 112.739 228.052 112.723 228.112 112.711L228.402 113.991C228.305 114.027 228.17 114.063 227.997 114.1C227.824 114.14 227.605 114.16 227.339 114.16C226.937 114.16 226.542 114.074 226.156 113.9C225.774 113.727 225.456 113.464 225.202 113.11C224.953 112.755 224.828 112.309 224.828 111.769V102.545ZM234.019 117.71C233.331 117.71 232.739 117.621 232.244 117.444C231.749 117.271 231.337 117.042 231.007 116.756C230.681 116.474 230.421 116.172 230.228 115.85L231.363 115.054C231.492 115.223 231.655 115.416 231.852 115.633C232.049 115.854 232.319 116.046 232.661 116.207C233.007 116.372 233.46 116.454 234.019 116.454C234.768 116.454 235.385 116.273 235.872 115.911C236.359 115.549 236.603 114.981 236.603 114.208V112.325H236.482C236.377 112.494 236.229 112.703 236.035 112.953C235.846 113.198 235.573 113.418 235.214 113.611C234.86 113.8 234.381 113.894 233.778 113.894C233.029 113.894 232.357 113.717 231.761 113.363C231.17 113.009 230.701 112.494 230.355 111.818C230.013 111.142 229.841 110.321 229.841 109.355C229.841 108.405 230.009 107.578 230.343 106.873C230.677 106.165 231.141 105.618 231.737 105.231C232.333 104.841 233.021 104.646 233.802 104.646C234.405 104.646 234.884 104.746 235.239 104.948C235.597 105.145 235.87 105.37 236.06 105.624C236.253 105.873 236.402 106.079 236.506 106.24H236.651V104.767H238.028V114.305C238.028 115.102 237.846 115.75 237.484 116.249C237.126 116.752 236.643 117.12 236.035 117.354C235.432 117.591 234.76 117.71 234.019 117.71ZM233.971 112.615C234.542 112.615 235.025 112.484 235.42 112.222C235.814 111.961 236.114 111.584 236.319 111.093C236.524 110.602 236.627 110.015 236.627 109.33C236.627 108.662 236.526 108.073 236.325 107.562C236.124 107.051 235.826 106.65 235.432 106.36C235.037 106.071 234.55 105.926 233.971 105.926C233.367 105.926 232.864 106.079 232.462 106.384C232.063 106.69 231.763 107.101 231.562 107.616C231.365 108.131 231.266 108.703 231.266 109.33C231.266 109.974 231.367 110.544 231.568 111.039C231.773 111.53 232.075 111.916 232.474 112.198C232.876 112.476 233.375 112.615 233.971 112.615ZM240.636 114.039V104.767H242.012V106.167H242.109C242.274 105.708 242.577 105.336 243.02 105.05C243.463 104.765 243.964 104.622 244.523 104.622C244.781 104.622 245.006 104.652 245.199 104.712C245.393 104.773 245.562 104.855 245.707 104.96L245.224 106.167C245.123 106.115 245.004 106.075 244.867 106.046C244.735 106.014 244.58 105.998 244.403 105.998C243.952 105.998 243.549 106.093 243.195 106.282C242.845 106.471 242.567 106.729 242.362 107.055C242.161 107.381 242.06 107.753 242.06 108.171V114.039H240.636ZM250.765 114.232C249.872 114.232 249.101 114.035 248.453 113.641C247.809 113.242 247.312 112.687 246.962 111.975C246.616 111.258 246.443 110.425 246.443 109.475C246.443 108.526 246.616 107.688 246.962 106.964C247.312 106.236 247.799 105.668 248.423 105.262C249.051 104.851 249.783 104.646 250.621 104.646C251.104 104.646 251.58 104.726 252.051 104.887C252.522 105.048 252.951 105.31 253.337 105.672C253.724 106.03 254.031 106.505 254.261 107.097C254.49 107.688 254.605 108.417 254.605 109.282V109.886H247.457V108.654H253.156C253.156 108.131 253.051 107.664 252.842 107.254C252.637 106.843 252.343 106.519 251.961 106.282C251.582 106.044 251.136 105.926 250.621 105.926C250.053 105.926 249.562 106.067 249.148 106.348C248.737 106.626 248.421 106.988 248.2 107.435C247.978 107.882 247.868 108.361 247.868 108.872V109.693C247.868 110.393 247.989 110.987 248.23 111.474C248.475 111.957 248.816 112.325 249.25 112.578C249.685 112.828 250.19 112.953 250.765 112.953C251.14 112.953 251.478 112.9 251.78 112.796C252.086 112.687 252.349 112.526 252.571 112.313C252.792 112.095 252.963 111.826 253.084 111.504L254.46 111.89C254.315 112.357 254.072 112.768 253.73 113.122C253.388 113.472 252.965 113.746 252.462 113.943C251.959 114.136 251.393 114.232 250.765 114.232ZM263.727 104.767C263.654 104.155 263.361 103.68 262.845 103.342C262.33 103.004 261.698 102.835 260.95 102.835C260.402 102.835 259.924 102.923 259.513 103.1C259.107 103.277 258.789 103.521 258.559 103.831C258.334 104.141 258.221 104.493 258.221 104.887C258.221 105.217 258.3 105.501 258.457 105.739C258.618 105.972 258.823 106.167 259.072 106.324C259.322 106.477 259.583 106.604 259.857 106.704C260.131 106.801 260.382 106.88 260.612 106.94L261.867 107.278C262.189 107.362 262.548 107.479 262.942 107.628C263.34 107.777 263.721 107.98 264.083 108.238C264.449 108.491 264.751 108.817 264.989 109.216C265.226 109.614 265.345 110.103 265.345 110.683C265.345 111.351 265.17 111.955 264.819 112.494C264.473 113.033 263.966 113.462 263.298 113.78C262.634 114.098 261.827 114.257 260.877 114.257C259.992 114.257 259.225 114.114 258.577 113.828C257.933 113.542 257.426 113.144 257.056 112.633C256.69 112.122 256.482 111.528 256.434 110.852H257.98C258.02 111.319 258.177 111.705 258.451 112.011C258.728 112.313 259.078 112.538 259.501 112.687C259.928 112.832 260.386 112.904 260.877 112.904C261.449 112.904 261.962 112.812 262.417 112.627C262.872 112.438 263.232 112.176 263.497 111.842C263.763 111.504 263.896 111.109 263.896 110.659C263.896 110.248 263.781 109.914 263.552 109.656C263.322 109.399 263.02 109.19 262.646 109.029C262.272 108.868 261.867 108.727 261.433 108.606L259.911 108.171C258.946 107.894 258.181 107.497 257.617 106.982C257.054 106.467 256.772 105.793 256.772 104.96C256.772 104.268 256.959 103.664 257.334 103.149C257.712 102.63 258.219 102.227 258.855 101.941C259.495 101.652 260.209 101.507 260.998 101.507C261.795 101.507 262.503 101.65 263.123 101.935C263.743 102.217 264.234 102.603 264.596 103.094C264.962 103.585 265.156 104.143 265.176 104.767H263.727ZM272.298 110.176H273.94L275.316 111.987L275.678 112.47L277.731 115.198H276.089L274.737 113.387L274.399 112.929L272.298 110.176ZM278.238 107.857C278.238 109.161 278.003 110.288 277.532 111.238C277.061 112.188 276.415 112.92 275.594 113.436C274.773 113.951 273.835 114.208 272.781 114.208C271.726 114.208 270.788 113.951 269.967 113.436C269.146 112.92 268.5 112.188 268.03 111.238C267.559 110.288 267.323 109.161 267.323 107.857C267.323 106.554 267.559 105.427 268.03 104.477C268.5 103.527 269.146 102.795 269.967 102.279C270.788 101.764 271.726 101.507 272.781 101.507C273.835 101.507 274.773 101.764 275.594 102.279C276.415 102.795 277.061 103.527 277.532 104.477C278.003 105.427 278.238 106.554 278.238 107.857ZM276.789 107.857C276.789 106.787 276.61 105.883 276.252 105.147C275.898 104.41 275.417 103.853 274.809 103.475C274.205 103.096 273.529 102.907 272.781 102.907C272.032 102.907 271.354 103.096 270.746 103.475C270.143 103.853 269.662 104.41 269.303 105.147C268.949 105.883 268.772 106.787 268.772 107.857C268.772 108.928 268.949 109.832 269.303 110.568C269.662 111.305 270.143 111.862 270.746 112.24C271.354 112.619 272.032 112.808 272.781 112.808C273.529 112.808 274.205 112.619 274.809 112.24C275.417 111.862 275.898 111.305 276.252 110.568C276.61 109.832 276.789 108.928 276.789 107.857ZM280.755 114.039V101.676H282.253V112.711H288V114.039H280.755Z" fill="white"/>
<rect x="45" y="160.039" width="80" height="80" rx="40" fill="#29B5E8"/>
<path d="M100.584 211.434L91.4079 206.133C90.1188 205.391 88.4704 205.832 87.7243 207.121C87.4352 207.629 87.3219 208.188 87.3766 208.731V219.09C87.3766 220.571 88.5797 221.774 90.0641 221.774C91.5446 221.774 92.7477 220.571 92.7477 219.09V213.133L97.8883 216.102C99.1774 216.848 100.83 216.403 101.572 215.114C102.318 213.825 101.877 212.176 100.584 211.434Z" fill="white"/>
<path d="M77.7628 200.074C77.7784 199.117 77.2745 198.227 76.4464 197.746L67.2706 192.449C66.8721 192.219 66.4151 192.098 65.9581 192.098C65.0167 192.098 64.1417 192.602 63.6729 193.414C62.9464 194.672 63.38 196.285 64.6378 197.012L69.9268 200.063L64.6378 203.117C64.0284 203.469 63.5909 204.035 63.4112 204.715C63.2276 205.395 63.3214 206.106 63.6729 206.715C64.1417 207.528 65.0167 208.031 65.9542 208.031C66.4151 208.031 66.8721 207.91 67.2706 207.68L76.4464 202.383C77.2667 201.906 77.7706 201.024 77.7628 200.074Z" fill="white"/>
<path d="M69.3531 188.696L78.5289 193.992C79.5992 194.614 80.9195 194.41 81.7633 193.586C82.2984 193.094 82.6305 192.391 82.6305 191.61V180.992C82.6305 179.508 81.4273 178.305 79.9469 178.305C78.4625 178.305 77.2594 179.508 77.2594 180.992V187.035L72.0484 184.028C70.7594 183.281 69.1109 183.723 68.3648 185.012C67.6187 186.301 68.064 187.949 69.3531 188.696Z" fill="white"/>
<path d="M89.9854 200.504C89.9854 200.707 89.8682 200.989 89.7236 201.137L86.0869 204.774C85.9424 204.918 85.6572 205.035 85.4541 205.035H84.5283C84.3252 205.035 84.04 204.918 83.8955 204.774L80.2549 201.137C80.1104 200.989 79.9932 200.707 79.9932 200.504V199.578C79.9932 199.371 80.1104 199.09 80.2549 198.946L83.8955 195.305C84.04 195.16 84.3252 195.043 84.5283 195.043H85.4541C85.6572 195.043 85.9424 195.16 86.0869 195.305L89.7236 198.946C89.8682 199.09 89.9854 199.371 89.9854 199.578V200.504ZM86.7393 200.059V200.02C86.7393 199.871 86.6533 199.664 86.5479 199.555L85.4736 198.485C85.3682 198.375 85.1611 198.289 85.0088 198.289H84.9697C84.8213 198.289 84.6143 198.375 84.5049 198.485L83.4346 199.555C83.3291 199.66 83.2432 199.867 83.2432 200.02V200.059C83.2432 200.211 83.3291 200.418 83.4346 200.524L84.5049 201.598C84.6143 201.703 84.8213 201.789 84.9697 201.789H85.0088C85.1611 201.789 85.3682 201.703 85.4736 201.598L86.5479 200.524C86.6533 200.418 86.7393 200.211 86.7393 200.059Z" fill="white"/>
<path d="M91.4078 193.992L100.584 188.696C101.873 187.953 102.318 186.301 101.572 185.012C100.826 183.723 99.1773 183.281 97.8882 184.028L92.7476 186.996V180.992C92.7476 179.508 91.5445 178.305 90.064 178.305C88.5796 178.305 87.3765 179.508 87.3765 180.992V191.399C87.3257 191.938 87.4312 192.5 87.7242 193.008C88.4703 194.297 90.1187 194.739 91.4078 193.992Z" fill="white"/>
<path d="M80.3687 205.821C79.7594 205.703 79.107 205.801 78.5289 206.133L69.3531 211.434C68.064 212.176 67.6187 213.824 68.3648 215.113C69.1109 216.406 70.7594 216.848 72.0484 216.102L77.2594 213.094V219.09C77.2594 220.571 78.4625 221.774 79.9469 221.774C81.4273 221.774 82.6305 220.571 82.6305 219.09V208.473C82.6305 207.133 81.65 206.024 80.3687 205.821Z" fill="white"/>
<path d="M106.318 193.383C105.576 192.09 103.923 191.649 102.634 192.395L93.4584 197.692C92.5795 198.199 92.0951 199.129 92.1107 200.074C92.1029 201.016 92.5873 201.934 93.4584 202.434L102.634 207.735C103.923 208.477 105.572 208.035 106.318 206.746C107.064 205.457 106.619 203.809 105.329 203.063L100.134 200.063L105.329 197.063C106.622 196.321 107.064 194.672 106.318 193.383Z" fill="white"/>
<path d="M51.7961 264.767C51.7237 264.155 51.4299 263.68 50.9147 263.342C50.3996 263.004 49.7677 262.835 49.0191 262.835C48.4718 262.835 47.9929 262.923 47.5823 263.1C47.1759 263.277 46.8579 263.521 46.6285 263.831C46.4031 264.141 46.2904 264.493 46.2904 264.887C46.2904 265.217 46.3689 265.501 46.5259 265.739C46.6869 265.972 46.8921 266.167 47.1416 266.324C47.3912 266.477 47.6528 266.604 47.9264 266.704C48.2001 266.801 48.4517 266.88 48.6811 266.94L49.9367 267.278C50.2587 267.362 50.6169 267.479 51.0113 267.628C51.4098 267.777 51.7901 267.98 52.1523 268.238C52.5185 268.491 52.8204 268.817 53.0578 269.216C53.2953 269.614 53.414 270.103 53.414 270.683C53.414 271.351 53.2389 271.955 52.8888 272.494C52.5427 273.033 52.0356 273.462 51.3675 273.78C50.7034 274.098 49.8965 274.257 48.9467 274.257C48.0613 274.257 47.2946 274.114 46.6466 273.828C46.0027 273.542 45.4956 273.144 45.1253 272.633C44.7591 272.122 44.5518 271.528 44.5035 270.852H46.049C46.0892 271.319 46.2462 271.705 46.5198 272.011C46.7975 272.313 47.1477 272.538 47.5703 272.687C47.9969 272.832 48.4557 272.904 48.9467 272.904C49.5182 272.904 50.0313 272.812 50.4861 272.627C50.9409 272.438 51.3011 272.176 51.5667 271.842C51.8323 271.504 51.9652 271.109 51.9652 270.659C51.9652 270.248 51.8505 269.914 51.621 269.656C51.3916 269.399 51.0898 269.19 50.7155 269.029C50.3412 268.868 49.9367 268.727 49.5021 268.606L47.9808 268.171C47.0149 267.894 46.2502 267.497 45.6867 266.982C45.1233 266.467 44.8416 265.793 44.8416 264.96C44.8416 264.268 45.0287 263.664 45.403 263.149C45.7813 262.63 46.2884 262.227 46.9243 261.941C47.5642 261.652 48.2786 261.507 49.0674 261.507C49.8643 261.507 50.5726 261.65 51.1924 261.935C51.8122 262.217 52.3032 262.603 52.6654 263.094C53.0317 263.585 53.2249 264.143 53.245 264.767H51.7961ZM57.1071 268.461V274.039H55.6824V264.767H57.0588V266.215H57.1796C57.3969 265.745 57.7269 265.366 58.1696 265.081C58.6123 264.791 59.1838 264.646 59.8841 264.646C60.5119 264.646 61.0613 264.775 61.5322 265.032C62.0031 265.286 62.3693 265.672 62.6309 266.191C62.8925 266.706 63.0233 267.358 63.0233 268.147V274.039H61.5986V268.244C61.5986 267.515 61.4094 266.948 61.0311 266.541C60.6528 266.131 60.1336 265.926 59.4736 265.926C59.0188 265.926 58.6123 266.024 58.2541 266.221C57.9 266.419 57.6203 266.706 57.415 267.085C57.2097 267.463 57.1071 267.922 57.1071 268.461ZM69.3938 274.232C68.5567 274.232 67.8222 274.033 67.1903 273.635C66.5625 273.236 66.0715 272.679 65.7173 271.963C65.3671 271.246 65.1921 270.409 65.1921 269.451C65.1921 268.485 65.3671 267.642 65.7173 266.922C66.0715 266.201 66.5625 265.642 67.1903 265.243C67.8222 264.845 68.5567 264.646 69.3938 264.646C70.2309 264.646 70.9634 264.845 71.5912 265.243C72.2231 265.642 72.7141 266.201 73.0642 266.922C73.4184 267.642 73.5955 268.485 73.5955 269.451C73.5955 270.409 73.4184 271.246 73.0642 271.963C72.7141 272.679 72.2231 273.236 71.5912 273.635C70.9634 274.033 70.2309 274.232 69.3938 274.232ZM69.3938 272.953C70.0297 272.953 70.5529 272.79 70.9634 272.464C71.3739 272.138 71.6777 271.709 71.875 271.178C72.0722 270.647 72.1708 270.071 72.1708 269.451C72.1708 268.831 72.0722 268.254 71.875 267.719C71.6777 267.183 71.3739 266.751 70.9634 266.421C70.5529 266.091 70.0297 265.926 69.3938 265.926C68.7579 265.926 68.2347 266.091 67.8242 266.421C67.4137 266.751 67.1098 267.183 66.9126 267.719C66.7154 268.254 66.6168 268.831 66.6168 269.451C66.6168 270.071 66.7154 270.647 66.9126 271.178C67.1098 271.709 67.4137 272.138 67.8242 272.464C68.2347 272.79 68.7579 272.953 69.3938 272.953ZM77.5557 274.039L74.7304 264.767H76.2276L78.2318 271.866H78.3284L80.3085 264.767H81.8299L83.7858 271.842H83.8824L85.8867 264.767H87.3838L84.5585 274.039H83.158L81.1296 266.916H80.9847L78.9563 274.039H77.5557ZM93.3966 264.767V265.974H88.398V264.767H93.3966ZM89.8952 274.039V263.487C89.8952 262.955 90.02 262.513 90.2695 262.159C90.519 261.804 90.843 261.539 91.2414 261.362C91.6399 261.185 92.0604 261.096 92.5032 261.096C92.8533 261.096 93.139 261.124 93.3604 261.181C93.5818 261.237 93.7468 261.289 93.8554 261.338L93.4449 262.569C93.3725 262.545 93.2719 262.515 93.1431 262.479C93.0183 262.442 92.8533 262.424 92.648 262.424C92.1772 262.424 91.8371 262.543 91.6278 262.78C91.4225 263.018 91.3199 263.366 91.3199 263.825V274.039H89.8952ZM96.818 261.676V274.039H95.3933V261.676H96.818ZM102.156 274.257C101.569 274.257 101.035 274.146 100.556 273.925C100.077 273.699 99.6972 273.375 99.4154 272.953C99.1337 272.526 98.9929 272.011 98.9929 271.407C98.9929 270.876 99.0975 270.445 99.3068 270.115C99.5161 269.781 99.7958 269.52 100.146 269.33C100.496 269.141 100.882 269 101.305 268.908C101.732 268.811 102.16 268.735 102.591 268.679C103.154 268.606 103.611 268.552 103.961 268.516C104.315 268.475 104.573 268.409 104.734 268.316C104.899 268.224 104.981 268.063 104.981 267.833V267.785C104.981 267.189 104.818 266.727 104.492 266.397C104.171 266.067 103.682 265.902 103.026 265.902C102.345 265.902 101.812 266.05 101.426 266.348C101.039 266.646 100.768 266.964 100.611 267.302L99.2585 266.819C99.5 266.256 99.8219 265.817 100.224 265.503C100.631 265.185 101.074 264.964 101.553 264.839C102.035 264.71 102.51 264.646 102.977 264.646C103.275 264.646 103.617 264.682 104.004 264.755C104.394 264.823 104.77 264.966 105.132 265.183C105.499 265.4 105.803 265.728 106.044 266.167C106.285 266.606 106.406 267.193 106.406 267.93V274.039H104.981V272.784H104.909C104.812 272.985 104.651 273.2 104.426 273.43C104.201 273.659 103.901 273.854 103.527 274.015C103.152 274.176 102.696 274.257 102.156 274.257ZM102.374 272.977C102.937 272.977 103.412 272.866 103.798 272.645C104.189 272.423 104.482 272.138 104.68 271.788C104.881 271.437 104.981 271.069 104.981 270.683V269.379C104.921 269.451 104.788 269.518 104.583 269.578C104.382 269.634 104.148 269.685 103.883 269.729C103.621 269.769 103.366 269.805 103.116 269.838C102.871 269.866 102.671 269.89 102.518 269.91C102.148 269.958 101.802 270.037 101.48 270.145C101.162 270.25 100.905 270.409 100.707 270.622C100.514 270.832 100.418 271.117 100.418 271.48C100.418 271.975 100.601 272.349 100.967 272.603C101.337 272.852 101.806 272.977 102.374 272.977ZM110.335 270.659L110.311 268.896H110.6L114.657 264.767H116.42L112.098 269.137H111.977L110.335 270.659ZM109.007 274.039V261.676H110.431V274.039H109.007ZM114.899 274.039L111.277 269.451L112.291 268.461L116.71 274.039H114.899ZM121.76 274.232C120.866 274.232 120.095 274.035 119.447 273.641C118.804 273.242 118.307 272.687 117.956 271.975C117.61 271.258 117.437 270.425 117.437 269.475C117.437 268.526 117.61 267.688 117.956 266.964C118.307 266.236 118.793 265.668 119.417 265.262C120.045 264.851 120.778 264.646 121.615 264.646C122.098 264.646 122.575 264.726 123.045 264.887C123.516 265.048 123.945 265.31 124.331 265.672C124.718 266.03 125.026 266.505 125.255 267.097C125.484 267.688 125.599 268.417 125.599 269.282V269.886H118.451V268.654H124.15C124.15 268.131 124.046 267.664 123.836 267.254C123.631 266.843 123.337 266.519 122.955 266.282C122.577 266.044 122.13 265.926 121.615 265.926C121.047 265.926 120.556 266.067 120.142 266.348C119.731 266.626 119.415 266.988 119.194 267.435C118.973 267.882 118.862 268.361 118.862 268.872V269.693C118.862 270.393 118.983 270.987 119.224 271.474C119.47 271.957 119.81 272.325 120.244 272.578C120.679 272.828 121.184 272.953 121.76 272.953C122.134 272.953 122.472 272.9 122.774 272.796C123.08 272.687 123.343 272.526 123.565 272.313C123.786 272.095 123.957 271.826 124.078 271.504L125.454 271.89C125.309 272.357 125.066 272.768 124.724 273.122C124.382 273.472 123.959 273.746 123.456 273.943C122.953 274.136 122.387 274.232 121.76 274.232Z" fill="white"/>
<rect x="201" y="160.039" width="80" height="80" rx="40" fill="white"/>
<path d="M251.065 192.17H237.36C237.426 192.498 237.557 192.826 237.623 193.088C238.082 194.662 238.344 196.301 238.475 198.006C238.541 198.662 238.541 199.383 238.541 200.039C238.541 200.695 238.541 201.416 238.475 202.072C238.344 203.776 238.082 205.416 237.623 206.99C237.557 207.317 237.426 207.645 237.36 207.908H251.065C255.393 207.908 258.869 204.367 258.869 200.039C258.869 195.711 255.393 192.17 251.065 192.17Z" fill="#00A9E5"/>
<path d="M238.475 202.072C238.541 201.416 238.541 200.695 238.541 200.039C238.541 199.383 238.541 198.662 238.475 198.006C238.344 196.301 238.082 194.662 237.623 193.088C237.557 192.76 237.426 192.432 237.361 192.17H216.18C215.393 194.662 215 197.285 215 200.039C215 202.793 215.393 205.416 216.18 207.908H237.361C237.426 207.58 237.557 207.252 237.623 206.99C238.082 205.416 238.344 203.776 238.475 202.072Z" fill="#353535"/>
<path d="M253.426 210.531H236.377C235.852 211.712 235.262 212.826 234.606 213.876C233.623 215.515 232.442 216.957 231.131 218.335C230.672 218.794 230.213 219.187 229.754 219.646C228.836 220.498 227.786 221.22 226.737 221.941C230.868 224.695 235.852 226.269 241.164 226.269C250.278 226.269 258.278 221.613 263 214.597C260.573 212.105 257.164 210.531 253.426 210.531Z" fill="#00BFB3"/>
<path d="M234.607 213.876C235.262 212.826 235.853 211.712 236.377 210.531H217.164C219.197 215.187 222.541 219.187 226.803 221.941C227.853 221.22 228.836 220.498 229.82 219.646C230.279 219.253 230.738 218.794 231.197 218.335C232.443 217.023 233.623 215.515 234.607 213.876Z" fill="#019B8F"/>
<path d="M231.131 181.744C230.672 181.285 230.213 180.892 229.754 180.433C228.836 179.58 227.787 178.859 226.738 178.138C222.541 180.892 219.197 184.892 217.099 189.548H236.312C235.787 188.367 235.197 187.252 234.541 186.203C233.623 184.564 232.443 183.056 231.131 181.744Z" fill="#F9B110"/>
<path d="M241.164 173.81C235.852 173.81 230.868 175.384 226.737 178.138C227.786 178.859 228.77 179.58 229.754 180.433C230.213 180.826 230.672 181.285 231.131 181.744C232.442 183.121 233.623 184.564 234.606 186.203C235.262 187.252 235.852 188.367 236.377 189.548H253.426C257.164 189.548 260.573 187.974 263 185.482C258.278 178.466 250.278 173.81 241.164 173.81Z" fill="#FED10A"/>
<path d="M189.248 274.039V261.676H196.709V263.004H190.745V267.181H196.323V268.509H190.745V272.711H196.806V274.039H189.248ZM200.639 261.676V274.039H199.215V261.676H200.639ZM205.977 274.257C205.39 274.257 204.857 274.146 204.378 273.925C203.899 273.699 203.518 273.375 203.237 272.953C202.955 272.526 202.814 272.011 202.814 271.407C202.814 270.876 202.919 270.445 203.128 270.115C203.337 269.781 203.617 269.52 203.967 269.33C204.317 269.141 204.704 269 205.126 268.908C205.553 268.811 205.982 268.735 206.412 268.679C206.976 268.606 207.432 268.552 207.783 268.516C208.137 268.475 208.394 268.409 208.555 268.316C208.72 268.224 208.803 268.063 208.803 267.833V267.785C208.803 267.189 208.64 266.727 208.314 266.397C207.992 266.067 207.503 265.902 206.847 265.902C206.167 265.902 205.633 266.05 205.247 266.348C204.861 266.646 204.589 266.964 204.432 267.302L203.08 266.819C203.321 266.256 203.643 265.817 204.046 265.503C204.452 265.185 204.895 264.964 205.374 264.839C205.857 264.71 206.332 264.646 206.799 264.646C207.096 264.646 207.438 264.682 207.825 264.755C208.215 264.823 208.591 264.966 208.954 265.183C209.32 265.4 209.624 265.728 209.865 266.167C210.107 266.606 210.227 267.193 210.227 267.93V274.039H208.803V272.784H208.73C208.634 272.985 208.473 273.2 208.247 273.43C208.022 273.659 207.722 273.854 207.348 274.015C206.974 274.176 206.517 274.257 205.977 274.257ZM206.195 272.977C206.758 272.977 207.233 272.866 207.62 272.645C208.01 272.423 208.304 272.138 208.501 271.788C208.702 271.437 208.803 271.069 208.803 270.683V269.379C208.742 269.451 208.61 269.518 208.404 269.578C208.203 269.634 207.97 269.685 207.704 269.729C207.442 269.769 207.187 269.805 206.937 269.838C206.692 269.866 206.493 269.89 206.34 269.91C205.969 269.958 205.623 270.037 205.301 270.145C204.983 270.25 204.726 270.409 204.529 270.622C204.335 270.832 204.239 271.117 204.239 271.48C204.239 271.975 204.422 272.349 204.788 272.603C205.158 272.852 205.627 272.977 206.195 272.977ZM219.396 266.843L218.116 267.205C218.036 266.992 217.917 266.785 217.76 266.584C217.607 266.378 217.398 266.209 217.132 266.077C216.867 265.944 216.527 265.877 216.112 265.877C215.545 265.877 215.072 266.008 214.693 266.27C214.319 266.527 214.132 266.855 214.132 267.254C214.132 267.608 214.261 267.888 214.518 268.093C214.776 268.298 215.178 268.469 215.726 268.606L217.102 268.944C217.931 269.145 218.549 269.453 218.955 269.868C219.362 270.278 219.565 270.808 219.565 271.455C219.565 271.987 219.412 272.462 219.106 272.88C218.804 273.299 218.382 273.629 217.839 273.87C217.295 274.112 216.663 274.232 215.943 274.232C214.997 274.232 214.214 274.027 213.595 273.617C212.975 273.206 212.582 272.607 212.417 271.818L213.77 271.48C213.898 271.979 214.142 272.353 214.5 272.603C214.862 272.852 215.335 272.977 215.919 272.977C216.583 272.977 217.11 272.836 217.5 272.554C217.895 272.268 218.092 271.926 218.092 271.528C218.092 271.206 217.979 270.936 217.754 270.719C217.529 270.498 217.183 270.333 216.716 270.224L215.17 269.862C214.321 269.661 213.697 269.349 213.299 268.926C212.904 268.499 212.707 267.966 212.707 267.326C212.707 266.803 212.854 266.34 213.148 265.938C213.446 265.535 213.85 265.219 214.361 264.99C214.876 264.761 215.46 264.646 216.112 264.646C217.03 264.646 217.75 264.847 218.273 265.25C218.8 265.652 219.175 266.183 219.396 266.843ZM225.742 264.767V265.974H220.937V264.767H225.742ZM222.338 262.545H223.762V271.383C223.762 271.786 223.821 272.087 223.937 272.289C224.058 272.486 224.211 272.619 224.396 272.687C224.585 272.751 224.785 272.784 224.994 272.784C225.151 272.784 225.28 272.776 225.38 272.759C225.481 272.739 225.561 272.723 225.622 272.711L225.911 273.991C225.815 274.027 225.68 274.063 225.507 274.1C225.334 274.14 225.115 274.16 224.849 274.16C224.446 274.16 224.052 274.074 223.666 273.9C223.283 273.727 222.965 273.464 222.712 273.11C222.462 272.755 222.338 272.309 222.338 271.769V262.545ZM227.886 274.039V264.767H229.31V274.039H227.886ZM228.61 263.221C228.332 263.221 228.093 263.127 227.892 262.937C227.694 262.748 227.596 262.521 227.596 262.255C227.596 261.99 227.694 261.762 227.892 261.573C228.093 261.384 228.332 261.289 228.61 261.289C228.888 261.289 229.125 261.384 229.322 261.573C229.524 261.762 229.624 261.99 229.624 262.255C229.624 262.521 229.524 262.748 229.322 262.937C229.125 263.127 228.888 263.221 228.61 263.221ZM235.687 274.232C234.817 274.232 234.069 274.027 233.441 273.617C232.813 273.206 232.33 272.641 231.992 271.92C231.654 271.2 231.485 270.377 231.485 269.451C231.485 268.509 231.658 267.678 232.004 266.958C232.354 266.234 232.841 265.668 233.465 265.262C234.093 264.851 234.825 264.646 235.663 264.646C236.315 264.646 236.902 264.767 237.425 265.008C237.949 265.25 238.377 265.588 238.711 266.022C239.045 266.457 239.253 266.964 239.333 267.544H237.908C237.8 267.121 237.558 266.747 237.184 266.421C236.814 266.091 236.315 265.926 235.687 265.926C235.131 265.926 234.644 266.071 234.226 266.36C233.811 266.646 233.487 267.051 233.254 267.574C233.024 268.093 232.91 268.703 232.91 269.403C232.91 270.119 233.022 270.743 233.248 271.274C233.477 271.806 233.799 272.218 234.214 272.512C234.632 272.806 235.123 272.953 235.687 272.953C236.057 272.953 236.393 272.888 236.695 272.759C236.997 272.631 237.252 272.446 237.462 272.204C237.671 271.963 237.82 271.673 237.908 271.335H239.333C239.253 271.882 239.053 272.375 238.735 272.814C238.421 273.248 238.005 273.595 237.486 273.852C236.971 274.106 236.371 274.232 235.687 274.232ZM247.984 266.843L246.704 267.205C246.624 266.992 246.505 266.785 246.348 266.584C246.195 266.378 245.986 266.209 245.72 266.077C245.455 265.944 245.114 265.877 244.7 265.877C244.132 265.877 243.66 266.008 243.281 266.27C242.907 266.527 242.72 266.855 242.72 267.254C242.72 267.608 242.849 267.888 243.106 268.093C243.364 268.298 243.766 268.469 244.314 268.606L245.69 268.944C246.519 269.145 247.137 269.453 247.543 269.868C247.95 270.278 248.153 270.808 248.153 271.455C248.153 271.987 248 272.462 247.694 272.88C247.392 273.299 246.97 273.629 246.426 273.87C245.883 274.112 245.251 274.232 244.531 274.232C243.585 274.232 242.802 274.027 242.182 273.617C241.563 273.206 241.17 272.607 241.005 271.818L242.358 271.48C242.486 271.979 242.73 272.353 243.088 272.603C243.45 272.852 243.923 272.977 244.507 272.977C245.171 272.977 245.698 272.836 246.088 272.554C246.483 272.268 246.68 271.926 246.68 271.528C246.68 271.206 246.567 270.936 246.342 270.719C246.117 270.498 245.77 270.333 245.304 270.224L243.758 269.862C242.909 269.661 242.285 269.349 241.887 268.926C241.492 268.499 241.295 267.966 241.295 267.326C241.295 266.803 241.442 266.34 241.736 265.938C242.034 265.535 242.438 265.219 242.949 264.99C243.464 264.761 244.048 264.646 244.7 264.646C245.617 264.646 246.338 264.847 246.861 265.25C247.388 265.652 247.763 266.183 247.984 266.843ZM254.185 274.232C253.292 274.232 252.521 274.035 251.873 273.641C251.229 273.242 250.732 272.687 250.382 271.975C250.036 271.258 249.863 270.425 249.863 269.475C249.863 268.526 250.036 267.688 250.382 266.964C250.732 266.236 251.219 265.668 251.843 265.262C252.471 264.851 253.203 264.646 254.041 264.646C254.523 264.646 255 264.726 255.471 264.887C255.942 265.048 256.371 265.31 256.757 265.672C257.144 266.03 257.451 266.505 257.681 267.097C257.91 267.688 258.025 268.417 258.025 269.282V269.886H250.877V268.654H256.576C256.576 268.131 256.471 267.664 256.262 267.254C256.057 266.843 255.763 266.519 255.381 266.282C255.002 266.044 254.556 265.926 254.041 265.926C253.473 265.926 252.982 266.067 252.568 266.348C252.157 266.626 251.841 266.988 251.62 267.435C251.398 267.882 251.288 268.361 251.288 268.872V269.693C251.288 270.393 251.408 270.987 251.65 271.474C251.895 271.957 252.235 272.325 252.67 272.578C253.105 272.828 253.61 272.953 254.185 272.953C254.56 272.953 254.898 272.9 255.2 272.796C255.505 272.687 255.769 272.526 255.99 272.313C256.212 272.095 256.383 271.826 256.504 271.504L257.88 271.89C257.735 272.357 257.492 272.768 257.15 273.122C256.807 273.472 256.385 273.746 255.882 273.943C255.379 274.136 254.813 274.232 254.185 274.232ZM262.921 274.257C262.333 274.257 261.8 274.146 261.321 273.925C260.842 273.699 260.462 273.375 260.18 272.953C259.898 272.526 259.758 272.011 259.758 271.407C259.758 270.876 259.862 270.445 260.071 270.115C260.281 269.781 260.56 269.52 260.911 269.33C261.261 269.141 261.647 269 262.07 268.908C262.496 268.811 262.925 268.735 263.356 268.679C263.919 268.606 264.376 268.552 264.726 268.516C265.08 268.475 265.338 268.409 265.499 268.316C265.664 268.224 265.746 268.063 265.746 267.833V267.785C265.746 267.189 265.583 266.727 265.257 266.397C264.935 266.067 264.446 265.902 263.79 265.902C263.11 265.902 262.577 266.05 262.19 266.348C261.804 266.646 261.532 266.964 261.375 267.302L260.023 266.819C260.265 266.256 260.587 265.817 260.989 265.503C261.396 265.185 261.838 264.964 262.317 264.839C262.8 264.71 263.275 264.646 263.742 264.646C264.04 264.646 264.382 264.682 264.768 264.755C265.159 264.823 265.535 264.966 265.897 265.183C266.263 265.4 266.567 265.728 266.809 266.167C267.05 266.606 267.171 267.193 267.171 267.93V274.039H265.746V272.784H265.674C265.577 272.985 265.416 273.2 265.191 273.43C264.965 273.659 264.666 273.854 264.291 274.015C263.917 274.176 263.46 274.257 262.921 274.257ZM263.138 272.977C263.702 272.977 264.177 272.866 264.563 272.645C264.953 272.423 265.247 272.138 265.444 271.788C265.646 271.437 265.746 271.069 265.746 270.683V269.379C265.686 269.451 265.553 269.518 265.348 269.578C265.146 269.634 264.913 269.685 264.647 269.729C264.386 269.769 264.13 269.805 263.881 269.838C263.635 269.866 263.436 269.89 263.283 269.91C262.913 269.958 262.567 270.037 262.245 270.145C261.927 270.25 261.669 270.409 261.472 270.622C261.279 270.832 261.182 271.117 261.182 271.48C261.182 271.975 261.365 272.349 261.732 272.603C262.102 272.852 262.571 272.977 263.138 272.977ZM269.771 274.039V264.767H271.148V266.167H271.244C271.409 265.708 271.713 265.336 272.156 265.05C272.599 264.765 273.1 264.622 273.659 264.622C273.917 264.622 274.142 264.652 274.335 264.712C274.528 264.773 274.697 264.855 274.842 264.96L274.359 266.167C274.259 266.115 274.14 266.075 274.003 266.046C273.87 266.014 273.715 265.998 273.538 265.998C273.088 265.998 272.685 266.093 272.331 266.282C271.981 266.471 271.703 266.729 271.498 267.055C271.297 267.381 271.196 267.753 271.196 268.171V274.039H269.771ZM279.78 274.232C278.911 274.232 278.163 274.027 277.535 273.617C276.907 273.206 276.424 272.641 276.086 271.92C275.748 271.2 275.579 270.377 275.579 269.451C275.579 268.509 275.752 267.678 276.098 266.958C276.448 266.234 276.935 265.668 277.559 265.262C278.187 264.851 278.919 264.646 279.756 264.646C280.408 264.646 280.996 264.767 281.519 265.008C282.042 265.25 282.471 265.588 282.805 266.022C283.139 266.457 283.346 266.964 283.427 267.544H282.002C281.893 267.121 281.652 266.747 281.278 266.421C280.907 266.091 280.408 265.926 279.78 265.926C279.225 265.926 278.738 266.071 278.32 266.36C277.905 266.646 277.581 267.051 277.348 267.574C277.118 268.093 277.004 268.703 277.004 269.403C277.004 270.119 277.116 270.743 277.342 271.274C277.571 271.806 277.893 272.218 278.307 272.512C278.726 272.806 279.217 272.953 279.78 272.953C280.151 272.953 280.487 272.888 280.789 272.759C281.091 272.631 281.346 272.446 281.555 272.204C281.765 271.963 281.914 271.673 282.002 271.335H283.427C283.346 271.882 283.147 272.375 282.829 272.814C282.515 273.248 282.099 273.595 281.58 273.852C281.064 274.106 280.465 274.232 279.78 274.232ZM286.934 268.461V274.039H285.51V261.676H286.934V266.215H287.055C287.272 265.737 287.598 265.356 288.033 265.074C288.472 264.789 289.055 264.646 289.784 264.646C290.416 264.646 290.969 264.773 291.444 265.026C291.919 265.276 292.287 265.66 292.549 266.179C292.814 266.694 292.947 267.35 292.947 268.147V274.039H291.522V268.244C291.522 267.507 291.331 266.938 290.949 266.535C290.571 266.129 290.045 265.926 289.373 265.926C288.906 265.926 288.488 266.024 288.117 266.221C287.751 266.419 287.461 266.706 287.248 267.085C287.039 267.463 286.934 267.922 286.934 268.461Z" fill="white"/>
<rect x="45" y="320.039" width="80" height="80" rx="40" fill="#29F1FB"/>
<path d="M85.6902 338.758C89.3948 338.758 93.0993 338.74 96.8023 338.758C103.896 338.803 110.405 343.33 112.882 349.938C113.949 352.792 114.181 355.744 113.876 358.776C113.43 363.227 112.101 367.359 109.584 371.062C105.7 376.778 100.225 379.955 93.4446 381.012C91.1462 381.37 88.8399 381.328 86.5304 381.328C85.572 381.328 85.0597 380.889 85.0029 380.097C84.9414 379.247 85.4758 378.594 86.4217 378.537C87.4684 378.473 88.523 378.526 89.5745 378.498C95.9573 378.325 101.484 376.126 105.862 371.404C108.93 368.094 110.484 364.061 111.01 359.617C111.376 356.534 111.337 353.469 110.118 350.548C108.249 346.079 104.899 343.339 100.286 342.069C98.4954 341.575 96.6604 341.482 94.8239 341.471C87.9681 341.43 81.1092 341.456 74.255 341.454C73.9665 341.454 73.6748 341.465 73.3879 341.44C73.0589 341.409 72.7517 341.262 72.5223 341.024C72.2929 340.786 72.1565 340.474 72.1379 340.144C72.133 339.826 72.2412 339.516 72.4433 339.27C72.6453 339.023 72.9281 338.857 73.2413 338.799C73.5546 338.756 73.8712 338.741 74.1872 338.754C78.022 338.754 81.858 338.754 85.6949 338.754L85.6902 338.758Z" fill="white"/>
<path d="M78.6688 371.547H66.3728C66.11 371.559 65.8467 371.553 65.5846 371.53C64.8736 371.434 64.4259 371.025 64.3566 370.306C64.2872 369.588 64.6246 369.096 65.3024 368.843C65.7328 368.686 66.1836 368.719 66.6282 368.719C74.7167 368.719 82.8068 368.732 90.8954 368.705C93.7329 368.695 96.1826 367.644 98.1295 365.563C99.7989 363.778 100.674 361.622 100.934 359.194C101.139 357.29 100.868 355.539 99.6854 353.984C98.3707 352.25 96.5941 351.38 94.458 351.371C86.8156 351.337 79.1669 351.358 71.5308 351.347C70.7189 351.347 69.9055 351.281 69.0968 351.205C68.3985 351.14 68.0123 350.72 67.965 350.016C67.9129 349.25 68.3055 348.699 69.0007 348.565C69.2335 348.532 69.4689 348.52 69.7037 348.531C77.9011 348.531 86.0984 348.531 94.2957 348.531C98.4274 348.539 102 351.038 103.302 354.944C104.225 357.717 103.896 360.512 102.86 363.2C100.871 368.36 96.1874 371.533 90.6447 371.547C86.6533 371.558 82.6602 371.547 78.6688 371.547Z" fill="white"/>
<path d="M60.3324 351.213C59.3865 351.213 58.4407 351.225 57.4948 351.213C56.7066 351.198 56.1013 350.68 56.0114 349.974C55.9216 349.267 56.3646 348.66 57.2174 348.487C57.6832 348.411 58.155 348.38 58.6267 348.394C59.913 348.383 61.201 348.38 62.4873 348.394C62.8801 348.393 63.2717 348.439 63.6539 348.53C64.3491 348.706 64.729 349.299 64.647 350.019C64.565 350.74 64.1299 351.173 63.4016 351.197C62.3785 351.232 61.3523 351.206 60.3292 351.206L60.3324 351.213Z" fill="white"/>
<path d="M77.5864 381.322C76.6941 381.322 75.8019 381.338 74.9065 381.322C74.0584 381.303 73.4877 380.822 73.401 380.113C73.3681 379.74 73.484 379.369 73.7235 379.081C73.963 378.793 74.3066 378.612 74.6795 378.576C76.5881 378.426 78.5054 378.423 80.4144 378.568C80.5945 378.576 80.7712 378.62 80.9335 378.698C81.0959 378.777 81.2405 378.888 81.3586 379.024C81.4767 379.16 81.5657 379.319 81.6202 379.491C81.6747 379.663 81.6935 379.844 81.6756 380.023C81.6172 380.811 81.0623 381.294 80.1859 381.328H77.5864V381.322Z" fill="white"/>
<path d="M32.6756 434.039H31.106L35.6458 421.676H37.1913L41.731 434.039H40.1614L36.4668 423.632H36.3703L32.6756 434.039ZM33.2552 429.21H39.5819V430.538H33.2552V429.21ZM43.4636 437.517V424.767H44.8401V426.24H45.0091C45.1137 426.079 45.2586 425.873 45.4438 425.624C45.6329 425.37 45.9026 425.145 46.2527 424.948C46.6069 424.746 47.0858 424.646 47.6895 424.646C48.4703 424.646 49.1585 424.841 49.7541 425.231C50.3498 425.622 50.8146 426.175 51.1487 426.892C51.4827 427.608 51.6497 428.453 51.6497 429.427C51.6497 430.409 51.4827 431.26 51.1487 431.981C50.8146 432.697 50.3518 433.252 49.7602 433.647C49.1685 434.037 48.4864 434.232 47.7136 434.232C47.118 434.232 46.6411 434.134 46.2829 433.937C45.9247 433.735 45.649 433.508 45.4558 433.255C45.2627 432.997 45.1137 432.784 45.0091 432.615H44.8884V437.517H43.4636ZM44.8642 429.403C44.8642 430.103 44.9668 430.721 45.1721 431.256C45.3774 431.788 45.6772 432.204 46.0716 432.506C46.466 432.804 46.949 432.953 47.5205 432.953C48.1161 432.953 48.6131 432.796 49.0116 432.482C49.414 432.164 49.7159 431.737 49.9171 431.202C50.1224 430.663 50.225 430.063 50.225 429.403C50.225 428.751 50.1244 428.163 49.9232 427.64C49.726 427.113 49.4261 426.696 49.0237 426.391C48.6252 426.081 48.1242 425.926 47.5205 425.926C46.9409 425.926 46.4539 426.073 46.0595 426.366C45.6651 426.656 45.3673 427.063 45.1661 427.586C44.9648 428.105 44.8642 428.711 44.8642 429.403ZM56.5517 434.257C55.9641 434.257 55.4309 434.146 54.9519 433.925C54.473 433.699 54.0927 433.375 53.8109 432.953C53.5292 432.526 53.3884 432.011 53.3884 431.407C53.3884 430.876 53.493 430.445 53.7023 430.115C53.9116 429.781 54.1913 429.52 54.5414 429.33C54.8916 429.141 55.2779 429 55.7005 428.908C56.1271 428.811 56.5557 428.735 56.9864 428.679C57.5498 428.606 58.0066 428.552 58.3568 428.516C58.7109 428.475 58.9685 428.409 59.1295 428.316C59.2945 428.224 59.377 428.063 59.377 427.833V427.785C59.377 427.189 59.214 426.727 58.888 426.397C58.566 426.067 58.077 425.902 57.421 425.902C56.7409 425.902 56.2076 426.05 55.8212 426.348C55.4349 426.646 55.1632 426.964 55.0063 427.302L53.654 426.819C53.8955 426.256 54.2174 425.817 54.6199 425.503C55.0264 425.185 55.4691 424.964 55.948 424.839C56.431 424.71 56.9059 424.646 57.3727 424.646C57.6706 424.646 58.0127 424.682 58.399 424.755C58.7894 424.823 59.1657 424.966 59.5279 425.183C59.8942 425.4 60.198 425.728 60.4395 426.167C60.681 426.606 60.8017 427.193 60.8017 427.93V434.039H59.377V432.784H59.3046C59.208 432.985 59.047 433.2 58.8216 433.43C58.5962 433.659 58.2964 433.854 57.9221 434.015C57.5478 434.176 57.091 434.257 56.5517 434.257ZM56.769 432.977C57.3325 432.977 57.8074 432.866 58.1938 432.645C58.5841 432.423 58.8779 432.138 59.0752 431.788C59.2764 431.437 59.377 431.069 59.377 430.683V429.379C59.3166 429.451 59.1838 429.518 58.9786 429.578C58.7773 429.634 58.5439 429.685 58.2783 429.729C58.0167 429.769 57.7611 429.805 57.5116 429.838C57.2661 429.866 57.0669 429.89 56.9139 429.91C56.5437 429.958 56.1975 430.037 55.8756 430.145C55.5576 430.25 55.3001 430.409 55.1028 430.622C54.9097 430.832 54.8131 431.117 54.8131 431.48C54.8131 431.975 54.9962 432.349 55.3624 432.603C55.7327 432.852 56.2016 432.977 56.769 432.977ZM67.1692 434.232C66.2998 434.232 65.5513 434.027 64.9234 433.617C64.2956 433.206 63.8126 432.641 63.4746 431.92C63.1365 431.2 62.9675 430.377 62.9675 429.451C62.9675 428.509 63.1405 427.678 63.4866 426.958C63.8368 426.234 64.3238 425.668 64.9476 425.262C65.5754 424.851 66.3079 424.646 67.145 424.646C67.797 424.646 68.3846 424.767 68.9078 425.008C69.431 425.25 69.8596 425.588 70.1937 426.022C70.5277 426.457 70.735 426.964 70.8155 427.544H69.3908C69.2821 427.121 69.0406 426.747 68.6663 426.421C68.2961 426.091 67.797 425.926 67.1692 425.926C66.6138 425.926 66.1268 426.071 65.7082 426.36C65.2937 426.646 64.9697 427.051 64.7363 427.574C64.5069 428.093 64.3922 428.703 64.3922 429.403C64.3922 430.119 64.5049 430.743 64.7302 431.274C64.9597 431.806 65.2816 432.218 65.6962 432.512C66.1147 432.806 66.6057 432.953 67.1692 432.953C67.5394 432.953 67.8755 432.888 68.1773 432.759C68.4792 432.631 68.7347 432.446 68.944 432.204C69.1533 431.963 69.3022 431.673 69.3908 431.335H70.8155C70.735 431.882 70.5358 432.375 70.2178 432.814C69.9039 433.248 69.4873 433.595 68.9682 433.852C68.453 434.106 67.8534 434.232 67.1692 434.232ZM74.3229 428.461V434.039H72.8982V421.676H74.3229V426.215H74.4437C74.661 425.737 74.987 425.356 75.4217 425.074C75.8603 424.789 76.4439 424.646 77.1724 424.646C77.8042 424.646 78.3576 424.773 78.8325 425.026C79.3074 425.276 79.6757 425.66 79.9373 426.179C80.2029 426.694 80.3357 427.35 80.3357 428.147V434.039H78.911V428.244C78.911 427.507 78.7198 426.938 78.3375 426.535C77.9592 426.129 77.434 425.926 76.7619 425.926C76.295 425.926 75.8764 426.024 75.5062 426.221C75.1399 426.419 74.8502 426.706 74.6369 427.085C74.4276 427.463 74.3229 427.922 74.3229 428.461ZM86.8299 434.232C85.9365 434.232 85.1658 434.035 84.5178 433.641C83.8739 433.242 83.3768 432.687 83.0267 431.975C82.6806 431.258 82.5075 430.425 82.5075 429.475C82.5075 428.526 82.6806 427.688 83.0267 426.964C83.3768 426.236 83.8638 425.668 84.4876 425.262C85.1155 424.851 85.8479 424.646 86.6851 424.646C87.168 424.646 87.6449 424.726 88.1158 424.887C88.5867 425.048 89.0153 425.31 89.4017 425.672C89.788 426.03 90.0959 426.505 90.3253 427.097C90.5547 427.688 90.6694 428.417 90.6694 429.282V429.886H83.5217V428.654H89.2206C89.2206 428.131 89.1159 427.664 88.9066 427.254C88.7014 426.843 88.4076 426.519 88.0253 426.282C87.6469 426.044 87.2002 425.926 86.6851 425.926C86.1176 425.926 85.6266 426.067 85.212 426.348C84.8015 426.626 84.4856 426.988 84.2642 427.435C84.0429 427.882 83.9322 428.361 83.9322 428.872V429.693C83.9322 430.393 84.053 430.987 84.2944 431.474C84.5399 431.957 84.88 432.325 85.3147 432.578C85.7493 432.828 86.2544 432.953 86.8299 432.953C87.2042 432.953 87.5423 432.9 87.8441 432.796C88.15 432.687 88.4136 432.526 88.635 432.313C88.8563 432.095 89.0274 431.826 89.1481 431.504L90.5245 431.89C90.3797 432.357 90.1362 432.768 89.7941 433.122C89.452 433.472 89.0294 433.746 88.5263 433.943C88.0232 434.136 87.4578 434.232 86.8299 434.232ZM101.626 434.039H97.8111V421.676H101.795C102.995 421.676 104.021 421.923 104.874 422.418C105.728 422.909 106.382 423.616 106.836 424.537C107.291 425.455 107.519 426.554 107.519 427.833C107.519 429.121 107.289 430.23 106.83 431.16C106.371 432.085 105.703 432.798 104.826 433.297C103.949 433.792 102.882 434.039 101.626 434.039ZM99.3083 432.711H101.53C102.552 432.711 103.399 432.514 104.071 432.12C104.744 431.725 105.245 431.164 105.575 430.435C105.905 429.707 106.07 428.839 106.07 427.833C106.07 426.835 105.907 425.976 105.581 425.256C105.255 424.531 104.768 423.976 104.12 423.589C103.472 423.199 102.665 423.004 101.699 423.004H99.3083V432.711ZM109.837 434.039V424.767H111.213V426.167H111.31C111.479 425.708 111.785 425.336 112.227 425.05C112.67 424.765 113.169 424.622 113.724 424.622C113.829 424.622 113.96 424.624 114.117 424.628C114.274 424.632 114.393 424.638 114.473 424.646V426.095C114.425 426.083 114.314 426.065 114.141 426.04C113.972 426.012 113.793 425.998 113.604 425.998C113.153 425.998 112.751 426.093 112.396 426.282C112.046 426.467 111.769 426.725 111.563 427.055C111.362 427.381 111.261 427.753 111.261 428.171V434.039H109.837ZM122.006 430.248V424.767H123.43V434.039H122.006V432.47H121.909C121.692 432.941 121.354 433.341 120.895 433.671C120.436 433.997 119.856 434.16 119.156 434.16C118.577 434.16 118.062 434.033 117.611 433.78C117.16 433.522 116.806 433.136 116.548 432.621C116.291 432.101 116.162 431.447 116.162 430.659V424.767H117.587V430.562C117.587 431.238 117.776 431.777 118.154 432.18C118.536 432.582 119.023 432.784 119.615 432.784C119.969 432.784 120.329 432.693 120.696 432.512C121.066 432.331 121.376 432.053 121.625 431.679C121.879 431.305 122.006 430.828 122.006 430.248ZM126.04 434.039V424.767H127.465V434.039H126.04ZM126.764 423.221C126.487 423.221 126.247 423.127 126.046 422.937C125.849 422.748 125.75 422.521 125.75 422.255C125.75 421.99 125.849 421.762 126.046 421.573C126.247 421.384 126.487 421.289 126.764 421.289C127.042 421.289 127.279 421.384 127.477 421.573C127.678 421.762 127.778 421.99 127.778 422.255C127.778 422.521 127.678 422.748 127.477 422.937C127.279 423.127 127.042 423.221 126.764 423.221ZM133.575 434.232C132.803 434.232 132.121 434.037 131.529 433.647C130.937 433.252 130.474 432.697 130.14 431.981C129.806 431.26 129.639 430.409 129.639 429.427C129.639 428.453 129.806 427.608 130.14 426.892C130.474 426.175 130.939 425.622 131.535 425.231C132.131 424.841 132.819 424.646 133.6 424.646C134.203 424.646 134.68 424.746 135.03 424.948C135.384 425.145 135.654 425.37 135.839 425.624C136.028 425.873 136.175 426.079 136.28 426.24H136.401V421.676H137.825V434.039H136.449V432.615H136.28C136.175 432.784 136.026 432.997 135.833 433.255C135.64 433.508 135.364 433.735 135.006 433.937C134.648 434.134 134.171 434.232 133.575 434.232ZM133.769 432.953C134.34 432.953 134.823 432.804 135.217 432.506C135.612 432.204 135.912 431.788 136.117 431.256C136.322 430.721 136.425 430.103 136.425 429.403C136.425 428.711 136.324 428.105 136.123 427.586C135.922 427.063 135.624 426.656 135.23 426.366C134.835 426.073 134.348 425.926 133.769 425.926C133.165 425.926 132.662 426.081 132.259 426.391C131.861 426.696 131.561 427.113 131.36 427.64C131.163 428.163 131.064 428.751 131.064 429.403C131.064 430.063 131.165 430.663 131.366 431.202C131.571 431.737 131.873 432.164 132.271 432.482C132.674 432.796 133.173 432.953 133.769 432.953Z" fill="white"/>
<rect x="201" y="320.039" width="80" height="80" rx="40" fill="white"/>
<g clip-path="url(#clip2_507_17831)">
<path d="M217.005 375.033L222.623 381.596L223.129 380.998V339.019L222.623 338.384L217.005 344.945V375.033Z" fill="#1A476F"/>
<path d="M222.624 381.596L233.36 386.946L233.806 386.23L233.814 333.6L233.367 333.039L222.624 338.372V381.596Z" fill="#1F5B98"/>
<path d="M264.995 344.945L259.375 338.384L258.746 338.583L258.871 381.06L259.375 381.596L264.995 375.033V344.945Z" fill="#2D72B8"/>
<path d="M248.639 386.946L259.374 381.596V338.372L248.631 333.039L248.123 333.724L248.13 386.167L248.639 386.946Z" fill="#5294CF"/>
<path d="M233.368 333.039H248.632V386.947H233.368V333.039Z" fill="#2D72B8"/>
</g>
<path d="M191.216 434.039H189.646L194.186 421.676H195.731L200.271 434.039H198.701L195.007 423.632H194.91L191.216 434.039ZM191.795 429.21H198.122V430.538H191.795V429.21ZM202.004 434.039V424.767H203.38V426.215H203.501C203.694 425.72 204.006 425.336 204.437 425.062C204.867 424.785 205.384 424.646 205.988 424.646C206.6 424.646 207.109 424.785 207.515 425.062C207.926 425.336 208.246 425.72 208.475 426.215H208.572C208.809 425.737 209.165 425.356 209.64 425.074C210.115 424.789 210.685 424.646 211.349 424.646C212.178 424.646 212.856 424.905 213.383 425.425C213.911 425.94 214.174 426.743 214.174 427.833V434.039H212.749V427.833C212.749 427.149 212.562 426.66 212.188 426.366C211.814 426.073 211.373 425.926 210.866 425.926C210.214 425.926 209.709 426.123 209.351 426.517C208.992 426.908 208.813 427.403 208.813 428.002V434.039H207.364V427.688C207.364 427.161 207.193 426.737 206.851 426.415C206.509 426.089 206.069 425.926 205.529 425.926C205.159 425.926 204.813 426.024 204.491 426.221C204.173 426.419 203.915 426.692 203.718 427.043C203.525 427.389 203.428 427.789 203.428 428.244V434.039H202.004ZM219.508 434.257C218.92 434.257 218.387 434.146 217.908 433.925C217.429 433.699 217.049 433.375 216.767 432.953C216.485 432.526 216.344 432.011 216.344 431.407C216.344 430.876 216.449 430.445 216.658 430.115C216.868 429.781 217.147 429.52 217.497 429.33C217.848 429.141 218.234 429 218.657 428.908C219.083 428.811 219.512 428.735 219.942 428.679C220.506 428.606 220.963 428.552 221.313 428.516C221.667 428.475 221.925 428.409 222.086 428.316C222.251 428.224 222.333 428.063 222.333 427.833V427.785C222.333 427.189 222.17 426.727 221.844 426.397C221.522 426.067 221.033 425.902 220.377 425.902C219.697 425.902 219.164 426.05 218.777 426.348C218.391 426.646 218.119 426.964 217.962 427.302L216.61 426.819C216.852 426.256 217.173 425.817 217.576 425.503C217.982 425.185 218.425 424.964 218.904 424.839C219.387 424.71 219.862 424.646 220.329 424.646C220.627 424.646 220.969 424.682 221.355 424.755C221.745 424.823 222.122 424.966 222.484 425.183C222.85 425.4 223.154 425.728 223.396 426.167C223.637 426.606 223.758 427.193 223.758 427.93V434.039H222.333V432.784H222.261C222.164 432.985 222.003 433.2 221.778 433.43C221.552 433.659 221.252 433.854 220.878 434.015C220.504 434.176 220.047 434.257 219.508 434.257ZM219.725 432.977C220.289 432.977 220.763 432.866 221.15 432.645C221.54 432.423 221.834 432.138 222.031 431.788C222.232 431.437 222.333 431.069 222.333 430.683V429.379C222.273 429.451 222.14 429.518 221.935 429.578C221.733 429.634 221.5 429.685 221.234 429.729C220.973 429.769 220.717 429.805 220.468 429.838C220.222 429.866 220.023 429.89 219.87 429.91C219.5 429.958 219.154 430.037 218.832 430.145C218.514 430.25 218.256 430.409 218.059 430.622C217.866 430.832 217.769 431.117 217.769 431.48C217.769 431.975 217.952 432.349 218.318 432.603C218.689 432.852 219.158 432.977 219.725 432.977ZM226.093 434.039V432.953L231.357 426.191V426.095H226.262V424.767H233.192V425.902L228.073 432.615V432.711H233.361V434.039H226.093ZM239.057 434.232C238.22 434.232 237.485 434.033 236.853 433.635C236.226 433.236 235.735 432.679 235.38 431.963C235.03 431.246 234.855 430.409 234.855 429.451C234.855 428.485 235.03 427.642 235.38 426.922C235.735 426.201 236.226 425.642 236.853 425.243C237.485 424.845 238.22 424.646 239.057 424.646C239.894 424.646 240.626 424.845 241.254 425.243C241.886 425.642 242.377 426.201 242.727 426.922C243.081 427.642 243.259 428.485 243.259 429.451C243.259 430.409 243.081 431.246 242.727 431.963C242.377 432.679 241.886 433.236 241.254 433.635C240.626 434.033 239.894 434.232 239.057 434.232ZM239.057 432.953C239.693 432.953 240.216 432.79 240.626 432.464C241.037 432.138 241.341 431.709 241.538 431.178C241.735 430.647 241.834 430.071 241.834 429.451C241.834 428.831 241.735 428.254 241.538 427.719C241.341 427.183 241.037 426.751 240.626 426.421C240.216 426.091 239.693 425.926 239.057 425.926C238.421 425.926 237.898 426.091 237.487 426.421C237.077 426.751 236.773 427.183 236.576 427.719C236.378 428.254 236.28 428.831 236.28 429.451C236.28 430.071 236.378 430.647 236.576 431.178C236.773 431.709 237.077 432.138 237.487 432.464C237.898 432.79 238.421 432.953 239.057 432.953ZM246.858 428.461V434.039H245.433V424.767H246.81V426.215H246.931C247.148 425.745 247.478 425.366 247.921 425.081C248.363 424.791 248.935 424.646 249.635 424.646C250.263 424.646 250.812 424.775 251.283 425.032C251.754 425.286 252.12 425.672 252.382 426.191C252.643 426.706 252.774 427.358 252.774 428.147V434.039H251.35V428.244C251.35 427.515 251.16 426.948 250.782 426.541C250.404 426.131 249.885 425.926 249.225 425.926C248.77 425.926 248.363 426.024 248.005 426.221C247.651 426.419 247.371 426.706 247.166 427.085C246.961 427.463 246.858 427.922 246.858 428.461ZM260.352 434.039V421.676H264.53C265.496 421.676 266.288 421.841 266.908 422.171C267.528 422.497 267.987 422.945 268.285 423.517C268.582 424.088 268.731 424.738 268.731 425.467C268.731 426.195 268.582 426.841 268.285 427.405C267.987 427.968 267.53 428.411 266.914 428.733C266.299 429.051 265.512 429.21 264.554 429.21H261.173V427.857H264.506C265.166 427.857 265.697 427.761 266.099 427.568C266.506 427.375 266.8 427.101 266.981 426.747C267.166 426.389 267.258 425.962 267.258 425.467C267.258 424.972 267.166 424.539 266.981 424.169C266.796 423.799 266.5 423.513 266.093 423.312C265.687 423.106 265.149 423.004 264.481 423.004H261.849V434.039H260.352ZM266.172 428.485L269.214 434.039H267.476L264.481 428.485H266.172ZM275.042 434.039H271.226V421.676H275.211C276.41 421.676 277.436 421.923 278.289 422.418C279.143 422.909 279.797 423.616 280.251 424.537C280.706 425.455 280.934 426.554 280.934 427.833C280.934 429.121 280.704 430.23 280.245 431.16C279.787 432.085 279.118 432.798 278.241 433.297C277.364 433.792 276.297 434.039 275.042 434.039ZM272.723 432.711H274.945C275.967 432.711 276.814 432.514 277.486 432.12C278.159 431.725 278.66 431.164 278.99 430.435C279.32 429.707 279.485 428.839 279.485 427.833C279.485 426.835 279.322 425.976 278.996 425.256C278.67 424.531 278.183 423.976 277.535 423.589C276.887 423.199 276.08 423.004 275.114 423.004H272.723V432.711ZM290.206 424.767C290.134 424.155 289.84 423.68 289.325 423.342C288.81 423.004 288.178 422.835 287.429 422.835C286.882 422.835 286.403 422.923 285.992 423.1C285.586 423.277 285.268 423.521 285.039 423.831C284.813 424.141 284.701 424.493 284.701 424.887C284.701 425.217 284.779 425.501 284.936 425.739C285.097 425.972 285.302 426.167 285.552 426.324C285.801 426.477 286.063 426.604 286.337 426.704C286.61 426.801 286.862 426.88 287.091 426.94L288.347 427.278C288.669 427.362 289.027 427.479 289.421 427.628C289.82 427.777 290.2 427.98 290.562 428.238C290.929 428.491 291.231 428.817 291.468 429.216C291.705 429.614 291.824 430.103 291.824 430.683C291.824 431.351 291.649 431.955 291.299 432.494C290.953 433.033 290.446 433.462 289.778 433.78C289.114 434.098 288.307 434.257 287.357 434.257C286.471 434.257 285.705 434.114 285.057 433.828C284.413 433.542 283.906 433.144 283.535 432.633C283.169 432.122 282.962 431.528 282.914 430.852H284.459C284.499 431.319 284.656 431.705 284.93 432.011C285.208 432.313 285.558 432.538 285.98 432.687C286.407 432.832 286.866 432.904 287.357 432.904C287.928 432.904 288.441 432.812 288.896 432.627C289.351 432.438 289.711 432.176 289.977 431.842C290.242 431.504 290.375 431.109 290.375 430.659C290.375 430.248 290.261 429.914 290.031 429.656C289.802 429.399 289.5 429.19 289.126 429.029C288.751 428.868 288.347 428.727 287.912 428.606L286.391 428.171C285.425 427.894 284.66 427.497 284.097 426.982C283.533 426.467 283.252 425.793 283.252 424.96C283.252 424.268 283.439 423.664 283.813 423.149C284.191 422.63 284.699 422.227 285.334 421.941C285.974 421.652 286.689 421.507 287.478 421.507C288.274 421.507 288.983 421.65 289.603 421.935C290.222 422.217 290.713 422.603 291.076 423.094C291.442 423.585 291.635 424.143 291.655 424.767H290.206Z" fill="white"/>
<rect x="123" y="480.039" width="80" height="80" rx="40" fill="#173361"/>
<g clip-path="url(#clip3_507_17831)">
<path fill-rule="evenodd" clip-rule="evenodd" d="M173.381 521.379C174.609 521.267 175.837 521.267 177.065 521.156V520.262C175.837 520.151 174.609 520.151 173.381 520.039L169.698 519.928C167.577 519.816 165.344 519.816 163.223 519.816C163.223 517.695 163.223 515.462 163.112 513.342L163 509.658C162.888 508.43 162.888 507.202 162.777 505.974H161.772C161.66 507.202 161.66 508.43 161.549 509.658L161.437 513.342C161.437 514.346 161.437 515.351 161.437 516.356C160.991 515.462 160.656 514.458 160.209 513.565L158.646 510.216C158.088 509.1 157.642 507.983 157.084 506.867L156.191 507.202C156.637 508.43 156.972 509.546 157.419 510.662L158.758 514.123C159.093 515.128 159.54 516.021 159.874 517.025C159.093 516.356 158.423 515.574 157.642 514.904L154.963 512.337C154.07 511.556 153.177 510.662 152.172 509.881L151.391 510.662C152.172 511.556 153.065 512.449 153.846 513.453L156.414 516.132C157.084 516.914 157.865 517.583 158.535 518.365C157.642 518.03 156.637 517.583 155.633 517.249L152.172 515.909C151.056 515.462 149.828 515.016 148.712 514.681L148.265 515.686C149.381 516.244 150.498 516.69 151.614 517.249L154.963 518.811C155.856 519.258 156.86 519.593 157.753 520.039C156.749 520.039 155.744 520.039 154.74 520.039L151.056 520.151C149.828 520.262 148.6 520.262 147.372 520.374V521.379C148.6 521.49 149.828 521.49 151.056 521.602L154.74 521.714C156.972 521.825 159.093 521.825 161.214 521.825C161.214 523.946 161.214 526.179 161.326 528.3L161.437 531.983C161.549 533.211 161.549 534.439 161.66 535.667H162.553C162.665 534.439 162.665 533.211 162.777 531.983L162.888 528.3C162.888 527.295 162.888 526.179 163 525.174C163.446 526.179 163.781 527.072 164.228 528.076L165.791 531.425C166.349 532.542 166.795 533.658 167.353 534.774L168.246 534.439C167.912 533.211 167.465 532.095 167.019 530.979L165.902 527.295C165.567 526.29 165.121 525.397 164.786 524.393C165.567 525.174 166.237 525.844 167.019 526.514L169.698 529.081C170.591 529.862 171.484 530.756 172.488 531.537L173.158 530.867C172.377 529.974 171.484 529.081 170.702 528.076L168.135 525.397C167.465 524.616 166.684 523.835 166.014 523.165C167.019 523.5 167.912 523.946 168.916 524.281L172.377 525.621C173.493 526.067 174.721 526.514 175.837 526.849L176.172 525.956C175.056 525.397 173.94 524.839 172.823 524.393L169.474 522.83C168.47 522.383 167.577 521.937 166.572 521.602C167.577 521.602 168.693 521.602 169.698 521.49L173.381 521.379Z" fill="white"/>
<path fill-rule="evenodd" clip-rule="evenodd" d="M163 544.039C149.716 544.039 139 533.323 139 520.039C139 506.756 149.716 496.039 163 496.039C176.284 496.039 187 506.756 187 520.039C187 533.323 176.284 544.039 163 544.039ZM163 498.272C151.056 498.272 141.233 508.095 141.233 520.039C141.233 531.983 151.056 541.807 163 541.807C174.944 541.807 184.767 531.983 184.767 520.039C184.767 508.095 174.944 498.272 163 498.272Z" fill="white"/>
</g>
<path d="M135.192 585.539H133.694C133.606 585.109 133.451 584.73 133.23 584.404C133.012 584.078 132.747 583.805 132.433 583.583C132.123 583.358 131.779 583.189 131.4 583.076C131.022 582.964 130.628 582.907 130.217 582.907C129.469 582.907 128.79 583.096 128.183 583.475C127.579 583.853 127.098 584.41 126.74 585.147C126.386 585.883 126.209 586.787 126.209 587.857C126.209 588.928 126.386 589.832 126.74 590.568C127.098 591.305 127.579 591.862 128.183 592.24C128.79 592.619 129.469 592.808 130.217 592.808C130.628 592.808 131.022 592.751 131.4 592.639C131.779 592.526 132.123 592.359 132.433 592.138C132.747 591.912 133.012 591.637 133.23 591.311C133.451 590.981 133.606 590.602 133.694 590.176H135.192C135.079 590.808 134.874 591.373 134.576 591.872C134.278 592.371 133.908 592.796 133.465 593.146C133.022 593.492 132.525 593.756 131.974 593.937C131.427 594.118 130.841 594.208 130.217 594.208C129.163 594.208 128.225 593.951 127.404 593.436C126.583 592.92 125.937 592.188 125.466 591.238C124.995 590.288 124.76 589.161 124.76 587.857C124.76 586.554 124.995 585.427 125.466 584.477C125.937 583.527 126.583 582.795 127.404 582.279C128.225 581.764 129.163 581.507 130.217 581.507C130.841 581.507 131.427 581.597 131.974 581.778C132.525 581.959 133.022 582.225 133.465 582.575C133.908 582.921 134.278 583.344 134.576 583.843C134.874 584.338 135.079 584.903 135.192 585.539ZM141.185 594.232C140.348 594.232 139.613 594.033 138.981 593.635C138.353 593.236 137.862 592.679 137.508 591.963C137.158 591.246 136.983 590.409 136.983 589.451C136.983 588.485 137.158 587.642 137.508 586.922C137.862 586.201 138.353 585.642 138.981 585.243C139.613 584.845 140.348 584.646 141.185 584.646C142.022 584.646 142.754 584.845 143.382 585.243C144.014 585.642 144.505 586.201 144.855 586.922C145.209 587.642 145.386 588.485 145.386 589.451C145.386 590.409 145.209 591.246 144.855 591.963C144.505 592.679 144.014 593.236 143.382 593.635C142.754 594.033 142.022 594.232 141.185 594.232ZM141.185 592.953C141.821 592.953 142.344 592.79 142.754 592.464C143.165 592.138 143.469 591.709 143.666 591.178C143.863 590.647 143.962 590.071 143.962 589.451C143.962 588.831 143.863 588.254 143.666 587.719C143.469 587.183 143.165 586.751 142.754 586.421C142.344 586.091 141.821 585.926 141.185 585.926C140.549 585.926 140.026 586.091 139.615 586.421C139.205 586.751 138.901 587.183 138.704 587.719C138.506 588.254 138.408 588.831 138.408 589.451C138.408 590.071 138.506 590.647 138.704 591.178C138.901 591.709 139.205 592.138 139.615 592.464C140.026 592.79 140.549 592.953 141.185 592.953ZM148.986 588.461V594.039H147.561V584.767H148.938V586.215H149.058C149.276 585.745 149.606 585.366 150.049 585.081C150.491 584.791 151.063 584.646 151.763 584.646C152.391 584.646 152.94 584.775 153.411 585.032C153.882 585.286 154.248 585.672 154.51 586.191C154.771 586.706 154.902 587.358 154.902 588.147V594.039H153.477V588.244C153.477 587.515 153.288 586.948 152.91 586.541C152.532 586.131 152.013 585.926 151.352 585.926C150.898 585.926 150.491 586.024 150.133 586.221C149.779 586.419 149.499 586.706 149.294 587.085C149.089 587.463 148.986 587.922 148.986 588.461ZM161.635 584.767V585.974H156.636V584.767H161.635ZM158.133 594.039V583.487C158.133 582.955 158.258 582.513 158.508 582.159C158.757 581.804 159.081 581.539 159.48 581.362C159.878 581.185 160.299 581.096 160.741 581.096C161.092 581.096 161.377 581.124 161.599 581.181C161.82 581.237 161.985 581.289 162.094 581.338L161.683 582.569C161.611 582.545 161.51 582.515 161.381 582.479C161.257 582.442 161.092 582.424 160.886 582.424C160.415 582.424 160.075 582.543 159.866 582.78C159.661 583.018 159.558 583.366 159.558 583.825V594.039H158.133ZM165.056 581.676V594.039H163.632V581.676H165.056ZM173.51 590.248V584.767H174.934V594.039H173.51V592.47H173.413C173.196 592.941 172.858 593.341 172.399 593.671C171.94 593.997 171.36 594.16 170.66 594.16C170.081 594.16 169.565 594.033 169.115 593.78C168.664 593.522 168.31 593.136 168.052 592.621C167.795 592.101 167.666 591.447 167.666 590.659V584.767H169.091V590.562C169.091 591.238 169.28 591.777 169.658 592.18C170.04 592.582 170.527 592.784 171.119 592.784C171.473 592.784 171.833 592.693 172.2 592.512C172.57 592.331 172.88 592.053 173.129 591.679C173.383 591.305 173.51 590.828 173.51 590.248ZM181.432 594.232C180.538 594.232 179.767 594.035 179.119 593.641C178.475 593.242 177.978 592.687 177.628 591.975C177.282 591.258 177.109 590.425 177.109 589.475C177.109 588.526 177.282 587.688 177.628 586.964C177.978 586.236 178.465 585.668 179.089 585.262C179.717 584.851 180.45 584.646 181.287 584.646C181.77 584.646 182.246 584.726 182.717 584.887C183.188 585.048 183.617 585.31 184.003 585.672C184.39 586.03 184.697 586.505 184.927 587.097C185.156 587.688 185.271 588.417 185.271 589.282V589.886H178.123V588.654H183.822C183.822 588.131 183.717 587.664 183.508 587.254C183.303 586.843 183.009 586.519 182.627 586.282C182.249 586.044 181.802 585.926 181.287 585.926C180.719 585.926 180.228 586.067 179.814 586.348C179.403 586.626 179.087 586.988 178.866 587.435C178.644 587.882 178.534 588.361 178.534 588.872V589.693C178.534 590.393 178.655 590.987 178.896 591.474C179.141 591.957 179.482 592.325 179.916 592.578C180.351 592.828 180.856 592.953 181.432 592.953C181.806 592.953 182.144 592.9 182.446 592.796C182.752 592.687 183.015 592.526 183.237 592.313C183.458 592.095 183.629 591.826 183.75 591.504L185.126 591.89C184.981 592.357 184.738 592.768 184.396 593.122C184.054 593.472 183.631 593.746 183.128 593.943C182.625 594.136 182.059 594.232 181.432 594.232ZM188.863 588.461V594.039H187.438V584.767H188.815V586.215H188.935C189.153 585.745 189.483 585.366 189.925 585.081C190.368 584.791 190.94 584.646 191.64 584.646C192.268 584.646 192.817 584.775 193.288 585.032C193.759 585.286 194.125 585.672 194.387 586.191C194.648 586.706 194.779 587.358 194.779 588.147V594.039H193.354V588.244C193.354 587.515 193.165 586.948 192.787 586.541C192.409 586.131 191.889 585.926 191.229 585.926C190.775 585.926 190.368 586.024 190.01 586.221C189.656 586.419 189.376 586.706 189.171 587.085C188.966 587.463 188.863 587.922 188.863 588.461ZM201.415 584.767V585.974H196.61V584.767H201.415ZM198.01 582.545H199.435V591.383C199.435 591.786 199.494 592.087 199.61 592.289C199.731 592.486 199.884 592.619 200.069 592.687C200.258 592.751 200.457 592.784 200.667 592.784C200.824 592.784 200.952 592.776 201.053 592.759C201.154 592.739 201.234 592.723 201.295 592.711L201.584 593.991C201.488 594.027 201.353 594.063 201.18 594.1C201.007 594.14 200.787 594.16 200.522 594.16C200.119 594.16 199.725 594.074 199.339 593.9C198.956 593.727 198.638 593.464 198.385 593.11C198.135 592.755 198.01 592.309 198.01 591.769V582.545Z" fill="white"/>
</g>
<defs>
<clipPath id="clip0_507_17831">
<rect width="326" height="624" fill="white" transform="translate(0 0.0393066)"/>
</clipPath>
<clipPath id="clip1_507_17831">
<rect width="40" height="35.552" fill="white" transform="translate(66 22.2634)"/>
</clipPath>
<clipPath id="clip2_507_17831">
<rect width="48" height="54" fill="white" transform="translate(217 333.039)"/>
</clipPath>
<clipPath id="clip3_507_17831">
<rect width="48" height="48" fill="white" transform="translate(139 496.039)"/>
</clipPath>
</defs>
</svg>
