<svg width="327" height="182" viewBox="0 0 327 182" fill="none" xmlns="http://www.w3.org/2000/svg">
<g clip-path="url(#clip0_1376_27378)">
<path d="M57.2757 33.3613L56.422 38.2192C56.2854 39.0151 55.5888 39.5983 54.7829 39.5983L48.0559 39.5846V39.5983L41.8957 39.5846C40.8645 39.5846 40.0859 38.6515 40.2635 37.636L41.1172 32.682C41.2264 32.0302 40.7347 31.4333 40.0722 31.4333L34.4926 31.4195C33.8369 31.4195 33.3384 30.8226 33.4476 30.1708L34.4243 24.517C34.5335 23.8651 34.0418 23.2682 33.3794 23.2682L31.5969 23.2613C31.0846 23.2613 30.6954 22.7948 30.7842 22.287L31.2007 19.8649C31.269 19.467 31.6173 19.1719 32.0203 19.1719H34.7657C35.0936 19.1719 35.3462 19.4738 35.2916 19.7963L34.9092 21.9851C34.7931 22.6369 35.2916 23.2339 35.9541 23.2339H41.0079C42.1757 23.2202 42.886 22.6164 43.0977 21.4636L44.2041 15.0757H44.1836L44.689 12.3586C44.8324 11.5695 45.5222 11 46.3212 11H51.0882C52.1194 11 52.9048 11.9332 52.7204 12.9555C52.5429 13.9641 52.3585 15.0002 52.3448 15.0757L51.1497 21.889C51.0131 22.685 50.3165 23.2682 49.5106 23.2682L44.5661 23.2545C43.3914 23.2476 42.6811 23.8994 42.4694 25.0179L41.5679 30.1433C41.4518 30.7952 41.9504 31.3921 42.6128 31.3921H55.6161C56.6747 31.4058 57.4601 32.339 57.2757 33.3613Z" fill="white"/>
<path d="M75.3195 31.0083H68.1759V16.0847C68.1759 15.8377 67.9778 15.6318 67.7251 15.6318H65.6285C65.3826 15.6318 65.1777 15.8308 65.1777 16.0847V33.2177C65.1777 33.4647 65.3758 33.6705 65.6285 33.6705H75.3127C75.5586 33.6705 75.7634 33.4715 75.7634 33.2177V31.4611C75.7634 31.2073 75.5654 31.0083 75.3195 31.0083Z" fill="white"/>
<path d="M105.028 21.5117C103.724 20.1188 102.071 19.4121 100.104 19.4121C98.6152 19.4121 96.0951 20.112 95.1868 21.6352V20.1806C95.1868 19.9336 94.9887 19.7277 94.736 19.7277H92.7828C92.5369 19.7277 92.332 19.9267 92.332 20.1806V37.5193C92.332 37.7663 92.5301 37.9722 92.7828 37.9722H94.736C94.9819 37.9722 95.1868 37.7732 95.1868 37.5193V31.7626C95.938 33.1418 98.2942 33.9857 100.104 33.9857C102.057 33.9857 103.717 33.2858 105.028 31.9136C106.38 30.5001 107.043 28.7916 107.043 26.6989C107.043 24.6062 106.387 22.9045 105.028 21.5117ZM102.904 30.0816C102.037 30.9873 100.937 31.4401 99.6464 31.4401C98.3556 31.4401 97.2083 30.9873 96.2795 30.0816C95.3848 29.1827 94.9272 28.0437 94.9272 26.6989C94.9272 25.3541 95.3848 24.2151 96.2795 23.3094C97.2015 22.4105 98.3352 21.9577 99.6464 21.9577C100.958 21.9577 102.037 22.4174 102.897 23.3162C103.771 24.1945 104.222 25.3335 104.222 26.6989C104.222 28.0643 103.778 29.2033 102.904 30.0816Z" fill="white"/>
<path d="M121.78 21.4367C120.311 20.0163 118.502 19.3027 116.391 19.3027C114.281 19.3027 112.464 20.0232 111.003 21.4367C109.541 22.8501 108.797 24.6203 108.797 26.6994C108.797 28.7784 109.541 30.5486 111.003 31.9621C112.471 33.3824 114.281 34.096 116.391 34.096C118.502 34.096 120.318 33.3755 121.78 31.9621C123.241 30.5486 123.986 28.7784 123.986 26.6994C123.986 24.6203 123.241 22.8501 121.78 21.4367ZM119.785 30.1712C118.87 31.0907 117.73 31.5572 116.391 31.5572C115.053 31.5572 113.878 31.0907 112.956 30.1644C112.055 29.1969 111.611 28.0579 111.611 26.6994C111.611 25.3408 112.061 24.1881 112.956 23.2618C113.878 22.3081 114.998 21.8415 116.384 21.8415C117.771 21.8415 118.877 22.3218 119.779 23.2549C120.694 24.1744 121.158 25.3339 121.158 26.6994C121.165 28.0716 120.714 29.2038 119.785 30.1712Z" fill="white"/>
<path d="M133.834 19.4531C133.732 19.4463 133.629 19.4463 133.52 19.4463C131.608 19.4463 129.566 20.2765 128.917 21.7243V20.1805C128.917 19.9334 128.719 19.7276 128.466 19.7276H126.541C126.295 19.7276 126.09 19.9266 126.09 20.1805V33.2171C126.09 33.4642 126.288 33.67 126.541 33.67H128.466C128.712 33.67 128.917 33.471 128.917 33.2171V26.3283C128.917 23.7827 130.57 22.136 133.117 22.136C133.335 22.136 133.554 22.1428 133.773 22.1634C134.032 22.184 134.257 21.9782 134.257 21.7174V19.906C134.257 19.659 134.073 19.46 133.834 19.4531Z" fill="white"/>
<path d="M142.604 19.735H139.326V16.0847C139.326 15.8377 139.128 15.6318 138.875 15.6318H136.922C136.676 15.6318 136.471 15.8308 136.471 16.0847V29.4439C136.471 32.559 137.905 34.0753 140.849 34.0753C141.313 34.0753 141.942 34.0479 142.468 33.993C142.693 33.9724 142.87 33.7734 142.87 33.547V31.9414C142.87 31.6807 142.652 31.4749 142.392 31.4954C142.03 31.5229 141.662 31.5366 141.429 31.5366C139.975 31.5366 139.319 30.775 139.319 29.0734V22.2874H142.597C142.843 22.2874 143.048 22.0884 143.048 21.8346V20.1878C143.055 19.9339 142.85 19.735 142.604 19.735Z" fill="white"/>
<path d="M155.968 29.7322C155.968 31.0016 155.483 32.072 154.575 32.8267C153.598 33.6295 152.143 34.0549 150.368 34.0549C147.875 34.0549 145.888 33.1698 144.918 31.6329C144.829 31.4956 144.856 31.3104 144.979 31.2074L146.461 29.9518C146.516 29.9038 146.584 29.8763 146.659 29.8763C146.755 29.8763 146.844 29.9175 146.912 29.993C147.697 30.8918 149.009 31.427 150.422 31.427C152.792 31.427 153.045 30.2674 153.045 29.7665C153.045 29.2657 152.731 28.8334 152.178 28.5384C151.857 28.3325 151.276 28.1404 150.853 27.9963C150.743 27.962 150.6 27.914 150.443 27.8659C150.013 27.7287 149.487 27.5572 149.138 27.4131C146.796 26.5691 145.792 25.4233 145.792 23.5844C145.792 22.3288 146.236 21.3613 147.151 20.6272C148.121 19.8793 149.241 19.5156 150.586 19.5156C152.335 19.5156 153.728 20.0851 154.739 21.2172C154.848 21.3407 154.841 21.526 154.725 21.6495L153.475 22.9806C153.414 23.0424 153.332 23.0835 153.243 23.0835C153.161 23.0835 153.079 23.0492 153.018 22.9943C152.403 22.418 151.563 22.1298 150.525 22.1298C149.487 22.1298 148.701 22.6856 148.701 23.5158C148.701 24.0441 148.981 24.3323 149.398 24.5999C150.026 25.0047 150.737 25.2174 151.42 25.4164C151.713 25.5056 152.014 25.5948 152.307 25.6977C154.875 26.5966 155.968 27.8042 155.968 29.7322Z" fill="white"/>
<path d="M90.0305 28.6962C90.0305 32.0034 87.7153 33.9726 83.8362 33.9726C80.7698 33.9726 78.4068 32.6483 77.1843 30.2468C77.1092 30.1028 77.1638 29.9175 77.3004 29.8283L78.9941 28.7511C79.0419 28.7167 79.1034 28.703 79.1648 28.703C79.2741 28.703 79.3765 28.7579 79.4312 28.854C80.3873 30.4801 81.883 31.2966 83.8635 31.2966C85.407 31.2966 87.0529 30.6311 87.0529 28.7716C87.0529 27.9002 86.7251 27.3033 85.9602 26.7956C85.2089 26.2741 84.6626 26.0271 83.2898 25.5193C81.7327 24.9292 80.7493 24.4695 79.6702 23.5981C78.6731 22.7679 78.1882 21.622 78.1882 20.1057C78.1882 18.6785 78.7004 17.5464 79.7522 16.6338C80.8176 15.735 82.0947 15.3027 83.6586 15.3027C85.9055 15.3027 87.6539 16.1535 88.8695 17.8346C88.9173 17.9032 88.9378 17.9855 88.9242 18.0747C88.9105 18.1639 88.8627 18.2394 88.7876 18.2874L87.21 19.3853C87.1553 19.4196 87.0939 19.4402 87.0256 19.4402C86.93 19.4402 86.848 19.399 86.7865 19.3304C86.0626 18.4384 85.0245 17.9855 83.7064 17.9855C82.204 17.9855 81.1112 18.8569 81.1112 20.0577C81.1112 20.5311 81.2205 20.8948 81.4732 21.2447C81.883 21.821 82.5113 22.0955 83.1123 22.3631C83.1669 22.3905 83.2284 22.4111 83.283 22.4386C83.7406 22.6444 84.205 22.8297 84.6557 23.0149C85.6187 23.406 86.6158 23.8108 87.5173 24.3735C88.1251 24.7577 88.569 25.1145 88.9242 25.5056C89.6617 26.3015 90.0305 27.3719 90.0305 28.6962Z" fill="white"/>
<path d="M240.717 18.3154V26.5911L232.638 18.3154H228.434V31.8503H232.269V22.956L241.068 31.8503H244.552V18.3154H240.717Z" fill="white"/>
<path d="M251.663 28.8339V26.4364H260.248V23.5553H251.663V21.3318H262.078V18.3154H247.75V31.8503H262.292V28.8339H251.663Z" fill="white"/>
<path d="M272.482 32.2954C277.875 32.2954 281.379 29.6658 281.379 25.0833C281.379 20.5008 277.875 17.8711 272.482 17.8711C267.09 17.8711 263.605 20.5008 263.605 25.0833C263.605 29.6658 267.09 32.2954 272.482 32.2954ZM272.482 29.0857C269.485 29.0857 267.635 27.6356 267.635 25.0833C267.635 22.531 269.504 21.0808 272.482 21.0808C275.48 21.0808 277.33 22.531 277.33 25.0833C277.33 27.6356 275.48 29.0857 272.482 29.0857Z" fill="white"/>
<path d="M296.077 18.3154V26.5911L287.998 18.3154H283.793V31.8503H287.628V22.956L296.427 31.8503H299.912V18.3154H296.077Z" fill="white"/>
<path fill-rule="evenodd" clip-rule="evenodd" d="M186.912 14.4552C186.912 11.4424 189.381 9 192.426 9H213.379C216.425 9 218.893 11.4424 218.893 14.4552V32.0857C218.893 35.2027 214.906 36.5554 212.973 34.0945L206.928 26.4014V35.7303C206.928 38.4419 204.706 40.64 201.965 40.64H192.426C189.381 40.64 186.912 38.1976 186.912 35.1848V14.4552ZM192.426 13.3641C191.817 13.3641 191.323 13.8526 191.323 14.4552V35.1848C191.323 35.7874 191.817 36.2759 192.426 36.2759H202.131C202.435 36.2759 202.517 36.0316 202.517 35.7303V23.2202C202.517 20.1032 206.503 18.7505 208.437 21.2114L214.482 28.9045V14.4552C214.482 13.8526 214.54 13.3641 213.931 13.3641H192.426Z" fill="white"/>
<path d="M213.379 9C216.424 9 218.893 11.4424 218.893 14.4552V32.0857C218.893 35.2027 214.906 36.5554 212.972 34.0945L206.927 26.4014V35.7303C206.927 38.4419 204.706 40.64 201.965 40.64C202.269 40.64 202.516 40.3957 202.516 40.0945V23.2202C202.516 20.1032 206.503 18.7505 208.437 21.2114L214.482 28.9045V10.091C214.482 9.48847 213.988 9 213.379 9Z" fill="white"/>
<path d="M25.2566 85.5045C21.9511 85.5045 19.3188 82.8795 19.3188 79.583C19.3188 76.2865 21.9511 73.6615 25.2566 73.6615C27.1848 73.6615 29.083 74.6382 30.1232 76.1949L32.7555 74.6382C31.1944 72.1963 28.3789 70.6396 25.2566 70.6396C20.2988 70.6396 16.1973 74.7298 16.1973 79.6745C16.1973 84.6193 20.2988 88.7094 25.2566 88.7094C28.3789 88.7094 31.1024 87.1527 32.7555 84.7109L30.1232 83.1542C28.9601 84.5277 27.2158 85.5045 25.2566 85.5045Z" fill="white"/>
<path d="M150.563 70.6396L147.527 70.6396L147.527 88.3431L150.563 88.3431L150.563 70.6396Z" fill="white"/>
<path d="M96.7231 70.6396L91.7035 79.1862L86.6537 70.6396L82.8281 70.6396L82.8281 88.3431L85.8576 88.3431L85.8576 75.1876L90.6323 83.2458L92.7445 83.2458L97.6412 75.1876L97.6412 88.3431L100.669 88.3431L100.669 70.6396L96.7231 70.6396Z" fill="white"/>
<path d="M76.7678 77.5379L80.8693 77.5379L80.8693 74.5161L76.7678 74.5161L76.7678 70.6396L73.7383 70.6396L73.7383 82.6048L73.7383 83.1847C73.7383 86.2065 75.1155 88.4347 78.9109 88.4347L80.8392 88.4347L80.8392 85.3213L79.0941 85.3213C76.9518 85.3213 76.6457 84.253 76.6457 83.1847L76.6457 82.6963L76.7678 77.5379Z" fill="white"/>
<path d="M62.2296 81.5062C62.2296 81.4146 62.2296 81.4146 62.2296 81.3231L62.2296 74.4859L59.2 74.4859L59.2 75.7068C58.0368 74.8216 56.6597 74.4248 55.1905 74.4248C51.2729 74.4248 48.0586 77.6297 48.0586 81.5367C48.0586 85.4437 51.2729 88.6486 55.1905 88.6486C56.7508 88.6486 58.0059 88.1603 59.2 87.3667L59.2 88.3434L62.2296 88.3434L62.2296 81.8114C62.2296 81.5978 62.2296 81.5978 62.2296 81.5062ZM55.0985 85.5047C52.9562 85.5047 51.089 83.7649 51.089 81.5062C51.089 79.2475 52.8333 77.5077 55.0985 77.5077C57.2408 77.5077 59.108 79.2475 59.108 81.5062C59.108 83.7649 57.3629 85.5047 55.0985 85.5047Z" fill="white"/>
<path d="M109.273 88.6174C105.358 88.6174 102.143 85.4124 102.143 81.5055C102.143 77.5985 105.358 74.3936 109.273 74.3936C113.188 74.3936 116.403 77.5985 116.403 81.5055C116.313 85.4124 113.188 88.6174 109.273 88.6174ZM109.273 77.5374C107.132 77.5374 105.26 79.2773 105.26 81.536C105.26 83.7947 107.01 85.5345 109.273 85.5345C111.536 85.5345 113.286 83.7947 113.286 81.536C113.286 79.3994 111.503 77.5374 109.273 77.5374Z" fill="white"/>
<path d="M67.7069 79.1859C67.4317 79.7048 67.3089 80.2542 67.3089 80.8952L67.3089 88.3429L64.2793 88.3429L64.2793 74.4854L67.3089 74.4854L67.3089 75.6452C67.4619 75.5537 67.7069 75.401 68.38 75.1263C68.9921 74.8822 70.2171 74.5159 71.8084 74.4854C71.8694 74.4854 72.1755 74.4854 72.3896 74.4854L72.3896 77.5072C72.3595 77.5072 72.1144 77.5072 71.8694 77.5072C71.7774 77.5072 71.1963 77.5072 70.7983 77.5377C70.5232 77.5682 69.6962 77.6292 69.054 77.904C68.319 78.2397 67.9209 78.7586 67.7069 79.1859Z" fill="white"/>
<path d="M40.6511 74.4245C39.4887 74.4245 38.2947 74.7908 37.3155 75.4013L37.3155 70.6396L34.2852 70.6396L34.2852 88.3431L37.3155 88.3431C37.3155 88.3431 37.3155 86.0844 37.3155 84.1309L37.3155 81.4144C37.3155 80.6818 37.3456 80.1019 37.5295 79.583C37.7436 78.9725 38.0497 78.5452 38.3867 78.2399C39.3048 77.4158 40.4069 77.4769 40.4069 77.4769C40.4069 77.4769 41.5081 77.4158 42.4263 78.2399C42.7633 78.5452 43.0693 78.9725 43.2834 79.583C43.4674 80.1019 43.4975 80.6818 43.4975 81.4144L43.4975 84.1309C43.4975 85.7181 43.4975 87.4885 43.4975 88.1295C43.4975 88.2821 43.4975 88.3431 43.4975 88.3431L46.5278 88.3431L46.5278 80.6513L46.5278 80.3766C46.6198 76.7748 44.0794 74.4245 40.6511 74.4245Z" fill="white"/>
<path d="M142.481 74.4854L142.481 81.9025C142.481 83.0624 142.205 83.917 141.594 84.5275C141.008 85.1074 140.218 85.5042 139.234 85.5042C138.346 85.5042 137.671 85.2295 137.093 84.6191C136.515 84.0391 136.206 83.2455 136.206 82.3604L136.206 74.4854L133.178 74.4854L133.178 82.4214C133.178 84.1612 133.666 85.8095 134.732 86.8778C135.717 87.9461 137.093 88.4345 138.745 88.4345L138.778 88.4345C140.243 88.404 141.561 87.8545 142.449 86.9694L142.449 88.3429L142.538 88.3429L144.313 88.3429L145.452 88.3429L145.452 74.4854L142.481 74.4854Z" fill="white"/>
<path d="M128.221 74.4859L128.221 75.5847C127.057 74.7911 125.673 74.4248 124.208 74.4248C120.293 74.4248 117.078 77.6297 117.078 81.5367C117.078 85.4437 120.293 88.6486 124.208 88.6486C125.673 88.6486 127.025 88.1603 128.221 87.4888C128.221 87.4888 128.221 87.5193 128.221 87.5803C128.221 87.6109 128.221 87.6719 128.221 87.7329C128.221 87.9466 128.189 88.435 128.123 88.7707C127.944 89.6254 127.456 90.3274 126.748 90.9074C126.048 91.4873 125.161 91.7315 124.208 91.7315L124.086 91.7315C122.524 91.6399 121.148 90.9379 120.261 89.8085L118.12 91.9452C119.284 93.685 121.604 94.7533 124.143 94.7533C124.208 94.7533 124.298 94.7533 124.363 94.7533C125.006 94.7533 125.673 94.6617 126.292 94.4786C127.358 94.2039 128.343 93.6545 129.133 92.8608C129.996 92.0062 130.606 90.9074 130.94 89.7475C131.127 89.1065 131.249 88.435 131.249 87.7024C131.249 87.7024 131.249 87.4277 131.249 87.214C131.249 87.214 131.249 87.214 131.249 87.1835C131.249 87.092 131.249 86.6036 131.249 86.6036L131.249 85.6879L131.249 74.4859L128.221 74.4859ZM124.265 85.5047C122.125 85.5047 120.261 83.7649 120.261 81.5062C120.261 79.2475 122.003 77.5077 124.265 77.5077C126.536 77.5077 128.278 79.2475 128.278 81.5062C128.278 83.7649 126.439 85.5047 124.265 85.5047Z" fill="white"/>
<path fill-rule="evenodd" clip-rule="evenodd" d="M205.939 76.2324L205.939 72.5654L196.405 72.5654C193.288 72.5654 191.271 74.2159 191.271 77.3328L191.271 86.3165C191.271 88.6997 192.555 91.2664 196.772 91.2664C199.871 91.2164 201.79 90.9999 204.473 90.6975C204.936 90.6453 205.421 90.5905 205.939 90.5337L205.939 87.2334C204.33 87.316 202.944 87.417 201.762 87.5032C197.69 87.8001 196.039 87.9205 196.039 86.4999L196.039 77.3328C196.039 76.5992 196.405 76.2324 197.138 76.2324L205.939 76.2324ZM310.813 80.2662L310.813 77.3319L307.513 77.3319L307.513 74.0317L303.48 74.0317L303.113 77.3319L301.646 77.3319L301.646 80.2662L303.113 80.2662L303.113 87.2326C303.113 90.7162 305.496 91.4498 311.913 90.8996L311.913 87.5994L308.613 87.5994C307.879 87.5994 307.513 87.2326 307.513 86.4998L307.513 80.2662L310.813 80.2662ZM270.478 72.5654L270.478 76.2324L261.676 76.2324C260.943 76.2324 260.576 76.5992 260.576 77.3328L260.576 86.4999C260.576 87.9205 262.228 87.8 266.3 87.5032C267.482 87.417 268.869 87.316 270.478 87.2334L270.478 90.5337C269.959 90.5905 269.474 90.6453 269.011 90.6975C266.329 90.9999 264.409 91.2164 261.31 91.2664C257.093 91.2664 255.81 88.6997 255.81 86.3165L255.81 77.3328C255.81 74.2159 257.826 72.5654 260.943 72.5654L270.478 72.5654ZM225.374 90.8996L225.374 76.9652L229.408 76.9652L229.408 78.4323C235.091 75.1321 239.308 77.3319 239.308 80.2654L239.308 90.8996L234.908 90.8996L234.908 81.3657C234.908 79.8994 232.158 80.2654 229.775 81.1823L229.775 90.8996L225.374 90.8996ZM286.612 76.9652L286.612 90.8996L291.012 90.8996L291.012 81.1823C293.396 80.2654 296.146 79.8994 296.146 81.3657L296.146 90.8996L300.546 90.8996L300.546 80.2654C300.546 77.3319 296.329 75.1321 290.646 78.4323L290.646 76.9652L286.612 76.9652ZM253.243 80.2662L253.243 76.966L244.625 76.966C242.058 76.966 240.591 78.7991 240.591 81.3657C240.591 84.3 242.058 85.7663 244.625 85.7663L250.126 85.7663C250.425 88.1611 248.28 87.9897 243.991 87.6469L243.991 87.6469L243.991 87.6468L243.99 87.6468C243.026 87.5697 241.953 87.484 240.775 87.4168L240.775 90.5336C249.943 91.6332 254.709 91.6331 254.709 86.8666C254.709 84.1166 253.059 82.4661 251.042 82.4661L246.092 82.4661C245.359 82.4661 244.809 82.0993 244.809 81.3657C244.809 80.633 245.359 80.2662 246.092 80.2662L253.243 80.2662ZM215.188 80.2654L218.721 80.2654C219.154 80.2654 219.507 80.6173 219.507 81.0518L219.507 86.813C219.507 87.2475 219.154 87.5994 218.721 87.5994L218.176 87.5994L218.855 91.2664L219.556 91.2664C222.161 91.2664 224.274 89.1541 224.274 86.5486L224.274 81.3162C224.274 78.7107 222.161 76.5984 219.556 76.5984L214.509 76.5984L215.188 80.2654ZM212.226 87.5994L215.792 87.5994L216.471 91.2664L211.757 91.2664C209.151 91.2664 207.039 89.1541 207.039 86.5486L207.039 81.3162C207.039 78.7107 209.151 76.5984 211.757 76.5984L212.125 76.5984L212.804 80.2654L212.226 80.2654C211.792 80.2654 211.44 80.6173 211.44 81.0518L211.44 86.813C211.44 87.2475 211.792 87.5994 212.226 87.5994ZM215.473 86.1334C216.688 86.1334 217.674 85.1483 217.674 83.9332C217.674 82.7181 216.688 81.7331 215.473 81.7331C214.258 81.7331 213.273 82.7181 213.273 83.9332C213.273 85.1483 214.258 86.1334 215.473 86.1334ZM276.161 85.7663L285.145 85.7663L285.145 80.633C285.145 78.2489 283.128 76.966 281.111 76.966L275.611 76.966C273.044 76.966 271.577 79.1658 271.577 81.3657L271.577 86.4998C271.577 90.9004 274.144 91.9999 284.411 90.5336L284.411 87.6002C283.025 87.6671 281.856 87.7472 280.875 87.815C276.539 88.1124 275.862 88.1586 276.161 85.7663ZM280.744 82.4661L275.978 82.4661L275.978 80.9989C275.978 80.2662 276.528 79.8994 277.444 79.8994L279.278 79.8994C280.195 79.8994 280.744 80.2662 280.744 80.9989L280.744 82.4661Z" fill="white"/>
<mask id="mask0_1376_27378" style="mask-type:luminance" maskUnits="userSpaceOnUse" x="12" y="124" width="142" height="25">
<path d="M153.554 124.66L12.4941 124.66L12.4941 148.114L153.554 148.114L153.554 124.66Z" fill="white"/>
</mask>
<g mask="url(#mask0_1376_27378)">
<path d="M121.995 130.428L120.196 139.132C120.143 139.379 120.037 139.574 119.879 139.713C119.716 139.857 119.504 139.93 119.25 139.93C118.99 139.93 118.793 139.853 118.669 139.7C118.537 139.537 118.5 139.305 118.562 139.011L120.358 130.33C120.468 129.799 120.806 129.507 121.309 129.507C121.587 129.507 121.789 129.594 121.91 129.764C122.026 129.927 122.055 130.15 121.995 130.428ZM122.884 127.919L122.284 128.483L122.138 128.412C122.016 128.353 121.838 128.227 121.596 128.028C121.338 127.891 120.963 127.822 120.481 127.822C119.563 127.822 118.829 128.058 118.297 128.523C117.9 128.877 117.637 129.345 117.518 129.914L115.455 139.889C115.36 140.348 115.474 140.726 115.804 141.045C116.147 141.379 116.636 141.542 117.299 141.542C117.769 141.542 118.184 141.499 118.532 141.413C118.877 141.328 119.163 141.21 119.383 141.062L119.865 140.739L119.746 141.306C119.726 141.403 119.706 141.515 119.685 141.63C119.594 142.119 119.542 142.363 119.453 142.486C119.177 142.872 118.707 143.069 118.057 143.069L83.2386 143.069L83.0818 143.461C82.6706 144.476 82.3963 145.087 82.241 145.329C82.1026 145.539 81.9168 145.734 81.6875 145.912L118.171 145.912C118.228 145.911 119.325 145.89 119.744 145.852C120.157 145.814 120.51 145.732 120.793 145.61C121.275 145.4 121.647 145.134 121.896 144.822C122.065 144.612 122.341 143.082 122.49 142.26C122.554 141.904 122.613 141.58 122.663 141.338L125.44 127.919L122.884 127.919Z" fill="white"/>
<path d="M87.2007 127.685L81.6904 141.486C81.289 142.476 80.4595 144.739 80.3139 144.968C80.0516 145.364 79.6043 145.702 78.9719 145.981C78.7756 146.064 78.5664 146.118 78.3492 146.143C78.1312 146.166 77.8158 146.178 77.4079 146.178L46.0566 146.178L46.7677 142.834L76.4055 142.834C76.4457 142.837 76.4859 142.84 76.5269 142.84C76.5672 142.84 76.6074 142.837 76.6476 142.834L76.7595 142.834C76.7949 142.825 76.8254 142.816 76.8568 142.808C77.5736 142.668 78.1304 142.083 78.2285 141.352C78.3275 140.621 77.8866 127.685 77.8866 127.685L81.293 127.685L81.2085 135.028L83.8426 127.685L87.2007 127.685Z" fill="white"/>
<path d="M39.9677 145.914L44.2128 145.914L48.5907 124.755L44.3473 124.755L42.5681 133.347L40.757 133.347L42.5356 124.755L38.2894 124.755L33.9102 145.914L38.157 145.914L40.305 135.531L42.1163 135.531L39.9677 145.914Z" fill="white"/>
<path d="M61.3237 141.346L64.2489 141.346L66.6947 129.523C66.7945 129.047 66.6826 128.657 66.3528 128.329C66.0133 127.993 65.5121 127.822 64.8628 127.822C64.4106 127.822 63.9947 127.873 63.6286 127.972C63.2682 128.072 62.9802 128.197 62.7726 128.342L62.2835 128.685L62.4436 127.919L59.5183 127.919L56.7402 141.346L59.6639 141.346L61.9391 130.358C61.9946 130.087 62.1024 129.88 62.2625 129.741C62.4307 129.601 62.6407 129.531 62.8901 129.531C63.1499 129.531 63.3454 129.609 63.4701 129.762C63.6037 129.926 63.6407 130.159 63.5788 130.454L61.3237 141.346Z" fill="white"/>
<path d="M72.5253 133.828L70.8656 133.828L71.58 130.378C71.6363 130.1 71.7578 129.882 71.9388 129.731C72.1214 129.582 72.3234 129.507 72.5414 129.507C72.889 129.507 73.0603 129.657 73.1432 129.782C73.255 129.953 73.28 130.178 73.2196 130.473L72.5253 133.828ZM72.963 127.822C71.7988 127.822 70.8455 128.026 70.127 128.429C69.3128 128.888 68.818 129.59 68.6145 130.576L66.8944 138.885C66.6933 139.855 66.8904 140.539 67.4954 140.974C68.0207 141.351 68.8727 141.542 70.0256 141.542C71.1938 141.542 72.1367 141.361 72.8294 141.005C73.6854 140.56 74.1987 139.875 74.3991 138.912L74.741 137.618L71.8214 137.618L71.4601 138.976C71.4046 139.24 71.2992 139.45 71.1431 139.606C70.971 139.773 70.7545 139.857 70.4971 139.857C70.1463 139.857 69.9741 139.697 69.8905 139.562C69.7851 139.383 69.7642 139.157 69.8237 138.868L70.5285 135.463L75.1119 135.463L76.1682 130.358C76.3637 129.41 76.1497 128.752 75.5133 128.348C74.9639 127.999 74.1054 127.822 72.963 127.822Z" fill="white"/>
<path d="M51.2851 139.857C50.9287 139.857 50.759 139.693 50.6785 139.557C50.5731 139.382 50.5514 139.155 50.6125 138.864L52.3672 130.379C52.4276 130.096 52.5491 129.878 52.7277 129.732C52.9071 129.583 53.1098 129.507 53.3295 129.507C53.677 129.507 53.8492 129.658 53.932 129.786C54.0431 129.953 54.0688 130.186 54.0061 130.477L52.2506 138.961C52.1943 139.234 52.0864 139.451 51.9296 139.605C51.7614 139.772 51.5434 139.857 51.2851 139.857ZM53.8242 127.822C52.6609 127.822 51.6979 128.027 50.9617 128.43C50.1153 128.889 49.6053 129.591 49.4017 130.576L47.6816 138.885C47.4813 139.854 47.6857 140.536 48.3059 140.973C48.8466 141.35 49.7147 141.542 50.8869 141.542C52.0535 141.542 52.9883 141.361 53.6633 141.006C54.4839 140.58 54.9828 139.895 55.1879 138.912L56.9563 130.358C57.1276 129.534 56.9273 128.927 56.3424 128.5C55.727 128.05 54.8798 127.822 53.8242 127.822Z" fill="white"/>
<path d="M90.6069 139.858C90.3326 139.858 90.1306 139.773 90.0067 139.603C89.8901 139.436 89.8619 139.22 89.919 138.939L91.7035 130.309C91.7606 130.043 91.87 129.842 92.0285 129.71C92.1902 129.576 92.3994 129.509 92.6512 129.509C92.9111 129.509 93.1058 129.586 93.2305 129.739C93.3632 129.902 93.3994 130.135 93.3383 130.43L91.5587 139.033C91.5024 139.302 91.397 139.5 91.2369 139.641C91.076 139.785 90.8636 139.858 90.6069 139.858ZM89.8265 141.336C90.0984 141.474 90.4999 141.543 91.018 141.543C91.9609 141.543 92.7671 141.303 93.4139 140.83C93.9699 140.418 94.2909 139.967 94.3963 139.452L96.4623 129.475C96.5564 129.017 96.443 128.639 96.1131 128.32C95.7744 127.99 95.2716 127.824 94.6183 127.824C94.1477 127.824 93.7309 127.863 93.3809 127.94C93.043 128.016 92.7607 128.135 92.541 128.293L92.0486 128.65L92.8733 124.66L89.9488 124.66L86.4941 141.347L88.6696 141.347L89.1346 140.793L89.314 140.932C89.3977 140.996 89.5683 141.13 89.8265 141.336Z" fill="white"/>
<path d="M100.113 139.857C99.8433 139.857 99.6397 139.774 99.5086 139.609C99.3799 139.448 99.3436 139.221 99.4008 138.937L99.9245 136.411C99.9873 136.1 100.139 135.84 100.379 135.64C100.616 135.449 100.979 135.298 101.494 135.176L101.855 135.091L101.04 139.032C100.987 139.296 100.873 139.502 100.703 139.644C100.53 139.786 100.332 139.857 100.113 139.857ZM102.147 129.507C102.491 129.507 102.661 129.66 102.742 129.788C102.849 129.959 102.871 130.183 102.811 130.476L102.385 132.537C102.324 132.828 101.95 133.236 99.6365 134.25C98.0379 134.95 97.1207 135.825 96.9091 136.85L96.3299 139.643C96.1947 140.295 96.2727 140.777 96.5648 141.075C96.8681 141.385 97.4988 141.542 98.441 141.542C99.0411 141.542 99.5126 141.499 99.8433 141.414C100.147 141.337 100.39 141.17 100.584 140.903L101.228 140.018L100.954 141.346L103.487 141.346L105.735 130.48C105.94 129.488 105.774 128.805 105.227 128.387C104.748 128.012 103.924 127.822 102.776 127.822C101.608 127.822 100.656 128.003 99.9454 128.36C99.0757 128.804 98.5544 129.488 98.3541 130.454L97.8408 132.939L100.667 132.939L101.195 130.381C101.255 130.098 101.374 129.881 101.55 129.734C101.728 129.583 101.929 129.507 102.147 129.507Z" fill="white"/>
<path d="M109.602 139.858C109.327 139.858 109.124 139.773 109.001 139.603C108.884 139.435 108.856 139.213 108.913 138.937L110.692 130.334C110.804 129.802 111.143 129.509 111.646 129.509C111.964 129.509 112.137 129.644 112.226 129.756C112.355 129.92 112.392 130.138 112.338 130.403L110.551 139.033C110.498 139.296 110.39 139.501 110.231 139.641C110.066 139.785 109.855 139.858 109.602 139.858ZM110.571 127.824C109.888 127.824 109.292 127.999 108.802 128.344C108.314 128.686 108.027 129.088 107.925 129.572L105.862 139.547C105.753 140.076 105.893 140.527 106.29 140.928C106.694 141.336 107.369 141.543 108.295 141.543C108.851 141.543 109.306 141.468 109.65 141.318C109.669 141.31 109.781 141.251 110.291 140.921L110.526 140.768L110.773 141.347L112.998 141.347L116.452 124.66L113.526 124.66L112.721 128.55L112.416 128.278C112.279 128.157 112.048 128.05 111.728 127.961C111.395 127.87 111.006 127.824 110.571 127.824Z" fill="white"/>
<path d="M130.728 133.828L129.068 133.828L129.783 130.378C129.839 130.1 129.961 129.882 130.142 129.731C130.324 129.582 130.526 129.507 130.745 129.507C131.092 129.507 131.264 129.657 131.346 129.782C131.458 129.953 131.483 130.178 131.422 130.473L130.728 133.828ZM131.166 127.822C130.002 127.822 129.048 128.026 128.331 128.429C127.516 128.888 127.021 129.59 126.817 130.576L125.097 138.885C124.897 139.855 125.093 140.539 125.698 140.974C126.224 141.351 127.076 141.542 128.229 141.542C129.397 141.542 130.34 141.361 131.032 141.005C131.887 140.56 132.402 139.875 132.603 138.912L132.944 137.618L130.024 137.618L129.663 138.976C129.607 139.24 129.503 139.45 129.346 139.606C129.175 139.773 128.958 139.857 128.701 139.857C128.349 139.857 128.177 139.697 128.094 139.562C127.989 139.383 127.968 139.157 128.026 138.868L128.731 135.463L133.315 135.463L134.371 130.358C134.567 129.41 134.353 128.752 133.716 128.348C133.167 127.999 132.309 127.822 131.166 127.822Z" fill="white"/>
<path d="M133.859 141.346L136.785 141.346L139.063 130.335C139.116 130.072 139.226 129.868 139.388 129.733C139.55 129.599 139.759 129.531 140.009 129.531C140.269 129.531 140.464 129.608 140.589 129.762C140.722 129.925 140.759 130.159 140.698 130.457L140.127 133.209L143.053 133.209L143.816 129.523C143.914 129.048 143.803 128.658 143.474 128.329C143.135 127.993 142.632 127.822 141.981 127.822C141.528 127.822 141.114 127.873 140.75 127.972C140.388 128.069 140.101 128.192 139.893 128.337L139.405 128.68L139.563 127.919L136.637 127.919L133.859 141.346Z" fill="white"/>
<path d="M145.805 132.344L147.931 132.344L148.231 131.069L146.103 131.069L145.805 132.344ZM143.664 141.492L145.789 141.492L147.758 133.09L145.632 133.09L143.664 141.492Z" fill="white"/>
<path d="M149.478 140.541C149.292 140.541 149.158 140.481 149.081 140.365C148.983 140.223 149.007 140.049 149.034 139.931L150.272 134.635C150.314 134.458 150.397 134.323 150.52 134.234C150.641 134.146 150.776 134.101 150.92 134.101C151.105 134.101 151.237 134.156 151.316 134.265C151.394 134.37 151.411 134.517 151.367 134.698L150.129 139.991C150.088 140.161 150.015 140.291 149.906 140.39C149.79 140.489 149.643 140.541 149.478 140.541ZM151.269 133.025C150.447 133.025 149.76 133.154 149.227 133.41C148.626 133.699 148.263 134.14 148.118 134.758L146.902 139.943C146.76 140.548 146.907 140.977 147.35 141.253C147.74 141.492 148.361 141.614 149.197 141.614C150.027 141.614 150.693 141.499 151.177 141.274C151.763 141.004 152.118 140.574 152.263 139.96L153.513 134.619C153.632 134.105 153.488 133.725 153.072 133.457C152.632 133.171 152.026 133.025 151.269 133.025Z" fill="white"/>
<path d="M141.01 141.491L142.947 141.491L143.333 139.908L141.396 139.908L141.01 141.491Z" fill="white"/>
<path d="M18.1888 141.362L14.6824 137.857C14.2354 137.407 14.2354 136.675 14.6824 136.228L21.7488 129.159C22.1976 128.711 22.9301 128.711 23.3779 129.159L23.8485 129.629L24.8807 128.526L23.8664 127.511C23.1492 126.795 21.9774 126.795 21.2606 127.511L13.0326 135.738C12.3147 136.455 12.3147 137.628 13.0326 138.346L17.6838 142.997L18.1888 141.362Z" fill="white"/>
<path d="M32.1032 135.739L27.3203 130.958L26.7562 132.531L30.4511 136.227C30.9014 136.676 30.9014 137.408 30.4511 137.857L23.387 144.925C22.9389 145.373 22.2064 145.373 21.7576 144.925L20.9708 144.138L19.9375 145.24L21.2693 146.572C21.9862 147.29 23.1584 147.29 23.8755 146.572L32.1032 138.347C32.8189 137.629 32.8189 136.456 32.1032 135.739Z" fill="white"/>
<path d="M29.061 124.733L25.014 135.981C24.9619 136.129 24.9855 136.293 25.0829 136.418C25.1704 136.532 25.3057 136.598 25.4489 136.598C25.461 136.598 25.4737 136.598 25.4869 136.595L27.5844 136.418L16.5957 148.112L19.6923 138.032C19.7371 137.885 19.705 137.727 19.6102 137.608C19.5202 137.497 19.39 137.436 19.2511 137.436C19.2368 137.436 19.2241 137.436 19.2132 137.437L16.9945 137.622L29.061 124.733Z" fill="white"/>
</g>
<mask id="mask1_1376_27378" style="mask-type:luminance" maskUnits="userSpaceOnUse" x="189" y="125" width="126" height="24">
<path d="M314.58 125.639L189.42 125.639L189.42 148.024L314.58 148.024L314.58 125.639Z" fill="white"/>
</mask>
<g mask="url(#mask1_1376_27378)">
<path d="M196.771 126.063L192.031 126.063L191.97 139.944L189.42 147.627L194.218 147.627L196.647 140.307L205.942 126.063L200.566 126.063L197.498 131.713C196.921 132.745 196.464 133.688 196.315 134.052C196.376 133.657 196.467 132.442 196.526 131.439L196.769 126.063L196.771 126.063Z" fill="white"/>
<path d="M196.135 147.627L201.025 147.627L202.848 143.739L206.705 143.739L206.038 147.627L210.653 147.627L213.781 126.063L207.312 126.063L196.135 147.627ZM207.433 139.67L204.79 139.67L208.039 132.745C208.555 131.682 208.95 130.71 209.102 130.344C209.04 130.739 208.798 131.925 208.615 132.925L207.431 139.668L207.433 139.67Z" fill="white"/>
<path d="M223.493 126.063L218.269 126.063L211.102 147.627L215.505 147.627L219.21 136.359C219.605 135.235 219.878 134.232 220 133.869C219.969 134.264 219.848 135.478 219.788 136.48L219.12 147.627L224.222 147.627L231.388 126.063L226.984 126.063L223.462 136.784C223.067 137.909 222.794 138.911 222.673 139.275C222.704 138.881 222.794 137.666 222.856 136.663L223.493 126.063Z" fill="white"/>
<path d="M236.696 139.489L236.605 139.762C235.937 141.797 234.844 144.076 233.506 144.076C231.987 144.076 232.565 140.461 233.841 136.573C235.633 131.107 236.727 129.557 237.972 129.557C238.67 129.557 239.127 130.256 239.279 132.716L243.561 131.288C243.379 128.16 241.891 125.639 238.428 125.639C234.449 125.639 231.291 129.01 229.073 135.783C227.039 142.009 227.222 147.779 231.503 147.779C232.99 147.779 234.024 147.201 235.086 145.897L234.782 147.627L238.214 147.627L242.283 135.419L235.724 135.419L234.388 139.488L236.696 139.488L236.696 139.489Z" fill="white"/>
<path d="M246.899 148.024C250.634 148.024 253.915 144.682 256.101 137.91C258.137 131.683 258.107 125.67 252.244 125.67C248.507 125.67 245.228 129.011 243.042 135.784C241.007 142.011 241.038 148.024 246.899 148.024ZM247.384 144.167C245.561 144.167 246.623 140.157 247.809 136.573C249.601 131.015 250.725 129.527 251.757 129.527C253.549 129.527 252.517 133.474 251.332 137.12C249.54 142.679 248.415 144.167 247.384 144.167Z" fill="white"/>
<path d="M263.88 126.063L262.544 130.132L266.34 130.132L260.508 147.627L265.306 147.627L271.138 130.132L274.995 130.132L276.331 126.063L263.878 126.063L263.88 126.063Z" fill="white"/>
<path d="M277.234 126.063L270.066 147.627L280.545 147.627L281.881 143.558L276.201 143.558L277.902 138.486L283.005 138.486L284.372 134.417L279.269 134.417L280.697 130.135L286.256 130.135L287.591 126.066L277.234 126.066L277.234 126.063Z" fill="white"/>
<path d="M288.749 147.993C292.181 147.993 294.429 145.259 295.734 142.707L292.15 141.005C290.814 143.344 290.115 144.043 289.265 144.043C287.625 144.043 288.383 140.459 289.69 136.571C291.421 131.407 292.485 129.555 293.761 129.555C294.643 129.555 294.945 130.77 295.097 132.593L299.228 131.104C299.137 127.855 297.678 125.667 294.247 125.667C290.327 125.667 287.14 129.008 284.923 135.781C282.888 142.008 282.948 147.991 288.749 147.991L288.749 147.993Z" fill="white"/>
<path d="M309.78 126.063L307.107 134.142L303.887 134.142L306.56 126.063L301.762 126.063L294.594 147.627L299.393 147.627L302.491 138.333L305.711 138.333L302.612 147.627L307.411 147.627L314.579 126.063L309.78 126.063Z" fill="white"/>
</g>
</g>
<defs>
<clipPath id="clip0_1376_27378">
<rect width="327" height="182" fill="white"/>
</clipPath>
</defs>
</svg>
