<svg width="1120" height="61" viewBox="0 0 1120 61" fill="none" xmlns="http://www.w3.org/2000/svg">
<path d="M31.1136 38.8613L30.2599 43.7192C30.1233 44.5151 29.4267 45.0983 28.6208 45.0983L21.8938 45.0846V45.0983L15.7336 45.0846C14.7024 45.0846 13.9238 44.1515 14.1014 43.136L14.9551 38.182C15.0643 37.5302 14.5726 36.9333 13.9101 36.9333L8.33045 36.9195C7.67482 36.9195 7.17627 36.3226 7.28554 35.6708L8.26216 30.017C8.37143 29.3651 7.87971 28.7682 7.21725 28.7682L5.43475 28.7613C4.92254 28.7613 4.53326 28.2948 4.62204 27.787L5.03864 25.3649C5.10693 24.967 5.45524 24.6719 5.85818 24.6719H8.60363C8.93145 24.6719 9.18413 24.9738 9.1295 25.2963L8.74705 27.4851C8.63095 28.1369 9.1295 28.7339 9.79195 28.7339H14.8458C16.0136 28.7202 16.7239 28.1164 16.9356 26.9636L18.042 20.5757H18.0215L18.5269 17.8586C18.6703 17.0695 19.3601 16.5 20.1591 16.5H24.9261C25.9573 16.5 26.7427 17.4332 26.5583 18.4555C26.3808 19.4641 26.1964 20.5002 26.1827 20.5757L24.9876 27.389C24.851 28.185 24.1544 28.7682 23.3485 28.7682L18.404 28.7545C17.2293 28.7476 16.519 29.3994 16.3073 30.5179L15.4058 35.6433C15.2897 36.2952 15.7883 36.8921 16.4507 36.8921H29.454C30.5126 36.9058 31.298 37.839 31.1136 38.8613Z" fill="white"/>
<path d="M49.1574 36.5083H42.0138V21.5847C42.0138 21.3377 41.8157 21.1318 41.563 21.1318H39.4664C39.2205 21.1318 39.0156 21.3308 39.0156 21.5847V38.7177C39.0156 38.9647 39.2137 39.1705 39.4664 39.1705H49.1506C49.3965 39.1705 49.6013 38.9715 49.6013 38.7177V36.9611C49.6013 36.7073 49.4033 36.5083 49.1574 36.5083Z" fill="white"/>
<path d="M78.8659 27.0117C77.5615 25.6188 75.9088 24.9121 73.9419 24.9121C72.4531 24.9121 69.933 25.612 69.0247 27.1352V25.6806C69.0247 25.4336 68.8266 25.2277 68.5739 25.2277H66.6207C66.3748 25.2277 66.1699 25.4267 66.1699 25.6806V43.0193C66.1699 43.2663 66.368 43.4722 66.6207 43.4722H68.5739C68.8198 43.4722 69.0247 43.2732 69.0247 43.0193V37.2626C69.7759 38.6418 72.1321 39.4857 73.9419 39.4857C75.8951 39.4857 77.5547 38.7858 78.8659 37.4136C80.2182 36.0001 80.8806 34.2916 80.8806 32.1989C80.8806 30.1062 80.225 28.4045 78.8659 27.0117ZM76.742 35.5816C75.8746 36.4873 74.7751 36.9401 73.4843 36.9401C72.1935 36.9401 71.0462 36.4873 70.1174 35.5816C69.2227 34.6827 68.7651 33.5437 68.7651 32.1989C68.7651 30.8541 69.2227 29.7151 70.1174 28.8094C71.0394 27.9105 72.1731 27.4577 73.4843 27.4577C74.7956 27.4577 75.8746 27.9174 76.7351 28.8162C77.6093 29.6945 78.0601 30.8335 78.0601 32.1989C78.0601 33.5643 77.6161 34.7033 76.742 35.5816Z" fill="white"/>
<path d="M95.6176 26.9367C94.1493 25.5163 92.3395 24.8027 90.2292 24.8027C88.1189 24.8027 86.3022 25.5232 84.8407 26.9367C83.3792 28.3501 82.6348 30.1203 82.6348 32.1994C82.6348 34.2784 83.3792 36.0486 84.8407 37.4621C86.3091 38.8824 88.1189 39.596 90.2292 39.596C92.3395 39.596 94.1561 38.8755 95.6176 37.4621C97.0791 36.0486 97.8235 34.2784 97.8235 32.1994C97.8235 30.1203 97.0791 28.3501 95.6176 26.9367ZM93.6234 35.6712C92.7083 36.5907 91.5677 37.0572 90.2292 37.0572C88.8906 37.0572 87.7159 36.5907 86.7939 35.6644C85.8925 34.6969 85.4485 33.5579 85.4485 32.1994C85.4485 30.8408 85.8993 29.6881 86.7939 28.7618C87.7159 27.8081 88.836 27.3415 90.2223 27.3415C91.6087 27.3415 92.7151 27.8218 93.6166 28.7549C94.5317 29.6744 94.9961 30.8339 94.9961 32.1994C95.003 33.5716 94.5522 34.7038 93.6234 35.6712Z" fill="white"/>
<path d="M107.672 24.9531C107.57 24.9463 107.467 24.9463 107.358 24.9463C105.446 24.9463 103.404 25.7765 102.755 27.2243V25.6805C102.755 25.4334 102.557 25.2276 102.304 25.2276H100.378C100.133 25.2276 99.9277 25.4266 99.9277 25.6805V38.7171C99.9277 38.9642 100.126 39.17 100.378 39.17H102.304C102.55 39.17 102.755 38.971 102.755 38.7171V31.8283C102.755 29.2827 104.408 27.636 106.955 27.636C107.173 27.636 107.392 27.6428 107.611 27.6634C107.87 27.684 108.095 27.4782 108.095 27.2174V25.406C108.095 25.159 107.911 24.96 107.672 24.9531Z" fill="white"/>
<path d="M116.442 25.235H113.164V21.5847C113.164 21.3377 112.966 21.1318 112.713 21.1318H110.76C110.514 21.1318 110.309 21.3308 110.309 21.5847V34.9439C110.309 38.059 111.743 39.5753 114.687 39.5753C115.151 39.5753 115.78 39.5479 116.306 39.493C116.531 39.4724 116.708 39.2734 116.708 39.047V37.4414C116.708 37.1807 116.49 36.9749 116.23 36.9954C115.868 37.0229 115.5 37.0366 115.267 37.0366C113.813 37.0366 113.157 36.275 113.157 34.5734V27.7874H116.435C116.681 27.7874 116.886 27.5884 116.886 27.3346V25.6878C116.893 25.4339 116.688 25.235 116.442 25.235Z" fill="white"/>
<path d="M129.806 35.2322C129.806 36.5016 129.321 37.572 128.413 38.3267C127.436 39.1295 125.981 39.5549 124.206 39.5549C121.713 39.5549 119.726 38.6698 118.756 37.1329C118.667 36.9956 118.694 36.8104 118.817 36.7074L120.299 35.4518C120.354 35.4038 120.422 35.3763 120.497 35.3763C120.593 35.3763 120.682 35.4175 120.75 35.493C121.535 36.3918 122.847 36.927 124.26 36.927C126.63 36.927 126.883 35.7674 126.883 35.2665C126.883 34.7657 126.569 34.3334 126.016 34.0384C125.695 33.8325 125.114 33.6404 124.691 33.4963C124.581 33.462 124.438 33.414 124.281 33.3659C123.851 33.2287 123.325 33.0572 122.976 32.9131C120.634 32.0691 119.63 30.9233 119.63 29.0844C119.63 27.8288 120.074 26.8613 120.989 26.1272C121.959 25.3793 123.079 25.0156 124.424 25.0156C126.173 25.0156 127.566 25.5851 128.577 26.7172C128.686 26.8407 128.679 27.026 128.563 27.1495L127.313 28.4806C127.252 28.5424 127.17 28.5835 127.081 28.5835C126.999 28.5835 126.917 28.5492 126.856 28.4943C126.241 27.918 125.401 27.6298 124.363 27.6298C123.325 27.6298 122.539 28.1856 122.539 29.0158C122.539 29.5441 122.819 29.8323 123.236 30.0999C123.864 30.5047 124.575 30.7174 125.258 30.9164C125.551 31.0056 125.852 31.0948 126.145 31.1977C128.713 32.0966 129.806 33.3042 129.806 35.2322Z" fill="white"/>
<path d="M63.8684 34.1962C63.8684 37.5034 61.5532 39.4726 57.6741 39.4726C54.6077 39.4726 52.2447 38.1483 51.0222 35.7468C50.9471 35.6028 51.0017 35.4175 51.1383 35.3283L52.832 34.2511C52.8798 34.2167 52.9413 34.203 53.0027 34.203C53.112 34.203 53.2144 34.2579 53.2691 34.354C54.2252 35.9801 55.7209 36.7966 57.7014 36.7966C59.2449 36.7966 60.8908 36.1311 60.8908 34.2716C60.8908 33.4002 60.563 32.8033 59.7981 32.2956C59.0468 31.7741 58.5005 31.5271 57.1277 31.0193C55.5706 30.4292 54.5872 29.9695 53.5081 29.0981C52.511 28.2679 52.0261 27.122 52.0261 25.6057C52.0261 24.1785 52.5383 23.0464 53.5901 22.1338C54.6555 21.235 55.9326 20.8027 57.4965 20.8027C59.7434 20.8027 61.4918 21.6535 62.7074 23.3346C62.7552 23.4032 62.7757 23.4855 62.7621 23.5747C62.7484 23.6639 62.7006 23.7394 62.6255 23.7874L61.0479 24.8853C60.9932 24.9196 60.9318 24.9402 60.8635 24.9402C60.7679 24.9402 60.6859 24.899 60.6244 24.8304C59.9005 23.9384 58.8624 23.4855 57.5443 23.4855C56.0419 23.4855 54.9491 24.3569 54.9491 25.5577C54.9491 26.0311 55.0584 26.3948 55.3111 26.7447C55.7209 27.321 56.3492 27.5955 56.9502 27.8631C57.0048 27.8905 57.0663 27.9111 57.1209 27.9386C57.5785 28.1444 58.0429 28.3297 58.4936 28.5149C59.4566 28.906 60.4537 29.3108 61.3552 29.8735C61.963 30.2577 62.4069 30.6145 62.7621 31.0056C63.4996 31.8015 63.8684 32.8719 63.8684 34.1962Z" fill="white"/>
<path d="M209.167 36.0045C205.861 36.0045 203.229 33.3795 203.229 30.083C203.229 26.7865 205.861 24.1615 209.167 24.1615C211.095 24.1615 212.993 25.1382 214.033 26.6949L216.666 25.1382C215.105 22.6963 212.289 21.1396 209.167 21.1396C204.209 21.1396 200.107 25.2298 200.107 30.1745C200.107 35.1193 204.209 39.2094 209.167 39.2094C212.289 39.2094 215.013 37.6527 216.666 35.2109L214.033 33.6542C212.87 35.0277 211.126 36.0045 209.167 36.0045Z" fill="white"/>
<path d="M334.474 21.1396L331.438 21.1396L331.437 38.8431L334.474 38.8431L334.474 21.1396Z" fill="white"/>
<path d="M280.633 21.1396L275.614 29.6862L270.564 21.1396L266.738 21.1396L266.738 38.8431L269.768 38.8431L269.768 25.6876L274.542 33.7458L276.655 33.7458L281.551 25.6876L281.551 38.8431L284.579 38.8431L284.579 21.1396L280.633 21.1396Z" fill="white"/>
<path d="M260.678 28.0379L264.779 28.0379L264.779 25.0161L260.678 25.0161L260.678 21.1396L257.648 21.1396L257.648 33.1048L257.648 33.6847C257.648 36.7065 259.026 38.9347 262.821 38.9347L264.749 38.9347L264.749 35.8213L263.004 35.8213C260.862 35.8213 260.556 34.753 260.556 33.6847L260.556 33.1963L260.678 28.0379Z" fill="white"/>
<path d="M246.14 32.0062C246.14 31.9146 246.14 31.9146 246.14 31.8231L246.14 24.9859L243.11 24.9859L243.11 26.2068C241.947 25.3216 240.57 24.9248 239.101 24.9248C235.183 24.9248 231.969 28.1297 231.969 32.0367C231.969 35.9437 235.183 39.1486 239.101 39.1486C240.661 39.1486 241.916 38.6603 243.11 37.8667L243.11 38.8434L246.14 38.8434L246.14 32.3114C246.14 32.0978 246.14 32.0978 246.14 32.0062ZM239.009 36.0047C236.866 36.0047 234.999 34.2649 234.999 32.0062C234.999 29.7475 236.743 28.0077 239.009 28.0077C241.151 28.0077 243.018 29.7475 243.018 32.0062C243.018 34.2649 241.273 36.0047 239.009 36.0047Z" fill="white"/>
<path d="M293.183 39.1174C289.268 39.1174 286.053 35.9124 286.053 32.0055C286.053 28.0985 289.268 24.8936 293.183 24.8936C297.098 24.8936 300.313 28.0985 300.313 32.0055C300.224 35.9124 297.098 39.1174 293.183 39.1174ZM293.183 28.0374C291.042 28.0374 289.17 29.7773 289.17 32.036C289.17 34.2947 290.92 36.0345 293.183 36.0345C295.446 36.0345 297.196 34.2947 297.196 32.036C297.196 29.8994 295.413 28.0374 293.183 28.0374Z" fill="white"/>
<path d="M251.617 29.6859C251.342 30.2048 251.219 30.7542 251.219 31.3952L251.219 38.8429L248.189 38.8429L248.189 24.9854L251.219 24.9854L251.219 26.1452C251.372 26.0537 251.617 25.901 252.29 25.6263C252.902 25.3822 254.127 25.0159 255.719 24.9854C255.78 24.9854 256.086 24.9854 256.3 24.9854L256.3 28.0072C256.27 28.0072 256.025 28.0072 255.78 28.0072C255.688 28.0072 255.106 28.0072 254.708 28.0377C254.433 28.0682 253.606 28.1292 252.964 28.404C252.229 28.7397 251.831 29.2586 251.617 29.6859Z" fill="white"/>
<path d="M224.561 24.9245C223.399 24.9245 222.205 25.2908 221.226 25.9013L221.226 21.1396L218.195 21.1396L218.195 38.8431L221.226 38.8431C221.226 38.8431 221.226 36.5844 221.226 34.6309L221.226 31.9144C221.226 31.1818 221.256 30.6019 221.44 30.083C221.654 29.4725 221.96 29.0452 222.297 28.7399C223.215 27.9158 224.317 27.9769 224.317 27.9769C224.317 27.9769 225.418 27.9158 226.336 28.7399C226.673 29.0452 226.979 29.4725 227.194 30.083C227.378 30.6019 227.408 31.1818 227.408 31.9144L227.408 34.6309C227.408 36.2181 227.408 37.9885 227.408 38.6295C227.408 38.7821 227.408 38.8431 227.408 38.8431L230.438 38.8431L230.438 31.1513L230.438 30.8766C230.53 27.2748 227.99 24.9245 224.561 24.9245Z" fill="white"/>
<path d="M326.391 24.9854L326.391 32.4025C326.391 33.5624 326.115 34.417 325.504 35.0275C324.918 35.6074 324.129 36.0042 323.144 36.0042C322.257 36.0042 321.581 35.7295 321.003 35.1191C320.425 34.5391 320.116 33.7455 320.116 32.8604L320.116 24.9854L317.088 24.9854L317.088 32.9214C317.088 34.6612 317.576 36.3095 318.643 37.3778C319.627 38.4461 321.003 38.9345 322.655 38.9345L322.688 38.9345C324.153 38.904 325.472 38.3545 326.359 37.4694L326.359 38.8429L326.448 38.8429L328.223 38.8429L329.362 38.8429L329.362 24.9854L326.391 24.9854Z" fill="white"/>
<path d="M312.131 24.9859L312.131 26.0847C310.967 25.2911 309.584 24.9248 308.118 24.9248C304.203 24.9248 300.988 28.1297 300.988 32.0367C300.988 35.9437 304.203 39.1486 308.118 39.1486C309.584 39.1486 310.935 38.6603 312.131 37.9888C312.131 37.9888 312.131 38.0193 312.131 38.0803C312.131 38.1109 312.131 38.1719 312.131 38.2329C312.131 38.4466 312.099 38.935 312.034 39.2707C311.855 40.1254 311.366 40.8274 310.658 41.4074C309.958 41.9873 309.071 42.2315 308.118 42.2315L307.996 42.2315C306.434 42.1399 305.058 41.4379 304.171 40.3085L302.03 42.4452C303.194 44.185 305.514 45.2533 308.053 45.2533C308.119 45.2533 308.208 45.2533 308.273 45.2533C308.916 45.2533 309.584 45.1617 310.202 44.9786C311.269 44.7039 312.253 44.1545 313.043 43.3608C313.906 42.5062 314.516 41.4074 314.85 40.2475C315.037 39.6065 315.159 38.935 315.159 38.2024C315.159 38.2024 315.159 37.9277 315.159 37.714C315.159 37.714 315.159 37.714 315.159 37.6835C315.159 37.592 315.159 37.1036 315.159 37.1036L315.159 36.1879L315.159 24.9859L312.131 24.9859ZM308.176 36.0047C306.035 36.0047 304.171 34.2649 304.171 32.0062C304.171 29.7475 305.913 28.0077 308.176 28.0077C310.446 28.0077 312.188 29.7475 312.188 32.0062C312.188 34.2649 310.349 36.0047 308.176 36.0047Z" fill="white"/>
<path fill-rule="evenodd" clip-rule="evenodd" d="M423.852 26.7324L423.852 23.0654L414.317 23.0654C411.2 23.0654 409.184 24.7159 409.184 27.8328L409.184 36.8165C409.184 39.1997 410.467 41.7664 414.684 41.7664C417.783 41.7164 419.703 41.4999 422.385 41.1975C422.848 41.1453 423.333 41.0905 423.852 41.0337L423.852 37.7334C422.243 37.816 420.856 37.917 419.674 38.0032C415.603 38.3001 413.951 38.4205 413.951 36.9999L413.951 27.8328C413.951 27.0992 414.317 26.7324 415.05 26.7324L423.852 26.7324ZM528.725 30.7662L528.725 27.8319L525.425 27.8319L525.425 24.5317L521.392 24.5317L521.025 27.8319L519.558 27.8319L519.558 30.7662L521.025 30.7662L521.025 37.7326C521.025 41.2162 523.408 41.9498 529.825 41.3996L529.825 38.0994L526.525 38.0994C525.792 38.0994 525.425 37.7326 525.425 36.9998L525.425 30.7662L528.725 30.7662ZM488.39 23.0654L488.39 26.7324L479.589 26.7324C478.855 26.7324 478.488 27.0992 478.488 27.8328L478.488 36.9999C478.488 38.4205 480.14 38.3 484.212 38.0032C485.395 37.917 486.781 37.816 488.39 37.7334L488.39 41.0337C487.871 41.0905 487.386 41.1453 486.923 41.1975C484.241 41.4999 482.321 41.7164 479.222 41.7664C475.005 41.7664 473.722 39.1997 473.722 36.8165L473.722 27.8328C473.722 24.7159 475.738 23.0654 478.855 23.0654L488.39 23.0654ZM443.286 41.3996L443.286 27.4652L447.32 27.4652L447.32 28.9323C453.003 25.6321 457.221 27.8319 457.221 30.7654L457.221 41.3996L452.82 41.3996L452.82 31.8657C452.82 30.3994 450.07 30.7654 447.687 31.6823L447.687 41.3996L443.286 41.3996ZM504.524 27.4652L504.524 41.3996L508.924 41.3996L508.924 31.6823C511.308 30.7654 514.058 30.3994 514.058 31.8657L514.058 41.3996L518.458 41.3996L518.458 30.7654C518.458 27.8319 514.241 25.6321 508.558 28.9323L508.558 27.4652L504.524 27.4652ZM471.155 30.7662L471.155 27.466L462.537 27.466C459.971 27.466 458.503 29.2991 458.503 31.8657C458.503 34.8 459.971 36.2663 462.537 36.2663L468.038 36.2663C468.337 38.6611 466.192 38.4897 461.903 38.1469L461.903 38.1469L461.903 38.1468L461.903 38.1468C460.938 38.0697 459.865 37.984 458.687 37.9168L458.687 41.0336C467.855 42.1332 472.621 42.1331 472.621 37.3666C472.621 34.6166 470.972 32.9661 468.954 32.9661L464.004 32.9661C463.271 32.9661 462.721 32.5993 462.721 31.8657C462.721 31.133 463.271 30.7662 464.004 30.7662L471.155 30.7662ZM433.1 30.7654L436.633 30.7654C437.067 30.7654 437.419 31.1173 437.419 31.5518L437.419 37.313C437.419 37.7475 437.067 38.0994 436.633 38.0994L436.088 38.0994L436.767 41.7664L437.468 41.7664C440.073 41.7664 442.186 39.6541 442.186 37.0486L442.186 31.8162C442.186 29.2107 440.073 27.0984 437.468 27.0984L432.421 27.0984L433.1 30.7654ZM430.138 38.0994L433.704 38.0994L434.383 41.7664L429.669 41.7664C427.063 41.7664 424.951 39.6541 424.951 37.0486L424.951 31.8162C424.951 29.2107 427.063 27.0984 429.669 27.0984L430.037 27.0984L430.716 30.7654L430.138 30.7654C429.704 30.7654 429.352 31.1173 429.352 31.5518L429.352 37.313C429.352 37.7475 429.704 38.0994 430.138 38.0994ZM433.385 36.6334C434.601 36.6334 435.586 35.6483 435.586 34.4332C435.586 33.2181 434.601 32.2331 433.385 32.2331C432.17 32.2331 431.185 33.2181 431.185 34.4332C431.185 35.6483 432.17 36.6334 433.385 36.6334ZM494.073 36.2663L503.057 36.2663L503.057 31.133C503.057 28.7489 501.04 27.466 499.023 27.466L493.523 27.466C490.956 27.466 489.489 29.6658 489.489 31.8657L489.489 36.9998C489.489 41.4004 492.056 42.4999 502.323 41.0336L502.323 38.1002C500.937 38.1671 499.768 38.2472 498.787 38.315C494.451 38.6124 493.774 38.6586 494.073 36.2663ZM498.656 32.9661L493.89 32.9661L493.89 31.4989C493.89 30.7662 494.44 30.3994 495.356 30.3994L497.19 30.3994C498.107 30.3994 498.656 30.7662 498.656 31.4989L498.656 32.9661Z" fill="white"/>
<path d="M652.913 23.9951V32.2708L644.834 23.9951H640.629V37.53H644.464V28.6357L653.263 37.53H656.748V23.9951H652.913Z" fill="white"/>
<path d="M663.858 34.5136V32.1161H672.443V29.235H663.858V27.0115H674.273V23.9951H659.945V37.53H674.487V34.5136H663.858Z" fill="white"/>
<path d="M684.678 37.9751C690.07 37.9751 693.574 35.3455 693.574 30.763C693.574 26.1804 690.07 23.5508 684.678 23.5508C679.285 23.5508 675.801 26.1804 675.801 30.763C675.801 35.3455 679.285 37.9751 684.678 37.9751ZM684.678 34.7654C681.68 34.7654 679.831 33.3153 679.831 30.763C679.831 28.2107 681.699 26.7605 684.678 26.7605C687.676 26.7605 689.525 28.2107 689.525 30.763C689.525 33.3153 687.676 34.7654 684.678 34.7654Z" fill="white"/>
<path d="M708.272 23.9951V32.2708L700.193 23.9951H695.988V37.53H699.823V28.6357L708.622 37.53H712.107V23.9951H708.272Z" fill="white"/>
<path fill-rule="evenodd" clip-rule="evenodd" d="M599.107 20.1349C599.107 17.1221 601.576 14.6797 604.621 14.6797H625.575C628.62 14.6797 631.089 17.1221 631.089 20.1349V37.7654C631.089 40.8824 627.102 42.2351 625.168 39.7742L619.123 32.0811V41.41C619.123 44.1216 616.901 46.3197 614.161 46.3197H604.621C601.576 46.3197 599.107 43.8773 599.107 40.8645V20.1349ZM604.621 19.0438C604.012 19.0438 603.519 19.5323 603.519 20.1349V40.8645C603.519 41.4671 604.012 41.9556 604.621 41.9556H614.326C614.631 41.9556 614.712 41.7113 614.712 41.41V28.8999C614.712 25.7829 618.699 24.4302 620.632 26.891L626.677 34.5842V20.1349C626.677 19.5323 626.735 19.0438 626.126 19.0438H604.621Z" fill="white"/>
<path d="M625.574 14.6797C628.619 14.6797 631.088 17.1221 631.088 20.1349V37.7654C631.088 40.8824 627.101 42.2351 625.168 39.7742L619.123 32.0811V41.41C619.123 44.1216 616.901 46.3197 614.16 46.3197C614.465 46.3197 614.712 46.0754 614.712 45.7742V28.8999C614.712 25.7829 618.698 24.4302 620.632 26.891L626.677 34.5842V15.7707C626.677 15.1682 626.183 14.6797 625.574 14.6797Z" fill="white"/>
<mask id="mask0_1376_27218" style="mask-type:luminance" maskUnits="userSpaceOnUse" x="777" y="20" width="143" height="24">
<path d="M919.002 20.1602L777.941 20.1602L777.941 43.614L919.002 43.614L919.002 20.1602Z" fill="white"/>
</mask>
<g mask="url(#mask0_1376_27218)">
<path d="M887.443 25.9277L885.644 34.6322C885.591 34.8795 885.484 35.0745 885.327 35.213C885.163 35.357 884.951 35.43 884.698 35.43C884.437 35.43 884.241 35.3531 884.117 35.1996C883.985 35.037 883.948 34.8054 884.01 34.5105L885.805 25.8303C885.916 25.2992 886.254 25.007 886.756 25.007C887.034 25.007 887.236 25.0935 887.357 25.2645C887.473 25.4275 887.502 25.6503 887.443 25.9277ZM888.332 23.4189L887.731 23.9833L887.585 23.9118C887.464 23.8528 887.286 23.7266 887.043 23.5275C886.785 23.3911 886.41 23.3223 885.929 23.3223C885.011 23.3223 884.276 23.5578 883.744 24.0226C883.347 24.3767 883.084 24.8448 882.965 25.4137L880.903 35.3891C880.808 35.8482 880.921 36.2262 881.251 36.5446C881.595 36.8793 882.084 37.0416 882.746 37.0416C883.216 37.0416 883.632 36.9985 883.979 36.9132C884.324 36.8279 884.61 36.7098 884.83 36.5617L885.312 36.2387L885.193 36.806C885.173 36.903 885.153 37.0149 885.132 37.1297C885.041 37.6191 884.989 37.863 884.9 37.9862C884.624 38.3723 884.155 38.5689 883.504 38.5689L848.686 38.5689L848.529 38.9615C848.118 39.9763 847.844 40.5866 847.688 40.8294C847.55 41.0394 847.364 41.2337 847.135 41.4124L883.618 41.4124C883.675 41.411 884.772 41.3898 885.192 41.3518C885.604 41.3136 885.957 41.2323 886.24 41.1105C886.723 40.8998 887.094 40.634 887.344 40.3222C887.512 40.1122 887.789 38.5816 887.937 37.7598C888.001 37.4043 888.061 37.0799 888.11 36.8377L890.888 23.4189L888.332 23.4189Z" fill="white"/>
<path d="M852.648 23.1846L847.138 36.9862C846.736 37.9757 845.907 40.2392 845.761 40.4679C845.499 40.8638 845.052 41.2022 844.419 41.4811C844.223 41.5639 844.014 41.6178 843.796 41.643C843.578 41.6663 843.263 41.6784 842.855 41.6784L811.504 41.6784L812.215 38.3342L841.853 38.3342C841.893 38.3371 841.933 38.34 841.974 38.34C842.014 38.34 842.055 38.3371 842.095 38.3342L842.207 38.3342C842.242 38.3251 842.273 38.3163 842.304 38.3079C843.021 38.1683 843.578 37.5831 843.676 36.8517C843.775 36.1206 843.334 23.1846 843.334 23.1846L846.74 23.1846L846.656 30.5284L849.29 23.1846L852.648 23.1846Z" fill="white"/>
<path d="M805.415 41.4143L809.66 41.4143L814.038 20.2549L809.795 20.2549L808.015 28.8471L806.204 28.8471L807.983 20.2549L803.737 20.2549L799.357 41.4143L803.604 41.4143L805.752 31.0311L807.564 31.0311L805.415 41.4143Z" fill="white"/>
<path d="M826.771 36.8461L829.696 36.8461L832.142 25.0227C832.242 24.5473 832.13 24.1568 831.8 23.8294C831.461 23.4932 830.959 23.3223 830.31 23.3223C829.858 23.3223 829.442 23.373 829.076 23.4721C828.715 23.5724 828.427 23.6967 828.22 23.8422L827.731 24.1849L827.891 23.4192L824.966 23.4192L822.187 36.8461L825.111 36.8461L827.386 25.8577C827.442 25.5868 827.55 25.3797 827.71 25.2412C827.878 25.1008 828.088 25.0308 828.337 25.0308C828.597 25.0308 828.793 25.1088 828.917 25.2619C829.051 25.426 829.088 25.6586 829.026 25.9536L826.771 36.8461Z" fill="white"/>
<path d="M837.973 29.3283L836.313 29.3283L837.027 25.8778C837.084 25.5996 837.205 25.3819 837.386 25.2309C837.569 25.0822 837.771 25.0071 837.989 25.0071C838.336 25.0071 838.508 25.1569 838.59 25.282C838.702 25.4526 838.727 25.6779 838.667 25.9729L837.973 29.3283ZM838.41 23.3223C837.246 23.3223 836.293 23.5265 835.574 23.929C834.76 24.3876 834.265 25.0898 834.062 26.0757L832.342 34.3854C832.141 35.3553 832.338 36.0385 832.943 36.4742C833.468 36.8509 834.32 37.0419 835.473 37.0419C836.641 37.0419 837.584 36.8614 838.277 36.5049C839.133 36.06 839.646 35.3753 839.846 34.4116L840.188 33.1184L837.269 33.1184L836.907 34.4758C836.852 34.7402 836.746 34.9498 836.59 35.1063C836.418 35.2732 836.202 35.3567 835.944 35.3567C835.594 35.3567 835.421 35.1967 835.338 35.0625C835.232 34.8828 835.211 34.6567 835.271 34.3675L835.976 30.9629L840.559 30.9629L841.616 25.8577C841.811 24.9097 841.597 24.252 840.961 23.8483C840.411 23.4994 839.553 23.3223 838.41 23.3223Z" fill="white"/>
<path d="M816.732 35.3567C816.376 35.3567 816.206 35.1934 816.126 35.0566C816.02 34.882 815.999 34.6545 816.06 34.3635L817.814 25.8792C817.875 25.5956 817.996 25.3783 818.175 25.2317C818.354 25.0829 818.557 25.0071 818.777 25.0071C819.124 25.0071 819.296 25.1584 819.379 25.2856C819.49 25.453 819.516 25.686 819.453 25.9766L817.698 34.4613C817.642 34.734 817.534 34.9506 817.377 35.1051C817.209 35.2722 816.991 35.3567 816.732 35.3567ZM819.272 23.3223C818.108 23.3223 817.145 23.5268 816.409 23.93C815.563 24.3895 815.053 25.0913 814.849 26.0757L813.129 34.3854C812.929 35.3538 813.133 36.0363 813.753 36.4732C814.294 36.8502 815.162 37.0419 816.334 37.0419C817.501 37.0419 818.436 36.8614 819.111 36.5056C819.931 36.0797 820.43 35.395 820.635 34.4116L822.404 25.8577C822.575 25.0344 822.375 24.4267 821.79 24.0004C821.174 23.5501 820.327 23.3223 819.272 23.3223Z" fill="white"/>
<path d="M856.054 35.3583C855.78 35.3583 855.578 35.2726 855.454 35.1031C855.337 34.9357 855.309 34.7199 855.366 34.4388L857.151 25.8089C857.208 25.5431 857.317 25.3419 857.476 25.2096C857.637 25.0761 857.847 25.0087 858.098 25.0087C858.358 25.0087 858.553 25.0863 858.678 25.2391C858.811 25.4024 858.847 25.635 858.786 25.9303L857.006 34.5332C856.95 34.8015 856.844 35.0002 856.684 35.141C856.523 35.285 856.311 35.3583 856.054 35.3583ZM855.274 36.836C855.546 36.9738 855.947 37.0434 856.465 37.0434C857.408 37.0434 858.214 36.8032 858.861 36.3296C859.417 35.918 859.738 35.4673 859.844 34.9525L861.91 24.9754C862.004 24.5172 861.89 24.1391 861.56 23.8201C861.222 23.4904 860.719 23.3238 860.066 23.3238C859.595 23.3238 859.178 23.3632 858.828 23.4405C858.49 23.5163 858.208 23.6352 857.988 23.793L857.496 24.15L858.321 20.1602L855.396 20.1602L851.941 36.8473L854.117 36.8473L854.582 36.2934L854.761 36.4317C854.845 36.4959 855.016 36.6304 855.274 36.836Z" fill="white"/>
<path d="M865.56 35.3567C865.291 35.3567 865.087 35.2736 864.956 35.1095C864.827 34.9476 864.791 34.7212 864.848 34.4372L865.372 31.9112C865.435 31.6002 865.587 31.3402 865.826 31.1405C866.063 30.9487 866.427 30.7981 866.941 30.6763L867.303 30.5914L866.488 34.5316C866.435 34.7955 866.32 35.002 866.151 35.1441C865.977 35.286 865.779 35.3567 865.56 35.3567ZM867.594 25.0071C867.938 25.0071 868.108 25.1598 868.189 25.2882C868.296 25.4588 868.318 25.6834 868.258 25.9759L867.832 28.0373C867.771 28.3279 867.397 28.7362 865.084 29.7498C863.485 30.4495 862.568 31.3245 862.356 32.3502L861.777 35.1434C861.642 35.7949 861.72 36.2766 862.012 36.5752C862.315 36.8848 862.946 37.0419 863.888 37.0419C864.488 37.0419 864.96 36.9989 865.291 36.914C865.595 36.837 865.837 36.67 866.031 36.4028L866.675 35.5175L866.401 36.8457L868.934 36.8457L871.182 25.9802C871.387 24.9885 871.222 24.3045 870.674 23.8874C870.195 23.5118 869.371 23.3223 868.223 23.3223C867.055 23.3223 866.103 23.5031 865.393 23.86C864.523 24.3038 864.002 24.9885 863.801 25.9536L863.288 28.4387L866.114 28.4387L866.642 25.881C866.702 25.5984 866.822 25.3811 866.997 25.2335C867.176 25.0833 867.377 25.0071 867.594 25.0071Z" fill="white"/>
<path d="M875.049 35.3583C874.774 35.3583 874.571 35.2726 874.448 35.1031C874.331 34.935 874.303 34.7125 874.361 34.4369L876.139 25.8341C876.251 25.3018 876.59 25.0087 877.094 25.0087C877.411 25.0087 877.584 25.1436 877.674 25.2562C877.802 25.4203 877.839 25.6376 877.785 25.9034L875.999 34.5332C875.945 34.7961 875.838 35.001 875.678 35.141C875.513 35.2854 875.303 35.3583 875.049 35.3583ZM876.019 23.3238C875.335 23.3238 874.739 23.4988 874.25 23.8437C873.761 24.1861 873.475 24.5879 873.373 25.0721L871.309 35.0473C871.2 35.5756 871.34 36.0273 871.737 36.428C872.142 36.8363 872.817 37.0434 873.743 37.0434C874.298 37.0434 874.753 36.9676 875.097 36.8185C875.116 36.8098 875.228 36.7511 875.738 36.4207L875.973 36.2679L876.22 36.8473L878.445 36.8473L881.899 20.1602L878.973 20.1602L878.168 24.0501L877.863 23.7785C877.727 23.6571 877.495 23.5499 877.176 23.4609C876.843 23.3702 876.453 23.3238 876.019 23.3238Z" fill="white"/>
<path d="M896.175 29.3283L894.516 29.3283L895.23 25.8778C895.286 25.5996 895.408 25.3819 895.59 25.2309C895.771 25.0822 895.973 25.0071 896.192 25.0071C896.539 25.0071 896.711 25.1569 896.793 25.282C896.905 25.4526 896.93 25.6779 896.87 25.9729L896.175 29.3283ZM896.613 23.3223C895.45 23.3223 894.496 23.5265 893.778 23.929C892.963 24.3876 892.468 25.0898 892.265 26.0757L890.544 34.3854C890.344 35.3553 890.54 36.0385 891.145 36.4742C891.671 36.8509 892.523 37.0419 893.676 37.0419C894.844 37.0419 895.787 36.8614 896.479 36.5049C897.335 36.06 897.849 35.3753 898.05 34.4116L898.391 33.1184L895.471 33.1184L895.11 34.4758C895.055 34.7402 894.95 34.9498 894.793 35.1063C894.622 35.2732 894.405 35.3567 894.148 35.3567C893.796 35.3567 893.624 35.1967 893.541 35.0625C893.436 34.8828 893.415 34.6567 893.474 34.3675L894.179 30.9629L898.762 30.9629L899.818 25.8577C900.014 24.9097 899.8 24.252 899.163 23.8483C898.614 23.4994 897.756 23.3223 896.613 23.3223Z" fill="white"/>
<path d="M899.307 36.8461L902.232 36.8461L904.51 25.8347C904.563 25.5718 904.673 25.3684 904.835 25.2331C904.997 25.0986 905.206 25.0308 905.456 25.0308C905.716 25.0308 905.911 25.1084 906.037 25.2619C906.169 25.4253 906.206 25.6594 906.145 25.9573L905.574 28.7089L908.5 28.7089L909.264 25.0227C909.362 24.5481 909.25 24.1579 908.921 23.829C908.582 23.4932 908.079 23.3223 907.428 23.3223C906.975 23.3223 906.561 23.373 906.197 23.4721C905.835 23.5687 905.548 23.6916 905.34 23.8371L904.852 24.1798L905.01 23.4192L902.084 23.4192L899.307 36.8461Z" fill="white"/>
<path d="M911.252 27.8436L913.378 27.8436L913.678 26.5693L911.55 26.5693L911.252 27.8436ZM909.111 36.9922L911.236 36.9922L913.205 28.5896L911.079 28.5896L909.111 36.9922Z" fill="white"/>
<path d="M914.925 36.0405C914.739 36.0405 914.606 35.9815 914.528 35.8648C914.43 35.7234 914.454 35.5494 914.481 35.4309L915.719 30.1347C915.761 29.9579 915.845 29.823 915.967 29.7344C916.088 29.6462 916.223 29.6013 916.367 29.6013C916.552 29.6013 916.685 29.656 916.763 29.7646C916.841 29.87 916.858 30.0166 916.814 30.1978L915.576 35.4914C915.535 35.6614 915.463 35.7912 915.353 35.8903C915.237 35.9891 915.09 36.0405 914.925 36.0405ZM916.717 28.5254C915.895 28.5254 915.207 28.6544 914.674 28.9096C914.073 29.1988 913.71 29.64 913.565 30.258L912.349 35.443C912.207 36.0483 912.354 36.4766 912.797 36.7533C913.187 36.9918 913.808 37.1136 914.644 37.1136C915.475 37.1136 916.14 36.9995 916.624 36.7741C917.211 36.5039 917.566 36.0745 917.71 35.4597L918.96 30.1194C919.079 29.6053 918.935 29.225 918.52 28.9574C918.079 28.6709 917.473 28.5254 916.717 28.5254Z" fill="white"/>
<path d="M906.457 36.991L908.394 36.991L908.781 35.4082L906.843 35.4082L906.457 36.991Z" fill="white"/>
<path d="M783.636 36.8623L780.13 33.357C779.683 32.9075 779.683 32.175 780.13 31.7276L787.196 24.6587C787.645 24.2106 788.377 24.2106 788.825 24.6587L789.296 25.1294L790.328 24.0257L789.314 23.0107C788.596 22.2946 787.425 22.2946 786.708 23.0107L778.48 31.2383C777.762 31.9548 777.762 33.1285 778.48 33.8463L783.131 38.4969L783.636 36.8623Z" fill="white"/>
<path d="M797.55 31.2387L792.768 26.458L792.203 28.0305L795.898 31.7269C796.349 32.1757 796.349 32.9083 795.898 33.3574L788.834 40.4249C788.386 40.8727 787.654 40.8727 787.205 40.4249L786.418 39.6381L785.385 40.7403L786.717 42.0718C787.433 42.7904 788.606 42.7904 789.323 42.0718L797.55 33.8468C798.266 33.1288 798.266 31.9555 797.55 31.2387Z" fill="white"/>
<path d="M794.508 20.2334L790.461 31.4807C790.409 31.6287 790.433 31.7935 790.53 31.9179C790.618 32.0316 790.753 32.0979 790.896 32.0979C790.908 32.0979 790.921 32.0979 790.934 32.0954L793.032 31.9179L782.043 43.6121L785.14 33.5319C785.184 33.3846 785.152 33.2275 785.057 33.1079C784.967 32.9975 784.837 32.9358 784.698 32.9358C784.684 32.9358 784.671 32.9358 784.66 32.9369L782.442 33.1218L794.508 20.2334Z" fill="white"/>
</g>
<mask id="mask1_1376_27218" style="mask-type:luminance" maskUnits="userSpaceOnUse" x="988" y="21" width="127" height="23">
<path d="M1114.03 21.1387L988.867 21.1387L988.867 43.5237L1114.03 43.5237L1114.03 21.1387Z" fill="white"/>
</mask>
<g mask="url(#mask1_1376_27218)">
<path d="M996.218 21.5635L991.479 21.5635L991.417 35.4436L988.867 43.1271L993.665 43.1271L996.095 35.8074L1005.39 21.5635L1000.01 21.5635L996.945 27.2133C996.368 28.2448 995.911 29.1882 995.762 29.5519C995.823 29.1571 995.914 27.9424 995.974 26.9395L996.216 21.5635L996.218 21.5635Z" fill="white"/>
<path d="M995.582 43.1271L1000.47 43.1271L1002.3 39.2388L1006.15 39.2388L1005.48 43.1271L1010.1 43.1271L1013.23 21.5635L1006.76 21.5635L995.582 43.1271ZM1006.88 35.1698L1004.24 35.1698L1007.49 28.2448C1008 27.1822 1008.4 26.2104 1008.55 25.8441C1008.49 26.2389 1008.25 27.425 1008.06 28.4254L1006.88 35.1681L1006.88 35.1698Z" fill="white"/>
<path d="M1022.94 21.5635L1017.72 21.5635L1010.55 43.1271L1014.95 43.1271L1018.66 31.8594C1019.05 30.7354 1019.33 29.7325 1019.45 29.3688C1019.42 29.7636 1019.29 30.9782 1019.24 31.9803L1018.57 43.1271L1023.67 43.1271L1030.84 21.5635L1026.43 21.5635L1022.91 32.2844C1022.51 33.4092 1022.24 34.4113 1022.12 34.775C1022.15 34.381 1022.24 33.1664 1022.3 32.1634L1022.94 21.5635Z" fill="white"/>
<path d="M1036.14 34.9894L1036.05 35.2624C1035.38 37.2969 1034.29 39.5758 1032.95 39.5758C1031.43 39.5758 1032.01 35.9613 1033.29 32.073C1035.08 26.6071 1036.17 25.0573 1037.42 25.0573C1038.12 25.0573 1038.57 25.7562 1038.73 28.2157L1043.01 26.7877C1042.83 23.6604 1041.34 21.1387 1037.87 21.1387C1033.9 21.1387 1030.74 24.5104 1028.52 31.2825C1026.49 37.5086 1026.67 43.2794 1030.95 43.2794C1032.44 43.2794 1033.47 42.7015 1034.53 41.397L1034.23 43.1274L1037.66 43.1274L1041.73 30.9188L1035.17 30.9188L1033.84 34.9878L1036.14 34.9878L1036.14 34.9894Z" fill="white"/>
<path d="M1046.35 43.524C1050.08 43.524 1053.36 40.1825 1055.55 33.4096C1057.58 27.1826 1057.55 21.1699 1051.69 21.1699C1047.95 21.1699 1044.68 24.5106 1042.49 31.2844C1040.45 37.5113 1040.49 43.524 1046.35 43.524ZM1046.83 39.6667C1045.01 39.6667 1046.07 35.6574 1047.26 32.0731C1049.05 26.5148 1050.17 25.0272 1051.2 25.0272C1053 25.0272 1051.96 28.9744 1050.78 32.62C1048.99 38.1791 1047.86 39.6667 1046.83 39.6667Z" fill="white"/>
<path d="M1063.33 21.5635L1061.99 25.6324L1065.79 25.6324L1059.96 43.1271L1064.75 43.1271L1070.59 25.6324L1074.44 25.6324L1075.78 21.5635L1063.33 21.5635L1063.33 21.5635Z" fill="white"/>
<path d="M1076.68 21.5635L1069.51 43.1271L1079.99 43.1271L1081.33 39.0582L1075.65 39.0582L1077.35 33.9862L1082.45 33.9862L1083.82 29.9173L1078.72 29.9173L1080.14 25.635L1085.7 25.635L1087.04 21.566L1076.68 21.566L1076.68 21.5635Z" fill="white"/>
<path d="M1088.2 43.4925C1091.63 43.4925 1093.88 40.7591 1095.18 38.2072L1091.6 36.5054C1090.26 38.8439 1089.56 39.5428 1088.71 39.5428C1087.07 39.5428 1087.83 35.9594 1089.14 32.071C1090.87 26.9067 1091.93 25.0553 1093.21 25.0553C1094.09 25.0553 1094.39 26.27 1094.54 28.0928L1098.67 26.6043C1098.58 23.3552 1097.13 21.167 1093.69 21.167C1089.77 21.167 1086.59 24.5085 1084.37 31.2814C1082.34 37.5083 1082.39 43.4908 1088.2 43.4908L1088.2 43.4925Z" fill="white"/>
<path d="M1109.23 21.5635L1106.55 29.6418L1103.33 29.6418L1106.01 21.5635L1101.21 21.5635L1094.04 43.1271L1098.84 43.1271L1101.94 33.8325L1105.16 33.8325L1102.06 43.1271L1106.86 43.1271L1114.03 21.5635L1109.23 21.5635Z" fill="white"/>
</g>
</svg>
