<svg width="768" height="131" viewBox="0 0 768 131" fill="none" xmlns="http://www.w3.org/2000/svg">
<path d="M73.1136 33.3613L72.2599 38.2192C72.1233 39.0151 71.4267 39.5983 70.6208 39.5983L63.8938 39.5846V39.5983L57.7336 39.5846C56.7024 39.5846 55.9238 38.6515 56.1014 37.636L56.9551 32.682C57.0643 32.0302 56.5726 31.4333 55.9101 31.4333L50.3304 31.4195C49.6748 31.4195 49.1763 30.8226 49.2855 30.1708L50.2622 24.517C50.3714 23.8651 49.8797 23.2682 49.2172 23.2682L47.4347 23.2613C46.9225 23.2613 46.5333 22.7948 46.622 22.287L47.0386 19.8649C47.1069 19.467 47.4552 19.1719 47.8582 19.1719H50.6036C50.9314 19.1719 51.1841 19.4738 51.1295 19.7963L50.747 21.9851C50.6309 22.6369 51.1295 23.2339 51.792 23.2339H56.8458C58.0136 23.2202 58.7239 22.6164 58.9356 21.4636L60.042 15.0757H60.0215L60.5269 12.3586C60.6703 11.5695 61.3601 11 62.1591 11H66.9261C67.9573 11 68.7427 11.9332 68.5583 12.9555C68.3808 13.9641 68.1964 15.0002 68.1827 15.0757L66.9876 21.889C66.851 22.685 66.1544 23.2682 65.3485 23.2682L60.404 23.2545C59.2293 23.2476 58.519 23.8994 58.3073 25.0179L57.4058 30.1433C57.2897 30.7952 57.7883 31.3921 58.4507 31.3921H71.454C72.5126 31.4058 73.298 32.339 73.1136 33.3613Z" fill="white"/>
<path d="M91.1574 31.0083H84.0138V16.0847C84.0138 15.8377 83.8157 15.6318 83.563 15.6318H81.4664C81.2205 15.6318 81.0156 15.8308 81.0156 16.0847V33.2177C81.0156 33.4647 81.2137 33.6705 81.4664 33.6705H91.1506C91.3965 33.6705 91.6013 33.4715 91.6013 33.2177V31.4611C91.6013 31.2073 91.4033 31.0083 91.1574 31.0083Z" fill="white"/>
<path d="M120.866 21.5117C119.562 20.1188 117.909 19.4121 115.942 19.4121C114.453 19.4121 111.933 20.112 111.025 21.6352V20.1806C111.025 19.9336 110.827 19.7277 110.574 19.7277H108.621C108.375 19.7277 108.17 19.9267 108.17 20.1806V37.5193C108.17 37.7663 108.368 37.9722 108.621 37.9722H110.574C110.82 37.9722 111.025 37.7732 111.025 37.5193V31.7626C111.776 33.1418 114.132 33.9857 115.942 33.9857C117.895 33.9857 119.555 33.2858 120.866 31.9136C122.218 30.5001 122.881 28.7916 122.881 26.6989C122.881 24.6062 122.225 22.9045 120.866 21.5117ZM118.742 30.0816C117.875 30.9873 116.775 31.4401 115.484 31.4401C114.194 31.4401 113.046 30.9873 112.117 30.0816C111.223 29.1827 110.765 28.0437 110.765 26.6989C110.765 25.3541 111.223 24.2151 112.117 23.3094C113.039 22.4105 114.173 21.9577 115.484 21.9577C116.796 21.9577 117.875 22.4174 118.735 23.3162C119.609 24.1945 120.06 25.3335 120.06 26.6989C120.06 28.0643 119.616 29.2033 118.742 30.0816Z" fill="white"/>
<path d="M137.618 21.4367C136.149 20.0163 134.339 19.3027 132.229 19.3027C130.119 19.3027 128.302 20.0232 126.841 21.4367C125.379 22.8501 124.635 24.6203 124.635 26.6994C124.635 28.7784 125.379 30.5486 126.841 31.9621C128.309 33.3824 130.119 34.096 132.229 34.096C134.339 34.096 136.156 33.3755 137.618 31.9621C139.079 30.5486 139.823 28.7784 139.823 26.6994C139.823 24.6203 139.079 22.8501 137.618 21.4367ZM135.623 30.1712C134.708 31.0907 133.568 31.5572 132.229 31.5572C130.891 31.5572 129.716 31.0907 128.794 30.1644C127.892 29.1969 127.448 28.0579 127.448 26.6994C127.448 25.3408 127.899 24.1881 128.794 23.2618C129.716 22.3081 130.836 21.8415 132.222 21.8415C133.609 21.8415 134.715 22.3218 135.617 23.2549C136.532 24.1744 136.996 25.3339 136.996 26.6994C137.003 28.0716 136.552 29.2038 135.623 30.1712Z" fill="white"/>
<path d="M149.672 19.4531C149.57 19.4463 149.467 19.4463 149.358 19.4463C147.446 19.4463 145.404 20.2765 144.755 21.7243V20.1805C144.755 19.9334 144.557 19.7276 144.304 19.7276H142.378C142.133 19.7276 141.928 19.9266 141.928 20.1805V33.2171C141.928 33.4642 142.126 33.67 142.378 33.67H144.304C144.55 33.67 144.755 33.471 144.755 33.2171V26.3283C144.755 23.7827 146.408 22.136 148.955 22.136C149.173 22.136 149.392 22.1428 149.611 22.1634C149.87 22.184 150.095 21.9782 150.095 21.7174V19.906C150.095 19.659 149.911 19.46 149.672 19.4531Z" fill="white"/>
<path d="M158.442 19.735H155.164V16.0847C155.164 15.8377 154.966 15.6318 154.713 15.6318H152.76C152.514 15.6318 152.309 15.8308 152.309 16.0847V29.4439C152.309 32.559 153.743 34.0753 156.687 34.0753C157.151 34.0753 157.78 34.0479 158.306 33.993C158.531 33.9724 158.708 33.7734 158.708 33.547V31.9414C158.708 31.6807 158.49 31.4749 158.23 31.4954C157.868 31.5229 157.5 31.5366 157.267 31.5366C155.813 31.5366 155.157 30.775 155.157 29.0734V22.2874H158.435C158.681 22.2874 158.886 22.0884 158.886 21.8346V20.1878C158.893 19.9339 158.688 19.735 158.442 19.735Z" fill="white"/>
<path d="M171.806 29.7322C171.806 31.0016 171.321 32.072 170.413 32.8267C169.436 33.6295 167.981 34.0549 166.206 34.0549C163.713 34.0549 161.726 33.1698 160.756 31.6329C160.667 31.4956 160.694 31.3104 160.817 31.2074L162.299 29.9518C162.354 29.9038 162.422 29.8763 162.497 29.8763C162.593 29.8763 162.682 29.9175 162.75 29.993C163.535 30.8918 164.847 31.427 166.26 31.427C168.63 31.427 168.883 30.2674 168.883 29.7665C168.883 29.2657 168.569 28.8334 168.016 28.5384C167.695 28.3325 167.114 28.1404 166.691 27.9963C166.581 27.962 166.438 27.914 166.281 27.8659C165.851 27.7287 165.325 27.5572 164.976 27.4131C162.634 26.5691 161.63 25.4233 161.63 23.5844C161.63 22.3288 162.074 21.3613 162.989 20.6272C163.959 19.8793 165.079 19.5156 166.424 19.5156C168.173 19.5156 169.566 20.0851 170.577 21.2172C170.686 21.3407 170.679 21.526 170.563 21.6495L169.313 22.9806C169.252 23.0424 169.17 23.0835 169.081 23.0835C168.999 23.0835 168.917 23.0492 168.856 22.9943C168.241 22.418 167.401 22.1298 166.363 22.1298C165.325 22.1298 164.539 22.6856 164.539 23.5158C164.539 24.0441 164.819 24.3323 165.236 24.5999C165.864 25.0047 166.575 25.2174 167.258 25.4164C167.551 25.5056 167.852 25.5948 168.145 25.6977C170.713 26.5966 171.806 27.8042 171.806 29.7322Z" fill="white"/>
<path d="M105.868 28.6962C105.868 32.0034 103.553 33.9726 99.6741 33.9726C96.6077 33.9726 94.2447 32.6483 93.0222 30.2468C92.9471 30.1028 93.0017 29.9175 93.1383 29.8283L94.832 28.7511C94.8798 28.7167 94.9413 28.703 95.0027 28.703C95.112 28.703 95.2144 28.7579 95.2691 28.854C96.2252 30.4801 97.7209 31.2966 99.7014 31.2966C101.245 31.2966 102.891 30.6311 102.891 28.7716C102.891 27.9002 102.563 27.3033 101.798 26.7956C101.047 26.2741 100.5 26.0271 99.1277 25.5193C97.5706 24.9292 96.5872 24.4695 95.5081 23.5981C94.511 22.7679 94.0261 21.622 94.0261 20.1057C94.0261 18.6785 94.5383 17.5464 95.5901 16.6338C96.6555 15.735 97.9326 15.3027 99.4965 15.3027C101.743 15.3027 103.492 16.1535 104.707 17.8346C104.755 17.9032 104.776 17.9855 104.762 18.0747C104.748 18.1639 104.701 18.2394 104.625 18.2874L103.048 19.3853C102.993 19.4196 102.932 19.4402 102.863 19.4402C102.768 19.4402 102.686 19.399 102.624 19.3304C101.9 18.4384 100.862 17.9855 99.5443 17.9855C98.0419 17.9855 96.9491 18.8569 96.9491 20.0577C96.9491 20.5311 97.0584 20.8948 97.3111 21.2447C97.7209 21.821 98.3492 22.0955 98.9502 22.3631C99.0048 22.3905 99.0663 22.4111 99.1209 22.4386C99.5785 22.6444 100.043 22.8297 100.494 23.0149C101.457 23.406 102.454 23.8108 103.355 24.3735C103.963 24.7577 104.407 25.1145 104.762 25.5056C105.5 26.3015 105.868 27.3719 105.868 28.6962Z" fill="white"/>
<path d="M241.126 30.5045C237.82 30.5045 235.188 27.8795 235.188 24.583C235.188 21.2865 237.82 18.6615 241.126 18.6615C243.054 18.6615 244.952 19.6382 245.992 21.1949L248.625 19.6382C247.064 17.1963 244.248 15.6396 241.126 15.6396C236.168 15.6396 232.066 19.7298 232.066 24.6745C232.066 29.6193 236.168 33.7094 241.126 33.7094C244.248 33.7094 246.972 32.1527 248.625 29.7109L245.992 28.1542C244.829 29.5277 243.085 30.5045 241.126 30.5045Z" fill="white"/>
<path d="M366.433 15.6396L363.396 15.6396L363.396 33.3431L366.433 33.3431L366.433 15.6396Z" fill="white"/>
<path d="M312.592 15.6396L307.573 24.1862L302.523 15.6396L298.697 15.6396L298.697 33.3431L301.727 33.3431L301.727 20.1876L306.501 28.2458L308.614 28.2458L313.51 20.1876L313.51 33.3431L316.538 33.3431L316.538 15.6396L312.592 15.6396Z" fill="white"/>
<path d="M292.637 22.5379L296.738 22.5379L296.738 19.5161L292.637 19.5161L292.637 15.6396L289.607 15.6396L289.607 27.6048L289.607 28.1847C289.607 31.2065 290.985 33.4347 294.78 33.4347L296.708 33.4347L296.708 30.3213L294.963 30.3213C292.821 30.3213 292.515 29.253 292.515 28.1847L292.515 27.6963L292.637 22.5379Z" fill="white"/>
<path d="M278.099 26.5062C278.099 26.4146 278.099 26.4146 278.099 26.3231L278.099 19.4859L275.069 19.4859L275.069 20.7068C273.906 19.8216 272.529 19.4248 271.06 19.4248C267.142 19.4248 263.928 22.6297 263.928 26.5367C263.928 30.4437 267.142 33.6486 271.06 33.6486C272.62 33.6486 273.875 33.1603 275.069 32.3667L275.069 33.3434L278.099 33.3434L278.099 26.8114C278.099 26.5978 278.099 26.5978 278.099 26.5062ZM270.968 30.5047C268.825 30.5047 266.958 28.7649 266.958 26.5062C266.958 24.2475 268.702 22.5077 270.968 22.5077C273.11 22.5077 274.977 24.2475 274.977 26.5062C274.977 28.7649 273.232 30.5047 270.968 30.5047Z" fill="white"/>
<path d="M325.142 33.6174C321.227 33.6174 318.012 30.4124 318.012 26.5055C318.012 22.5985 321.227 19.3936 325.142 19.3936C329.057 19.3936 332.272 22.5985 332.272 26.5055C332.183 30.4124 329.057 33.6174 325.142 33.6174ZM325.142 22.5374C323.001 22.5374 321.129 24.2773 321.129 26.536C321.129 28.7947 322.879 30.5345 325.142 30.5345C327.405 30.5345 329.155 28.7947 329.155 26.536C329.155 24.3994 327.372 22.5374 325.142 22.5374Z" fill="white"/>
<path d="M283.576 24.1859C283.301 24.7048 283.178 25.2542 283.178 25.8952L283.178 33.3429L280.148 33.3429L280.148 19.4854L283.178 19.4854L283.178 20.6452C283.331 20.5537 283.576 20.401 284.249 20.1263C284.861 19.8822 286.086 19.5159 287.678 19.4854C287.739 19.4854 288.045 19.4854 288.259 19.4854L288.259 22.5072C288.229 22.5072 287.984 22.5072 287.739 22.5072C287.647 22.5072 287.065 22.5072 286.667 22.5377C286.392 22.5682 285.565 22.6292 284.923 22.904C284.188 23.2397 283.79 23.7586 283.576 24.1859Z" fill="white"/>
<path d="M256.52 19.4245C255.358 19.4245 254.164 19.7908 253.185 20.4013L253.185 15.6396L250.154 15.6396L250.154 33.3431L253.185 33.3431C253.185 33.3431 253.185 31.0844 253.185 29.1309L253.185 26.4144C253.185 25.6818 253.215 25.1019 253.399 24.583C253.613 23.9725 253.919 23.5452 254.256 23.2399C255.174 22.4158 256.276 22.4769 256.276 22.4769C256.276 22.4769 257.377 22.4158 258.295 23.2399C258.632 23.5452 258.938 23.9725 259.153 24.583C259.337 25.1019 259.367 25.6818 259.367 26.4144L259.367 29.1309C259.367 30.7181 259.367 32.4885 259.367 33.1295C259.367 33.2821 259.367 33.3431 259.367 33.3431L262.397 33.3431L262.397 25.6513L262.397 25.3766C262.489 21.7748 259.949 19.4245 256.52 19.4245Z" fill="white"/>
<path d="M358.35 19.4854L358.35 26.9025C358.35 28.0624 358.074 28.917 357.463 29.5275C356.877 30.1074 356.088 30.5042 355.103 30.5042C354.216 30.5042 353.54 30.2295 352.962 29.6191C352.384 29.0391 352.075 28.2455 352.075 27.3604L352.075 19.4854L349.047 19.4854L349.047 27.4214C349.047 29.1612 349.535 30.8095 350.602 31.8778C351.586 32.9461 352.962 33.4345 354.614 33.4345L354.647 33.4345C356.112 33.404 357.431 32.8545 358.318 31.9694L358.318 33.3429L358.407 33.3429L360.182 33.3429L361.321 33.3429L361.321 19.4854L358.35 19.4854Z" fill="white"/>
<path d="M344.09 19.4859L344.09 20.5847C342.926 19.7911 341.543 19.4248 340.077 19.4248C336.162 19.4248 332.947 22.6297 332.947 26.5367C332.947 30.4437 336.162 33.6486 340.077 33.6486C341.543 33.6486 342.894 33.1603 344.09 32.4888C344.09 32.4888 344.09 32.5193 344.09 32.5803C344.09 32.6109 344.09 32.6719 344.09 32.7329C344.09 32.9466 344.058 33.435 343.993 33.7707C343.814 34.6254 343.325 35.3274 342.617 35.9074C341.917 36.4873 341.03 36.7315 340.077 36.7315L339.955 36.7315C338.393 36.6399 337.017 35.9379 336.13 34.8085L333.989 36.9452C335.153 38.685 337.473 39.7533 340.012 39.7533C340.077 39.7533 340.167 39.7533 340.232 39.7533C340.875 39.7533 341.543 39.6617 342.161 39.4786C343.228 39.2039 344.212 38.6545 345.002 37.8608C345.865 37.0062 346.475 35.9074 346.809 34.7475C346.996 34.1065 347.118 33.435 347.118 32.7024C347.118 32.7024 347.118 32.4277 347.118 32.214C347.118 32.214 347.118 32.214 347.118 32.1835C347.118 32.092 347.118 31.6036 347.118 31.6036L347.118 30.6879L347.118 19.4859L344.09 19.4859ZM340.134 30.5047C337.994 30.5047 336.13 28.7649 336.13 26.5062C336.13 24.2475 337.872 22.5077 340.134 22.5077C342.405 22.5077 344.147 24.2475 344.147 26.5062C344.147 28.7649 342.308 30.5047 340.134 30.5047Z" fill="white"/>
<path fill-rule="evenodd" clip-rule="evenodd" d="M445.811 21.2324L445.811 17.5654L436.276 17.5654C433.159 17.5654 431.143 19.2159 431.143 22.3328L431.143 31.3165C431.143 33.6997 432.426 36.2664 436.643 36.2664C439.742 36.2164 441.662 35.9999 444.344 35.6975C444.807 35.6453 445.292 35.5905 445.811 35.5337L445.811 32.2334C444.202 32.316 442.815 32.417 441.633 32.5032C437.562 32.8001 435.91 32.9205 435.91 31.4999L435.91 22.3328C435.91 21.5992 436.276 21.2324 437.009 21.2324L445.811 21.2324ZM550.684 25.2662L550.684 22.3319L547.384 22.3319L547.384 19.0317L543.351 19.0317L542.984 22.3319L541.517 22.3319L541.517 25.2662L542.984 25.2662L542.984 32.2326C542.984 35.7162 545.367 36.4498 551.784 35.8996L551.784 32.5994L548.484 32.5994C547.751 32.5994 547.384 32.2326 547.384 31.4998L547.384 25.2662L550.684 25.2662ZM510.349 17.5654L510.349 21.2324L501.548 21.2324C500.814 21.2324 500.447 21.5992 500.447 22.3328L500.447 31.4999C500.447 32.9205 502.099 32.8 506.171 32.5032C507.354 32.417 508.74 32.316 510.349 32.2334L510.349 35.5337C509.83 35.5905 509.345 35.6453 508.882 35.6975C506.2 35.9999 504.28 36.2164 501.181 36.2664C496.964 36.2664 495.681 33.6997 495.681 31.3165L495.681 22.3328C495.681 19.2159 497.697 17.5654 500.814 17.5654L510.349 17.5654ZM465.245 35.8996L465.245 21.9652L469.279 21.9652L469.279 23.4323C474.962 20.1321 479.18 22.3319 479.18 25.2654L479.18 35.8996L474.779 35.8996L474.779 26.3657C474.779 24.8994 472.029 25.2654 469.646 26.1823L469.646 35.8996L465.245 35.8996ZM526.483 21.9652L526.483 35.8996L530.883 35.8996L530.883 26.1823C533.267 25.2654 536.017 24.8994 536.017 26.3657L536.017 35.8996L540.417 35.8996L540.417 25.2654C540.417 22.3319 536.2 20.1321 530.517 23.4323L530.517 21.9652L526.483 21.9652ZM493.114 25.2662L493.114 21.966L484.496 21.966C481.93 21.966 480.462 23.7991 480.462 26.3657C480.462 29.3 481.93 30.7663 484.496 30.7663L489.997 30.7663C490.296 33.1611 488.151 32.9897 483.862 32.6469L483.862 32.6469L483.862 32.6468L483.862 32.6468C482.897 32.5697 481.824 32.484 480.646 32.4168L480.646 35.5336C489.814 36.6332 494.58 36.6331 494.58 31.8666C494.58 29.1166 492.931 27.4661 490.913 27.4661L485.963 27.4661C485.23 27.4661 484.68 27.0993 484.68 26.3657C484.68 25.633 485.23 25.2662 485.963 25.2662L493.114 25.2662ZM455.059 25.2654L458.592 25.2654C459.026 25.2654 459.378 25.6173 459.378 26.0518L459.378 31.813C459.378 32.2475 459.026 32.5994 458.592 32.5994L458.047 32.5994L458.726 36.2664L459.427 36.2664C462.032 36.2664 464.145 34.1541 464.145 31.5486L464.145 26.3162C464.145 23.7107 462.032 21.5984 459.427 21.5984L454.38 21.5984L455.059 25.2654ZM452.097 32.5994L455.663 32.5994L456.342 36.2664L451.628 36.2664C449.022 36.2664 446.91 34.1541 446.91 31.5486L446.91 26.3162C446.91 23.7107 449.022 21.5984 451.628 21.5984L451.996 21.5984L452.675 25.2654L452.097 25.2654C451.663 25.2654 451.311 25.6173 451.311 26.0518L451.311 31.813C451.311 32.2475 451.663 32.5994 452.097 32.5994ZM455.344 31.1334C456.56 31.1334 457.545 30.1483 457.545 28.9332C457.545 27.7181 456.56 26.7331 455.344 26.7331C454.129 26.7331 453.144 27.7181 453.144 28.9332C453.144 30.1483 454.129 31.1334 455.344 31.1334ZM516.032 30.7663L525.016 30.7663L525.016 25.633C525.016 23.2489 522.999 21.966 520.982 21.966L515.482 21.966C512.915 21.966 511.448 24.1658 511.448 26.3657L511.448 31.4998C511.448 35.9004 514.015 36.9999 524.282 35.5336L524.282 32.6002C522.896 32.6671 521.727 32.7472 520.746 32.815C516.41 33.1124 515.733 33.1586 516.032 30.7663ZM520.615 27.4661L515.849 27.4661L515.849 25.9989C515.849 25.2662 516.399 24.8994 517.315 24.8994L519.149 24.8994C520.066 24.8994 520.615 25.2662 520.615 25.9989L520.615 27.4661Z" fill="white"/>
<path d="M664.936 18.3154V26.5911L656.857 18.3154H652.652V31.8503H656.487V22.956L665.286 31.8503H668.771V18.3154H664.936Z" fill="white"/>
<path d="M675.882 28.8339V26.4364H684.467V23.5553H675.882V21.3318H686.297V18.3154H671.969V31.8503H686.511V28.8339H675.882Z" fill="white"/>
<path d="M696.701 32.2954C702.094 32.2954 705.598 29.6658 705.598 25.0833C705.598 20.5008 702.094 17.8711 696.701 17.8711C691.309 17.8711 687.824 20.5008 687.824 25.0833C687.824 29.6658 691.309 32.2954 696.701 32.2954ZM696.701 29.0857C693.703 29.0857 691.854 27.6356 691.854 25.0833C691.854 22.531 693.723 21.0808 696.701 21.0808C699.699 21.0808 701.548 22.531 701.548 25.0833C701.548 27.6356 699.699 29.0857 696.701 29.0857Z" fill="white"/>
<path d="M720.296 18.3154V26.5911L712.217 18.3154H708.012V31.8503H711.847V22.956L720.646 31.8503H724.13V18.3154H720.296Z" fill="white"/>
<path fill-rule="evenodd" clip-rule="evenodd" d="M611.131 14.4552C611.131 11.4424 613.6 9 616.645 9H637.598C640.643 9 643.112 11.4424 643.112 14.4552V32.0857C643.112 35.2027 639.125 36.5554 637.192 34.0945L631.147 26.4014V35.7303C631.147 38.4419 628.925 40.64 626.184 40.64H616.645C613.6 40.64 611.131 38.1976 611.131 35.1848V14.4552ZM616.645 13.3641C616.036 13.3641 615.542 13.8526 615.542 14.4552V35.1848C615.542 35.7874 616.036 36.2759 616.645 36.2759H626.35C626.654 36.2759 626.735 36.0316 626.735 35.7303V23.2202C626.735 20.1032 630.722 18.7505 632.656 21.2114L638.701 28.9045V14.4552C638.701 13.8526 638.759 13.3641 638.149 13.3641H616.645Z" fill="white"/>
<path d="M637.598 9C640.643 9 643.112 11.4424 643.112 14.4552V32.0857C643.112 35.2027 639.125 36.5554 637.191 34.0945L631.146 26.4014V35.7303C631.146 38.4419 628.924 40.64 626.184 40.64C626.488 40.64 626.735 40.3957 626.735 40.0945V23.2202C626.735 20.1032 630.722 18.7505 632.655 21.2114L638.7 28.9045V10.091C638.7 9.48847 638.207 9 637.598 9Z" fill="white"/>
<mask id="mask0_1376_27298" style="mask-type:luminance" maskUnits="userSpaceOnUse" x="220" y="73" width="142" height="25">
<path d="M361.554 73.6602L220.494 73.6602L220.494 97.114L361.554 97.114L361.554 73.6602Z" fill="white"/>
</mask>
<g mask="url(#mask0_1376_27298)">
<path d="M329.995 79.4277L328.196 88.1322C328.143 88.3795 328.037 88.5745 327.879 88.713C327.716 88.857 327.504 88.93 327.25 88.93C326.99 88.93 326.793 88.8531 326.669 88.6996C326.537 88.537 326.5 88.3054 326.562 88.0105L328.358 79.3303C328.468 78.7992 328.806 78.507 329.309 78.507C329.587 78.507 329.789 78.5935 329.91 78.7645C330.026 78.9275 330.055 79.1503 329.995 79.4277ZM330.884 76.9189L330.284 77.4833L330.138 77.4118C330.016 77.3528 329.838 77.2266 329.596 77.0275C329.338 76.8911 328.963 76.8223 328.481 76.8223C327.563 76.8223 326.829 77.0578 326.297 77.5226C325.9 77.8767 325.637 78.3448 325.518 78.9137L323.455 88.8891C323.36 89.3482 323.474 89.7262 323.804 90.0446C324.147 90.3793 324.636 90.5416 325.299 90.5416C325.769 90.5416 326.184 90.4985 326.532 90.4132C326.877 90.3279 327.163 90.2098 327.383 90.0617L327.865 89.7387L327.746 90.306C327.726 90.403 327.706 90.5149 327.685 90.6297C327.594 91.1191 327.542 91.363 327.453 91.4862C327.177 91.8723 326.707 92.0689 326.057 92.0689L291.239 92.0689L291.082 92.4615C290.671 93.4763 290.396 94.0866 290.241 94.3294C290.103 94.5394 289.917 94.7337 289.687 94.9124L326.171 94.9124C326.228 94.911 327.325 94.8898 327.744 94.8518C328.157 94.8136 328.51 94.7323 328.793 94.6105C329.275 94.3998 329.647 94.134 329.896 93.8222C330.065 93.6122 330.341 92.0816 330.49 91.2598C330.554 90.9043 330.613 90.5799 330.663 90.3377L333.44 76.9189L330.884 76.9189Z" fill="white"/>
<path d="M295.201 76.6846L289.69 90.4862C289.289 91.4757 288.46 93.7392 288.314 93.9679C288.052 94.3638 287.604 94.7022 286.972 94.9811C286.776 95.0639 286.566 95.1178 286.349 95.143C286.131 95.1663 285.816 95.1784 285.408 95.1784L254.057 95.1784L254.768 91.8342L284.405 91.8342C284.446 91.8371 284.486 91.84 284.527 91.84C284.567 91.84 284.607 91.8371 284.648 91.8342L284.759 91.8342C284.795 91.8251 284.825 91.8163 284.857 91.8079C285.574 91.6683 286.13 91.0831 286.229 90.3517C286.327 89.6206 285.887 76.6846 285.887 76.6846L289.293 76.6846L289.209 84.0284L291.843 76.6846L295.201 76.6846Z" fill="white"/>
<path d="M247.968 94.9143L252.213 94.9143L256.591 73.7549L252.347 73.7549L250.568 82.3471L248.757 82.3471L250.536 73.7549L246.289 73.7549L241.91 94.9143L246.157 94.9143L248.305 84.5311L250.116 84.5311L247.968 94.9143Z" fill="white"/>
<path d="M269.324 90.3461L272.249 90.3461L274.695 78.5227C274.794 78.0473 274.683 77.6568 274.353 77.3294C274.013 76.9932 273.512 76.8223 272.863 76.8223C272.411 76.8223 271.995 76.873 271.629 76.9721C271.268 77.0724 270.98 77.1967 270.773 77.3422L270.283 77.6849L270.444 76.9192L267.518 76.9192L264.74 90.3461L267.664 90.3461L269.939 79.3577C269.995 79.0868 270.102 78.8797 270.263 78.7412C270.431 78.6008 270.641 78.5308 270.89 78.5308C271.15 78.5308 271.345 78.6088 271.47 78.7619C271.604 78.926 271.641 79.1586 271.579 79.4536L269.324 90.3461Z" fill="white"/>
<path d="M280.525 82.8283L278.866 82.8283L279.58 79.3778C279.636 79.0996 279.758 78.8819 279.939 78.7309C280.121 78.5822 280.323 78.5071 280.541 78.5071C280.889 78.5071 281.06 78.6569 281.143 78.782C281.255 78.9526 281.28 79.1779 281.22 79.4729L280.525 82.8283ZM280.963 76.8223C279.799 76.8223 278.845 77.0265 278.127 77.429C277.313 77.8876 276.818 78.5898 276.614 79.5757L274.894 87.8854C274.693 88.8553 274.89 89.5385 275.495 89.9742C276.021 90.3509 276.873 90.5419 278.026 90.5419C279.194 90.5419 280.137 90.3614 280.829 90.0049C281.685 89.56 282.199 88.8753 282.399 87.9116L282.741 86.6184L279.821 86.6184L279.46 87.9758C279.405 88.2402 279.299 88.4498 279.143 88.6063C278.971 88.7732 278.755 88.8567 278.497 88.8567C278.146 88.8567 277.974 88.6967 277.89 88.5625C277.785 88.3828 277.764 88.1567 277.824 87.8675L278.528 84.4629L283.112 84.4629L284.168 79.3577C284.364 78.4097 284.15 77.752 283.513 77.3483C282.964 76.9994 282.105 76.8223 280.963 76.8223Z" fill="white"/>
<path d="M259.285 88.8567C258.929 88.8567 258.759 88.6934 258.679 88.5566C258.573 88.382 258.551 88.1545 258.613 87.8635L260.367 79.3792C260.428 79.0956 260.549 78.8783 260.728 78.7317C260.907 78.5829 261.11 78.5071 261.329 78.5071C261.677 78.5071 261.849 78.6584 261.932 78.7856C262.043 78.953 262.069 79.186 262.006 79.4766L260.251 87.9613C260.194 88.234 260.086 88.4506 259.93 88.6051C259.761 88.7722 259.543 88.8567 259.285 88.8567ZM261.824 76.8223C260.661 76.8223 259.698 77.0268 258.962 77.43C258.115 77.8895 257.605 78.5913 257.402 79.5757L255.682 87.8854C255.481 88.8538 255.686 89.5363 256.306 89.9732C256.847 90.3502 257.715 90.5419 258.887 90.5419C260.053 90.5419 260.988 90.3614 261.663 90.0056C262.484 89.5797 262.983 88.895 263.188 87.9116L264.956 79.3577C265.128 78.5344 264.927 77.9267 264.342 77.5004C263.727 77.0501 262.88 76.8223 261.824 76.8223Z" fill="white"/>
<path d="M298.607 88.8583C298.333 88.8583 298.131 88.7726 298.007 88.6031C297.89 88.4357 297.862 88.2199 297.919 87.9388L299.703 79.3089C299.761 79.0431 299.87 78.8419 300.029 78.7096C300.19 78.5761 300.399 78.5087 300.651 78.5087C300.911 78.5087 301.106 78.5863 301.23 78.7391C301.363 78.9024 301.399 79.135 301.338 79.4303L299.559 88.0332C299.502 88.3015 299.397 88.5002 299.237 88.641C299.076 88.785 298.864 88.8583 298.607 88.8583ZM297.827 90.336C298.098 90.4738 298.5 90.5434 299.018 90.5434C299.961 90.5434 300.767 90.3032 301.414 89.8296C301.97 89.418 302.291 88.9673 302.396 88.4525L304.462 78.4754C304.556 78.0172 304.443 77.6391 304.113 77.3201C303.774 76.9904 303.272 76.8238 302.618 76.8238C302.148 76.8238 301.731 76.8632 301.381 76.9405C301.043 77.0163 300.761 77.1352 300.541 77.293L300.049 77.65L300.873 73.6602L297.949 73.6602L294.494 90.3473L296.67 90.3473L297.135 89.7934L297.314 89.9317C297.398 89.9959 297.568 90.1304 297.827 90.336Z" fill="white"/>
<path d="M308.113 88.8567C307.843 88.8567 307.64 88.7736 307.509 88.6095C307.38 88.4476 307.344 88.2212 307.401 87.9372L307.925 85.4112C307.987 85.1002 308.139 84.8402 308.379 84.6405C308.616 84.4487 308.979 84.2981 309.494 84.1763L309.855 84.0914L309.04 88.0316C308.987 88.2955 308.873 88.502 308.703 88.6441C308.53 88.786 308.332 88.8567 308.113 88.8567ZM310.147 78.5071C310.491 78.5071 310.661 78.6598 310.742 78.7882C310.849 78.9588 310.871 79.1834 310.811 79.4759L310.385 81.5373C310.324 81.8279 309.95 82.2362 307.636 83.2498C306.038 83.9495 305.121 84.8245 304.909 85.8502L304.33 88.6434C304.195 89.2949 304.273 89.7766 304.565 90.0752C304.868 90.3848 305.499 90.5419 306.441 90.5419C307.041 90.5419 307.513 90.4989 307.843 90.414C308.147 90.337 308.39 90.17 308.584 89.9028L309.228 89.0175L308.954 90.3457L311.487 90.3457L313.735 79.4802C313.94 78.4885 313.774 77.8045 313.227 77.3874C312.748 77.0118 311.924 76.8223 310.776 76.8223C309.608 76.8223 308.656 77.0031 307.945 77.36C307.076 77.8038 306.554 78.4885 306.354 79.4536L305.841 81.9387L308.667 81.9387L309.195 79.381C309.255 79.0984 309.374 78.8811 309.55 78.7335C309.728 78.5833 309.929 78.5071 310.147 78.5071Z" fill="white"/>
<path d="M317.602 88.8583C317.327 88.8583 317.124 88.7726 317.001 88.6031C316.884 88.435 316.856 88.2125 316.913 87.9369L318.692 79.3341C318.804 78.8018 319.143 78.5087 319.646 78.5087C319.964 78.5087 320.137 78.6436 320.226 78.7562C320.355 78.9203 320.392 79.1376 320.338 79.4034L318.551 88.0332C318.498 88.2961 318.39 88.501 318.231 88.641C318.066 88.7854 317.855 88.8583 317.602 88.8583ZM318.571 76.8238C317.888 76.8238 317.292 76.9988 316.802 77.3437C316.314 77.6861 316.027 78.0879 315.925 78.5721L313.862 88.5473C313.753 89.0756 313.893 89.5273 314.29 89.928C314.694 90.3363 315.369 90.5434 316.295 90.5434C316.851 90.5434 317.306 90.4676 317.65 90.3185C317.669 90.3098 317.781 90.2511 318.291 89.9207L318.526 89.7679L318.773 90.3473L320.998 90.3473L324.452 73.6602L321.526 73.6602L320.721 77.5501L320.416 77.2785C320.279 77.1571 320.048 77.0499 319.728 76.9609C319.395 76.8702 319.006 76.8238 318.571 76.8238Z" fill="white"/>
<path d="M338.728 82.8283L337.068 82.8283L337.783 79.3778C337.839 79.0996 337.961 78.8819 338.142 78.7309C338.324 78.5822 338.526 78.5071 338.745 78.5071C339.092 78.5071 339.264 78.6569 339.346 78.782C339.458 78.9526 339.483 79.1779 339.422 79.4729L338.728 82.8283ZM339.166 76.8223C338.002 76.8223 337.048 77.0265 336.331 77.429C335.516 77.8876 335.021 78.5898 334.817 79.5757L333.097 87.8854C332.897 88.8553 333.093 89.5385 333.698 89.9742C334.224 90.3509 335.076 90.5419 336.229 90.5419C337.397 90.5419 338.34 90.3614 339.032 90.0049C339.887 89.56 340.402 88.8753 340.603 87.9116L340.944 86.6184L338.024 86.6184L337.663 87.9758C337.607 88.2402 337.503 88.4498 337.346 88.6063C337.175 88.7732 336.958 88.8567 336.701 88.8567C336.349 88.8567 336.177 88.6967 336.094 88.5625C335.989 88.3828 335.968 88.1567 336.026 87.8675L336.731 84.4629L341.315 84.4629L342.371 79.3577C342.567 78.4097 342.353 77.752 341.716 77.3483C341.167 76.9994 340.309 76.8223 339.166 76.8223Z" fill="white"/>
<path d="M341.859 90.3461L344.785 90.3461L347.063 79.3347C347.116 79.0718 347.226 78.8684 347.388 78.7331C347.55 78.5986 347.759 78.5308 348.009 78.5308C348.269 78.5308 348.464 78.6084 348.589 78.7619C348.722 78.9253 348.759 79.1594 348.698 79.4573L348.127 82.2089L351.053 82.2089L351.816 78.5227C351.914 78.0481 351.803 77.6579 351.474 77.329C351.135 76.9932 350.632 76.8223 349.981 76.8223C349.528 76.8223 349.114 76.873 348.75 76.9721C348.388 77.0687 348.101 77.1916 347.893 77.3371L347.405 77.6798L347.563 76.9192L344.637 76.9192L341.859 90.3461Z" fill="white"/>
<path d="M353.805 81.3436L355.931 81.3436L356.231 80.0693L354.103 80.0693L353.805 81.3436ZM351.664 90.4922L353.789 90.4922L355.758 82.0896L353.632 82.0896L351.664 90.4922Z" fill="white"/>
<path d="M357.478 89.5405C357.292 89.5405 357.158 89.4815 357.081 89.3648C356.983 89.2234 357.007 89.0494 357.034 88.9309L358.272 83.6347C358.314 83.4579 358.397 83.323 358.52 83.2344C358.641 83.1462 358.776 83.1013 358.92 83.1013C359.105 83.1013 359.237 83.156 359.316 83.2646C359.394 83.37 359.411 83.5166 359.367 83.6978L358.129 88.9914C358.088 89.1614 358.015 89.2912 357.906 89.3903C357.79 89.4891 357.643 89.5405 357.478 89.5405ZM359.269 82.0254C358.447 82.0254 357.76 82.1544 357.227 82.4096C356.626 82.6988 356.263 83.14 356.118 83.758L354.902 88.943C354.76 89.5483 354.907 89.9766 355.35 90.2533C355.74 90.4918 356.361 90.6136 357.197 90.6136C358.027 90.6136 358.693 90.4995 359.177 90.2741C359.763 90.0039 360.118 89.5745 360.263 88.9597L361.513 83.6194C361.632 83.1053 361.488 82.725 361.072 82.4574C360.632 82.1709 360.026 82.0254 359.269 82.0254Z" fill="white"/>
<path d="M349.01 90.491L350.947 90.491L351.333 88.9082L349.396 88.9082L349.01 90.491Z" fill="white"/>
<path d="M226.189 90.3623L222.682 86.857C222.235 86.4075 222.235 85.675 222.682 85.2276L229.749 78.1587C230.198 77.7106 230.93 77.7106 231.378 78.1587L231.849 78.6294L232.881 77.5257L231.866 76.5107C231.149 75.7946 229.977 75.7946 229.261 76.5107L221.033 84.7383C220.315 85.4548 220.315 86.6285 221.033 87.3463L225.684 91.9969L226.189 90.3623Z" fill="white"/>
<path d="M240.103 84.7387L235.32 79.958L234.756 81.5305L238.451 85.2269C238.901 85.6757 238.901 86.4083 238.451 86.8574L231.387 93.9249C230.939 94.3727 230.206 94.3727 229.758 93.9249L228.971 93.1381L227.937 94.2403L229.269 95.5718C229.986 96.2904 231.158 96.2904 231.876 95.5718L240.103 87.3468C240.819 86.6288 240.819 85.4555 240.103 84.7387Z" fill="white"/>
<path d="M237.061 73.7334L233.014 84.9807C232.962 85.1287 232.986 85.2935 233.083 85.4179C233.17 85.5316 233.306 85.5979 233.449 85.5979C233.461 85.5979 233.474 85.5979 233.487 85.5954L235.584 85.4179L224.596 97.1121L227.692 87.0319C227.737 86.8846 227.705 86.7275 227.61 86.6079C227.52 86.4975 227.39 86.4358 227.251 86.4358C227.237 86.4358 227.224 86.4358 227.213 86.4369L224.995 86.6218L237.061 73.7334Z" fill="white"/>
</g>
<mask id="mask1_1376_27298" style="mask-type:luminance" maskUnits="userSpaceOnUse" x="421" y="74" width="126" height="24">
<path d="M546.58 74.6387L421.42 74.6387L421.42 97.0237L546.58 97.0237L546.58 74.6387Z" fill="white"/>
</mask>
<g mask="url(#mask1_1376_27298)">
<path d="M428.771 75.0635L424.031 75.0635L423.97 88.9436L421.42 96.6271L426.218 96.6271L428.647 89.3074L437.942 75.0635L432.566 75.0635L429.498 80.7133C428.921 81.7448 428.464 82.6882 428.315 83.0519C428.376 82.6571 428.467 81.4424 428.526 80.4395L428.769 75.0635L428.771 75.0635Z" fill="white"/>
<path d="M428.135 96.6271L433.025 96.6271L434.848 92.7388L438.705 92.7388L438.038 96.6271L442.653 96.6271L445.781 75.0635L439.312 75.0635L428.135 96.6271ZM439.433 88.6698L436.79 88.6698L440.039 81.7448C440.555 80.6822 440.95 79.7104 441.102 79.3441C441.04 79.7389 440.798 80.925 440.615 81.9254L439.431 88.6681L439.433 88.6698Z" fill="white"/>
<path d="M455.493 75.0635L450.269 75.0635L443.102 96.6271L447.505 96.6271L451.21 85.3594C451.605 84.2354 451.878 83.2325 452 82.8688C451.969 83.2636 451.848 84.4782 451.788 85.4803L451.12 96.6271L456.222 96.6271L463.388 75.0635L458.984 75.0635L455.462 85.7844C455.067 86.9092 454.794 87.9113 454.673 88.275C454.704 87.881 454.794 86.6664 454.856 85.6634L455.493 75.0635Z" fill="white"/>
<path d="M468.696 88.4894L468.605 88.7624C467.937 90.7969 466.844 93.0758 465.506 93.0758C463.987 93.0758 464.565 89.4613 465.841 85.573C467.633 80.1071 468.727 78.5573 469.972 78.5573C470.67 78.5573 471.127 79.2562 471.279 81.7157L475.561 80.2877C475.379 77.1604 473.891 74.6387 470.428 74.6387C466.449 74.6387 463.291 78.0104 461.073 84.7825C459.039 91.0086 459.222 96.7794 463.503 96.7794C464.99 96.7794 466.024 96.2015 467.086 94.897L466.782 96.6274L470.214 96.6274L474.283 84.4188L467.724 84.4188L466.388 88.4878L468.696 88.4878L468.696 88.4894Z" fill="white"/>
<path d="M478.899 97.024C482.634 97.024 485.915 93.6825 488.101 86.9096C490.137 80.6826 490.107 74.6699 484.244 74.6699C480.507 74.6699 477.228 78.0106 475.042 84.7844C473.007 91.0113 473.038 97.024 478.899 97.024ZM479.384 93.1667C477.561 93.1667 478.623 89.1574 479.809 85.5731C481.601 80.0148 482.725 78.5272 483.757 78.5272C485.549 78.5272 484.517 82.4744 483.332 86.12C481.54 91.6791 480.415 93.1667 479.384 93.1667Z" fill="white"/>
<path d="M495.88 75.0635L494.544 79.1324L498.34 79.1324L492.508 96.6271L497.306 96.6271L503.138 79.1324L506.995 79.1324L508.331 75.0635L495.878 75.0635L495.88 75.0635Z" fill="white"/>
<path d="M509.234 75.0635L502.066 96.6271L512.545 96.6271L513.881 92.5582L508.201 92.5582L509.902 87.4862L515.005 87.4862L516.372 83.4173L511.269 83.4173L512.697 79.135L518.256 79.135L519.591 75.066L509.234 75.066L509.234 75.0635Z" fill="white"/>
<path d="M520.749 96.9925C524.181 96.9925 526.429 94.2591 527.734 91.7072L524.15 90.0054C522.814 92.3439 522.115 93.0428 521.265 93.0428C519.625 93.0428 520.383 89.4594 521.69 85.571C523.421 80.4067 524.485 78.5553 525.761 78.5553C526.643 78.5553 526.945 79.77 527.097 81.5928L531.228 80.1043C531.137 76.8552 529.678 74.667 526.247 74.667C522.327 74.667 519.14 78.0085 516.923 84.7814C514.888 91.0083 514.948 96.9908 520.749 96.9908L520.749 96.9925Z" fill="white"/>
<path d="M541.78 75.0635L539.107 83.1418L535.887 83.1418L538.56 75.0635L533.762 75.0635L526.594 96.6271L531.393 96.6271L534.491 87.3325L537.711 87.3325L534.612 96.6271L539.411 96.6271L546.579 75.0635L541.78 75.0635Z" fill="white"/>
</g>
</svg>
