<svg width="32" height="32" viewBox="0 0 32 32" fill="none" xmlns="http://www.w3.org/2000/svg">
<path fill-rule="evenodd" clip-rule="evenodd" d="M16 11.3333C13.4227 11.3333 11.3333 13.4227 11.3333 16C11.3333 18.5773 13.4227 20.6667 16 20.6667C18.5773 20.6667 20.6667 18.5773 20.6667 16C20.6667 13.4227 18.5773 11.3333 16 11.3333ZM14 16C14 14.8954 14.8954 14 16 14C17.1046 14 18 14.8954 18 16C18 17.1046 17.1046 18 16 18C14.8954 18 14 17.1046 14 16Z" fill="#03CEA4"/>
<path fill-rule="evenodd" clip-rule="evenodd" d="M20.067 6.18138L16 2.11438L11.933 6.18138H6.18139V11.933L2.1144 16L6.18139 20.067V25.8186H11.933L16 29.8856L20.067 25.8186H25.8186V20.067L29.8856 16L25.8186 11.933V6.18138H20.067ZM13.0376 8.84805L16 5.88562L18.9624 8.84805H23.152V13.0376L26.1144 16L23.152 18.9624V23.1519H18.9625L16 26.1144L13.0376 23.1519H8.84806V18.9624L5.88563 16L8.84806 13.0376V8.84805H13.0376Z" fill="#03CEA4"/>
</svg>
