<svg width="22" height="22" viewBox="0 0 22 22" fill="none" xmlns="http://www.w3.org/2000/svg">
<path d="M13.0022 4.0022H16.5879L12.0022 8.58794C11.6117 8.97846 11.6117 9.61163 12.0022 10.0022C12.3927 10.3927 13.0259 10.3927 13.4164 10.0022L18.0022 5.41638V9.0022C18.0022 9.55448 18.4499 10.0022 19.0022 10.0022C19.5545 10.0022 20.0022 9.55448 20.0022 9.0022V3.0022C20.0022 2.44991 19.5545 2.0022 19.0022 2.0022H13.0022C12.4499 2.0022 12.0022 2.44991 12.0022 3.0022C12.0022 3.55448 12.4499 4.0022 13.0022 4.0022Z" fill="#03CEA4"/>
<path d="M9.99806 13.4121C10.3886 13.0215 10.3886 12.3884 9.99806 11.9978C9.60754 11.6073 8.97437 11.6073 8.58385 11.9978L3.99805 16.5836V12.9979C3.99805 12.4456 3.55033 11.9979 2.99805 11.9979C2.44576 11.9979 1.99805 12.4456 1.99805 12.9979V18.9979C1.99805 19.5502 2.44576 19.9979 2.99805 19.9979H8.99805C9.55033 19.9979 9.99805 19.5502 9.99805 18.9979C9.99805 18.4456 9.55033 17.9979 8.99805 17.9979H5.41223L9.99806 13.4121Z" fill="#03CEA4"/>
</svg>
