<svg width="20" height="20" viewBox="0 0 20 20" fill="none" xmlns="http://www.w3.org/2000/svg">
<path fill-rule="evenodd" clip-rule="evenodd" d="M9.4213 15.3052C9.4213 15.6889 9.73238 16 10.1161 16C10.4999 16 10.811 15.6889 10.811 15.3052V14.9086C11.2296 14.8516 11.6046 14.7467 11.936 14.5938C12.4672 14.35 12.8719 14.0172 13.15 13.5953C13.4313 13.1734 13.5719 12.6906 13.5719 12.1469C13.5719 11.7156 13.486 11.3453 13.3141 11.0359C13.1453 10.7266 12.9235 10.4672 12.6485 10.2578C12.3735 10.0484 12.075 9.87969 11.7531 9.75157C11.4313 9.62344 11.1172 9.52188 10.811 9.44688V6.4129C11.0391 6.47462 11.2438 6.56719 11.425 6.69063C11.5988 6.80747 11.7366 6.94728 11.8386 7.11007C12.0353 7.42418 12.3239 7.72188 12.6946 7.72188C13.1037 7.72188 13.4459 7.37718 13.3174 6.98879C13.2424 6.76224 13.1335 6.55036 12.9906 6.35313C12.7031 5.95313 12.3094 5.63907 11.8094 5.41095C11.5053 5.27132 11.1725 5.17442 10.811 5.12025V4.69484C10.811 4.31109 10.4999 4.00001 10.1161 4C9.73239 4 9.4213 4.31109 9.4213 4.69484V5.11344C9.0388 5.16665 8.68328 5.26738 8.35472 5.41563C7.84222 5.64376 7.43597 5.96407 7.13597 6.37657C6.83597 6.78907 6.68597 7.27188 6.68597 7.82501C6.68597 8.49376 6.90941 9.03126 7.35628 9.4375C7.80628 9.84375 8.41566 10.1516 9.18441 10.3609L9.4213 10.4255V13.6392C9.26917 13.6121 9.12302 13.5741 8.98284 13.525C8.67347 13.4125 8.41878 13.2422 8.21878 13.0141C8.16049 12.9456 8.1096 12.8721 8.0661 12.7935C7.88077 12.4585 7.58646 12.1469 7.2037 12.1469C6.78233 12.1469 6.43556 12.5066 6.5599 12.9092C6.64264 13.1771 6.76279 13.423 6.92035 13.6469C7.21722 14.0656 7.62816 14.3891 8.15316 14.6172C8.5268 14.7795 8.94952 14.8841 9.4213 14.9309V15.3052ZM10.811 13.5927C10.9117 13.5662 11.0086 13.5343 11.1016 13.4969C11.4235 13.3656 11.6766 13.1844 11.861 12.9531C12.0453 12.7188 12.1375 12.4453 12.1375 12.1328C12.1375 11.8484 12.0563 11.6156 11.8938 11.4344C11.7344 11.2531 11.5172 11.1031 11.2422 10.9844C11.1073 10.9255 10.9636 10.87 10.811 10.818V13.5927ZM9.4213 9.07091V6.38415C9.28312 6.41453 9.15415 6.45576 9.03441 6.50782C8.74691 6.62969 8.52347 6.79844 8.36409 7.01407C8.20785 7.22657 8.12972 7.46876 8.12972 7.74063C8.12972 7.96876 8.18285 8.16563 8.28909 8.33126C8.39847 8.49688 8.54066 8.63594 8.71566 8.74844C8.89378 8.85782 9.08441 8.95001 9.28753 9.02501C9.3325 9.04092 9.37709 9.05622 9.4213 9.07091Z" fill="#03CEA4"/>
<path fill-rule="evenodd" clip-rule="evenodd" d="M10 0C4.47715 0 0 4.47715 0 10C0 15.5228 4.47715 20 10 20C15.5228 20 20 15.5228 20 10C20 4.47715 15.5228 0 10 0ZM2 10C2 5.58172 5.58172 2 10 2C14.4183 2 18 5.58172 18 10C18 14.4183 14.4183 18 10 18C5.58172 18 2 14.4183 2 10Z" fill="#03CEA4"/>
</svg>
