<svg width="32" height="32" viewBox="0 0 32 32" fill="none" xmlns="http://www.w3.org/2000/svg">
<path fill-rule="evenodd" clip-rule="evenodd" d="M16 2.66663C10.1089 2.66663 5.33331 7.44226 5.33331 13.3333C5.33331 15.7325 6.12698 17.9501 7.46555 19.7327C8.1254 20.6115 8.88582 21.3782 9.59659 22.0762C9.69354 22.1714 9.78935 22.2652 9.88399 22.3578L9.88469 22.3584C10.5039 22.9643 11.0736 23.5218 11.5897 24.1254L12.0523 24.6666H19.9476L20.4103 24.1254C20.9263 23.5218 21.496 22.9644 22.1153 22.3585C22.2101 22.2656 22.3062 22.1716 22.4034 22.0762C23.1141 21.3782 23.8746 20.6115 24.5344 19.7327C25.873 17.9501 26.6666 15.7325 26.6666 13.3333C26.6666 7.44226 21.891 2.66663 16 2.66663ZM7.99998 13.3333C7.99998 8.91501 11.5817 5.33329 16 5.33329C20.4183 5.33329 24 8.91501 24 13.3333C24 15.1353 23.4057 16.7948 22.402 18.1315C21.8737 18.8351 21.2413 19.4798 20.5349 20.1736C20.4444 20.2625 20.3523 20.3525 20.2591 20.4436C19.7621 20.9295 19.2322 21.4476 18.7299 22H13.27C12.7678 21.4476 12.2379 20.9295 11.7409 20.4436L11.7402 20.443C11.6472 20.3521 11.5554 20.2623 11.4651 20.1736C10.7587 19.4798 10.1263 18.8351 9.59797 18.1315C8.59422 16.7948 7.99998 15.1354 7.99998 13.3333Z" fill="#03CEA4"/>
<path d="M20 29.3333V26.6666H12V29.3333H20Z" fill="#03CEA4"/>
</svg>
