<svg width="32" height="32" viewBox="0 0 32 32" fill="none" xmlns="http://www.w3.org/2000/svg">
<path fill-rule="evenodd" clip-rule="evenodd" d="M16 2.66663C8.63621 2.66663 2.66667 8.63616 2.66667 16C2.66667 23.3628 8.63462 29.3317 15.9971 29.3333H16.0029C23.3654 29.3317 29.3333 23.3628 29.3333 16C29.3333 8.63616 23.3638 2.66663 16 2.66663ZM5.52053 14C5.39764 14.6478 5.33334 15.3164 5.33334 16C5.33334 16.6836 5.39764 17.3521 5.52053 18H9.4442C9.37237 17.3487 9.33334 16.6808 9.33334 16C9.33334 15.3191 9.37237 14.6512 9.4442 14H5.52053ZM6.40565 11.3333H9.93181C10.363 9.64779 10.9854 8.13701 11.6588 6.88365C11.8134 6.59593 11.9718 6.31964 12.1325 6.05604C9.62441 7.03223 7.57681 8.92995 6.40565 11.3333ZM12.1298 14C12.0461 14.6495 12 15.318 12 16C12 16.6819 12.0461 17.3504 12.1298 18H19.8702C19.9539 17.3504 20 16.6819 20 16C20 15.318 19.9539 14.6495 19.8702 14H12.1298ZM19.3016 11.3333H12.6984C13.0537 10.1426 13.5144 9.06427 14.0079 8.1457C14.5494 7.13774 15.1119 6.35692 15.5823 5.84907C15.7464 5.67199 15.8871 5.54121 16 5.44931C16.1129 5.54121 16.2537 5.67199 16.4177 5.84907C16.8881 6.35692 17.4506 7.13774 17.9921 8.1457C18.4856 9.06427 18.9463 10.1426 19.3016 11.3333ZM22.5558 14C22.6276 14.6512 22.6667 15.3191 22.6667 16C22.6667 16.6808 22.6276 17.3487 22.5558 18H26.4795C26.6024 17.3521 26.6667 16.6836 26.6667 16C26.6667 15.3164 26.6024 14.6478 26.4795 14H22.5558ZM25.5944 11.3333H22.0682C21.6371 9.64779 21.0146 8.13701 20.3412 6.88365C20.1866 6.59593 20.0283 6.31964 19.8675 6.05604C22.3756 7.03223 24.4232 8.92995 25.5944 11.3333ZM12.1325 25.9439C9.62441 24.9677 7.57681 23.07 6.40565 20.6666H9.93182C10.363 22.3521 10.9854 23.8629 11.6588 25.1163C11.8134 25.404 11.9718 25.6803 12.1325 25.9439ZM14.0079 23.8542C13.5144 22.9356 13.0537 21.8574 12.6984 20.6666H19.3016C18.9463 21.8574 18.4856 22.9356 17.9921 23.8542C17.4506 24.8622 16.8881 25.643 16.4177 26.1509C16.2537 26.3279 16.1129 26.4587 16 26.5506C15.8871 26.4587 15.7464 26.3279 15.5823 26.1509C15.1119 25.643 14.5494 24.8622 14.0079 23.8542ZM20.3412 25.1163C21.0146 23.8629 21.6371 22.3521 22.0682 20.6666H25.5944C24.4232 23.07 22.3756 24.9677 19.8675 25.9439C20.0283 25.6803 20.1867 25.404 20.3412 25.1163Z" fill="#03CEA4"/>
</svg>
