<svg width="32" height="33" viewBox="0 0 32 33" fill="none" xmlns="http://www.w3.org/2000/svg">
<path fill-rule="evenodd" clip-rule="evenodd" d="M6.52655 9.86956C6.52655 9.72172 6.59521 9.45753 6.98107 9.08778C7.37024 8.71487 8.00023 8.32084 8.88259 7.96322C10.6408 7.25065 13.1566 6.78119 16.0002 6.78119C18.8438 6.78119 21.3596 7.25065 23.1178 7.96322C24.0001 8.32084 24.6301 8.71487 25.0193 9.08778C25.4052 9.45753 25.4738 9.72172 25.4738 9.86956C25.4738 10.0174 25.4052 10.2816 25.0193 10.6513C24.6301 11.0242 24.0001 11.4183 23.1178 11.7759C21.3596 12.4885 18.8438 12.9579 16.0002 12.9579C13.1566 12.9579 10.6408 12.4885 8.88259 11.7759C8.00023 11.4183 7.37024 11.0242 6.98107 10.6513C6.59521 10.2816 6.52655 10.0174 6.52655 9.86956ZM16.0002 4.25488C12.914 4.25488 10.0614 4.75954 7.93367 5.62191C6.87305 6.05177 5.93067 6.59541 5.23322 7.26372C4.53246 7.93519 4.00024 8.81576 4.00024 9.86956C4.00024 10.018 4.01081 10.1631 4.03092 10.3046H4.00024V14.6563V19.4428V23.4679H6.52655V23.006C6.96051 23.2602 7.43396 23.488 7.93367 23.6905C10.0614 24.5529 12.914 25.0575 16.0002 25.0575C19.0864 25.0575 21.9389 24.5529 24.0667 23.6905C24.5664 23.488 25.0399 23.2602 25.4738 23.006V23.4679H28.0001V19.4428V14.6563V10.3046H27.9694C27.9896 10.1631 28.0001 10.018 28.0001 9.86956C28.0001 8.81576 27.4679 7.93519 26.7671 7.26372C26.0697 6.59541 25.1273 6.05177 24.0667 5.62191C21.9389 4.75954 19.0864 4.25488 16.0002 4.25488ZM25.4738 13.4327C25.0399 13.6869 24.5664 13.9147 24.0667 14.1172C21.9389 14.9796 19.0864 15.4842 16.0002 15.4842C12.914 15.4842 10.0614 14.9796 7.93367 14.1172C7.43396 13.9147 6.96051 13.6869 6.52655 13.4327V14.6563C6.52655 14.8041 6.5952 15.0683 6.98107 15.4381C7.37024 15.811 8.00023 16.205 8.88258 16.5626C10.6408 17.2752 13.1566 17.7447 16.0002 17.7447C18.8438 17.7447 21.3596 17.2752 23.1178 16.5626C24.0001 16.205 24.6301 15.811 25.0193 15.4381C25.4052 15.0683 25.4738 14.8041 25.4738 14.6563V13.4327ZM6.52655 19.4428V18.2195C6.96051 18.4737 7.43396 18.7014 7.93367 18.904C10.0614 19.7663 12.914 20.271 16.0002 20.271C19.0864 20.271 21.9389 19.7663 24.0667 18.904C24.5664 18.7014 25.0399 18.4737 25.4738 18.2195V19.4428C25.4738 19.5907 25.4052 19.8549 25.0193 20.2246C24.6301 20.5975 24.0001 20.9916 23.1178 21.3492C21.3596 22.0617 18.8438 22.5312 16.0002 22.5312C13.1566 22.5312 10.6408 22.0617 8.88258 21.3492C8.00023 20.9916 7.37024 20.5975 6.98107 20.2246C6.5952 19.8549 6.52655 19.5907 6.52655 19.4428ZM6.52655 23.4681V23.9033C6.52655 24.0511 6.59521 24.3153 6.98107 24.685C7.37024 25.058 8.00023 25.452 8.88258 25.8096C10.6408 26.5222 13.1566 26.9916 16.0002 26.9916C18.8438 26.9916 21.3596 26.5222 23.1178 25.8096C24.0001 25.452 24.6301 25.058 25.0193 24.685C25.4052 24.3153 25.4738 24.0511 25.4738 23.9033V23.4681H28.0001V23.9033C28.0001 24.9571 27.4679 25.8376 26.7671 26.5091C26.0697 27.1774 25.1273 27.7211 24.0667 28.1509C21.9389 29.0133 19.0864 29.5179 16.0002 29.5179C12.914 29.5179 10.0614 29.0133 7.93367 28.1509C6.87305 27.7211 5.93067 27.1774 5.23322 26.5091C4.53246 25.8376 4.00024 24.9571 4.00024 23.9033V23.4681H6.52655Z" fill="#03CAA1"/>
</svg>
