<svg width="16" height="16" viewBox="0 0 16 16" fill="none" xmlns="http://www.w3.org/2000/svg">
<path fill-rule="evenodd" clip-rule="evenodd" d="M9.38905 6.1286C9.38119 5.55431 9.23873 4.9662 8.96484 4.55548C8.46613 3.80764 6.95602 2.79236 4.1361 2.57255L6.08035 5.50103L6.12456 5.50003C6.48699 5.49355 6.84236 5.52902 7.15868 5.60717C7.46555 5.68298 7.78136 5.81022 8.02245 6.0199L7.23495 6.92535C7.19288 6.88877 7.08061 6.82396 6.87087 6.77214C6.67057 6.72266 6.42081 6.69492 6.14602 6.69984C5.58738 6.70983 5.00443 6.85242 4.58351 7.12578C3.82964 7.61534 2.79603 9.11297 2.54188 11.93L5.48374 10.0281C5.48185 9.9921 5.48038 9.95633 5.47933 9.9208C5.46855 9.55847 5.49982 9.20271 5.57421 8.88549C5.64638 8.57774 5.76987 8.26044 5.97668 8.01689L6.8914 8.79361C6.85531 8.8361 6.79184 8.94914 6.74251 9.15948C6.69541 9.36034 6.67063 9.61041 6.6788 9.88513C6.69541 10.4436 6.8449 11.0248 7.12322 11.4425C7.62168 12.1905 9.13145 13.2063 11.9513 13.4271L8.6889 8.50954C8.90382 8.23958 8.94422 7.85499 8.76125 7.53806C8.72846 7.48127 8.69021 7.42961 8.64754 7.38336L9.15741 7.0451L9.22295 7.14389C9.25238 7.08061 9.28454 6.99268 9.31304 6.8761C9.36385 6.66828 9.39291 6.41026 9.38905 6.1286ZM5.72819 11.299C5.82702 11.5827 5.95766 11.8574 6.12463 12.1079C7.00256 13.4254 9.33656 14.6705 13.0982 14.6705H14.2163L13.5982 13.7388L11.303 10.2793C11.6048 10.1788 11.8986 10.0425 12.1657 9.86452C13.4832 8.98659 14.7283 6.65259 14.7283 2.89094V1.77285L13.7966 2.39096L10.3478 4.67903C10.2524 4.40156 10.1259 4.13363 9.96321 3.8897C9.08483 2.57254 6.75041 1.3282 2.98876 1.32947L1.87067 1.32985L2.48909 2.26133L4.78467 5.71899C4.48524 5.81584 4.1946 5.9475 3.92994 6.11937C2.60217 6.98163 1.32948 9.30072 1.28491 13.0621L1.27167 14.1801L2.21062 13.5731L5.72819 11.299ZM11.5003 8.86593C11.25 9.03275 10.9391 9.15449 10.6058 9.22829L9.47834 7.52884L10.0715 8.03216C10.2772 7.78969 10.403 7.4707 10.4787 7.16107C10.5569 6.84112 10.594 6.48042 10.5889 6.11217C10.5883 6.0626 10.5868 6.01251 10.5846 5.962L13.4849 4.03786C13.2641 6.85771 12.2483 8.36747 11.5003 8.86593Z" fill="#35D8B6"/>
<path d="M9.28086 7.23806C9.68538 7.93871 9.44532 8.83462 8.74467 9.23914C8.04402 9.64366 7.1481 9.4036 6.74358 8.70295C6.33906 8.0023 6.57912 7.10639 7.27977 6.70187C7.98042 6.29735 8.87634 6.53741 9.28086 7.23806Z" stroke="#35D8B6" stroke-width="1.2"/>
</svg>
