<svg width="33" height="32" viewBox="0 0 33 32" fill="none" xmlns="http://www.w3.org/2000/svg">
<g clip-path="url(#clip0_133_4201)">
<path fill-rule="evenodd" clip-rule="evenodd" d="M24.116 8.5C24.116 8.77614 23.8921 9 23.616 9C23.3398 9 23.116 8.77614 23.116 8.5C23.116 8.22386 23.3398 8 23.616 8C23.8921 8 24.116 8.22386 24.116 8.5ZM26.116 8.5C26.116 9.88071 24.9967 11 23.616 11C23.595 11 23.5741 10.9997 23.5532 10.9992L22.6601 12.9132C23.5492 13.6468 24.116 14.7572 24.116 16C24.116 17.2428 23.5492 18.3532 22.6601 19.0868L23.5532 21.0008C23.5741 21.0003 23.595 21 23.616 21C24.9967 21 26.116 22.1193 26.116 23.5C26.116 24.8807 24.9967 26 23.616 26C22.2353 26 21.116 24.8807 21.116 23.5C21.116 22.866 21.3519 22.2872 21.7409 21.8465L20.848 19.9332C20.6107 19.9771 20.366 20 20.116 20C19.0603 20 18.1002 19.5911 17.3854 18.923L12.0397 22.3248C12.0896 22.5418 12.116 22.7678 12.116 23C12.116 24.6568 10.7728 26 9.11597 26C7.45911 26 6.11597 24.6568 6.11597 23C6.11597 21.3431 7.45911 20 9.11597 20C9.81373 20 10.4559 20.2382 10.9655 20.6377L16.3107 17.2362C16.2855 17.1585 16.2625 17.0797 16.242 17H11.908C11.5222 17.883 10.6412 18.5 9.616 18.5C8.23529 18.5 7.116 17.3807 7.116 16C7.116 14.6193 8.23529 13.5 9.616 13.5C10.6412 13.5 11.5222 14.117 11.908 15H16.242C16.2625 14.9202 16.2855 14.8414 16.3107 14.7637L10.9655 11.3622C10.4559 11.7618 9.81372 12 9.11591 12C7.45905 12 6.11591 10.6569 6.11591 9.00003C6.11591 7.34318 7.45905 6.00003 9.11591 6.00003C10.7728 6.00003 12.1159 7.34318 12.1159 9.00003C12.1159 9.23216 12.0895 9.45812 12.0396 9.6751L17.3854 13.077C18.1003 12.4089 19.0604 12 20.116 12C20.366 12 20.6107 12.0229 20.848 12.0668L21.7409 10.1535C21.3519 9.71282 21.116 9.13397 21.116 8.5C21.116 7.11929 22.2353 6 23.616 6C24.9967 6 26.116 7.11929 26.116 8.5ZM10.1159 9.00003C10.1159 9.55232 9.66819 10 9.11591 10C8.56362 10 8.11591 9.55232 8.11591 9.00003C8.11591 8.44775 8.56362 8.00003 9.11591 8.00003C9.66819 8.00003 10.1159 8.44775 10.1159 9.00003ZM20.116 18C21.2206 18 22.116 17.1046 22.116 16C22.116 14.8954 21.2206 14 20.116 14C19.0114 14 18.116 14.8954 18.116 16C18.116 17.1046 19.0114 18 20.116 18ZM9.11597 24C9.66825 24 10.116 23.5523 10.116 23C10.116 22.4477 9.66825 22 9.11597 22C8.56368 22 8.11597 22.4477 8.11597 23C8.11597 23.5523 8.56368 24 9.11597 24ZM9.616 16.5C9.89214 16.5 10.116 16.2761 10.116 16C10.116 15.7239 9.89214 15.5 9.616 15.5C9.33985 15.5 9.116 15.7239 9.116 16C9.116 16.2761 9.33985 16.5 9.616 16.5ZM23.616 24C23.8921 24 24.116 23.7761 24.116 23.5C24.116 23.2239 23.8921 23 23.616 23C23.3398 23 23.116 23.2239 23.116 23.5C23.116 23.7761 23.3398 24 23.616 24Z" fill="#03CEA4"/>
</g>
<defs>
<clipPath id="clip0_133_4201">
<rect width="32" height="32" fill="white" transform="translate(0.115845)"/>
</clipPath>
</defs>
</svg>
