<svg width="33" height="32" viewBox="0 0 33 32" fill="none" xmlns="http://www.w3.org/2000/svg">
<path fill-rule="evenodd" clip-rule="evenodd" d="M6.64239 8.98333C6.64239 8.83549 6.71105 8.5713 7.09692 8.20155C7.48609 7.82864 8.11608 7.43461 8.99843 7.07699C10.7566 6.36442 13.2725 5.89495 16.116 5.89495C18.9596 5.89495 21.4754 6.36442 23.2336 7.07699C24.116 7.43461 24.746 7.82864 25.1351 8.20155C25.521 8.5713 25.5897 8.83549 25.5897 8.98333C25.5897 9.13117 25.521 9.39536 25.1351 9.76511C24.746 10.138 24.116 10.5321 23.2336 10.8897C21.4754 11.6022 18.9596 12.0717 16.116 12.0717C13.2725 12.0717 10.7566 11.6022 8.99843 10.8897C8.11608 10.5321 7.48609 10.138 7.09692 9.76511C6.71105 9.39536 6.64239 9.13117 6.64239 8.98333ZM16.116 3.36865C13.0298 3.36865 10.1773 3.87331 8.04951 4.73568C6.98889 5.16554 6.04651 5.70918 5.34906 6.37749C4.64831 7.04896 4.11609 7.92953 4.11609 8.98333C4.11609 9.13181 4.12665 9.27685 4.14677 9.41835H4.11609V13.7701V18.5566V22.5817H6.64239V22.1198C7.07635 22.374 7.54981 22.6017 8.04951 22.8043C10.1773 23.6666 13.0298 24.1713 16.116 24.1713C19.2022 24.1713 22.0548 23.6666 24.1825 22.8043C24.6822 22.6017 25.1557 22.374 25.5897 22.1198V22.5817H28.116V18.5566V13.7701V9.41835H28.0853C28.1054 9.27685 28.116 9.13181 28.116 8.98333C28.116 7.92953 27.5837 7.04896 26.883 6.37749C26.1855 5.70918 25.2432 5.16554 24.1825 4.73568C22.0548 3.87331 19.2022 3.36865 16.116 3.36865ZM25.5897 12.5465C25.1557 12.8007 24.6822 13.0285 24.1825 13.231C22.0548 14.0933 19.2022 14.598 16.116 14.598C13.0298 14.598 10.1773 14.0933 8.04951 13.231C7.54981 13.0285 7.07635 12.8007 6.64239 12.5465V13.7701C6.64239 13.9179 6.71105 14.1821 7.09692 14.5519C7.48609 14.9248 8.11608 15.3188 8.99843 15.6764C10.7566 16.389 13.2725 16.8585 16.116 16.8585C18.9596 16.8585 21.4754 16.389 23.2336 15.6764C24.116 15.3188 24.746 14.9248 25.1351 14.5519C25.521 14.1821 25.5897 13.9179 25.5897 13.7701V12.5465ZM6.64239 18.5566V17.3332C7.07635 17.5874 7.54981 17.8152 8.04951 18.0177C10.1773 18.8801 13.0298 19.3848 16.116 19.3848C19.2022 19.3848 22.0548 18.8801 24.1825 18.0177C24.6822 17.8152 25.1557 17.5874 25.5897 17.3332V18.5566C25.5897 18.7044 25.521 18.9686 25.1351 19.3384C24.746 19.7113 24.116 20.1053 23.2336 20.4629C21.4754 21.1755 18.9596 21.645 16.116 21.645C13.2725 21.645 10.7566 21.1755 8.99843 20.4629C8.11608 20.1053 7.48609 19.7113 7.09692 19.3384C6.71105 18.9686 6.64239 18.7044 6.64239 18.5566ZM6.64239 22.5819V23.017C6.64239 23.1649 6.71105 23.4291 7.09692 23.7988C7.48609 24.1717 8.11608 24.5658 8.99843 24.9234C10.7566 25.6359 13.2725 26.1054 16.116 26.1054C18.9596 26.1054 21.4754 25.6359 23.2336 24.9234C24.116 24.5658 24.746 24.1717 25.1351 23.7988C25.521 23.4291 25.5897 23.1649 25.5897 23.017V22.5819H28.116V23.017C28.116 24.0708 27.5837 24.9514 26.883 25.6229C26.1855 26.2912 25.2432 26.8348 24.1825 27.2647C22.0548 28.1271 19.2022 28.6317 16.116 28.6317C13.0298 28.6317 10.1773 28.1271 8.04951 27.2647C6.98889 26.8348 6.04651 26.2912 5.34906 25.6229C4.64831 24.9514 4.11609 24.0708 4.11609 23.017V22.5819H6.64239Z" fill="#03CEA4"/>
</svg>
