<svg width="33" height="32" viewBox="0 0 33 32" fill="none" xmlns="http://www.w3.org/2000/svg">
<path fill-rule="evenodd" clip-rule="evenodd" d="M20.1159 9.33317C17.8961 9.33317 15.9295 10.4167 14.7157 12.0896L14.0654 12.9858L13.065 12.5112C12.3747 12.1837 11.6019 11.9998 10.7825 11.9998C7.837 11.9998 5.44918 14.3877 5.44918 17.3332C5.44918 20.2787 7.837 22.6665 10.7825 22.6665C12.1423 22.6665 13.3805 22.1593 14.3231 21.3218L15.152 20.5853L16.0273 21.2661C17.1565 22.1442 18.5733 22.6665 20.1159 22.6665C23.7978 22.6665 26.7825 19.6817 26.7825 15.9998C26.7825 12.3179 23.7978 9.33317 20.1159 9.33317ZM13.219 9.71136C14.9245 7.84216 17.3829 6.6665 20.1159 6.6665C25.2705 6.6665 29.4492 10.8452 29.4492 15.9998C29.4492 21.1545 25.2705 25.3332 20.1159 25.3332C18.3359 25.3332 16.67 24.8338 15.2536 23.9679C13.9772 24.8294 12.4376 25.3332 10.7825 25.3332C6.36424 25.3332 2.78252 21.7514 2.78252 17.3332C2.78252 12.9149 6.36424 9.33317 10.7825 9.33317C11.6307 9.33317 12.4498 9.46561 13.219 9.71136Z" fill="#03CEA4"/>
</svg>
