<svg width="33" height="32" viewBox="0 0 33 32" fill="none" xmlns="http://www.w3.org/2000/svg">
<g clip-path="url(#clip0_133_4179)">
<path fill-rule="evenodd" clip-rule="evenodd" d="M16.1159 2.73417C16.9629 1.86981 18.1434 1.3335 19.4492 1.3335C22.0265 1.3335 24.1159 3.42283 24.1159 6.00016C24.1159 6.71589 23.9547 7.39399 23.6668 8.00016H29.4492V18.6668H28.1159V29.3335H4.11587V18.6668H2.78253V8.00016H8.56495C8.27699 7.39399 8.11587 6.71589 8.11587 6.00016C8.11587 3.42283 10.2052 1.3335 12.7825 1.3335C14.0883 1.3335 15.2689 1.86981 16.1159 2.73417ZM14.7825 6.00016C14.7825 4.89559 13.8871 4.00016 12.7825 4.00016C11.678 4.00016 10.7825 4.89559 10.7825 6.00016C10.7825 7.10473 11.678 8.00016 12.7825 8.00016C13.8871 8.00016 14.7825 7.10473 14.7825 6.00016ZM5.4492 10.6668V16.0002H14.7825V10.6668H5.4492ZM21.4492 6.00016C21.4492 7.10473 20.5538 8.00016 19.4492 8.00016C18.3446 8.00016 17.4492 7.10473 17.4492 6.00016C17.4492 4.89559 18.3446 4.00016 19.4492 4.00016C20.5538 4.00016 21.4492 4.89559 21.4492 6.00016ZM17.4492 10.6668H26.7825V16.0002H17.4492V10.6668ZM17.4492 18.6668V26.6668H25.4492V18.6668H17.4492ZM14.7825 18.6668H6.78253V26.6668H14.7825V18.6668Z" fill="#03CEA4"/>
</g>
<defs>
<clipPath id="clip0_133_4179">
<rect width="32" height="32" fill="white" transform="translate(0.115845)"/>
</clipPath>
</defs>
</svg>
