<svg width="33" height="32" viewBox="0 0 33 32" fill="none" xmlns="http://www.w3.org/2000/svg">
<g clip-path="url(#clip0_133_4211)">
<path d="M14.5988 20.5495L22.4681 12.7026L20.5852 10.8143L14.5987 16.7836L11.6465 13.8398L9.76354 15.7281L14.5988 20.5495Z" fill="#03CEA4"/>
<path fill-rule="evenodd" clip-rule="evenodd" d="M20.9641 4.62713L16.1158 2.54932L11.2676 4.62713L5.44916 3.79593V15.8664C5.44916 20.5492 7.96778 24.8703 12.0425 27.1781L16.2051 29.5356L20.276 27.1884C24.3018 24.8672 26.7825 20.5735 26.7825 15.9263V3.79593L20.9641 4.62713ZM11.6307 7.37275L16.1158 5.45056L20.6009 7.37275L24.1158 6.87062V15.9263C24.1158 19.6202 22.144 23.0332 18.944 24.8783L16.1932 26.4643L13.3567 24.8577C10.1178 23.0233 8.11582 19.5887 8.11582 15.8664V6.87062L11.6307 7.37275Z" fill="#03CEA4"/>
</g>
<defs>
<clipPath id="clip0_133_4211">
<rect width="32" height="32" fill="white" transform="translate(0.115845)"/>
</clipPath>
</defs>
</svg>
