<svg width="16" height="16" viewBox="0 0 16 16" fill="none" xmlns="http://www.w3.org/2000/svg">
<path fill-rule="evenodd" clip-rule="evenodd" d="M6.61961 3.5C4.06827 3.5 2 5.56827 2 8.11961C2 10.6709 4.06827 12.7392 6.61961 12.7392C7.2913 12.7392 7.92952 12.5959 8.50532 12.3381H8.46748C7.52801 12.3381 6.76642 11.5765 6.76642 10.637V5.62751C6.76642 4.68804 7.52801 3.92645 8.46748 3.92645H8.56087C7.97067 3.65276 7.31298 3.5 6.61961 3.5ZM11.2392 8.11961C11.2392 7.32983 11.041 6.58635 10.6917 5.93617C10.5797 5.73892 10.4531 5.55093 10.3131 5.37364H8.46748C8.32727 5.37364 8.21361 5.4873 8.21361 5.62751V10.637C8.21361 10.7772 8.32727 10.8909 8.46748 10.8909H10.2937C10.4378 10.7109 10.5681 10.5197 10.6832 10.3188C11.0378 9.66491 11.2392 8.91578 11.2392 8.11961ZM0.5 8.11961C0.5 4.73984 3.23984 2 6.61961 2C8.89042 2 10.8724 3.23684 11.9285 5.07361H13.6703C14.5485 5.07361 15.2604 5.78553 15.2604 6.66373V9.3363C15.2604 10.2145 14.5485 10.9264 13.6703 10.9264H12.059C11.0415 12.8942 8.98765 14.2392 6.61961 14.2392C3.23984 14.2392 0.5 11.4994 0.5 8.11961ZM12.5654 9.57361H13.6703C13.8014 9.57361 13.9076 9.46736 13.9076 9.3363V6.66373C13.9076 6.53266 13.8014 6.42641 13.6703 6.42641H12.5461C12.6922 6.92213 12.7705 7.44654 12.7705 7.98854C12.7705 8.34661 12.7363 8.69699 12.671 9.03649C12.6437 9.21827 12.6084 9.39743 12.5654 9.57361Z" fill="#03CEA4"/>
</svg>
