<svg width="22" height="22" viewBox="0 0 22 22" fill="none" xmlns="http://www.w3.org/2000/svg">
<path fill-rule="evenodd" clip-rule="evenodd" d="M7.90625 0.6875C7.3367 0.6875 6.875 1.14921 6.875 1.71875L6.875 20.2812C6.875 20.8508 7.3367 21.3125 7.90625 21.3125C8.47579 21.3125 8.9375 20.8508 8.9375 20.2812L8.9375 1.71875C8.9375 1.14921 8.47579 0.6875 7.90625 0.6875ZM5.15625 5.5C5.15625 6.44924 4.38674 7.21875 3.4375 7.21875C2.48826 7.21875 1.71875 6.44924 1.71875 5.5C1.71875 4.55076 2.48826 3.78125 3.4375 3.78125C4.38674 3.78125 5.15625 4.55076 5.15625 5.5ZM10.6562 5.5C10.6562 4.93046 11.118 4.46875 11.6875 4.46875H19.5937C20.1633 4.46875 20.625 4.93046 20.625 5.5C20.625 6.06954 20.1633 6.53125 19.5937 6.53125H11.6875C11.118 6.53125 10.6562 6.06954 10.6562 5.5ZM10.6562 16.5C10.6562 15.9305 11.118 15.4687 11.6875 15.4687H19.5937C20.1633 15.4687 20.625 15.9305 20.625 16.5C20.625 17.0695 20.1633 17.5312 19.5937 17.5312H11.6875C11.118 17.5312 10.6562 17.0695 10.6562 16.5ZM11.6875 9.96875C11.118 9.96875 10.6562 10.4305 10.6562 11C10.6562 11.5695 11.118 12.0312 11.6875 12.0312H19.5937C20.1633 12.0312 20.625 11.5695 20.625 11C20.625 10.4305 20.1633 9.96875 19.5937 9.96875H11.6875ZM3.4375 12.7187C4.38674 12.7187 5.15625 11.9492 5.15625 11C5.15625 10.0508 4.38674 9.28125 3.4375 9.28125C2.48826 9.28125 1.71875 10.0508 1.71875 11C1.71875 11.9492 2.48826 12.7187 3.4375 12.7187ZM5.15625 16.5C5.15625 17.4492 4.38674 18.2187 3.4375 18.2187C2.48826 18.2187 1.71875 17.4492 1.71875 16.5C1.71875 15.5508 2.48826 14.7812 3.4375 14.7812C4.38674 14.7812 5.15625 15.5508 5.15625 16.5Z" fill="#45D6A5"/>
</svg>
