<svg width="22" height="22" viewBox="0 0 22 22" fill="none" xmlns="http://www.w3.org/2000/svg">
<path fill-rule="evenodd" clip-rule="evenodd" d="M10.4213 16.3052C10.4213 16.6889 10.7324 17 11.1161 17C11.4999 17 11.811 16.6889 11.811 16.3052V15.9086C12.2296 15.8516 12.6046 15.7467 12.936 15.5938C13.4672 15.35 13.8719 15.0172 14.15 14.5953C14.4313 14.1734 14.5719 13.6906 14.5719 13.1469C14.5719 12.7156 14.486 12.3453 14.3141 12.0359C14.1453 11.7266 13.9235 11.4672 13.6485 11.2578C13.3735 11.0484 13.075 10.8797 12.7531 10.7516C12.4313 10.6234 12.1172 10.5219 11.811 10.4469V7.4129C12.0391 7.47462 12.2438 7.56719 12.425 7.69063C12.5988 7.80747 12.7366 7.94728 12.8386 8.11007C13.0353 8.42418 13.3239 8.72188 13.6946 8.72188C14.1037 8.72188 14.4459 8.37718 14.3174 7.98879C14.2424 7.76224 14.1335 7.55036 13.9906 7.35313C13.7031 6.95313 13.3094 6.63907 12.8094 6.41095C12.5053 6.27132 12.1725 6.17442 11.811 6.12025V5.69484C11.811 5.31109 11.4999 5.00001 11.1161 5C10.7324 5 10.4213 5.31109 10.4213 5.69484V6.11344C10.0388 6.16665 9.68328 6.26738 9.35472 6.41563C8.84222 6.64376 8.43597 6.96407 8.13597 7.37657C7.83597 7.78907 7.68597 8.27188 7.68597 8.82501C7.68597 9.49376 7.90941 10.0313 8.35628 10.4375C8.80628 10.8438 9.41566 11.1516 10.1844 11.3609L10.4213 11.4255V14.6392C10.2692 14.6121 10.123 14.5741 9.98284 14.525C9.67347 14.4125 9.41878 14.2422 9.21878 14.0141C9.16049 13.9456 9.1096 13.8721 9.0661 13.7935C8.88077 13.4585 8.58646 13.1469 8.2037 13.1469C7.78233 13.1469 7.43556 13.5066 7.5599 13.9092C7.64264 14.1771 7.76279 14.423 7.92035 14.6469C8.21722 15.0656 8.62816 15.3891 9.15316 15.6172C9.5268 15.7795 9.94952 15.8841 10.4213 15.9309V16.3052ZM11.811 14.5927C11.9117 14.5662 12.0086 14.5343 12.1016 14.4969C12.4235 14.3656 12.6766 14.1844 12.861 13.9531C13.0453 13.7188 13.1375 13.4453 13.1375 13.1328C13.1375 12.8484 13.0563 12.6156 12.8938 12.4344C12.7344 12.2531 12.5172 12.1031 12.2422 11.9844C12.1073 11.9255 11.9636 11.87 11.811 11.818V14.5927ZM10.4213 10.0709V7.38415C10.2831 7.41453 10.1542 7.45576 10.0344 7.50782C9.74691 7.62969 9.52347 7.79844 9.36409 8.01407C9.20785 8.22657 9.12972 8.46876 9.12972 8.74063C9.12972 8.96876 9.18285 9.16563 9.28909 9.33126C9.39847 9.49688 9.54066 9.63594 9.71566 9.74844C9.89378 9.85782 10.0844 9.95001 10.2875 10.025C10.3325 10.0409 10.3771 10.0562 10.4213 10.0709Z" fill="#03CEA4"/>
<path fill-rule="evenodd" clip-rule="evenodd" d="M11 1C5.47715 1 1 5.47715 1 11C1 16.5228 5.47715 21 11 21C16.5228 21 21 16.5228 21 11C21 5.47715 16.5228 1 11 1ZM3 11C3 6.58172 6.58172 3 11 3C15.4183 3 19 6.58172 19 11C19 15.4183 15.4183 19 11 19C6.58172 19 3 15.4183 3 11Z" fill="#03CEA4"/>
</svg>
