<svg width="32" height="32" viewBox="0 0 32 32" fill="none" xmlns="http://www.w3.org/2000/svg">
<path fill-rule="evenodd" clip-rule="evenodd" d="M13.4045 6.02661L16 6.99993V4.77193C16 1.97911 18.7895 0.0459864 21.4045 1.02661L28.1068 3.53996C30.4486 4.41814 32 6.65686 32 9.15793V17.2279C32 20.0208 29.2105 21.9539 26.5955 20.9732L24 19.9999V22.2279C24 25.0208 21.2105 26.9539 18.5955 25.9732L16 24.9999V27.228C16 30.0208 13.2105 31.9539 10.5955 30.9733L3.89326 28.46C1.55144 27.5818 0 25.3431 0 22.842V14.772C0 11.9792 2.78949 10.0461 5.4045 11.0267L8.00001 12V9.77193C8.00001 6.97911 10.7895 5.04599 13.4045 6.02661ZM11 13.125L12.1067 13.54C14.4486 14.4182 16 16.6569 16 19.158V21.7959L19.6489 23.1643C20.3026 23.4094 21 22.9261 21 22.2279V14.1579C21 12.9074 20.2243 11.788 19.0534 11.3489L12.3511 8.8356C11.6974 8.59045 11 9.07372 11 9.77193V13.125ZM20.1068 8.53996L19 8.12493V4.77193C19 4.07372 19.6974 3.59044 20.3511 3.8356L27.0534 6.34894C28.2243 6.78804 29 7.9074 29 9.15793V17.2279C29 17.9261 28.3026 18.4094 27.6489 18.1643L24 16.7959V14.1579C24 11.6569 22.4486 9.41814 20.1068 8.53996ZM3 22.842V14.772C3 14.0738 3.69738 13.5905 4.35112 13.8357L11.0534 16.349C12.2243 16.7881 13 17.9075 13 19.158V27.228C13 27.9262 12.3026 28.4095 11.6489 28.1643L4.94663 25.651C3.77572 25.2119 3 24.0925 3 22.842Z" fill="#45D6A5"/>
</svg>
