<svg width="32" height="32" viewBox="0 0 32 32" fill="none" xmlns="http://www.w3.org/2000/svg">
<path fill-rule="evenodd" clip-rule="evenodd" d="M27 17H22.2246C21.129 19.402 18.7152 21 16 21C13.2849 21 10.8711 19.402 9.77541 17H5.00002V22C5.00002 23.6569 6.34317 25 8.00003 25H24C25.6569 25 27 23.6569 27 22V17ZM22.5928 7.48551L26.5015 14H20L19.7276 15.0896C19.3 16.8001 17.7631 18 16 18C14.2369 18 12.7 16.8001 12.2724 15.0896L12 14H5.4986L9.40729 7.48551C9.58802 7.1843 9.91353 7 10.2648 7H21.7353C22.0865 7 22.412 7.1843 22.5928 7.48551ZM30 17V15.6619C30 14.5744 29.7045 13.5074 29.145 12.5749L25.1652 5.94202C24.4423 4.7372 23.1403 4 21.7353 4H10.2648C8.85974 4 7.55771 4.7372 6.83481 5.94202L2.85507 12.5749C2.29557 13.5074 2.00002 14.5744 2.00002 15.6619V17V22C2.00002 25.3137 4.68632 28 8.00003 28H24C27.3137 28 30 25.3137 30 22V17Z" fill="#45D6A5"/>
</svg>
