<svg width="32" height="32" viewBox="0 0 32 32" fill="none" xmlns="http://www.w3.org/2000/svg">
<path fill-rule="evenodd" clip-rule="evenodd" d="M20.5134 8.40105C20.1876 8.78121 19.7119 9 19.2112 9C19.0709 9 18.9312 8.9828 18.7952 8.94879L12.5877 7.39691C11.5508 7.13768 10.4615 7.17952 9.4475 7.5175C8.49967 7.83345 7.6532 8.39636 6.99529 9.14826L2.48456 14.3034C1.52753 15.3971 1.00002 16.8011 1.00002 18.2544V23.9964V24C1.00002 26.1401 2.6807 27.8877 4.79418 27.9948C4.86235 27.9983 4.93098 28 5.00002 28H27C29.2092 28 31 26.2091 31 24V16.674V6.61739C31 5.03657 30.0376 3.61502 28.5698 3.02792C27.5811 2.63244 26.501 2.67012 25.5695 3.08199C25.0534 3.31024 24.5828 3.6534 24.1988 4.10144L21.5791 7.15777L20.5134 8.40105ZM28 12.9572V6.61739C28 6.26329 27.7844 5.94486 27.4557 5.81335C27.1115 5.67567 26.7178 5.77235 26.4766 6.05382L22.7912 10.3534C21.8954 11.3985 20.5876 12 19.2112 12C18.8256 12 18.4416 11.9527 18.0676 11.8592L11.8601 10.3073C11.3767 10.1865 10.8689 10.206 10.3962 10.3636C9.95432 10.5108 9.55972 10.7733 9.25302 11.1238L4.74229 16.2789C4.26377 16.8258 4.00002 17.5277 4.00002 18.2544V19.625L8.60776 16.7452C8.86875 16.582 9.14375 16.4425 9.4295 16.3282C10.7512 15.7995 12.2323 15.838 13.5248 16.4345L17.3708 18.2096C17.7853 18.4009 18.2365 18.5 18.693 18.5C19.5299 18.5 20.3325 18.1676 20.9242 17.5758L21.3652 17.1349L24.513 13.987C25.5186 12.9814 26.8241 12.6974 28 12.9572ZM4.00002 23.9964C4.00002 24.5522 4.45127 25 5.00002 25H27C27.5523 25 28 24.5523 28 24V16.674C28 15.9613 27.1383 15.6044 26.6343 16.1083L23.0455 19.6971C21.8912 20.8515 20.3255 21.5 18.693 21.5C17.8024 21.5 16.9223 21.3067 16.1136 20.9335L12.2676 19.1584C11.7235 18.9073 11.1001 18.8911 10.5437 19.1136C10.4234 19.1618 10.3076 19.2205 10.1978 19.2892L4.70502 22.7221C4.26786 22.9953 4.00002 23.4775 4.00002 23.9964Z" fill="#45D6A5"/>
</svg>
