<svg width="22" height="22" viewBox="0 0 22 22" fill="none" xmlns="http://www.w3.org/2000/svg">
<path d="M13.0021 4.0022H16.5878L12.0021 8.58794C11.6115 8.97846 11.6115 9.61163 12.0021 10.0022C12.3926 10.3927 13.0258 10.3927 13.4163 10.0022L18.0021 5.41638V9.0022C18.0021 9.55448 18.4498 10.0022 19.0021 10.0022C19.5543 10.0022 20.0021 9.55448 20.0021 9.0022V3.0022C20.0021 2.44991 19.5543 2.0022 19.0021 2.0022H13.0021C12.4498 2.0022 12.0021 2.44991 12.0021 3.0022C12.0021 3.55448 12.4498 4.0022 13.0021 4.0022Z" fill="#03CEA4"/>
<path d="M9.99794 13.4121C10.3885 13.0215 10.3885 12.3884 9.99794 11.9978C9.60741 11.6073 8.97425 11.6073 8.58373 11.9978L3.99792 16.5836V12.9979C3.99792 12.4456 3.55021 11.9979 2.99792 11.9979C2.44564 11.9979 1.99792 12.4456 1.99792 12.9979V18.9979C1.99792 19.5502 2.44564 19.9979 2.99792 19.9979H8.99792C9.55021 19.9979 9.99792 19.5502 9.99792 18.9979C9.99792 18.4456 9.55021 17.9979 8.99792 17.9979H5.41211L9.99794 13.4121Z" fill="#03CEA4"/>
</svg>
