<svg width="22" height="22" viewBox="0 0 22 22" fill="none" xmlns="http://www.w3.org/2000/svg">
<path fill-rule="evenodd" clip-rule="evenodd" d="M8.87214 9.43819L10.424 6.45079C11.0321 5.28016 11.9952 3.65471 12.9986 2.19462C14.3243 3.63111 15.6199 5.35761 16.5906 7.17517C17.6198 9.10235 18.2188 11.0094 18.2188 12.7188C18.2188 14.6808 16.9751 16.6095 15.2578 17.6869C15.3374 17.3223 15.3828 16.9269 15.3828 16.5C15.3828 14.7743 14.4558 13.2874 13.8102 12.4266C13.4567 11.9553 13.1075 11.5678 12.8472 11.2978C12.7159 11.1617 12.6043 11.0524 12.5221 10.9741C12.4809 10.9349 12.4469 10.9033 12.4213 10.8797L12.3891 10.8504L12.378 10.8404L12.3737 10.8365L12.3719 10.8349L12.371 10.8342C12.3706 10.8338 12.3703 10.8335 11 12.375C11 12.375 11.6269 12.9323 12.2291 13.7572C12.2707 13.8143 12.3123 13.8726 12.3535 13.9322C12.8624 14.6676 13.3203 15.5838 13.3203 16.5C13.3203 17.5586 12.8902 18.255 12.4714 18.6821C12.2526 18.9053 12.0879 19.2039 12.0391 19.5083C12.0197 19.6295 12.0187 19.7517 12.0401 19.8704C12.0555 19.9562 12.0826 20.0402 12.1229 20.1208C12.2774 20.4298 12.594 20.6301 12.9383 20.6016C16.8379 20.2785 20.2812 16.6552 20.2812 12.7188C20.2812 8.38896 17.2877 3.72881 14.2908 0.556517C13.9493 0.195079 13.4707 0 12.9734 0C12.3806 0 11.8204 0.27855 11.4806 0.764263C10.8593 1.6522 10.2474 2.61049 9.70897 3.51285C9.27977 4.23209 8.89723 4.9158 8.59375 5.5L7.28036 3.66126C7.27323 3.65129 7.26599 3.64143 7.25862 3.63168C7.00295 3.29345 6.603 3.09376 6.1776 3.09376C5.75104 3.09376 5.34855 3.29315 5.0959 3.63683C3.60242 5.66845 1.71875 8.59247 1.71875 12.7188C1.71875 16.6552 5.16214 20.2785 9.06169 20.6016C9.40601 20.6301 9.7226 20.4298 9.87711 20.1208C9.91738 20.0402 9.94449 19.9562 9.95992 19.8704C9.98125 19.7517 9.98026 19.6295 9.96086 19.5083C9.91214 19.2039 9.7474 18.9053 9.52858 18.6821C9.10984 18.255 8.67969 17.5586 8.67969 16.5C8.67969 15.5838 9.13757 14.6676 9.64652 13.9322C9.68773 13.8726 9.72927 13.8143 9.77094 13.7572C10.3731 12.9323 11 12.375 11 12.375C9.62975 10.8335 9.62937 10.8338 9.62897 10.8342L9.62814 10.8349L9.62632 10.8365L9.62202 10.8404L9.61088 10.8504L9.57873 10.8797C9.55308 10.9033 9.51906 10.9349 9.47789 10.9741C9.39568 11.0524 9.28406 11.1617 9.15277 11.2978C8.89247 11.5678 8.5433 11.9553 8.18984 12.4266C7.5442 13.2874 6.61719 14.7743 6.61719 16.5C6.61719 16.9269 6.66258 17.3223 6.74224 17.6869C5.02486 16.6095 3.78125 14.6808 3.78125 12.7188C3.78125 9.7332 4.94568 7.47664 6.1805 5.66992L6.91543 6.69881L8.87214 9.43819ZM11 12.375L12.3703 10.8335L11 9.61547L9.62975 10.8335L11 12.375Z" fill="#45D6A5"/>
</svg>
