<svg width="22" height="22" viewBox="0 0 22 22" fill="none" xmlns="http://www.w3.org/2000/svg">
<g clip-path="url(#clip0_373_266653)">
<path fill-rule="evenodd" clip-rule="evenodd" d="M10.1056 2.32634C10.4742 1.58948 11.5258 1.58948 11.8944 2.32634L14.1942 6.9243C14.3398 7.21528 14.6178 7.41727 14.9395 7.46577L20.0231 8.23224C20.8378 8.35508 21.1628 9.35517 20.5759 9.93341L16.9137 13.5416C16.6819 13.7699 16.5757 14.0967 16.629 14.4177L17.471 19.4894C17.6059 20.3021 16.7552 20.9202 16.0239 20.5407L11.4606 18.1727C11.1718 18.0229 10.8282 18.0229 10.5394 18.1727L5.97614 20.5407C5.24484 20.9202 4.39411 20.3021 4.52904 19.4894L5.37101 14.4177C5.4243 14.0967 5.31811 13.7699 5.08635 13.5416L1.42413 9.93341C0.837229 9.35517 1.16218 8.35508 1.97687 8.23224L7.06049 7.46577C7.38221 7.41727 7.66022 7.21528 7.80576 6.9243L10.1056 2.32634ZM11.4472 6.07079C11.2629 5.70236 10.7371 5.70236 10.5528 6.07079L9.17988 8.81561C9.03433 9.10659 8.75632 9.30857 8.43461 9.35708L5.39987 9.81463C4.99252 9.87605 4.83005 10.3761 5.1235 10.6652L7.30971 12.8192C7.54147 13.0475 7.64766 13.3743 7.59438 13.6953L7.09175 16.7229C7.02428 17.1293 7.44965 17.4383 7.8153 17.2486L10.5394 15.835C10.8282 15.6851 11.1718 15.6851 11.4606 15.835L14.1847 17.2486C14.5503 17.4383 14.9757 17.1293 14.9082 16.7229L14.4056 13.6953C14.3523 13.3743 14.4585 13.0475 14.6903 12.8192L16.8765 10.6652C17.17 10.3761 17.0075 9.87605 16.6001 9.81463L13.5654 9.35708C13.2437 9.30857 12.9657 9.10659 12.8201 8.81561L11.4472 6.07079Z" fill="#03CEA4"/>
</g>
<defs>
<clipPath id="clip0_373_266653">
<rect width="22" height="22" fill="white"/>
</clipPath>
</defs>
</svg>
