<svg width="32" height="32" viewBox="0 0 32 32" fill="none" xmlns="http://www.w3.org/2000/svg">
<path fill-rule="evenodd" clip-rule="evenodd" d="M26.9975 20.0793C27.9826 19.5752 28 19.187 28 19V10.9247C26.4077 11.6416 24.3051 12 22 12C20.8681 12 19.785 11.9136 18.7871 11.7407C18.9265 12.1301 19 12.5498 19 13V20.729C19.8551 20.8997 20.8635 21 22 21C24.2142 21 25.9422 20.6192 26.9975 20.0793ZM16 16.9247V25C16 25.187 15.9826 25.5752 14.9975 26.0793C13.9422 26.6192 12.2142 27 10 27C7.78582 27 6.05782 26.6192 5.00254 26.0793C4.01742 25.5752 4 25.187 4 25V16.9247C5.59227 17.6416 7.69494 18 10 18C12.3051 18 14.4077 17.6416 16 16.9247ZM16 13C16 12.813 15.9826 12.4248 14.9975 11.9207C13.9422 11.3808 12.2142 11 10 11C7.78582 11 6.05782 11.3808 5.00254 11.9207C4.01742 12.4248 4 12.813 4 13C4 13.187 4.01742 13.5752 5.00254 14.0793C6.05782 14.6192 7.78582 15 10 15C12.2142 15 13.9422 14.6192 14.9975 14.0793C15.9826 13.5752 16 13.187 16 13ZM1 13C1 9.66667 5.02944 8 10 8C11.0519 8 12.0617 8.07464 13 8.22393V7C13 3.66667 17.0294 2 22 2C26.9706 2 31 3.66667 31 7V19C31 22.3333 26.9706 24 22 24C20.9481 24 19.9384 23.9254 19 23.7761V25C19 28.3333 14.9706 30 10 30C5.02944 30 1 28.3333 1 25V13ZM16 7C16 7.187 16.0174 7.57524 17.0026 8.07929C18.0578 8.61924 19.7858 9 22 9C24.2142 9 25.9422 8.61924 26.9975 8.07929C27.9826 7.57524 28 7.187 28 7C28 6.813 27.9826 6.42476 26.9975 5.92071C25.9422 5.38076 24.2142 5 22 5C19.7858 5 18.0578 5.38076 17.0026 5.92071C16.0174 6.42476 16 6.813 16 7Z" fill="#45D6A5"/>
</svg>
