<svg width="22" height="22" viewBox="0 0 22 22" fill="none" xmlns="http://www.w3.org/2000/svg">
<path d="M15.4717 18.8574L13.992 17.8031C12.2014 16.5272 9.79864 16.5272 8.00796 17.8031L6.52827 18.8574C6.02065 19.2191 5.39336 19.3716 4.77634 19.2835C3.70829 19.1309 2.86911 18.2917 2.71653 17.2237C2.62838 16.6066 2.78095 15.9794 3.14263 15.4717L4.19691 13.992C5.47276 12.2014 5.47277 9.79864 4.19691 8.00796L3.14263 6.52827C2.78095 6.02065 2.62838 5.39336 2.71653 4.77634C2.86911 3.70829 3.70829 2.86911 4.77634 2.71653C5.39336 2.62838 6.02065 2.78095 6.52827 3.14263L8.00796 4.19691C9.79863 5.47276 12.2014 5.47277 13.992 4.19691L15.4717 3.14263C15.9794 2.78095 16.6066 2.62838 17.2237 2.71653C18.2917 2.86911 19.1309 3.70829 19.2835 4.77634C19.3716 5.39336 19.2191 6.02065 18.8574 6.52827L17.8031 8.00796C16.5272 9.79863 16.5272 12.2014 17.8031 13.992L18.8574 15.4717C19.2191 15.9794 19.3716 16.6066 19.2835 17.2237C19.1309 18.2917 18.2917 19.1309 17.2237 19.2835C16.6066 19.3716 15.9794 19.2191 15.4717 18.8574Z" stroke="#45D6A5" stroke-width="2.0625" stroke-linecap="round" stroke-linejoin="round"/>
<circle cx="11" cy="11" r="1.96875" stroke="#45D6A5" stroke-width="2.0625" stroke-linecap="round" stroke-linejoin="round"/>
</svg>
