<svg width="32" height="32" viewBox="0 0 32 32" fill="none" xmlns="http://www.w3.org/2000/svg">
<path fill-rule="evenodd" clip-rule="evenodd" d="M3.26581 5.59119C4.79008 3.91805 6.96441 2.99896 9.52001 2.99896C11.8478 2.99896 14.3335 4.09918 15.9982 6.24979C17.6563 4.1003 20.1325 2.99896 22.48 2.99896C25.0273 2.99896 27.2011 3.91336 28.7274 5.58384C30.2397 7.23906 31 9.50708 31 12.0259C31 16.3566 28.7744 19.8421 25.9569 22.552C23.1456 25.2559 19.6157 27.3172 16.6893 28.8312C16.2549 29.0559 15.7383 29.0548 15.305 28.8282C12.3784 27.298 8.84751 25.2521 6.03819 22.5612C3.2189 19.8608 1 16.3852 1 12.0259C1 9.51575 1.75609 7.24836 3.26581 5.59119ZM5.48349 7.61156C4.57344 8.61049 4 10.1066 4 12.0259C4 15.2731 5.63212 18.0181 8.11334 20.3947C10.4062 22.5908 13.3156 24.3645 16.003 25.8036C18.6746 24.3829 21.5832 22.5963 23.8773 20.3898C26.365 17.997 28 15.2409 28 12.0259C28 10.0999 27.4236 8.60447 26.5126 7.60742C25.6156 6.62562 24.2794 5.99896 22.48 5.99896C20.5283 5.99896 18.2936 7.2537 17.425 9.89641C17.2227 10.512 16.648 10.9281 16 10.9281C15.352 10.9281 14.7773 10.512 14.575 9.89641C13.7074 7.25653 11.4504 5.99896 9.52001 5.99896C7.71467 5.99896 6.37899 6.6286 5.48349 7.61156Z" fill="#45D6A5"/>
</svg>
