<svg width="22" height="22" viewBox="0 0 22 22" fill="none" xmlns="http://www.w3.org/2000/svg">
<g clip-path="url(#clip0_373_266652)">
<path d="M12.5311 12.818C12.5311 11.9233 13.096 11.1605 13.8885 10.8668C13.3175 10.1342 12.4268 9.66316 11.4261 9.66316C9.70279 9.66316 8.30578 11.0602 8.30578 12.7835C8.30578 14.5068 9.70279 15.9038 11.4261 15.9038C12.4026 15.9038 13.2743 15.4553 13.8464 14.753C13.0761 14.4482 12.5311 13.6967 12.5311 12.818Z" fill="#03CEA4"/>
<path fill-rule="evenodd" clip-rule="evenodd" d="M11.0972 1.84857C11.5998 1.84857 12.0073 2.25603 12.0073 2.75867V5.96638C12.9168 6.05484 13.8159 6.27626 14.6735 6.63061L15.7351 3.71386C15.907 3.24154 16.4293 2.99801 16.9016 3.16992C17.3739 3.34183 17.6175 3.86408 17.4455 4.3364L16.2952 7.49708C16.6489 7.73364 16.9902 7.99685 17.3163 8.28672L18.0734 8.95972L20.3927 6.19565C20.7158 5.81061 21.2898 5.76038 21.6749 6.08347C22.0599 6.40655 22.1101 6.9806 21.7871 7.36564L19.4344 10.1695L21.5005 12.006C21.966 12.4198 21.966 13.1471 21.5005 13.5608L17.3163 17.2801C13.7695 20.4328 8.42481 20.4328 4.87807 17.2801L0.693831 13.5608C0.228368 13.1471 0.228368 12.4198 0.693832 12.006L2.64902 10.2681C2.64237 10.2607 2.63582 10.2531 2.62937 10.2454L0.212943 7.36564C-0.110142 6.9806 -0.0599197 6.40655 0.325118 6.08347C0.710156 5.76038 1.2842 5.81061 1.60729 6.19564L4.00964 9.05866L4.87807 8.28672C5.21252 7.98943 5.56296 7.72017 5.92638 7.47895L4.7826 4.33644C4.61069 3.86412 4.85422 3.34187 5.32654 3.16996C5.79886 2.99805 6.32111 3.24158 6.49302 3.7139L7.55021 6.61852C8.39899 6.27121 9.28798 6.05382 10.1871 5.96637V2.75867C10.1871 2.25603 10.5946 1.84857 11.0972 1.84857ZM2.55902 12.7834L6.08734 15.9197C8.94444 18.4594 13.2499 18.4594 16.107 15.9197L19.6353 12.7834L16.107 9.64714C13.2499 7.1075 8.94444 7.1075 6.08734 9.64714L2.55902 12.7834Z" fill="#03CEA4"/>
</g>
<defs>
<clipPath id="clip0_373_266652">
<rect width="22" height="22" fill="white"/>
</clipPath>
</defs>
</svg>
