<svg width="32" height="32" viewBox="0 0 32 32" fill="none" xmlns="http://www.w3.org/2000/svg">
<path fill-rule="evenodd" clip-rule="evenodd" d="M16 3C8.8203 3 3 8.8203 3 16C3 23.1797 8.8203 29 16 29C22.6051 29 28.0577 24.0753 28.8901 17.6968C28.9973 16.8753 28.4183 16.1225 27.5968 16.0153C26.7754 15.9081 26.0225 16.4871 25.9153 17.3086C25.2753 22.2125 21.0788 26 16 26C10.4772 26 6 21.5229 6 16C6 10.4772 10.4772 6 16 6C18.7968 6 21.3252 7.14688 23.1415 9H20.5C19.6716 9 19 9.67157 19 10.5C19 11.3284 19.6716 12 20.5 12H26.5C27.3284 12 28 11.3284 28 10.5V4.5C28 3.67157 27.3284 3 26.5 3C25.6716 3 25 3.67157 25 4.5V6.61927C22.6655 4.3792 19.4936 3 16 3Z" fill="#45D6A5"/>
</svg>
