<svg width="22" height="22" viewBox="0 0 22 22" fill="none" xmlns="http://www.w3.org/2000/svg">
<g clip-path="url(#clip0_872_6428)">
<path fill-rule="evenodd" clip-rule="evenodd" d="M18.5626 6.53123C18.5626 5.96169 18.1008 5.49998 17.5313 5.49998C16.9618 5.49998 16.5001 5.96169 16.5001 6.53123V15.4687C16.5001 16.0383 16.9618 16.5 17.5313 16.5H20.9688C21.5383 16.5 22.0001 16.0383 22.0001 15.4687C22.0001 14.8992 21.5383 14.4375 20.9688 14.4375H18.5626V6.53123ZM15.1251 11.0001C15.1251 12.8158 14.771 14.1819 14.1507 15.0985L15.5105 16.4583C15.9132 16.861 15.9132 17.514 15.5105 17.9167C15.1078 18.3194 14.4548 18.3194 14.0521 17.9167L12.4952 16.3598C12.1891 16.4534 11.8616 16.5001 11.5157 16.5001C9.35005 16.5001 7.90631 14.6668 7.90631 11.0001C7.90631 7.33346 9.35005 5.50013 11.5157 5.50013C13.6813 5.50013 15.1251 7.33346 15.1251 11.0001ZM12.4341 13.9549C12.7396 13.5116 13.0626 12.6061 13.0626 11.0001C13.0626 9.39413 12.7396 8.48868 12.4341 8.0454C12.1935 7.69615 11.9308 7.56263 11.5157 7.56263C11.1005 7.56263 10.8379 7.69615 10.5972 8.0454C10.2918 8.48868 9.96881 9.39413 9.96881 11.0001C9.96881 12.6061 10.2918 13.5116 10.5972 13.9549C10.8379 14.3041 11.1005 14.4376 11.5157 14.4376C11.9308 14.4376 12.1935 14.3041 12.4341 13.9549ZM3.52217 5.50332C2.57536 5.50332 1.75567 5.84461 1.18222 6.4835C0.622816 7.10675 0.380193 7.92012 0.380193 8.73376C0.380193 9.74037 0.829317 10.4942 1.42426 11.014C1.98755 11.5061 2.67274 11.7855 3.21855 11.9537C3.76564 12.1222 4.15945 12.2527 4.44132 12.4664C4.64501 12.6208 4.81262 12.8313 4.81256 13.3255C4.81251 13.7226 4.66409 13.9694 4.46587 14.1346C4.24562 14.3182 3.90959 14.4408 3.52217 14.4408C3.2453 14.4408 2.92026 14.3119 2.61719 14.0377C2.31267 13.7621 2.10732 13.4066 2.03687 13.0969C1.91053 12.5416 1.35791 12.1938 0.802555 12.3201C0.247201 12.4464 -0.100588 12.9991 0.0257488 13.5544C0.200027 14.3205 0.649073 15.0383 1.23328 15.5669C1.81894 16.0969 2.61697 16.5033 3.52217 16.5033C4.31683 16.5033 5.14153 16.2565 5.78653 15.7188C6.45356 15.1628 6.87493 14.3363 6.87506 13.3258C6.87521 12.1672 6.39023 11.3556 5.68717 10.8227C5.09071 10.3706 4.36468 10.1479 3.89167 10.0028L3.8258 9.98259C3.4008 9.85166 3.03063 9.67866 2.78126 9.46079C2.56353 9.27057 2.44269 9.05678 2.44269 8.73376C2.44269 8.31585 2.56592 8.02963 2.71712 7.86117C2.85428 7.70835 3.08995 7.56582 3.52217 7.56582C3.96467 7.56582 4.2075 7.70116 4.36379 7.84897C4.542 8.01751 4.68478 8.279 4.77542 8.61897C4.92214 9.16929 5.48721 9.49647 6.03753 9.34974C6.58785 9.20302 6.91503 8.63795 6.7683 8.08763C6.61421 7.50969 6.32166 6.86181 5.78097 6.35047C5.21835 5.81838 4.45872 5.50332 3.52217 5.50332Z" fill="#45D6A5"/>
</g>
<defs>
<clipPath id="clip0_872_6428">
<rect width="22" height="22" fill="white"/>
</clipPath>
</defs>
</svg>
