<svg width="16" height="16" viewBox="0 0 16 16" fill="none" xmlns="http://www.w3.org/2000/svg">
<path fill-rule="evenodd" clip-rule="evenodd" d="M6 1.8499C5.50294 1.8499 5.1 2.25285 5.1 2.7499C5.1 3.24696 5.50294 3.6499 6 3.6499C6.49706 3.6499 6.9 3.24696 6.9 2.7499C6.9 2.25285 6.49706 1.8499 6 1.8499ZM3.9 2.7499C3.9 1.5901 4.8402 0.649902 6 0.649902C7.1598 0.649902 8.1 1.5901 8.1 2.7499C8.1 3.69878 7.47067 4.50068 6.60663 4.76095V5.57412C7.13171 5.705 7.59111 6.00189 7.92586 6.40583L8.55612 6.04195C8.34243 5.15976 8.72189 4.20654 9.54784 3.72968C10.5523 3.14978 11.8366 3.49392 12.4165 4.49833C12.9964 5.50274 12.6523 6.78708 11.6478 7.36698C10.8261 7.84142 9.81696 7.69735 9.15954 7.07921L8.44795 7.49005C8.48207 7.65469 8.5 7.82525 8.5 8.00001C8.5 8.20288 8.47583 8.40011 8.43023 8.58897L9.15954 9.01004C9.81696 8.3919 10.8261 8.24783 11.6478 8.72227C12.6523 9.30217 12.9964 10.5865 12.4165 11.5909C11.8366 12.5953 10.5523 12.9395 9.54784 12.3596C8.72189 11.8827 8.34243 10.9295 8.55612 10.0473L7.87476 9.65392C7.54213 10.0307 7.09769 10.3064 6.59337 10.4292V11.2435C7.46422 11.4995 8.1 12.3047 8.1 13.2585C8.1 14.4183 7.1598 15.3585 6 15.3585C4.8402 15.3585 3.9 14.4183 3.9 13.2585C3.9 12.3096 4.52933 11.5077 5.39337 11.2474V10.4259C4.3058 10.1548 3.5 9.17151 3.5 8.00001C3.5 6.82375 4.31235 5.83722 5.40663 5.57085V4.7649C4.53578 4.50886 3.9 3.70363 3.9 2.7499ZM6 9.30001C6.71797 9.30001 7.3 8.71798 7.3 8.00001C7.3 7.28204 6.71797 6.70001 6 6.70001C5.28203 6.70001 4.7 7.28204 4.7 8.00001C4.7 8.71798 5.28203 9.30001 6 9.30001ZM11.3773 10.9909C11.1287 11.4214 10.5783 11.5689 10.1478 11.3203C9.71738 11.0718 9.56989 10.5214 9.81842 10.0909C10.0669 9.66046 10.6174 9.51297 11.0478 9.7615C11.4783 10.01 11.6258 10.5605 11.3773 10.9909ZM11.3773 5.09833C11.1287 4.66787 10.5783 4.52038 10.1478 4.76891C9.71738 5.01744 9.56989 5.56787 9.81842 5.99833C10.0669 6.42879 10.6174 6.57628 11.0478 6.32775C11.4783 6.07922 11.6258 5.52879 11.3773 5.09833ZM6 14.1585C6.49706 14.1585 6.9 13.7555 6.9 13.2585C6.9 12.7614 6.49706 12.3585 6 12.3585C5.50294 12.3585 5.1 12.7614 5.1 13.2585C5.1 13.7555 5.50294 14.1585 6 14.1585Z" fill="#03CEA4"/>
</svg>
