<svg width="16" height="16" viewBox="0 0 16 16" fill="none" xmlns="http://www.w3.org/2000/svg">
<path fill-rule="evenodd" clip-rule="evenodd" d="M9.33333 2.66671H6.83333C6.74129 2.66671 6.66667 2.74133 6.66667 2.83337V13.1667C6.66667 13.2588 6.74129 13.3334 6.83333 13.3334H9.33333V2.66671ZM6.66667 1.33337C5.93029 1.33337 5.33333 1.93033 5.33333 2.66671V13.3334C5.33333 14.0698 5.93029 14.6667 6.66667 14.6667H10.6667V1.33337H6.66667ZM4.66667 5.33337H3.5C3.40795 5.33337 3.33333 5.40799 3.33333 5.50004V10.5C3.33333 10.5921 3.40795 10.6667 3.5 10.6667H4.66667V12H3.33333C2.59695 12 2 11.4031 2 10.6667V5.33337C2 4.59699 2.59695 4.00004 3.33333 4.00004H4.66667V5.33337ZM12.6667 10.6667H11.3333V12H14V4.00004H11.3333V5.33337H12.6667V10.6667Z" fill="#03CEA4"/>
</svg>
