<svg width="32" height="32" viewBox="0 0 32 32" fill="none" xmlns="http://www.w3.org/2000/svg">
<path d="M21.632 10.3669C20.9811 9.716 19.9258 9.716 19.275 10.3669C18.6241 11.0177 18.6241 12.073 19.275 12.7239C19.9258 13.3748 20.9811 13.3748 21.632 12.7239C22.2829 12.073 22.2829 11.0177 21.632 10.3669Z" fill="#03CEA4"/>
<path fill-rule="evenodd" clip-rule="evenodd" d="M28.3267 3.67226L27.1471 14.2881L23.5873 17.7607L25.314 23.6554L19.275 29.6945L15.3633 25.7829L12.2731 28.7973L2.8449 19.369L5.93511 16.3546L2.30438 12.7239L8.34345 6.68484L14.1149 8.37547L17.7293 4.84974L28.3267 3.67226ZM17.2724 23.9207L21.4261 19.8688L22.3104 22.8878L19.275 25.9233L17.2724 23.9207ZM11.9242 10.5125L7.84414 14.4924L6.07562 12.7239L9.11109 9.68843L11.9242 10.5125ZM18.935 7.39885L6.63969 19.3926L12.2964 25.0493L24.6021 13.0454L25.3082 6.69072L18.935 7.39885Z" fill="#03CEA4"/>
</svg>
