<svg width="32" height="32" viewBox="0 0 32 32" fill="none" xmlns="http://www.w3.org/2000/svg">
<path d="M14.4831 20.5495L22.3524 12.7026L20.4695 10.8143L14.4831 16.7836L11.5308 13.8398L9.64788 15.7281L14.4831 20.5495Z" fill="#03CEA4"/>
<path fill-rule="evenodd" clip-rule="evenodd" d="M20.8484 4.62713L16.0002 2.54932L11.1519 4.62713L5.3335 3.79593V15.8664C5.3335 20.5493 7.85212 24.8703 11.9269 27.1781L16.0894 29.5356L20.1603 27.1884C24.1862 24.8672 26.6668 20.5735 26.6668 15.9263V3.79593L20.8484 4.62713ZM11.5151 7.37275L16.0002 5.45056L20.4853 7.37275L24.0002 6.87062V15.9263C24.0002 19.6202 22.0284 23.0332 18.8283 24.8783L16.0776 26.4643L13.241 24.8577C10.0021 23.0233 8.00016 19.5887 8.00016 15.8664V6.87062L11.5151 7.37275Z" fill="#03CEA4"/>
</svg>
