<svg width="32" height="32" viewBox="0 0 32 32" fill="none" xmlns="http://www.w3.org/2000/svg">
<path fill-rule="evenodd" clip-rule="evenodd" d="M15.9999 8.66675C13.4226 8.66675 11.3333 10.7561 11.3333 13.3334C11.3333 15.9107 13.4226 18.0001 15.9999 18.0001C18.5772 18.0001 20.6666 15.9107 20.6666 13.3334C20.6666 10.7561 18.5772 8.66675 15.9999 8.66675ZM13.9999 13.3334C13.9999 12.2288 14.8953 11.3334 15.9999 11.3334C17.1045 11.3334 17.9999 12.2288 17.9999 13.3334C17.9999 14.438 17.1045 15.3334 15.9999 15.3334C14.8953 15.3334 13.9999 14.438 13.9999 13.3334Z" fill="#03CEA4"/>
<path fill-rule="evenodd" clip-rule="evenodd" d="M15.9999 2.66675C10.1089 2.66675 5.33325 7.44238 5.33325 13.3334C5.33325 15.2963 6.01466 17.2644 6.94125 19.0513C7.87383 20.8499 9.10179 22.5545 10.304 24.0144C11.5095 25.4782 12.7113 26.7225 13.6102 27.6C14.0605 28.0396 14.4369 28.3891 14.7025 28.6304C14.8353 28.751 14.9406 28.8447 15.0137 28.9091C15.0503 28.9413 15.0788 28.9662 15.0988 28.9835C15.105 28.9889 15.1104 28.9936 15.1149 28.9975L15.1221 29.0038L15.1317 29.012C15.132 29.0122 15.1322 29.0124 15.9999 28.0001L15.1322 29.0124L15.9999 29.7562L16.8676 29.0124L15.9999 28.0001C16.8676 29.0124 16.8679 29.0122 16.8682 29.012L16.8777 29.0038L16.8863 28.9964C16.8905 28.9927 16.8955 28.9884 16.9011 28.9835C16.921 28.9662 16.9495 28.9413 16.9861 28.9091C17.0592 28.8447 17.1645 28.751 17.2974 28.6304C17.563 28.3891 17.9393 28.0396 18.3896 27.6C19.2886 26.7225 20.4904 25.4782 21.6958 24.0144C22.898 22.5545 24.126 20.8499 25.0586 19.0513C25.9852 17.2644 26.6666 15.2963 26.6666 13.3334C26.6666 7.44238 21.891 2.66675 15.9999 2.66675ZM16.5269 25.6918C16.3355 25.8786 16.1588 26.0477 15.9999 26.1975C15.8411 26.0477 15.6643 25.8786 15.473 25.6918C14.6219 24.861 13.4904 23.6887 12.3625 22.3191C11.2314 20.9456 10.126 19.4003 9.30859 17.8238C8.48518 16.2358 7.99992 14.7039 7.99992 13.3334C7.99992 8.91514 11.5816 5.33341 15.9999 5.33341C20.4182 5.33341 23.9999 8.91514 23.9999 13.3334C23.9999 14.7039 23.5147 16.2358 22.6912 17.8238C21.8738 19.4003 20.7685 20.9456 19.6373 22.3191C18.5095 23.6887 17.3779 24.861 16.5269 25.6918Z" fill="#03CEA4"/>
</svg>
