<svg width="32" height="32" viewBox="0 0 32 32" fill="none" xmlns="http://www.w3.org/2000/svg">
<path d="M26.6665 16C26.6665 10.1089 21.8909 5.33329 15.9999 5.33329V2.66663C23.3637 2.66663 29.3332 8.63616 29.3332 16C29.3332 23.3638 23.3637 29.3333 15.9999 29.3333C8.63607 29.3333 2.66654 23.3638 2.66654 16C2.66654 12.4731 4.03639 9.26676 6.27049 6.88329L2.0332 6.88329L2.0332 4.21663L11.3665 4.21663V13.55H8.69987L8.69987 8.22234C6.62616 10.1693 5.3332 12.934 5.3332 16C5.3332 21.891 10.1088 26.6666 15.9999 26.6666C21.8909 26.6666 26.6665 21.891 26.6665 16Z" fill="#03CEA4"/>
</svg>
