<svg width="32" height="32" viewBox="0 0 32 32" fill="none" xmlns="http://www.w3.org/2000/svg">
<path d="M10 12.6667H8.00002V15.3333H10V17.3333H12.6667V15.3333H14.6667V12.6667H12.6667V10.6667H10V12.6667Z" fill="#03CEA4"/>
<path d="M19.2525 10.7001L20.6667 12.1144L22.0809 10.7002L23.9665 12.5858L22.5523 14L23.9665 15.4142L22.0809 17.2998L20.6667 15.8856L19.2525 17.2998L17.3669 15.4142L18.7811 14L17.3669 12.5858L19.2525 10.7001Z" fill="#03CEA4"/>
<path fill-rule="evenodd" clip-rule="evenodd" d="M17.3334 5.33334V2.66667H14.6667V5.33334H2.66669V28H9.39384L14.1938 22.6667H17.8062L22.6062 28H29.3334V5.33334H17.3334ZM5.33335 25.3333V8.00001H26.6667V25.3333H23.7938L18.9938 20H13.0062L8.2062 25.3333H5.33335Z" fill="#03CEA4"/>
</svg>
