<svg width="32" height="32" viewBox="0 0 32 32" fill="none" xmlns="http://www.w3.org/2000/svg">
<path fill-rule="evenodd" clip-rule="evenodd" d="M6.48813 9.19935H5.26188V16.0506H6.48813V9.19935ZM3.0625 6.99997V18.25H8.68751V6.99997H3.0625ZM13.2382 9.19935H12.0119V22.8006H13.2382V9.19935ZM9.81254 6.99997V25H15.4375V6.99997H9.81254ZM18.762 9.19935H19.9882V22.8006H18.762V9.19935ZM16.5626 25V6.99997H22.1876V25H16.5626ZM26.7382 15.387H25.512V16.6133H26.7382V15.387ZM23.3126 13.1876V18.8126H28.9376V13.1876H23.3126ZM5.26188 21.5743H6.48813V22.8006H5.26188V21.5743ZM3.0625 25V19.375H8.68751V25H3.0625Z" fill="#03CEA4"/>
</svg>
