<svg width="32" height="32" viewBox="0 0 32 32" fill="none" xmlns="http://www.w3.org/2000/svg">
<path fill-rule="evenodd" clip-rule="evenodd" d="M2.66675 4H22.6667V9.33337H29.3335V29.3334H9.3335V24H2.66675V4ZM20.0001 12H20.5716V12H26.6668V26.6667H12.0002V21.3334H11.4287V21.3333H5.33341V6.66667H20.0001V12ZM10.8333 9.33337H8V12.1667H10.6667H10.8333V12V9.33337ZM16.8333 9.33337H13.8333V12H16.8333V9.33337ZM8 15.1667V18.1667H10.6667V15.1667H8ZM22.6667 18.1667V15.1667H20V18.1667H22.6667ZM22.6667 24V21.1667H20H19.8333V21.3334V24H22.6667ZM13.8333 24H16.8333V21.3334H13.8333V24Z" fill="#03CEA4"/>
</svg>
