<svg width="32" height="32" viewBox="0 0 32 32" fill="none" xmlns="http://www.w3.org/2000/svg">
<path d="M17.3334 8.00008V19.3334H14.6667V8.00008H17.3334Z" fill="#03CEA4"/>
<path d="M17.3334 24.0001V21.3334H14.6667V24.0001H17.3334Z" fill="#03CEA4"/>
<path fill-rule="evenodd" clip-rule="evenodd" d="M2.66675 16.0001C2.66675 8.63629 8.63629 2.66675 16.0001 2.66675C23.3639 2.66675 29.3334 8.63629 29.3334 16.0001C29.3334 23.3639 23.3639 29.3334 16.0001 29.3334C8.63629 29.3334 2.66675 23.3639 2.66675 16.0001ZM16.0001 5.33341C10.109 5.33341 5.33341 10.109 5.33341 16.0001C5.33341 21.8911 10.109 26.6667 16.0001 26.6667C21.8911 26.6667 26.6667 21.8911 26.6667 16.0001C26.6667 10.109 21.8911 5.33341 16.0001 5.33341Z" fill="#03CEA4"/>
</svg>
