<svg width="32" height="32" viewBox="0 0 32 32" fill="none" xmlns="http://www.w3.org/2000/svg">
<path fill-rule="evenodd" clip-rule="evenodd" d="M6.5651 8.98021C5.7755 10.0111 5.33366 11.4646 5.33366 13.0222C5.33366 14.5853 5.94853 16.1812 6.98732 17.7513C8.02362 19.3177 9.42986 20.7787 10.8776 22.0437C12.3202 23.3041 13.7692 24.3397 14.8607 25.0612C15.3131 25.3603 15.7018 25.604 16.0003 25.7859C16.2988 25.604 16.6876 25.3603 17.14 25.0612C18.2314 24.3397 19.6804 23.3041 21.1231 22.0437C22.5708 20.7787 23.977 19.3177 25.0133 17.7513C26.0521 16.1812 26.667 14.5853 26.667 13.0222C26.667 11.4623 26.2281 10.009 25.441 8.97915C24.6828 7.98715 23.568 7.33335 22.0003 7.33335C20.396 7.33335 19.1876 7.9962 18.3539 8.69098C17.9362 9.03903 17.6228 9.38761 17.4165 9.64545C17.3139 9.77365 17.2396 9.87727 17.1937 9.94416C17.1708 9.97754 17.1552 10.0016 17.1468 10.0147C17.1438 10.0193 17.1417 10.0226 17.1406 10.0244L16.0051 11.917L14.8625 10.0285C14.8614 10.0267 14.8592 10.0233 14.8561 10.0185C14.8476 10.0053 14.8318 9.98113 14.8086 9.94762C14.7623 9.88047 14.6873 9.77657 14.5839 9.64809C14.3761 9.38966 14.0607 9.04046 13.6415 8.69186C12.8041 7.9954 11.5954 7.33335 10.0003 7.33335C8.44233 7.33335 7.32649 7.98613 6.5651 8.98021ZM16.0003 27.3334C15.3534 28.4993 15.3531 28.4991 15.3528 28.4989L15.349 28.4968C15.3468 28.4956 15.3439 28.4939 15.3403 28.4919C15.333 28.4878 15.3228 28.4821 15.3099 28.4748C15.2841 28.4602 15.2472 28.4393 15.2 28.412C15.1056 28.3576 14.9697 28.2783 14.7984 28.1755C14.4559 27.9698 13.9706 27.6695 13.39 27.2857C12.2314 26.5198 10.6804 25.4125 9.12305 24.0518C7.57079 22.6956 5.97703 21.0572 4.76333 19.2227C3.55212 17.392 2.66699 15.2857 2.66699 13.0222C2.66699 11.0021 3.23349 8.94447 4.44805 7.35872C5.69083 5.73614 7.57499 4.66669 10.0003 4.66669C12.3886 4.66669 14.1799 5.67131 15.3466 6.64152C15.5887 6.84285 15.8058 7.04408 15.998 7.23683C16.1893 7.04432 16.4055 6.8434 16.6467 6.64239C17.813 5.67051 19.6047 4.66669 22.0003 4.66669C24.4327 4.66669 26.3179 5.73511 27.5597 7.35978C28.7726 8.94665 29.3337 11.0045 29.3337 13.0222C29.3337 15.2857 28.4485 17.392 27.2373 19.2227C26.0236 21.0572 24.4299 22.6956 22.8776 24.0518C21.3202 25.4125 19.7692 26.5198 18.6107 27.2857C18.0301 27.6695 17.5448 27.9698 17.2023 28.1755C17.0309 28.2783 16.8951 28.3576 16.8007 28.412C16.7534 28.4393 16.7166 28.4602 16.6907 28.4748C16.6846 28.4783 16.6792 28.4814 16.6743 28.4841C16.6689 28.4871 16.6642 28.4897 16.6604 28.4919C16.6568 28.4939 16.6538 28.4956 16.6516 28.4968L16.6479 28.4989C16.6475 28.4991 16.6472 28.4993 16.0003 27.3334ZM16.0003 27.3334L16.6472 28.4993L16.0003 28.8582L15.3534 28.4993L16.0003 27.3334Z" fill="#03CEA4"/>
</svg>
