<svg width="32" height="32" viewBox="0 0 32 32" fill="none" xmlns="http://www.w3.org/2000/svg">
<path fill-rule="evenodd" clip-rule="evenodd" d="M16.0006 2.66553C8.63677 2.66553 2.66724 8.63506 2.66724 15.9989C2.66724 23.3627 8.63677 29.3322 16.0006 29.3322C23.3644 29.3322 29.3339 23.3627 29.3339 15.9989C29.3339 8.63506 23.3644 2.66553 16.0006 2.66553ZM6.16634 11.8607C5.63024 13.1331 5.3339 14.5314 5.3339 15.9989C5.3339 16.9197 5.45058 17.8132 5.66995 18.6655H12.2281C12.2783 18.5235 12.3364 18.3851 12.4017 18.2509C12.4149 18.2238 12.4284 18.1968 12.4422 18.17C12.9059 17.2695 13.7015 16.5678 14.6672 16.2265H14.6682C15.0849 16.0793 15.5333 15.9993 16.0004 15.9993C16.4674 15.9993 16.9158 16.0793 17.3325 16.2265H17.3339C17.3627 16.2366 17.3913 16.2471 17.4197 16.2579L22.3156 10.4719L24.3513 12.1944L19.455 17.9809C19.5815 18.197 19.6883 18.426 19.773 18.6655H26.3312C26.5355 17.8719 26.6507 17.0425 26.6656 16.1887C26.6667 16.1272 26.6673 16.0639 26.6673 15.9989C26.6673 13.5266 25.8262 11.2507 24.4144 9.44183C23.8777 8.75412 23.2586 8.13391 22.5718 7.59608C21.0906 6.43609 19.2949 5.65925 17.3339 5.41472V5.41479C16.8971 5.36033 16.4522 5.33228 16.0007 5.33228C15.5491 5.33228 15.1041 5.36034 14.6672 5.41481V5.41472C11.7486 5.77867 9.19608 7.32181 7.50158 9.55236L7.50168 9.55241C6.9655 10.2582 6.51522 11.0328 6.16643 11.8607L6.16634 11.8607ZM19.6275 21.6879C19.5961 21.7552 19.5629 21.8214 19.528 21.8866C18.8538 23.1441 17.527 23.9993 16.0004 23.9993C14.2586 23.9993 12.7768 22.886 12.2278 21.3322H6.76091C8.60523 24.5205 12.0524 26.6655 16.0006 26.6655C19.9487 26.6655 23.3959 24.5205 25.2402 21.3322H19.773C19.7301 21.4536 19.6815 21.5723 19.6275 21.6879ZM17.197 20.588C17.2845 20.4105 17.3337 20.2106 17.3337 19.9993C17.3337 19.2629 16.7367 18.6659 16.0004 18.6659C15.4916 18.6659 15.0494 18.9509 14.8246 19.3699C14.8156 19.3866 14.807 19.4036 14.7987 19.4208C14.7145 19.5957 14.6672 19.7918 14.6672 19.9989C14.6672 20.7352 15.2642 21.3322 16.0006 21.3322C16.5254 21.3322 16.9795 21.0289 17.197 20.588ZM15.7172 7.99976C17.3418 7.99976 18.8545 8.47849 20.1221 9.30258L18.3457 11.4343C17.2574 10.7244 15.9575 10.3118 14.5612 10.3118C10.9175 10.3118 7.9301 13.1213 7.64705 16.6922C7.63252 16.494 7.62512 16.2938 7.62512 16.0918C7.62512 11.6227 11.2481 7.99976 15.7172 7.99976Z" fill="#03CEA4"/>
</svg>
