<svg width="32" height="32" viewBox="0 0 32 32" fill="none" xmlns="http://www.w3.org/2000/svg">
<path fill-rule="evenodd" clip-rule="evenodd" d="M26.6668 5.99992C26.6668 6.36811 26.3684 6.66659 26.0002 6.66659C25.632 6.66659 25.3335 6.36811 25.3335 5.99992C25.3335 5.63173 25.632 5.33325 26.0002 5.33325C26.3684 5.33325 26.6668 5.63173 26.6668 5.99992ZM29.3335 5.99992C29.3335 7.84087 27.8411 9.33325 26.0002 9.33325C25.9722 9.33325 25.9443 9.33291 25.9165 9.33223L24.7256 11.8841C25.9112 12.8623 26.6669 14.3429 26.6669 15.9999C26.6669 17.657 25.9112 19.1375 24.7256 20.1157L25.9165 22.6676C25.9443 22.6669 25.9722 22.6666 26.0002 22.6666C27.8411 22.6666 29.3335 24.159 29.3335 25.9999C29.3335 27.8409 27.8411 29.3333 26.0002 29.3333C24.1592 29.3333 22.6668 27.8409 22.6668 25.9999C22.6668 25.1546 22.9815 24.3828 23.5 23.7952L22.3095 21.2442C21.9931 21.3027 21.6669 21.3333 21.3335 21.3333C19.926 21.3333 18.6458 20.788 17.6927 19.8972L10.5651 24.4329C10.6317 24.7223 10.6668 25.0236 10.6668 25.3332C10.6668 27.5424 8.87597 29.3332 6.66683 29.3332C4.45769 29.3332 2.66683 27.5424 2.66683 25.3332C2.66683 23.1241 4.45769 21.3332 6.66683 21.3332C7.59719 21.3332 8.45336 21.6508 9.13282 22.1836L16.2598 17.6482C16.2261 17.5446 16.1956 17.4396 16.1682 17.3333H10.3895C9.87514 18.5105 8.70042 19.3333 7.33354 19.3333C5.49259 19.3333 4.0002 17.8409 4.0002 15.9999C4.0002 14.159 5.49259 12.6666 7.33354 12.6666C8.70042 12.6666 9.87514 13.4893 10.3895 14.6666H16.1682C16.1956 14.5602 16.2262 14.4552 16.2598 14.3515L9.13289 9.81616C8.4534 10.349 7.59717 10.6666 6.66675 10.6666C4.45761 10.6666 2.66675 8.87577 2.66675 6.66663C2.66675 4.45749 4.45761 2.66663 6.66675 2.66663C8.87589 2.66663 10.6667 4.45749 10.6667 6.66663C10.6667 6.97613 10.6316 7.27742 10.5651 7.56673L17.6928 12.1025C18.6459 11.2118 19.9261 10.6666 21.3335 10.6666C21.6669 10.6666 21.9931 10.6972 22.3095 10.7557L23.5 8.20461C22.9815 7.61702 22.6668 6.84521 22.6668 5.99992C22.6668 4.15897 24.1592 2.66659 26.0002 2.66659C27.8411 2.66659 29.3335 4.15897 29.3335 5.99992ZM8.00008 6.66663C8.00008 7.40301 7.40313 7.99996 6.66675 7.99996C5.93037 7.99996 5.33341 7.40301 5.33341 6.66663C5.33341 5.93025 5.93037 5.3333 6.66675 5.3333C7.40313 5.3333 8.00008 5.93025 8.00008 6.66663ZM21.3335 18.6666C22.8063 18.6666 24.0002 17.4727 24.0002 15.9999C24.0002 14.5272 22.8063 13.3333 21.3335 13.3333C19.8608 13.3333 18.6669 14.5272 18.6669 15.9999C18.6669 17.4727 19.8608 18.6666 21.3335 18.6666ZM6.66683 26.6665C7.40321 26.6665 8.00016 26.0696 8.00016 25.3332C8.00016 24.5968 7.40321 23.9999 6.66683 23.9999C5.93045 23.9999 5.3335 24.5968 5.3335 25.3332C5.3335 26.0696 5.93045 26.6665 6.66683 26.6665ZM7.33354 16.6666C7.70173 16.6666 8.0002 16.3681 8.0002 15.9999C8.0002 15.6317 7.70173 15.3333 7.33354 15.3333C6.96535 15.3333 6.66687 15.6317 6.66687 15.9999C6.66687 16.3681 6.96535 16.6666 7.33354 16.6666ZM26.0002 26.6666C26.3684 26.6666 26.6668 26.3681 26.6668 25.9999C26.6668 25.6317 26.3684 25.3333 26.0002 25.3333C25.632 25.3333 25.3335 25.6317 25.3335 25.9999C25.3335 26.3681 25.632 26.6666 26.0002 26.6666Z" fill="#03CEA4"/>
</svg>
