<svg width="28" height="28" viewBox="0 0 28 28" fill="none" xmlns="http://www.w3.org/2000/svg">
<path d="M5.33333 10.6667H18.6667V13.3333H5.33333V10.6667Z" fill="#03CEA4"/>
<path fill-rule="evenodd" clip-rule="evenodd" d="M0 12C0 5.37258 5.37258 0 12 0C18.6274 0 24 5.37258 24 12C24 14.8334 23.018 17.4374 21.3759 19.4902L27.219 25.3333L25.3333 27.219L19.4902 21.3759C17.4374 23.018 14.8334 24 12 24C5.37258 24 0 18.6274 0 12ZM12 2.66667C6.84534 2.66667 2.66667 6.84534 2.66667 12C2.66667 17.1547 6.84534 21.3333 12 21.3333C17.1547 21.3333 21.3333 17.1547 21.3333 12C21.3333 6.84534 17.1547 2.66667 12 2.66667Z" fill="#03CEA4"/>
</svg>
