<svg width="32" height="32" viewBox="0 0 32 32" fill="none" xmlns="http://www.w3.org/2000/svg">
<path fill-rule="evenodd" clip-rule="evenodd" d="M19.9998 9.33329C17.7801 9.33329 15.8135 10.4168 14.5996 12.0897L13.9494 12.9859L12.949 12.5113C12.2587 12.1838 11.4859 12 10.6665 12C7.72099 12 5.33317 14.3878 5.33317 17.3333C5.33317 20.2788 7.72099 22.6666 10.6665 22.6666C12.0263 22.6666 13.2645 22.1595 14.2071 21.3219L15.036 20.5855L15.9113 21.2662C17.0404 22.1444 18.4573 22.6666 19.9998 22.6666C23.6817 22.6666 26.6665 19.6819 26.6665 16C26.6665 12.3181 23.6817 9.33329 19.9998 9.33329ZM13.103 9.71148C14.8085 7.84228 17.2669 6.66663 19.9998 6.66663C25.1545 6.66663 29.3332 10.8453 29.3332 16C29.3332 21.1546 25.1545 25.3333 19.9998 25.3333C18.2199 25.3333 16.554 24.8339 15.1376 23.968C13.8612 24.8295 12.3216 25.3333 10.6665 25.3333C6.24823 25.3333 2.6665 21.7516 2.6665 17.3333C2.6665 12.915 6.24823 9.33329 10.6665 9.33329C11.5147 9.33329 12.3338 9.46573 13.103 9.71148Z" fill="#03CEA4"/>
</svg>
