<svg width="32" height="32" viewBox="0 0 32 32" fill="none" xmlns="http://www.w3.org/2000/svg">
<path fill-rule="evenodd" clip-rule="evenodd" d="M16.0002 2.66675C12.6865 2.66675 10.0002 5.35304 10.0002 8.66675C10.0002 11.9805 12.6865 14.6667 16.0002 14.6667C19.3139 14.6667 22.0002 11.9805 22.0002 8.66675C22.0002 5.35304 19.3139 2.66675 16.0002 2.66675ZM12.6668 8.66675C12.6668 6.8258 14.1592 5.33341 16.0002 5.33341C17.8411 5.33341 19.3335 6.8258 19.3335 8.66675C19.3335 10.5077 17.8411 12.0001 16.0002 12.0001C14.1592 12.0001 12.6668 10.5077 12.6668 8.66675Z" fill="#03CEA4"/>
<path fill-rule="evenodd" clip-rule="evenodd" d="M16.0002 16.6667C10.1091 16.6667 5.3335 21.4424 5.3335 27.3334V29.3334H26.6668V27.3334C26.6668 21.4424 21.8912 16.6667 16.0002 16.6667ZM16.0002 19.3334C20.1939 19.3334 23.634 22.5604 23.9728 26.6667H8.02754C8.36631 22.5604 11.8064 19.3334 16.0002 19.3334Z" fill="#03CEA4"/>
</svg>
