<svg width="32" height="32" viewBox="0 0 32 32" fill="none" xmlns="http://www.w3.org/2000/svg">
<path fill-rule="evenodd" clip-rule="evenodd" d="M8.66667 6.66667C7.5621 6.66667 6.66667 7.5621 6.66667 8.66667C6.66667 9.77124 7.5621 10.6667 8.66667 10.6667C9.77124 10.6667 10.6667 9.77124 10.6667 8.66667C10.6667 7.5621 9.77124 6.66667 8.66667 6.66667ZM4 8.66667C4 6.08934 6.08934 4 8.66667 4C11.244 4 13.3333 6.08934 13.3333 8.66667C13.3333 11.244 11.244 13.3333 8.66667 13.3333C6.08934 13.3333 4 11.244 4 8.66667ZM27.2188 6.66669L6.6665 27.219L4.78088 25.3334L25.3332 4.78107L27.2188 6.66669ZM21.3333 23.3334C21.3333 22.2288 22.2287 21.3334 23.3333 21.3334C24.4379 21.3334 25.3333 22.2288 25.3333 23.3334C25.3333 24.4379 24.4379 25.3334 23.3333 25.3334C22.2287 25.3334 21.3333 24.4379 21.3333 23.3334ZM23.3333 18.6667C20.756 18.6667 18.6666 20.756 18.6666 23.3334C18.6666 25.9107 20.756 28 23.3333 28C25.9106 28 28 25.9107 28 23.3334C28 20.756 25.9106 18.6667 23.3333 18.6667Z" fill="#03CEA4"/>
</svg>
