<svg width="32" height="32" viewBox="0 0 32 32" fill="none" xmlns="http://www.w3.org/2000/svg">
<path fill-rule="evenodd" clip-rule="evenodd" d="M13.7224 8.05681C9.11315 8.05681 5.37659 11.8121 5.37659 16.4444C5.37659 21.0768 9.11315 24.8321 13.7224 24.8321C14.936 24.8321 16.089 24.5718 17.1293 24.1037H17.0613C15.364 24.1037 13.9881 22.7209 13.9881 21.0151V11.9196C13.9881 10.2138 15.364 8.83105 17.0613 8.83105H17.2294C16.1632 8.33415 14.975 8.05681 13.7224 8.05681ZM22.0683 16.4444C22.0683 15.0035 21.7067 13.6475 21.0699 12.4629C20.87 12.111 20.6445 11.7754 20.3957 11.4587H17.0613C16.808 11.4587 16.6027 11.665 16.6027 11.9196V21.0151C16.6027 21.2697 16.808 21.4761 17.0613 21.4761H20.3605C20.6173 21.1539 20.8498 20.8118 21.0555 20.4527C21.7013 19.2618 22.0683 17.8962 22.0683 16.4444ZM2.66667 16.4444C2.66667 10.3079 7.6165 5.33333 13.7224 5.33333C17.8249 5.33333 21.4055 7.57903 23.3135 10.914H26.4607C28.0472 10.914 29.3334 12.2066 29.3334 13.8011V18.6536C29.3334 20.2481 28.0472 21.5407 26.4607 21.5407H23.5493C21.7111 25.1135 18.0005 27.5555 13.7224 27.5555C7.6165 27.5555 2.66667 22.5809 2.66667 16.4444ZM24.4642 19.0844H26.4607C26.6975 19.0844 26.8894 18.8915 26.8894 18.6536V13.8011C26.8894 13.5631 26.6975 13.3702 26.4607 13.3702H24.4297C24.6935 14.2703 24.835 15.2224 24.835 16.2065C24.835 16.8597 24.7727 17.4988 24.6536 18.1179C24.6044 18.445 24.5411 18.7674 24.4642 19.0844Z" fill="#03CEA4"/>
</svg>
