<svg width="32" height="32" viewBox="0 0 32 32" fill="none" xmlns="http://www.w3.org/2000/svg">
<path fill-rule="evenodd" clip-rule="evenodd" d="M2.66748 16.0006C2.66748 8.63677 8.63702 2.66724 16.0008 2.66724C23.3646 2.66724 29.3341 8.63677 29.3341 16.0006C29.3341 23.3644 23.3646 29.3339 16.0008 29.3339C8.63702 29.3339 2.66748 23.3644 2.66748 16.0006ZM23.0758 8.01774C21.193 6.34779 18.7152 5.33374 16.0007 5.33374C10.1096 5.33374 5.33398 10.1094 5.33398 16.0004C5.33398 16.0805 5.33487 16.158 5.33662 16.2328C5.35454 17.0717 5.46931 17.8867 5.67019 18.6672H12.228C12.777 17.1135 14.2587 16.0002 16.0005 16.0002C16.5 16.0002 16.9781 16.0918 17.419 16.2591L22.3158 10.4719L24.3515 12.1944L19.4547 17.9816C19.5814 18.198 19.6884 18.4274 19.7732 18.6672H26.3314C26.5508 17.8149 26.6675 16.9214 26.6675 16.0006C26.6675 14.5331 26.3711 13.1348 25.835 11.8624L25.835 11.8624C25.4862 11.0345 25.0359 10.2599 24.4998 9.5541L24.4998 9.55408C24.3374 9.34034 24.1672 9.1329 23.9895 8.93221C23.7036 8.60933 23.3984 8.3039 23.0758 8.01774ZM6.76116 21.3339H12.2282C12.417 21.868 12.7161 22.35 13.098 22.7526C13.1473 22.8046 13.198 22.8553 13.2501 22.9047C13.967 23.5839 14.9353 24.0006 16.0008 24.0006C17.7424 24.0006 19.2241 22.8875 19.7732 21.3339H25.2405C23.3962 24.5222 19.949 26.6672 16.0008 26.6672C12.0526 26.6672 8.60547 24.5222 6.76116 21.3339ZM16.0008 18.6672C15.2644 18.6672 14.6675 19.2642 14.6675 20.0006C14.6675 20.3687 14.8166 20.7019 15.0578 20.9432C15.2991 21.1844 15.6324 21.3336 16.0005 21.3336C16.7369 21.3336 17.3338 20.7366 17.3338 20.0002C17.3338 19.6321 17.1846 19.2989 16.9435 19.0576C16.7022 18.8164 16.3689 18.6672 16.0008 18.6672Z" fill="#03CEA4"/>
</svg>
