<svg width="32" height="32" viewBox="0 0 32 32" fill="none" xmlns="http://www.w3.org/2000/svg">
<path fill-rule="evenodd" clip-rule="evenodd" d="M16.0001 11.3334C13.4228 11.3334 11.3334 13.4228 11.3334 16.0001C11.3334 18.5774 13.4228 20.6668 16.0001 20.6668C18.5774 20.6668 20.6668 18.5774 20.6668 16.0001C20.6668 13.4228 18.5774 11.3334 16.0001 11.3334ZM14.0001 16.0001C14.0001 14.8955 14.8955 14.0001 16.0001 14.0001C17.1047 14.0001 18.0001 14.8955 18.0001 16.0001C18.0001 17.1047 17.1047 18.0001 16.0001 18.0001C14.8955 18.0001 14.0001 17.1047 14.0001 16.0001Z" fill="#03CEA4"/>
<path fill-rule="evenodd" clip-rule="evenodd" d="M20.0671 6.1815L16.0001 2.1145L11.9331 6.1815H6.1815V11.9331L2.1145 16.0001L6.1815 20.0671V25.8187H11.9331L16.0001 29.8857L20.0671 25.8187H25.8187V20.0671L29.8857 16.0001L25.8187 11.9331V6.1815H20.0671ZM13.0377 8.84817L16.0001 5.88574L18.9626 8.84817H23.1521V13.0377L26.1145 16.0001L23.1521 18.9626V23.1521H18.9626L16.0001 26.1145L13.0377 23.1521H8.84817V18.9626L5.88574 16.0001L8.84817 13.0377V8.84817H13.0377Z" fill="#03CEA4"/>
</svg>
