<svg width="32" height="32" viewBox="0 0 32 32" fill="none" xmlns="http://www.w3.org/2000/svg">
<path d="M16.0001 21.3332C13.9733 21.3332 12.2084 20.2031 11.3049 18.5323L8.95923 19.8007C10.3099 22.2984 12.9553 23.9998 16.0001 23.9998C19.0449 23.9998 21.6902 22.2984 23.0409 19.8007L20.6953 18.5323C19.7918 20.2031 18.0269 21.3332 16.0001 21.3332Z" fill="#03CEA4"/>
<path d="M10.6667 12.9998C10.6667 12.0794 11.4129 11.3332 12.3334 11.3332C13.2539 11.3332 14.0001 12.0794 14.0001 12.9998C14.0001 13.9203 13.2539 14.6665 12.3334 14.6665C11.4129 14.6665 10.6667 13.9203 10.6667 12.9998Z" fill="#03CEA4"/>
<path d="M19.6667 11.3332C18.7463 11.3332 18.0001 12.0794 18.0001 12.9998C18.0001 13.9203 18.7463 14.6665 19.6667 14.6665C20.5872 14.6665 21.3334 13.9203 21.3334 12.9998C21.3334 12.0794 20.5872 11.3332 19.6667 11.3332Z" fill="#03CEA4"/>
<path fill-rule="evenodd" clip-rule="evenodd" d="M16.0001 2.6665C8.63629 2.6665 2.66675 8.63604 2.66675 15.9998C2.66675 23.3636 8.63629 29.3332 16.0001 29.3332C23.3639 29.3332 29.3334 23.3636 29.3334 15.9998C29.3334 8.63604 23.3639 2.6665 16.0001 2.6665ZM5.33341 15.9998C5.33341 10.1088 10.109 5.33317 16.0001 5.33317C21.8911 5.33317 26.6667 10.1088 26.6667 15.9998C26.6667 21.8909 21.8911 26.6665 16.0001 26.6665C10.109 26.6665 5.33341 21.8909 5.33341 15.9998Z" fill="#03CEA4"/>
</svg>
