<svg width="32" height="32" viewBox="0 0 32 32" fill="none" xmlns="http://www.w3.org/2000/svg">
<path d="M17.3337 7.99984V19.3332H14.667V7.99984H17.3337Z" fill="#03CEA4"/>
<path d="M17.3337 23.9998V21.3332H14.667V23.9998H17.3337Z" fill="#03CEA4"/>
<path fill-rule="evenodd" clip-rule="evenodd" d="M2.66699 15.9998C2.66699 8.63604 8.63653 2.6665 16.0003 2.6665C23.3641 2.6665 29.3337 8.63604 29.3337 15.9998C29.3337 23.3636 23.3641 29.3332 16.0003 29.3332C8.63653 29.3332 2.66699 23.3636 2.66699 15.9998ZM16.0003 5.33317C10.1093 5.33317 5.33366 10.1088 5.33366 15.9998C5.33366 21.8909 10.1093 26.6665 16.0003 26.6665C21.8914 26.6665 26.667 21.8909 26.667 15.9998C26.667 10.1088 21.8914 5.33317 16.0003 5.33317Z" fill="#03CEA4"/>
</svg>
