<svg width="32" height="32" viewBox="0 0 32 32" fill="none" xmlns="http://www.w3.org/2000/svg">
<path fill-rule="evenodd" clip-rule="evenodd" d="M15.9998 2.73399C16.8468 1.86962 18.0274 1.33331 19.3332 1.33331C21.9105 1.33331 23.9998 3.42265 23.9998 5.99998C23.9998 6.71571 23.8387 7.39381 23.5508 7.99998H29.3332V18.6666H27.9998V29.3333H3.99984V18.6666H2.6665V7.99998H8.44893C8.16096 7.39381 7.99984 6.71571 7.99984 5.99998C7.99984 3.42265 10.0892 1.33331 12.6665 1.33331C13.9723 1.33331 15.1528 1.86962 15.9998 2.73399ZM14.6665 5.99998C14.6665 4.89541 13.7711 3.99998 12.6665 3.99998C11.5619 3.99998 10.6665 4.89541 10.6665 5.99998C10.6665 7.10455 11.5619 7.99998 12.6665 7.99998C13.7711 7.99998 14.6665 7.10455 14.6665 5.99998ZM5.33317 10.6666V16H14.6665V10.6666H5.33317ZM21.3332 5.99998C21.3332 7.10455 20.4377 7.99998 19.3332 7.99998C18.2286 7.99998 17.3332 7.10455 17.3332 5.99998C17.3332 4.89541 18.2286 3.99998 19.3332 3.99998C20.4377 3.99998 21.3332 4.89541 21.3332 5.99998ZM17.3332 10.6666H26.6665V16H17.3332V10.6666ZM17.3332 18.6666V26.6666H25.3332V18.6666H17.3332ZM14.6665 18.6666H6.6665V26.6666H14.6665V18.6666Z" fill="#03CEA4"/>
</svg>
