<svg width="32" height="32" viewBox="0 0 32 32" fill="none" xmlns="http://www.w3.org/2000/svg">
<path d="M15.9998 21.3334C13.973 21.3334 12.2082 20.2032 11.3046 18.5324L8.95898 19.8009C10.3097 22.2986 12.9551 24 15.9998 24C19.0446 24 21.69 22.2986 23.0407 19.8009L20.695 18.5324C19.7915 20.2032 18.0267 21.3334 15.9998 21.3334Z" fill="#03CEA4"/>
<path d="M10.6665 13C10.6665 12.0795 11.4127 11.3334 12.3332 11.3334C13.2536 11.3334 13.9998 12.0795 13.9998 13C13.9998 13.9205 13.2536 14.6667 12.3332 14.6667C11.4127 14.6667 10.6665 13.9205 10.6665 13Z" fill="#03CEA4"/>
<path d="M19.6665 11.3334C18.746 11.3334 17.9998 12.0795 17.9998 13C17.9998 13.9205 18.746 14.6667 19.6665 14.6667C20.587 14.6667 21.3332 13.9205 21.3332 13C21.3332 12.0795 20.587 11.3334 19.6665 11.3334Z" fill="#03CEA4"/>
<path fill-rule="evenodd" clip-rule="evenodd" d="M15.9998 2.66669C8.63604 2.66669 2.6665 8.63622 2.6665 16C2.6665 23.3638 8.63604 29.3334 15.9998 29.3334C23.3636 29.3334 29.3332 23.3638 29.3332 16C29.3332 8.63622 23.3636 2.66669 15.9998 2.66669ZM5.33317 16C5.33317 10.109 10.1088 5.33335 15.9998 5.33335C21.8909 5.33335 26.6665 10.109 26.6665 16C26.6665 21.8911 21.8909 26.6667 15.9998 26.6667C10.1088 26.6667 5.33317 21.8911 5.33317 16Z" fill="#03CEA4"/>
</svg>
