<svg width="32" height="32" viewBox="0 0 32 32" fill="none" xmlns="http://www.w3.org/2000/svg">
<path fill-rule="evenodd" clip-rule="evenodd" d="M4 20V22.4628L12 23.7962V29.3333H28V24V21.3333V10.6667H20V6.66666C20 4.45752 18.2091 2.66666 16 2.66666H12V14.6667H9.33333C6.38781 14.6667 4 17.0545 4 20ZM25.3333 21.3333V13.3333H17.3333V6.66666C17.3333 5.93028 16.7364 5.33332 16 5.33332H14.6667V17.3333H9.33333C7.86057 17.3333 6.66667 18.5272 6.66667 20V20.2038L13.4436 21.3333L25.3333 21.3333ZM25.3333 24H14.6667V26.6667H25.3333V24Z" fill="#03CEA4"/>
</svg>
