<svg width="32" height="32" viewBox="0 0 32 32" fill="none" xmlns="http://www.w3.org/2000/svg">
<path fill-rule="evenodd" clip-rule="evenodd" d="M20.0001 9.33335C17.7803 9.33335 15.8137 10.4169 14.5999 12.0898L13.9496 12.986L12.9492 12.5114C12.2589 12.1839 11.4862 12 10.6667 12C7.72123 12 5.33341 14.3878 5.33341 17.3334C5.33341 20.2789 7.72123 22.6667 10.6667 22.6667C12.0266 22.6667 13.2647 22.1595 14.2074 21.322L15.0363 20.5855L15.9115 21.2662C17.0407 22.1444 18.4575 22.6667 20.0001 22.6667C23.682 22.6667 26.6667 19.6819 26.6667 16C26.6667 12.3181 23.682 9.33335 20.0001 9.33335ZM13.1033 9.71154C14.8087 7.84234 17.2671 6.66669 20.0001 6.66669C25.1547 6.66669 29.3334 10.8454 29.3334 16C29.3334 21.1547 25.1547 25.3334 20.0001 25.3334C18.2201 25.3334 16.5542 24.834 15.1378 23.9681C13.8614 24.8296 12.3219 25.3334 10.6667 25.3334C6.24847 25.3334 2.66675 21.7516 2.66675 17.3334C2.66675 12.9151 6.24847 9.33335 10.6667 9.33335C11.5149 9.33335 12.334 9.46579 13.1033 9.71154Z" fill="#03CEA4"/>
</svg>
