<svg width="32" height="32" viewBox="0 0 32 32" fill="none" xmlns="http://www.w3.org/2000/svg">
<path d="M9.86864 4.20685L4.45909 8.54086L2.79175 6.45974L8.20129 2.12573L9.86864 4.20685Z" fill="#03CEA4"/>
<path d="M17.3326 16H22.666V18.6666H14.666L14.666 10.6666H17.3326L17.3326 16Z" fill="#03CEA4"/>
<path fill-rule="evenodd" clip-rule="evenodd" d="M3.99932 17.3333C3.99932 10.7059 9.3719 5.33328 15.9993 5.33328C22.6267 5.33328 27.9993 10.7059 27.9993 17.3333C27.9993 23.9607 22.6267 29.3333 15.9993 29.3333C9.3719 29.3333 3.99932 23.9607 3.99932 17.3333ZM15.9993 7.99995C10.8447 7.99995 6.66598 12.1786 6.66598 17.3333C6.66598 22.4879 10.8447 26.6666 15.9993 26.6666C21.154 26.6666 25.3326 22.4879 25.3326 17.3333C25.3326 12.1786 21.154 7.99995 15.9993 7.99995Z" fill="#03CEA4"/>
<path d="M27.5346 8.54086L22.1251 4.20685L23.7924 2.12573L29.202 6.45974L27.5346 8.54086Z" fill="#03CEA4"/>
</svg>
