<svg width="32" height="32" viewBox="0 0 32 32" fill="none" xmlns="http://www.w3.org/2000/svg">
<path fill-rule="evenodd" clip-rule="evenodd" d="M18.555 10.7779C14.5575 11.3993 11.3993 14.5575 10.7779 18.555C7.67973 17.981 5.33341 15.2645 5.33341 12.0001C5.33341 8.31818 8.31818 5.33341 12.0001 5.33341C15.2645 5.33341 17.981 7.67973 18.555 10.7779ZM2.66675 12.0001C2.66675 16.7308 6.18631 20.6394 10.7498 21.2504C11.3607 25.8139 15.2694 29.3334 20.0001 29.3334C25.1547 29.3334 29.3334 25.1547 29.3334 20.0001C29.3334 15.2694 25.8139 11.3607 21.2504 10.7498C20.6394 6.18631 16.7308 2.66675 12.0001 2.66675C6.84542 2.66675 2.66675 6.84542 2.66675 12.0001ZM13.4452 21.2223C14.0193 24.3205 16.7357 26.6667 20.0001 26.6667C23.682 26.6667 26.6667 23.682 26.6667 20.0001C26.6667 16.7357 24.3205 14.0193 21.2223 13.4452C20.601 17.4428 17.4428 20.601 13.4452 21.2223Z" fill="#03CEA4"/>
</svg>
