<svg width="32" height="32" viewBox="0 0 32 32" fill="none" xmlns="http://www.w3.org/2000/svg">
<path d="M14.4828 20.5497L22.3522 12.7028L20.4693 10.8145L14.4828 16.7839L11.5306 13.84L9.64764 15.7283L14.4828 20.5497Z" fill="#03CEA4"/>
<path fill-rule="evenodd" clip-rule="evenodd" d="M20.8482 4.62738L15.9999 2.54956L11.1517 4.62738L5.33325 3.79617V15.8666C5.33325 20.5495 7.85188 24.8705 11.9266 27.1783L16.0892 29.5359L20.1601 27.1887C24.1859 24.8674 26.6666 20.5737 26.6666 15.9266V3.79617L20.8482 4.62738ZM11.5148 7.37299L15.9999 5.45081L20.485 7.37299L23.9999 6.87086V15.9266C23.9999 19.6205 22.0281 23.0334 18.8281 24.8785L16.0773 26.4645L13.2408 24.858C10.0019 23.0235 7.99992 19.5889 7.99992 15.8666V6.87086L11.5148 7.37299Z" fill="#03CEA4"/>
</svg>
