<svg width="32" height="32" viewBox="0 0 32 32" fill="none" xmlns="http://www.w3.org/2000/svg">
<path d="M14.4828 20.5496L22.3522 12.7027L20.4693 10.8144L14.4828 16.7837L11.5306 13.8398L9.64764 15.7282L14.4828 20.5496Z" fill="#03CEA4"/>
<path fill-rule="evenodd" clip-rule="evenodd" d="M20.8482 4.62719L15.9999 2.54938L11.1517 4.62719L5.33325 3.79599V15.8664C5.33325 20.5493 7.85188 24.8703 11.9266 27.1781L16.0892 29.5357L20.16 27.1885C24.1859 24.8673 26.6666 20.5735 26.6666 15.9264V3.79599L20.8482 4.62719ZM11.5148 7.37281L15.9999 5.45062L20.485 7.37281L23.9999 6.87068V15.9264C23.9999 19.6203 22.0281 23.0332 18.8281 24.8783L16.0773 26.4643L13.2408 24.8578C10.0019 23.0234 7.99992 19.5887 7.99992 15.8664V6.87068L11.5148 7.37281Z" fill="#03CEA4"/>
</svg>
