<svg width="32" height="32" viewBox="0 0 32 32" fill="none" xmlns="http://www.w3.org/2000/svg">
<path fill-rule="evenodd" clip-rule="evenodd" d="M26.4 6.25C26.4 6.60898 26.109 6.9 25.75 6.9C25.391 6.9 25.1 6.60898 25.1 6.25C25.1 5.89101 25.391 5.6 25.75 5.6C26.109 5.6 26.4 5.89101 26.4 6.25ZM29 6.25C29 8.04493 27.5449 9.5 25.75 9.5C25.7228 9.5 25.6956 9.49967 25.6686 9.499L24.5074 11.9872C25.6633 12.9409 26.4 14.3844 26.4 16C26.4 17.6157 25.6632 19.0592 24.5072 20.013L25.6683 22.501C25.6954 22.5003 25.7227 22.5 25.75 22.5C27.5449 22.5 29 23.9551 29 25.75C29 27.5449 27.5449 29 25.75 29C23.9551 29 22.5 27.5449 22.5 25.75C22.5 24.9259 22.8067 24.1734 23.3122 23.6006L22.1514 21.1131C21.843 21.1702 21.525 21.2 21.2 21.2C19.8276 21.2 18.5794 20.6684 17.6501 19.7998L10.7008 24.2221C10.7657 24.5042 10.8 24.7981 10.8 25.1C10.8 27.2539 9.05391 29 6.9 29C4.74609 29 3 27.2539 3 25.1C3 22.9461 4.74609 21.2 6.9 21.2C7.80705 21.2 8.64178 21.5096 9.30424 22.029L16.2531 17.607C16.2203 17.506 16.1905 17.4036 16.1638 17.3H10.5295C10.028 18.4478 8.88261 19.25 7.54991 19.25C5.75498 19.25 4.29991 17.7949 4.29991 16C4.29991 14.2051 5.75498 12.75 7.54991 12.75C8.88262 12.75 10.028 13.5522 10.5295 14.7H16.1638C16.1905 14.5964 16.2203 14.494 16.2531 14.393L9.30428 9.97101C8.64181 10.4904 7.80707 10.8001 6.9 10.8001C4.74609 10.8001 3 9.05397 3 6.90006C3 4.74615 4.74609 3.00006 6.9 3.00006C9.05391 3.00006 10.8 4.74615 10.8 6.90006C10.8 7.20191 10.7657 7.49576 10.7008 7.77791L17.6501 12.2002C18.5794 11.3316 19.8276 10.8 21.2 10.8C21.5251 10.8 21.8432 10.8298 22.1517 10.8869L23.3124 8.39964C22.8068 7.82673 22.5 7.0742 22.5 6.25C22.5 4.45507 23.9551 3 25.75 3C27.5449 3 29 4.45507 29 6.25ZM8.2 6.90006C8.2 7.61803 7.61797 8.20006 6.9 8.20006C6.18203 8.20006 5.6 7.61803 5.6 6.90006C5.6 6.18209 6.18203 5.60006 6.9 5.60006C7.61797 5.60006 8.2 6.18209 8.2 6.90006ZM21.2 18.6C22.6359 18.6 23.8 17.4359 23.8 16C23.8 14.5641 22.6359 13.4 21.2 13.4C19.7641 13.4 18.6 14.5641 18.6 16C18.6 17.4359 19.7641 18.6 21.2 18.6ZM6.9 26.4C7.61797 26.4 8.2 25.8179 8.2 25.1C8.2 24.382 7.61797 23.8 6.9 23.8C6.18203 23.8 5.6 24.382 5.6 25.1C5.6 25.8179 6.18203 26.4 6.9 26.4ZM7.54991 16.65C7.90889 16.65 8.19991 16.359 8.19991 16C8.19991 15.641 7.90889 15.35 7.54991 15.35C7.19092 15.35 6.89991 15.641 6.89991 16C6.89991 16.359 7.19092 16.65 7.54991 16.65ZM25.75 26.4C26.109 26.4 26.4 26.109 26.4 25.75C26.4 25.391 26.109 25.1 25.75 25.1C25.391 25.1 25.1 25.391 25.1 25.75C25.1 26.109 25.391 26.4 25.75 26.4Z" fill="#03CEA4"/>
</svg>
