<svg width="32" height="32" viewBox="0 0 32 32" fill="none" xmlns="http://www.w3.org/2000/svg">
<path fill-rule="evenodd" clip-rule="evenodd" d="M20.3333 10.6667C18.1136 10.6667 16.147 11.7502 14.9331 13.4231L14.2829 14.3193L13.2825 13.8447C12.5922 13.5172 11.8194 13.3333 11 13.3333C8.05448 13.3333 5.66667 15.7211 5.66667 18.6667C5.66667 21.6122 8.05448 24 11 24C12.3598 24 13.598 23.4928 14.5406 22.6553L15.3695 21.9188L16.2448 22.5995C17.3739 23.4777 18.7908 24 20.3333 24C24.0152 24 27 21.0152 27 17.3333C27 13.6514 24.0152 10.6667 20.3333 10.6667ZM13.4365 11.0449C15.142 9.17566 17.6004 8 20.3333 8C25.488 8 29.6667 12.1787 29.6667 17.3333C29.6667 22.488 25.488 26.6667 20.3333 26.6667C18.5533 26.6667 16.8874 26.1673 15.4711 25.3014C14.1947 26.1629 12.6551 26.6667 11 26.6667C6.58172 26.6667 3 23.0849 3 18.6667C3 14.2484 6.58172 10.6667 11 10.6667C11.8482 10.6667 12.6672 10.7991 13.4365 11.0449Z" fill="#03CEA4"/>
</svg>
