<svg width="32" height="32" viewBox="0 0 32 32" fill="none" xmlns="http://www.w3.org/2000/svg">
<path d="M14.1496 21.0002L22.0189 13.1533L20.136 11.265L14.1496 17.2343L11.1973 14.2905L9.31438 16.1788L14.1496 21.0002Z" fill="#03CEA4"/>
<path fill-rule="evenodd" clip-rule="evenodd" d="M20.5149 5.07781L15.6667 3L10.8184 5.07781L5 4.24661V16.317C5 20.9999 7.51863 25.3209 11.5934 27.6288L15.7559 29.9863L19.8268 27.6391C23.8527 25.3179 26.3333 21.0242 26.3333 16.377V4.24661L20.5149 5.07781ZM11.1816 7.82343L15.6667 5.90125L20.1518 7.82343L23.6667 7.3213V16.377C23.6667 20.0709 21.6949 23.4839 18.4948 25.3289L15.7441 26.9149L12.9075 25.3084C9.66865 23.474 7.66667 20.0393 7.66667 16.317V7.3213L11.1816 7.82343Z" fill="#03CEA4"/>
</svg>
