<svg width="12" height="12" viewBox="0 0 12 12" fill="none" xmlns="http://www.w3.org/2000/svg">
<path d="M2.69922 7.64844C2.69922 8.2832 2.14062 8.8418 1.50586 8.8418C0.845703 8.8418 0.3125 8.2832 0.3125 7.64844C0.3125 6.98828 0.845703 6.45508 1.50586 6.45508H2.69922V7.64844ZM3.2832 7.64844C3.2832 6.98828 3.8418 6.45508 4.47656 6.45508C5.13672 6.45508 5.66992 6.98828 5.66992 7.64844V10.6191C5.66992 11.2793 5.13672 11.8125 4.47656 11.8125C3.8418 11.8125 3.2832 11.2793 3.2832 10.6191V7.64844ZM4.47656 2.84961C3.8418 2.84961 3.2832 2.29102 3.2832 1.65625C3.2832 0.996094 3.8418 0.4375 4.47656 0.4375C5.13672 0.4375 5.66992 0.996094 5.66992 1.65625V2.84961H4.47656ZM4.47656 3.43359C5.13672 3.43359 5.66992 3.9668 5.66992 4.62695C5.66992 5.28711 5.13672 5.82031 4.47656 5.82031H1.50586C0.845703 5.82031 0.3125 5.28711 0.3125 4.62695C0.3125 3.9668 0.845703 3.43359 1.50586 3.43359H4.47656ZM9.27539 4.62695C9.27539 3.9668 9.83398 3.43359 10.4688 3.43359C11.1289 3.43359 11.6875 3.9668 11.6875 4.62695C11.6875 5.28711 11.1289 5.82031 10.4688 5.82031H9.27539V4.62695ZM8.69141 4.62695C8.69141 5.28711 8.1582 5.82031 7.49805 5.82031C6.83789 5.82031 6.30469 5.28711 6.30469 4.62695V1.65625C6.30469 0.996094 6.83789 0.4375 7.49805 0.4375C8.1582 0.4375 8.69141 0.996094 8.69141 1.65625V4.62695ZM7.49805 9.42578C8.1582 9.42578 8.69141 9.98438 8.69141 10.6191C8.69141 11.2793 8.1582 11.8125 7.49805 11.8125C6.83789 11.8125 6.30469 11.2793 6.30469 10.6191V9.42578H7.49805ZM7.49805 8.8418C6.83789 8.8418 6.30469 8.2832 6.30469 7.64844C6.30469 6.98828 6.83789 6.45508 7.49805 6.45508H10.4688C11.1289 6.45508 11.6875 6.98828 11.6875 7.64844C11.6875 8.2832 11.1289 8.8418 10.4688 8.8418H7.49805Z" fill="white"/>
</svg>
