<svg width="32" height="33" viewBox="0 0 32 33" fill="none" xmlns="http://www.w3.org/2000/svg">
<path fill-rule="evenodd" clip-rule="evenodd" d="M16 3.55316C12.6863 3.55316 9.99998 6.23945 9.99998 9.55316C9.99998 12.8669 12.6863 15.5532 16 15.5532C19.3137 15.5532 22 12.8669 22 9.55316C22 6.23945 19.3137 3.55316 16 3.55316ZM12.6666 9.55316C12.6666 7.71221 14.159 6.21983 16 6.21983C17.8409 6.21983 19.3333 7.71221 19.3333 9.55316C19.3333 11.3941 17.8409 12.8865 16 12.8865C14.159 12.8865 12.6666 11.3941 12.6666 9.55316Z" fill="#03CEA4"/>
<path fill-rule="evenodd" clip-rule="evenodd" d="M16 17.5532C10.1089 17.5532 5.33331 22.3288 5.33331 28.2198V30.2198H26.6666V28.2198C26.6666 22.3288 21.891 17.5532 16 17.5532ZM16 20.2198C20.1938 20.2198 23.6338 23.4468 23.9726 27.5532H8.02736C8.36613 23.4468 11.8062 20.2198 16 20.2198Z" fill="#03CEA4"/>
</svg>
